<svg id="Laag_1" data-name="Laag 1" xmlns="http://www.w3.org/2000/svg" xmlns:xlink="http://www.w3.org/1999/xlink" viewBox="0 0 809.05 499.41">
  <defs>
    <style>
      .cls-1 {
        fill: #f2dda6;
      }

      .cls-2, .cls-3, .cls-7 {
        fill: none;
      }

      .cls-3, .cls-5 {
        stroke: #503c21;
        stroke-linejoin: round;
      }

      .cls-3, .cls-5, .cls-7 {
        stroke-linecap: round;
      }

      .cls-3 {
        stroke-width: 5px;
      }

      .cls-4 {
        fill: #b4934b;
      }

      .cls-5 {
        stroke-width: 11px;
        fill: url(#Unnamed_Pattern);
      }

      .cls-6 {
        clip-path: url(#clip-path);
      }

      .cls-7 {
        stroke: #bfad94;
        stroke-miterlimit: 10;
        stroke-width: 180px;
      }
    </style>
    <pattern id="Unnamed_Pattern" data-name="Unnamed Pattern" width="412.35" height="528.84" patternUnits="userSpaceOnUse" viewBox="0 0 412.35 528.85">
      <rect class="cls-2" width="412.35" height="528.84"/>
      <line class="cls-3" x1="411.47" y1="521.49" x2="1248.91" y2="1358.93"/>
      <g>
        <line class="cls-3" x1="349.57" y1="166.52" x2="1187.02" y2="1003.96"/>
        <line class="cls-3" x1="334.84" y1="181.25" x2="1172.29" y2="1018.69"/>
        <line class="cls-3" x1="364.31" y1="151.79" x2="1201.75" y2="989.23"/>
        <line class="cls-3" x1="379.04" y1="137.05" x2="1216.48" y2="974.5"/>
        <line class="cls-3" x1="393.77" y1="122.32" x2="1231.21" y2="959.77"/>
        <line class="cls-3" x1="408.5" y1="107.59" x2="1245.94" y2="945.04"/>
        <line class="cls-3" x1="190.57" y1="271.8" x2="1028.01" y2="1109.24"/>
        <line class="cls-3" x1="175.83" y1="286.53" x2="1013.28" y2="1123.97"/>
        <line class="cls-3" x1="205.3" y1="257.07" x2="1042.74" y2="1094.51"/>
        <line class="cls-3" x1="220.03" y1="242.33" x2="1057.47" y2="1079.78"/>
        <line class="cls-3" x1="234.76" y1="227.6" x2="1072.2" y2="1065.05"/>
        <line class="cls-3" x1="249.49" y1="212.87" x2="1086.93" y2="1050.31"/>
        <line class="cls-3" x1="264.22" y1="198.14" x2="1101.67" y2="1035.58"/>
      </g>
      <g>
        <line class="cls-3" x1="143.4" y1="430.94" x2="980.85" y2="1268.38"/>
        <line class="cls-3" x1="128.67" y1="445.67" x2="966.11" y2="1283.11"/>
        <line class="cls-3" x1="158.13" y1="416.21" x2="995.58" y2="1253.65"/>
        <line class="cls-3" x1="172.86" y1="401.48" x2="1010.31" y2="1238.92"/>
        <line class="cls-3" x1="187.6" y1="386.75" x2="1025.04" y2="1224.19"/>
        <line class="cls-3" x1="202.33" y1="372.01" x2="1039.77" y2="1209.46"/>
        <line class="cls-3" x1="217.06" y1="357.28" x2="1054.5" y2="1194.73"/>
        <line class="cls-3" x1="-0.88" y1="521.49" x2="836.57" y2="1358.93"/>
        <line class="cls-3" x1="13.86" y1="506.76" x2="851.3" y2="1344.2"/>
        <line class="cls-3" x1="28.59" y1="492.03" x2="866.03" y2="1329.47"/>
        <line class="cls-3" x1="43.32" y1="477.29" x2="880.76" y2="1314.74"/>
        <line class="cls-3" x1="58.05" y1="462.56" x2="895.49" y2="1300.01"/>
      </g>
      <g>
        <line class="cls-3" x1="-62.77" y1="166.52" x2="774.67" y2="1003.96"/>
        <line class="cls-3" x1="-77.5" y1="181.25" x2="759.94" y2="1018.69"/>
        <line class="cls-3" x1="-48.04" y1="151.79" x2="789.4" y2="989.23"/>
        <line class="cls-3" x1="-33.31" y1="137.05" x2="804.14" y2="974.5"/>
        <line class="cls-3" x1="-18.58" y1="122.32" x2="818.87" y2="959.77"/>
        <line class="cls-3" x1="-3.85" y1="107.59" x2="833.6" y2="945.04"/>
        <line class="cls-3" x1="10.89" y1="92.86" x2="848.33" y2="930.3"/>
        <line class="cls-3" x1="-221.78" y1="271.8" x2="615.66" y2="1109.24"/>
        <line class="cls-3" x1="-236.51" y1="286.53" x2="600.93" y2="1123.97"/>
        <line class="cls-3" x1="-207.05" y1="257.07" x2="630.4" y2="1094.51"/>
        <line class="cls-3" x1="-192.32" y1="242.33" x2="645.13" y2="1079.78"/>
        <line class="cls-3" x1="-177.59" y1="227.6" x2="659.86" y2="1065.05"/>
        <line class="cls-3" x1="-162.85" y1="212.87" x2="674.59" y2="1050.31"/>
        <line class="cls-3" x1="-148.12" y1="198.14" x2="689.32" y2="1035.58"/>
      </g>
      <g>
        <line class="cls-3" x1="-268.94" y1="430.94" x2="568.5" y2="1268.38"/>
        <line class="cls-3" x1="-283.67" y1="445.67" x2="553.77" y2="1283.11"/>
        <line class="cls-3" x1="-254.21" y1="416.21" x2="583.23" y2="1253.65"/>
        <line class="cls-3" x1="-239.48" y1="401.48" x2="597.96" y2="1238.92"/>
        <line class="cls-3" x1="-224.75" y1="386.75" x2="612.69" y2="1224.19"/>
        <line class="cls-3" x1="-210.02" y1="372.01" x2="627.43" y2="1209.46"/>
        <line class="cls-3" x1="-195.29" y1="357.28" x2="642.16" y2="1194.73"/>
        <line class="cls-3" x1="-413.22" y1="521.49" x2="424.22" y2="1358.93"/>
        <line class="cls-3" x1="-398.49" y1="506.76" x2="438.95" y2="1344.2"/>
        <line class="cls-3" x1="-383.76" y1="492.03" x2="453.69" y2="1329.47"/>
        <line class="cls-3" x1="-369.03" y1="477.29" x2="468.42" y2="1314.74"/>
        <line class="cls-3" x1="-354.29" y1="462.56" x2="483.15" y2="1300.01"/>
      </g>
      <g>
        <line class="cls-3" x1="-475.12" y1="166.52" x2="362.33" y2="1003.96"/>
        <line class="cls-3" x1="-489.85" y1="181.25" x2="347.6" y2="1018.69"/>
        <line class="cls-3" x1="-460.38" y1="151.79" x2="377.06" y2="989.23"/>
        <line class="cls-3" x1="-445.65" y1="137.05" x2="391.79" y2="974.5"/>
        <line class="cls-3" x1="-430.92" y1="122.32" x2="406.52" y2="959.77"/>
        <line class="cls-3" x1="-416.19" y1="107.59" x2="421.25" y2="945.04"/>
        <line class="cls-3" x1="-401.46" y1="92.86" x2="435.98" y2="930.3"/>
        <line class="cls-3" x1="-634.12" y1="271.8" x2="203.32" y2="1109.24"/>
        <line class="cls-3" x1="-648.86" y1="286.53" x2="188.59" y2="1123.97"/>
        <line class="cls-3" x1="-619.39" y1="257.07" x2="218.05" y2="1094.51"/>
        <line class="cls-3" x1="-604.66" y1="242.33" x2="232.78" y2="1079.78"/>
        <line class="cls-3" x1="-589.93" y1="227.6" x2="247.51" y2="1065.05"/>
        <line class="cls-3" x1="-575.2" y1="212.87" x2="262.24" y2="1050.31"/>
        <line class="cls-3" x1="-560.47" y1="198.14" x2="276.98" y2="1035.58"/>
      </g>
      <g>
        <line class="cls-3" x1="-681.29" y1="430.94" x2="156.16" y2="1268.38"/>
        <line class="cls-3" x1="-696.02" y1="445.67" x2="141.42" y2="1283.11"/>
        <line class="cls-3" x1="-666.56" y1="416.21" x2="170.89" y2="1253.65"/>
        <line class="cls-3" x1="-651.83" y1="401.48" x2="185.62" y2="1238.92"/>
        <line class="cls-3" x1="-637.09" y1="386.75" x2="200.35" y2="1224.19"/>
        <line class="cls-3" x1="-622.36" y1="372.01" x2="215.08" y2="1209.46"/>
        <line class="cls-3" x1="-607.63" y1="357.28" x2="229.81" y2="1194.73"/>
        <line class="cls-3" x1="-825.57" y1="521.49" x2="11.88" y2="1358.93"/>
        <line class="cls-3" x1="-810.83" y1="506.76" x2="26.61" y2="1344.2"/>
        <line class="cls-3" x1="-796.1" y1="492.03" x2="41.34" y2="1329.47"/>
        <line class="cls-3" x1="-781.37" y1="477.29" x2="56.07" y2="1314.74"/>
        <line class="cls-3" x1="-766.64" y1="462.56" x2="70.8" y2="1300.01"/>
      </g>
      <g>
        <line class="cls-3" x1="-828.54" y1="107.59" x2="8.91" y2="945.04"/>
        <line class="cls-3" x1="-813.8" y1="92.86" x2="23.64" y2="930.3"/>
      </g>
      <g>
        <line class="cls-3" x1="396.74" y1="7.37" x2="1234.18" y2="844.82"/>
        <line class="cls-3" x1="382.01" y1="22.11" x2="1219.45" y2="859.55"/>
        <line class="cls-3" x1="411.47" y1="-7.36" x2="1248.91" y2="830.09"/>
      </g>
      <g>
        <line class="cls-3" x1="349.57" y1="-362.33" x2="1187.02" y2="475.12"/>
        <line class="cls-3" x1="334.84" y1="-347.6" x2="1172.29" y2="489.85"/>
        <line class="cls-3" x1="364.31" y1="-377.06" x2="1201.75" y2="460.38"/>
        <line class="cls-3" x1="379.04" y1="-391.79" x2="1216.48" y2="445.65"/>
        <line class="cls-3" x1="393.77" y1="-406.52" x2="1231.21" y2="430.92"/>
        <line class="cls-3" x1="408.5" y1="-421.25" x2="1245.94" y2="416.19"/>
        <line class="cls-3" x1="190.57" y1="-257.05" x2="1028.01" y2="580.4"/>
        <line class="cls-3" x1="175.83" y1="-242.32" x2="1013.28" y2="595.13"/>
        <line class="cls-3" x1="205.3" y1="-271.78" x2="1042.74" y2="565.66"/>
        <line class="cls-3" x1="220.03" y1="-286.51" x2="1057.47" y2="550.93"/>
        <line class="cls-3" x1="234.76" y1="-301.24" x2="1072.2" y2="536.2"/>
        <line class="cls-3" x1="249.49" y1="-315.97" x2="1086.93" y2="521.47"/>
        <line class="cls-3" x1="264.22" y1="-330.7" x2="1101.67" y2="506.74"/>
      </g>
      <g>
        <line class="cls-3" x1="143.4" y1="-97.91" x2="980.85" y2="739.54"/>
        <line class="cls-3" x1="128.67" y1="-83.17" x2="966.11" y2="754.27"/>
        <line class="cls-3" x1="158.13" y1="-112.64" x2="995.58" y2="724.81"/>
        <line class="cls-3" x1="172.86" y1="-127.37" x2="1010.31" y2="710.08"/>
        <line class="cls-3" x1="187.6" y1="-142.1" x2="1025.04" y2="695.34"/>
        <line class="cls-3" x1="202.33" y1="-156.83" x2="1039.77" y2="680.61"/>
        <line class="cls-3" x1="217.06" y1="-171.56" x2="1054.5" y2="665.88"/>
        <line class="cls-3" x1="-15.61" y1="7.37" x2="821.84" y2="844.82"/>
        <line class="cls-3" x1="-30.34" y1="22.11" x2="807.11" y2="859.55"/>
        <line class="cls-3" x1="-0.88" y1="-7.36" x2="836.57" y2="830.09"/>
        <line class="cls-3" x1="13.86" y1="-22.09" x2="851.3" y2="815.36"/>
        <line class="cls-3" x1="28.59" y1="-36.82" x2="866.03" y2="800.62"/>
        <line class="cls-3" x1="43.32" y1="-51.55" x2="880.76" y2="785.89"/>
        <line class="cls-3" x1="58.05" y1="-66.28" x2="895.49" y2="771.16"/>
      </g>
      <g>
        <line class="cls-3" x1="-62.77" y1="-362.33" x2="774.67" y2="475.12"/>
        <line class="cls-3" x1="-77.5" y1="-347.6" x2="759.94" y2="489.85"/>
        <line class="cls-3" x1="-48.04" y1="-377.06" x2="789.4" y2="460.38"/>
        <line class="cls-3" x1="-33.31" y1="-391.79" x2="804.14" y2="445.65"/>
        <line class="cls-3" x1="-18.58" y1="-406.52" x2="818.87" y2="430.92"/>
        <line class="cls-3" x1="-3.85" y1="-421.25" x2="833.6" y2="416.19"/>
        <line class="cls-3" x1="10.89" y1="-435.98" x2="848.33" y2="401.46"/>
        <line class="cls-3" x1="-221.78" y1="-257.05" x2="615.66" y2="580.4"/>
        <line class="cls-3" x1="-236.51" y1="-242.32" x2="600.93" y2="595.13"/>
        <line class="cls-3" x1="-207.05" y1="-271.78" x2="630.4" y2="565.66"/>
        <line class="cls-3" x1="-192.32" y1="-286.51" x2="645.13" y2="550.93"/>
        <line class="cls-3" x1="-177.59" y1="-301.24" x2="659.86" y2="536.2"/>
        <line class="cls-3" x1="-162.85" y1="-315.97" x2="674.59" y2="521.47"/>
        <line class="cls-3" x1="-148.12" y1="-330.7" x2="689.32" y2="506.74"/>
      </g>
      <g>
        <line class="cls-3" x1="-268.94" y1="-97.91" x2="568.5" y2="739.54"/>
        <line class="cls-3" x1="-283.67" y1="-83.17" x2="553.77" y2="754.27"/>
        <line class="cls-3" x1="-254.21" y1="-112.64" x2="583.23" y2="724.81"/>
        <line class="cls-3" x1="-239.48" y1="-127.37" x2="597.96" y2="710.08"/>
        <line class="cls-3" x1="-224.75" y1="-142.1" x2="612.69" y2="695.34"/>
        <line class="cls-3" x1="-210.02" y1="-156.83" x2="627.43" y2="680.61"/>
        <line class="cls-3" x1="-195.29" y1="-171.56" x2="642.16" y2="665.88"/>
        <line class="cls-3" x1="-427.95" y1="7.37" x2="409.49" y2="844.82"/>
        <line class="cls-3" x1="-442.68" y1="22.11" x2="394.76" y2="859.55"/>
        <line class="cls-3" x1="-413.22" y1="-7.36" x2="424.22" y2="830.09"/>
        <line class="cls-3" x1="-398.49" y1="-22.09" x2="438.95" y2="815.36"/>
        <line class="cls-3" x1="-383.76" y1="-36.82" x2="453.69" y2="800.62"/>
        <line class="cls-3" x1="-369.03" y1="-51.55" x2="468.42" y2="785.89"/>
        <line class="cls-3" x1="-354.29" y1="-66.28" x2="483.15" y2="771.16"/>
      </g>
      <g>
        <line class="cls-3" x1="-475.12" y1="-362.33" x2="362.33" y2="475.12"/>
        <line class="cls-3" x1="-489.85" y1="-347.6" x2="347.6" y2="489.85"/>
        <line class="cls-3" x1="-460.38" y1="-377.06" x2="377.06" y2="460.38"/>
        <line class="cls-3" x1="-445.65" y1="-391.79" x2="391.79" y2="445.65"/>
        <line class="cls-3" x1="-430.92" y1="-406.52" x2="406.52" y2="430.92"/>
        <line class="cls-3" x1="-416.19" y1="-421.25" x2="421.25" y2="416.19"/>
        <line class="cls-3" x1="-401.46" y1="-435.98" x2="435.98" y2="401.46"/>
        <line class="cls-3" x1="-634.12" y1="-257.05" x2="203.32" y2="580.4"/>
        <line class="cls-3" x1="-648.86" y1="-242.32" x2="188.59" y2="595.13"/>
        <line class="cls-3" x1="-619.39" y1="-271.78" x2="218.05" y2="565.66"/>
        <line class="cls-3" x1="-604.66" y1="-286.51" x2="232.78" y2="550.93"/>
        <line class="cls-3" x1="-589.93" y1="-301.24" x2="247.51" y2="536.2"/>
        <line class="cls-3" x1="-575.2" y1="-315.97" x2="262.24" y2="521.47"/>
        <line class="cls-3" x1="-560.47" y1="-330.7" x2="276.98" y2="506.74"/>
      </g>
      <g>
        <line class="cls-3" x1="-681.29" y1="-97.91" x2="156.16" y2="739.54"/>
        <line class="cls-3" x1="-696.02" y1="-83.17" x2="141.42" y2="754.27"/>
        <line class="cls-3" x1="-666.56" y1="-112.64" x2="170.89" y2="724.81"/>
        <line class="cls-3" x1="-651.83" y1="-127.37" x2="185.62" y2="710.08"/>
        <line class="cls-3" x1="-637.09" y1="-142.1" x2="200.35" y2="695.34"/>
        <line class="cls-3" x1="-622.36" y1="-156.83" x2="215.08" y2="680.61"/>
        <line class="cls-3" x1="-607.63" y1="-171.56" x2="229.81" y2="665.88"/>
        <line class="cls-3" x1="-825.57" y1="-7.36" x2="11.88" y2="830.09"/>
        <line class="cls-3" x1="-810.83" y1="-22.09" x2="26.61" y2="815.36"/>
        <line class="cls-3" x1="-796.1" y1="-36.82" x2="41.34" y2="800.62"/>
        <line class="cls-3" x1="-781.37" y1="-51.55" x2="56.07" y2="785.89"/>
        <line class="cls-3" x1="-766.64" y1="-66.28" x2="70.8" y2="771.16"/>
      </g>
      <g>
        <line class="cls-3" x1="-828.54" y1="-421.25" x2="8.91" y2="416.19"/>
        <line class="cls-3" x1="-813.8" y1="-435.98" x2="23.64" y2="401.46"/>
      </g>
      <g>
        <line class="cls-3" x1="396.74" y1="-521.47" x2="1234.18" y2="315.97"/>
        <line class="cls-3" x1="382.01" y1="-506.74" x2="1219.45" y2="330.7"/>
        <line class="cls-3" x1="411.47" y1="-536.2" x2="1248.91" y2="301.24"/>
      </g>
      <g>
        <line class="cls-3" x1="190.57" y1="-785.89" x2="1028.01" y2="51.55"/>
        <line class="cls-3" x1="175.83" y1="-771.16" x2="1013.28" y2="66.28"/>
        <line class="cls-3" x1="205.3" y1="-800.62" x2="1042.74" y2="36.82"/>
        <line class="cls-3" x1="220.03" y1="-815.36" x2="1057.47" y2="22.09"/>
        <line class="cls-3" x1="234.76" y1="-830.09" x2="1072.2" y2="7.36"/>
      </g>
      <g>
        <line class="cls-3" x1="143.4" y1="-626.75" x2="980.85" y2="210.69"/>
        <line class="cls-3" x1="128.67" y1="-612.02" x2="966.11" y2="225.42"/>
        <line class="cls-3" x1="158.13" y1="-641.48" x2="995.58" y2="195.96"/>
        <line class="cls-3" x1="172.86" y1="-656.21" x2="1010.31" y2="181.23"/>
        <line class="cls-3" x1="187.6" y1="-670.94" x2="1025.04" y2="166.5"/>
        <line class="cls-3" x1="202.33" y1="-685.68" x2="1039.77" y2="151.77"/>
        <line class="cls-3" x1="217.06" y1="-700.41" x2="1054.5" y2="137.04"/>
        <line class="cls-3" x1="-15.61" y1="-521.47" x2="821.84" y2="315.97"/>
        <line class="cls-3" x1="-30.34" y1="-506.74" x2="807.11" y2="330.7"/>
        <line class="cls-3" x1="-0.88" y1="-536.2" x2="836.57" y2="301.24"/>
        <line class="cls-3" x1="13.86" y1="-550.93" x2="851.3" y2="286.51"/>
        <line class="cls-3" x1="28.59" y1="-565.66" x2="866.03" y2="271.78"/>
        <line class="cls-3" x1="43.32" y1="-580.4" x2="880.76" y2="257.05"/>
        <line class="cls-3" x1="58.05" y1="-595.13" x2="895.49" y2="242.32"/>
      </g>
      <g>
        <line class="cls-3" x1="-221.78" y1="-785.89" x2="615.66" y2="51.55"/>
        <line class="cls-3" x1="-236.51" y1="-771.16" x2="600.93" y2="66.28"/>
        <line class="cls-3" x1="-207.05" y1="-800.62" x2="630.4" y2="36.82"/>
        <line class="cls-3" x1="-192.32" y1="-815.36" x2="645.13" y2="22.09"/>
        <line class="cls-3" x1="-177.59" y1="-830.09" x2="659.86" y2="7.36"/>
      </g>
      <g>
        <line class="cls-3" x1="-268.94" y1="-626.75" x2="568.5" y2="210.69"/>
        <line class="cls-3" x1="-283.67" y1="-612.02" x2="553.77" y2="225.42"/>
        <line class="cls-3" x1="-254.21" y1="-641.48" x2="583.23" y2="195.96"/>
        <line class="cls-3" x1="-239.48" y1="-656.21" x2="597.96" y2="181.23"/>
        <line class="cls-3" x1="-224.75" y1="-670.94" x2="612.69" y2="166.5"/>
        <line class="cls-3" x1="-210.02" y1="-685.68" x2="627.43" y2="151.77"/>
        <line class="cls-3" x1="-195.29" y1="-700.41" x2="642.16" y2="137.04"/>
        <line class="cls-3" x1="-427.95" y1="-521.47" x2="409.49" y2="315.97"/>
        <line class="cls-3" x1="-442.68" y1="-506.74" x2="394.76" y2="330.7"/>
        <line class="cls-3" x1="-413.22" y1="-536.2" x2="424.22" y2="301.24"/>
        <line class="cls-3" x1="-398.49" y1="-550.93" x2="438.95" y2="286.51"/>
        <line class="cls-3" x1="-383.76" y1="-565.66" x2="453.69" y2="271.78"/>
        <line class="cls-3" x1="-369.03" y1="-580.4" x2="468.42" y2="257.05"/>
        <line class="cls-3" x1="-354.29" y1="-595.13" x2="483.15" y2="242.32"/>
      </g>
      <g>
        <line class="cls-3" x1="-634.12" y1="-785.89" x2="203.32" y2="51.55"/>
        <line class="cls-3" x1="-648.86" y1="-771.16" x2="188.59" y2="66.28"/>
        <line class="cls-3" x1="-619.39" y1="-800.62" x2="218.05" y2="36.82"/>
        <line class="cls-3" x1="-604.66" y1="-815.36" x2="232.78" y2="22.09"/>
        <line class="cls-3" x1="-589.93" y1="-830.09" x2="247.51" y2="7.36"/>
      </g>
      <g>
        <line class="cls-3" x1="-681.29" y1="-626.75" x2="156.16" y2="210.69"/>
        <line class="cls-3" x1="-696.02" y1="-612.02" x2="141.42" y2="225.42"/>
        <line class="cls-3" x1="-666.56" y1="-641.48" x2="170.89" y2="195.96"/>
        <line class="cls-3" x1="-651.83" y1="-656.21" x2="185.62" y2="181.23"/>
        <line class="cls-3" x1="-637.09" y1="-670.94" x2="200.35" y2="166.5"/>
        <line class="cls-3" x1="-622.36" y1="-685.68" x2="215.08" y2="151.77"/>
        <line class="cls-3" x1="-607.63" y1="-700.41" x2="229.81" y2="137.04"/>
        <line class="cls-3" x1="-825.57" y1="-536.2" x2="11.88" y2="301.24"/>
        <line class="cls-3" x1="-810.83" y1="-550.93" x2="26.61" y2="286.51"/>
        <line class="cls-3" x1="-796.1" y1="-565.66" x2="41.34" y2="271.78"/>
        <line class="cls-3" x1="-781.37" y1="-580.4" x2="56.07" y2="257.05"/>
        <line class="cls-3" x1="-766.64" y1="-595.13" x2="70.8" y2="242.32"/>
      </g>
    </pattern>
    <clipPath id="clip-path">
      <path class="cls-1" d="M689.31-114.77l-570-.51A111.59,111.59,0,0,1,7.86-226.95l.31-337c9.37,18.43,183.54,33.26,397,33.45,208.08.18,378.83-13.61,396.07-31.35L801-226.25A111.57,111.57,0,0,1,689.31-114.77Z"/>
    </clipPath>
  </defs>
  <g>
    <path class="cls-4" d="M688.58,492.36l-570-.5A111.57,111.57,0,0,1,7.14,380.19l.3-337V40.05a4.61,4.61,0,0,1,.53-.8C22,21.23,194.21,7.14,404.54,7.33,624.06,7.52,802,23.2,802,42.35a4.3,4.3,0,0,1-1.43,3l-.3,335.57A111.59,111.59,0,0,1,688.58,492.36Z"/>
    <path class="cls-5" d="M688.58,492.36l-570-.5A111.57,111.57,0,0,1,7.14,380.19l.3-337V40.05a4.61,4.61,0,0,1,.53-.8C22,21.23,194.21,7.14,404.54,7.33,624.06,7.52,802,23.2,802,42.35a4.3,4.3,0,0,1-1.43,3l-.3,335.57A111.59,111.59,0,0,1,688.58,492.36Z"/>
  </g>
  <g>
    <path class="cls-1" d="M689.31-114.77l-570-.51A111.59,111.59,0,0,1,7.86-226.95l.31-337c9.37,18.43,183.54,33.26,397,33.45,208.08.18,378.83-13.61,396.07-31.35L801-226.25A111.57,111.57,0,0,1,689.31-114.77Z"/>
    <g class="cls-6">
      <rect class="cls-7" x="-172.61" y="-887.34" width="887.6" height="805.85" transform="translate(0.89 0.49) rotate(-0.1)"/>
    </g>
  </g>
</svg>
