<svg id="Laag_1" data-name="Laag 1" xmlns="http://www.w3.org/2000/svg" xmlns:xlink="http://www.w3.org/1999/xlink" viewBox="0 0 830 231.65">
  <defs>
    <style>
      .cls-1, .cls-5, .cls-7, .cls-9 {
        fill: none;
      }

      .cls-1, .cls-10, .cls-5, .cls-9 {
        stroke: #503c21;
      }

      .cls-1, .cls-10, .cls-3, .cls-5, .cls-7, .cls-9 {
        stroke-linecap: round;
      }

      .cls-1, .cls-10, .cls-3, .cls-5, .cls-9 {
        stroke-linejoin: round;
      }

      .cls-1, .cls-10 {
        stroke-width: 11px;
      }

      .cls-2 {
        fill: #f0dba4;
      }

      .cls-3 {
        fill: #b4934b;
        stroke: #b4934b;
        stroke-width: 9px;
      }

      .cls-4 {
        clip-path: url(#clip-path);
      }

      .cls-5 {
        stroke-width: 6px;
      }

      .cls-6 {
        clip-path: url(#clip-path-2);
      }

      .cls-7 {
        stroke: #beac93;
        stroke-miterlimit: 10;
        stroke-width: 180px;
      }

      .cls-8 {
        clip-path: url(#clip-path-3);
      }

      .cls-9 {
        stroke-width: 5px;
      }

      .cls-10 {
        fill: #f3e8d2;
      }
    </style>
    <clipPath id="clip-path">
      <path class="cls-1" d="M789.29,172.79a4.17,4.17,0,0,1,.26.37c-7,10-89.27,38.06-377.92,39C148.46,213.05,64.54,192.49,34,170.73l.29-.33h-.21l-.69-28.29,755.24,2.42Z"/>
    </clipPath>
    <clipPath id="clip-path-2">
      <path class="cls-2" d="M822.9,151.77C815.32,162.59,726.32,192.94,414,194c-284.72.94-375.52-21.3-408.58-44.84C62.34,81.18,762.74,62.9,822.9,151.77Z"/>
    </clipPath>
    <clipPath id="clip-path-3">
      <path class="cls-1" d="M823.9,151.77C816.32,162.59,727.32,192.94,415,194c-284.72.94-375.52-21.3-408.58-44.84C63.34,81.18,763.74,62.9,823.9,151.77Z"/>
    </clipPath>
  </defs>
  <g id="deksel">
    <path class="cls-3" d="M823,165.64c-19.33-28.55-104.74-46-213.67-54.38a7.1,7.1,0,0,0-6.81-5.12H583.24a6.68,6.68,0,0,0,.25-1.86,7.19,7.19,0,0,0-7.19-7.2H567a7.2,7.2,0,0,0-7.19,7.2,6.74,6.74,0,0,0,.25,1.86H548l0-72.93a12.78,12.78,0,0,0-10.28-12.55,12.25,12.25,0,0,0-2.5-.24l-206.41,0a12.09,12.09,0,0,0-2.49.25,12.81,12.81,0,0,0-10.26,12.58l.19,72.93-12,0a6.76,6.76,0,0,0,.25-1.87,7.2,7.2,0,0,0-7.19-7.18h0l-9.31,0a7.19,7.19,0,0,0-7.17,7.21,6.74,6.74,0,0,0,.26,1.86l-19.27,0a7.1,7.1,0,0,0-6.87,5.44C128.66,120.73,25.89,138.69,5.53,163c6.72,4.78,15.81,9.5,28.42,14l.18,7.28h.21a4.09,4.09,0,0,0-.28.33C64.62,206.35,148.54,226.92,411.71,226c288.65-1,370.93-29,377.93-39-.09-.12-.17-.26-.27-.37l-.17-7C810.75,174.07,820.66,168.94,823,165.64Zm-300.5-59c-58.79-1.9-120.74-1.65-180.58.52l-.18-63.3,180.78.86Z"/>
    <g>
      <g class="cls-4">
        <g>
          <line class="cls-5" x1="-106.44" y1="36.13" x2="589.95" y2="732.51"/>
          <line class="cls-5" x1="-142.59" y1="31.38" x2="553.79" y2="727.77"/>
          <line class="cls-5" x1="-137.71" y1="67.41" x2="558.67" y2="763.79"/>
          <line class="cls-5" x1="-173.87" y1="62.66" x2="522.51" y2="759.05"/>
          <line class="cls-5" x1="-169" y1="98.69" x2="527.38" y2="795.08"/>
          <line class="cls-5" x1="-205.16" y1="93.95" x2="491.23" y2="790.33"/>
          <line class="cls-5" x1="-200.28" y1="129.97" x2="496.1" y2="826.36"/>
          <line class="cls-5" x1="-277.68" y1="84.44" x2="418.7" y2="780.82"/>
          <line class="cls-5" x1="-272.81" y1="120.46" x2="423.58" y2="816.84"/>
          <line class="cls-5" x1="-308.96" y1="115.72" x2="387.42" y2="812.1"/>
          <line class="cls-5" x1="50.01" y1="-120.32" x2="746.39" y2="576.07"/>
          <line class="cls-5" x1="13.85" y1="-125.06" x2="710.24" y2="571.32"/>
          <line class="cls-5" x1="18.73" y1="-89.04" x2="715.11" y2="607.35"/>
          <line class="cls-5" x1="-17.43" y1="-93.78" x2="678.96" y2="602.6"/>
          <line class="cls-5" x1="-12.56" y1="-57.75" x2="683.83" y2="638.63"/>
          <line class="cls-5" x1="-48.71" y1="-62.49" x2="647.67" y2="633.89"/>
          <line class="cls-5" x1="-43.84" y1="-26.47" x2="652.55" y2="669.91"/>
          <line class="cls-5" x1="-121.24" y1="-72.01" x2="575.14" y2="624.38"/>
          <line class="cls-5" x1="-116.36" y1="-35.99" x2="580.02" y2="660.4"/>
          <line class="cls-5" x1="-152.52" y1="-40.73" x2="543.87" y2="655.65"/>
          <line class="cls-5" x1="206.85" y1="-277.16" x2="903.23" y2="419.23"/>
          <line class="cls-5" x1="170.69" y1="-281.9" x2="867.08" y2="414.48"/>
          <line class="cls-5" x1="175.57" y1="-245.88" x2="871.95" y2="450.51"/>
          <line class="cls-5" x1="139.41" y1="-250.62" x2="835.8" y2="445.76"/>
          <line class="cls-5" x1="144.28" y1="-214.59" x2="840.67" y2="481.79"/>
          <line class="cls-5" x1="108.13" y1="-219.33" x2="804.51" y2="477.05"/>
          <line class="cls-5" x1="113" y1="-183.31" x2="809.39" y2="513.07"/>
          <line class="cls-5" x1="35.6" y1="-228.85" x2="731.98" y2="467.54"/>
          <line class="cls-5" x1="40.48" y1="-192.83" x2="736.86" y2="503.56"/>
          <line class="cls-5" x1="4.32" y1="-197.57" x2="700.7" y2="498.82"/>
          <line class="cls-5" x1="363.29" y1="-433.6" x2="1059.68" y2="262.78"/>
          <line class="cls-5" x1="398.83" y1="-428.94" x2="1095.21" y2="267.44"/>
          <line class="cls-5" x1="327.14" y1="-438.34" x2="1023.52" y2="258.04"/>
          <line class="cls-5" x1="332.01" y1="-402.32" x2="1028.4" y2="294.06"/>
          <line class="cls-5" x1="295.86" y1="-407.07" x2="992.24" y2="289.32"/>
          <line class="cls-5" x1="300.73" y1="-371.04" x2="997.11" y2="325.35"/>
          <line class="cls-5" x1="264.57" y1="-375.78" x2="960.95" y2="320.61"/>
          <line class="cls-5" x1="269.45" y1="-339.76" x2="965.83" y2="356.63"/>
          <line class="cls-5" x1="192.04" y1="-385.29" x2="888.43" y2="311.09"/>
          <line class="cls-5" x1="196.92" y1="-349.27" x2="893.31" y2="347.11"/>
          <line class="cls-5" x1="160.77" y1="-354.01" x2="857.15" y2="342.37"/>
        </g>
      </g>
      <path class="cls-1" d="M789.29,172.79a4.17,4.17,0,0,1,.26.37c-7,10-89.27,38.06-377.92,39C148.46,213.05,64.54,192.49,34,170.73l.29-.33h-.21l-.69-28.29,755.24,2.42Z"/>
    </g>
    <g>
      <path class="cls-2" d="M822.9,151.77C815.32,162.59,726.32,192.94,414,194c-284.72.94-375.52-21.3-408.58-44.84C62.34,81.18,762.74,62.9,822.9,151.77Z"/>
      <g class="cls-6">
        <rect class="cls-7" x="-194.78" y="-118.6" width="986.77" height="343.58" transform="translate(0.17 -0.96) rotate(0.18)"/>
      </g>
    </g>
    <g>
      <g class="cls-8">
        <g>
          <line class="cls-9" x1="36.42" y1="-235.64" x2="36.42" y2="718.99"/>
          <line class="cls-9" x1="56.63" y1="-235.64" x2="56.63" y2="718.99"/>
          <line class="cls-9" x1="15.14" y1="-235.64" x2="15.14" y2="718.99"/>
          <line class="cls-9" x1="98.13" y1="-235.64" x2="98.13" y2="718.99"/>
          <line class="cls-9" x1="118.34" y1="-235.64" x2="118.34" y2="718.99"/>
          <line class="cls-9" x1="76.84" y1="-235.64" x2="76.84" y2="718.99"/>
          <line class="cls-9" x1="159.83" y1="-235.64" x2="159.83" y2="718.99"/>
          <line class="cls-9" x1="180.04" y1="-235.64" x2="180.04" y2="718.99"/>
          <line class="cls-9" x1="138.54" y1="-235.64" x2="138.54" y2="718.99"/>
          <line class="cls-9" x1="201.33" y1="-235.64" x2="201.33" y2="718.99"/>
          <line class="cls-9" x1="221.54" y1="-235.64" x2="221.54" y2="718.99"/>
          <line class="cls-9" x1="263.03" y1="-235.64" x2="263.03" y2="718.99"/>
          <line class="cls-9" x1="283.24" y1="-235.64" x2="283.24" y2="718.99"/>
          <line class="cls-9" x1="241.74" y1="-235.64" x2="241.74" y2="718.99"/>
          <line class="cls-9" x1="324.73" y1="-235.64" x2="324.73" y2="718.99"/>
          <line class="cls-9" x1="344.94" y1="-235.64" x2="344.94" y2="718.99"/>
          <line class="cls-9" x1="303.45" y1="-235.64" x2="303.45" y2="718.99"/>
          <line class="cls-9" x1="366.23" y1="-235.64" x2="366.23" y2="718.99"/>
          <line class="cls-9" x1="386.44" y1="-235.64" x2="386.44" y2="718.99"/>
          <line class="cls-9" x1="427.93" y1="-235.64" x2="427.93" y2="718.99"/>
          <line class="cls-9" x1="448.14" y1="-235.64" x2="448.14" y2="718.99"/>
          <line class="cls-9" x1="406.65" y1="-235.64" x2="406.65" y2="718.99"/>
          <line class="cls-9" x1="489.64" y1="-235.64" x2="489.64" y2="718.99"/>
          <line class="cls-9" x1="509.84" y1="-235.64" x2="509.84" y2="718.99"/>
          <line class="cls-9" x1="468.35" y1="-235.64" x2="468.35" y2="718.99"/>
          <line class="cls-9" x1="531.13" y1="-235.64" x2="531.13" y2="718.99"/>
          <line class="cls-9" x1="551.34" y1="-235.64" x2="551.34" y2="718.99"/>
          <line class="cls-9" x1="592.84" y1="-235.64" x2="592.84" y2="718.99"/>
          <line class="cls-9" x1="613.04" y1="-235.64" x2="613.04" y2="718.99"/>
          <line class="cls-9" x1="571.55" y1="-235.64" x2="571.55" y2="718.99"/>
          <line class="cls-9" x1="654.54" y1="-235.64" x2="654.54" y2="718.99"/>
          <line class="cls-9" x1="674.75" y1="-235.64" x2="674.75" y2="718.99"/>
          <line class="cls-9" x1="633.25" y1="-235.64" x2="633.25" y2="718.99"/>
          <line class="cls-9" x1="696.03" y1="-235.64" x2="696.03" y2="718.99"/>
          <line class="cls-9" x1="716.24" y1="-235.64" x2="716.24" y2="718.99"/>
          <line class="cls-9" x1="757.74" y1="-235.64" x2="757.74" y2="718.99"/>
          <line class="cls-9" x1="777.95" y1="-235.64" x2="777.95" y2="718.99"/>
          <line class="cls-9" x1="736.45" y1="-235.64" x2="736.45" y2="718.99"/>
          <line class="cls-9" x1="799.23" y1="-235.64" x2="799.23" y2="718.99"/>
          <line class="cls-9" x1="819.44" y1="-235.64" x2="819.44" y2="718.99"/>
        </g>
      </g>
      <path class="cls-1" d="M823.9,151.77C816.32,162.59,727.32,192.94,415,194c-284.72.94-375.52-21.3-408.58-44.84C63.34,81.18,763.74,62.9,823.9,151.77Z"/>
    </g>
    <path class="cls-10" d="M609.51,99.37v.21a7.07,7.07,0,0,1-7.09,7.09l-54.46,0v.49H522.39l0-76.28L341.64,30l.22,77.15-25.58.07v-.5l-54.46.14a7.09,7.09,0,0,1-7.12-7.06v-.22a7.08,7.08,0,0,1,7.07-7.11l54.45-.14-.19-72.93A12.77,12.77,0,0,1,326.31,6.83a12.09,12.09,0,0,1,2.49-.26l206.41,0A12.74,12.74,0,0,1,548,19.33l0,72.93h54.46A7.1,7.1,0,0,1,609.51,99.37Z"/>
    <rect class="cls-10" x="559.71" y="83.2" width="23.7" height="14.39" rx="7.2"/>
    <rect class="cls-10" x="280.79" y="83.33" width="23.7" height="14.39" rx="7.2" transform="translate(585.53 180.25) rotate(179.84)"/>
  </g>
</svg>
