<svg id="Laag_1" data-name="Laag 1" xmlns="http://www.w3.org/2000/svg" xmlns:xlink="http://www.w3.org/1999/xlink" viewBox="0 0 1260.49 266.8">
  <defs>
    <style>
      .cls-1, .cls-2 {
        fill: none;
      }

      .cls-2, .cls-3, .cls-4, .cls-5 {
        stroke: #8f2623;
        stroke-linejoin: round;
      }

      .cls-2, .cls-5 {
        stroke-linecap: round;
      }

      .cls-2 {
        stroke-width: 5px;
      }

      .cls-3 {
        fill: #bb2e2a;
      }

      .cls-3, .cls-4, .cls-5 {
        stroke-width: 11px;
      }

      .cls-4 {
        fill: url(#Nieuwe_patroonstaal_1);
      }

      .cls-5 {
        fill: #e63925;
      }

      .cls-6 {
        fill: #8f2623;
      }
    </style>
    <pattern id="Nieuwe_patroonstaal_1" data-name="Nieuwe patroonstaal 1" width="283.46" height="283.46" patternUnits="userSpaceOnUse" viewBox="0 0 283.46 283.46">
      <rect class="cls-1" width="283.46" height="283.46"/>
      <g>
        <line class="cls-2" x1="91.13" y1="237.3" x2="928.57" y2="1074.74"/>
        <line class="cls-2" x1="100.71" y1="222.57" x2="938.15" y2="1060.01"/>
        <line class="cls-2" x1="115.44" y1="207.84" x2="952.89" y2="1045.28"/>
        <line class="cls-2" x1="130.17" y1="193.11" x2="967.62" y2="1030.55"/>
        <line class="cls-2" x1="145.03" y1="178.25" x2="982.47" y2="1015.69"/>
        <line class="cls-2" x1="130.3" y1="192.98" x2="967.74" y2="1030.43"/>
        <line class="cls-2" x1="159.76" y1="163.52" x2="997.2" y2="1000.96"/>
        <line class="cls-2" x1="174.49" y1="148.79" x2="1011.94" y2="986.23"/>
        <line class="cls-2" x1="189.22" y1="134.06" x2="1026.67" y2="971.5"/>
        <line class="cls-2" x1="203.95" y1="119.32" x2="1041.4" y2="956.77"/>
        <line class="cls-2" x1="218.69" y1="104.59" x2="1056.13" y2="942.04"/>
      </g>
      <g>
        <line class="cls-2" x1="-192.34" y1="237.3" x2="645.11" y2="1074.74"/>
        <line class="cls-2" x1="-182.75" y1="222.57" x2="654.69" y2="1060.01"/>
        <line class="cls-2" x1="-168.02" y1="207.84" x2="669.42" y2="1045.28"/>
        <line class="cls-2" x1="-153.29" y1="193.11" x2="684.15" y2="1030.55"/>
        <line class="cls-2" x1="-138.44" y1="178.25" x2="699.01" y2="1015.69"/>
        <line class="cls-2" x1="-153.17" y1="192.98" x2="684.28" y2="1030.43"/>
        <line class="cls-2" x1="-123.7" y1="163.52" x2="713.74" y2="1000.96"/>
        <line class="cls-2" x1="-108.97" y1="148.79" x2="728.47" y2="986.23"/>
        <line class="cls-2" x1="-94.24" y1="134.06" x2="743.2" y2="971.5"/>
        <line class="cls-2" x1="-79.51" y1="119.32" x2="757.93" y2="956.77"/>
        <line class="cls-2" x1="-64.78" y1="104.59" x2="772.66" y2="942.04"/>
      </g>
      <g>
        <line class="cls-2" x1="-475.8" y1="237.3" x2="361.64" y2="1074.74"/>
        <line class="cls-2" x1="-466.22" y1="222.57" x2="371.23" y2="1060.01"/>
        <line class="cls-2" x1="-451.49" y1="207.84" x2="385.96" y2="1045.28"/>
        <line class="cls-2" x1="-436.76" y1="193.11" x2="400.69" y2="1030.55"/>
        <line class="cls-2" x1="-421.9" y1="178.25" x2="415.54" y2="1015.69"/>
        <line class="cls-2" x1="-436.63" y1="192.98" x2="400.81" y2="1030.43"/>
        <line class="cls-2" x1="-407.17" y1="163.52" x2="430.27" y2="1000.96"/>
        <line class="cls-2" x1="-392.44" y1="148.79" x2="445.01" y2="986.23"/>
        <line class="cls-2" x1="-377.71" y1="134.06" x2="459.74" y2="971.5"/>
        <line class="cls-2" x1="-362.98" y1="119.32" x2="474.47" y2="956.77"/>
        <line class="cls-2" x1="-348.24" y1="104.59" x2="489.2" y2="942.04"/>
      </g>
      <g>
        <line class="cls-2" x1="-759.27" y1="237.3" x2="78.18" y2="1074.74"/>
        <line class="cls-2" x1="-749.68" y1="222.57" x2="87.76" y2="1060.01"/>
        <line class="cls-2" x1="-734.95" y1="207.84" x2="102.49" y2="1045.28"/>
        <line class="cls-2" x1="-720.22" y1="193.11" x2="117.22" y2="1030.55"/>
        <line class="cls-2" x1="-705.37" y1="178.25" x2="132.08" y2="1015.69"/>
        <line class="cls-2" x1="-720.1" y1="192.98" x2="117.35" y2="1030.43"/>
        <line class="cls-2" x1="-690.63" y1="163.52" x2="146.81" y2="1000.96"/>
        <line class="cls-2" x1="-675.9" y1="148.79" x2="161.54" y2="986.23"/>
        <line class="cls-2" x1="-661.17" y1="134.06" x2="176.27" y2="971.5"/>
        <line class="cls-2" x1="-646.44" y1="119.32" x2="191" y2="956.77"/>
        <line class="cls-2" x1="-631.71" y1="104.59" x2="205.74" y2="942.04"/>
      </g>
      <g>
        <line class="cls-2" x1="91.13" y1="-46.16" x2="928.57" y2="791.28"/>
        <line class="cls-2" x1="100.71" y1="-60.9" x2="938.15" y2="776.55"/>
        <line class="cls-2" x1="115.44" y1="-75.63" x2="952.89" y2="761.82"/>
        <line class="cls-2" x1="130.17" y1="-90.36" x2="967.62" y2="747.08"/>
        <line class="cls-2" x1="145.03" y1="-105.21" x2="982.47" y2="732.23"/>
        <line class="cls-2" x1="130.3" y1="-90.48" x2="967.74" y2="746.96"/>
        <line class="cls-2" x1="159.76" y1="-119.95" x2="997.2" y2="717.5"/>
        <line class="cls-2" x1="174.49" y1="-134.68" x2="1011.94" y2="702.77"/>
        <line class="cls-2" x1="189.22" y1="-149.41" x2="1026.67" y2="688.04"/>
        <line class="cls-2" x1="203.95" y1="-164.14" x2="1041.4" y2="673.3"/>
        <line class="cls-2" x1="218.69" y1="-178.87" x2="1056.13" y2="658.57"/>
      </g>
      <g>
        <line class="cls-2" x1="-192.34" y1="-46.16" x2="645.11" y2="791.28"/>
        <line class="cls-2" x1="-182.75" y1="-60.9" x2="654.69" y2="776.55"/>
        <line class="cls-2" x1="-168.02" y1="-75.63" x2="669.42" y2="761.82"/>
        <line class="cls-2" x1="-153.29" y1="-90.36" x2="684.15" y2="747.08"/>
        <line class="cls-2" x1="-138.44" y1="-105.21" x2="699.01" y2="732.23"/>
        <line class="cls-2" x1="-153.17" y1="-90.48" x2="684.28" y2="746.96"/>
        <line class="cls-2" x1="-123.7" y1="-119.95" x2="713.74" y2="717.5"/>
        <line class="cls-2" x1="-108.97" y1="-134.68" x2="728.47" y2="702.77"/>
        <line class="cls-2" x1="-94.24" y1="-149.41" x2="743.2" y2="688.04"/>
        <line class="cls-2" x1="-79.51" y1="-164.14" x2="757.93" y2="673.3"/>
        <line class="cls-2" x1="-64.78" y1="-178.87" x2="772.66" y2="658.57"/>
      </g>
      <g>
        <line class="cls-2" x1="-475.8" y1="-46.16" x2="361.64" y2="791.28"/>
        <line class="cls-2" x1="-466.22" y1="-60.9" x2="371.23" y2="776.55"/>
        <line class="cls-2" x1="-451.49" y1="-75.63" x2="385.96" y2="761.82"/>
        <line class="cls-2" x1="-436.76" y1="-90.36" x2="400.69" y2="747.08"/>
        <line class="cls-2" x1="-421.9" y1="-105.21" x2="415.54" y2="732.23"/>
        <line class="cls-2" x1="-436.63" y1="-90.48" x2="400.81" y2="746.96"/>
        <line class="cls-2" x1="-407.17" y1="-119.95" x2="430.27" y2="717.5"/>
        <line class="cls-2" x1="-392.44" y1="-134.68" x2="445.01" y2="702.77"/>
        <line class="cls-2" x1="-377.71" y1="-149.41" x2="459.74" y2="688.04"/>
        <line class="cls-2" x1="-362.98" y1="-164.14" x2="474.47" y2="673.3"/>
        <line class="cls-2" x1="-348.24" y1="-178.87" x2="489.2" y2="658.57"/>
      </g>
      <g>
        <line class="cls-2" x1="-759.27" y1="-46.16" x2="78.18" y2="791.28"/>
        <line class="cls-2" x1="-749.68" y1="-60.9" x2="87.76" y2="776.55"/>
        <line class="cls-2" x1="-734.95" y1="-75.63" x2="102.49" y2="761.82"/>
        <line class="cls-2" x1="-720.22" y1="-90.36" x2="117.22" y2="747.08"/>
        <line class="cls-2" x1="-705.37" y1="-105.21" x2="132.08" y2="732.23"/>
        <line class="cls-2" x1="-720.1" y1="-90.48" x2="117.35" y2="746.96"/>
        <line class="cls-2" x1="-690.63" y1="-119.95" x2="146.81" y2="717.5"/>
        <line class="cls-2" x1="-675.9" y1="-134.68" x2="161.54" y2="702.77"/>
        <line class="cls-2" x1="-661.17" y1="-149.41" x2="176.27" y2="688.04"/>
        <line class="cls-2" x1="-646.44" y1="-164.14" x2="191" y2="673.3"/>
        <line class="cls-2" x1="-631.71" y1="-178.87" x2="205.74" y2="658.57"/>
      </g>
      <g>
        <line class="cls-2" x1="91.13" y1="-329.63" x2="928.57" y2="507.81"/>
        <line class="cls-2" x1="100.71" y1="-344.36" x2="938.15" y2="493.08"/>
        <line class="cls-2" x1="115.44" y1="-359.09" x2="952.89" y2="478.35"/>
        <line class="cls-2" x1="130.17" y1="-373.82" x2="967.62" y2="463.62"/>
        <line class="cls-2" x1="145.03" y1="-388.68" x2="982.47" y2="448.76"/>
        <line class="cls-2" x1="130.3" y1="-373.95" x2="967.74" y2="463.5"/>
        <line class="cls-2" x1="159.76" y1="-403.41" x2="997.2" y2="434.03"/>
        <line class="cls-2" x1="174.49" y1="-418.14" x2="1011.94" y2="419.3"/>
        <line class="cls-2" x1="189.22" y1="-432.87" x2="1026.67" y2="404.57"/>
        <line class="cls-2" x1="203.95" y1="-447.6" x2="1041.4" y2="389.84"/>
        <line class="cls-2" x1="218.69" y1="-462.34" x2="1056.13" y2="375.11"/>
      </g>
      <g>
        <line class="cls-2" x1="-192.34" y1="-329.63" x2="645.11" y2="507.81"/>
        <line class="cls-2" x1="-182.75" y1="-344.36" x2="654.69" y2="493.08"/>
        <line class="cls-2" x1="-168.02" y1="-359.09" x2="669.42" y2="478.35"/>
        <line class="cls-2" x1="-153.29" y1="-373.82" x2="684.15" y2="463.62"/>
        <line class="cls-2" x1="-138.44" y1="-388.68" x2="699.01" y2="448.76"/>
        <line class="cls-2" x1="-153.17" y1="-373.95" x2="684.28" y2="463.5"/>
        <line class="cls-2" x1="-123.7" y1="-403.41" x2="713.74" y2="434.03"/>
        <line class="cls-2" x1="-108.97" y1="-418.14" x2="728.47" y2="419.3"/>
        <line class="cls-2" x1="-94.24" y1="-432.87" x2="743.2" y2="404.57"/>
        <line class="cls-2" x1="-79.51" y1="-447.6" x2="757.93" y2="389.84"/>
        <line class="cls-2" x1="-64.78" y1="-462.34" x2="772.66" y2="375.11"/>
      </g>
      <g>
        <line class="cls-2" x1="-475.8" y1="-329.63" x2="361.64" y2="507.81"/>
        <line class="cls-2" x1="-466.22" y1="-344.36" x2="371.23" y2="493.08"/>
        <line class="cls-2" x1="-451.49" y1="-359.09" x2="385.96" y2="478.35"/>
        <line class="cls-2" x1="-436.76" y1="-373.82" x2="400.69" y2="463.62"/>
        <line class="cls-2" x1="-421.9" y1="-388.68" x2="415.54" y2="448.76"/>
        <line class="cls-2" x1="-436.63" y1="-373.95" x2="400.81" y2="463.5"/>
        <line class="cls-2" x1="-407.17" y1="-403.41" x2="430.27" y2="434.03"/>
        <line class="cls-2" x1="-392.44" y1="-418.14" x2="445.01" y2="419.3"/>
        <line class="cls-2" x1="-377.71" y1="-432.87" x2="459.74" y2="404.57"/>
        <line class="cls-2" x1="-362.98" y1="-447.6" x2="474.47" y2="389.84"/>
        <line class="cls-2" x1="-348.24" y1="-462.34" x2="489.2" y2="375.11"/>
      </g>
      <g>
        <line class="cls-2" x1="-759.27" y1="-329.63" x2="78.18" y2="507.81"/>
        <line class="cls-2" x1="-749.68" y1="-344.36" x2="87.76" y2="493.08"/>
        <line class="cls-2" x1="-734.95" y1="-359.09" x2="102.49" y2="478.35"/>
        <line class="cls-2" x1="-720.22" y1="-373.82" x2="117.22" y2="463.62"/>
        <line class="cls-2" x1="-705.37" y1="-388.68" x2="132.08" y2="448.76"/>
        <line class="cls-2" x1="-720.1" y1="-373.95" x2="117.35" y2="463.5"/>
        <line class="cls-2" x1="-690.63" y1="-403.41" x2="146.81" y2="434.03"/>
        <line class="cls-2" x1="-675.9" y1="-418.14" x2="161.54" y2="419.3"/>
        <line class="cls-2" x1="-661.17" y1="-432.87" x2="176.27" y2="404.57"/>
        <line class="cls-2" x1="-646.44" y1="-447.6" x2="191" y2="389.84"/>
        <line class="cls-2" x1="-631.71" y1="-462.34" x2="205.74" y2="375.11"/>
      </g>
      <g>
        <line class="cls-2" x1="91.13" y1="-613.09" x2="928.57" y2="224.35"/>
        <line class="cls-2" x1="100.71" y1="-627.83" x2="938.15" y2="209.62"/>
        <line class="cls-2" x1="115.44" y1="-642.56" x2="952.89" y2="194.89"/>
        <line class="cls-2" x1="130.17" y1="-657.29" x2="967.62" y2="180.16"/>
        <line class="cls-2" x1="145.03" y1="-672.14" x2="982.47" y2="165.3"/>
        <line class="cls-2" x1="130.3" y1="-657.41" x2="967.74" y2="180.03"/>
        <line class="cls-2" x1="159.76" y1="-686.87" x2="997.2" y2="150.57"/>
        <line class="cls-2" x1="174.49" y1="-701.61" x2="1011.94" y2="135.84"/>
        <line class="cls-2" x1="189.22" y1="-716.34" x2="1026.67" y2="121.11"/>
        <line class="cls-2" x1="203.95" y1="-731.07" x2="1041.4" y2="106.37"/>
        <line class="cls-2" x1="218.69" y1="-745.8" x2="1056.13" y2="91.64"/>
      </g>
      <g>
        <line class="cls-2" x1="-192.34" y1="-613.09" x2="645.11" y2="224.35"/>
        <line class="cls-2" x1="-182.75" y1="-627.83" x2="654.69" y2="209.62"/>
        <line class="cls-2" x1="-168.02" y1="-642.56" x2="669.42" y2="194.89"/>
        <line class="cls-2" x1="-153.29" y1="-657.29" x2="684.15" y2="180.16"/>
        <line class="cls-2" x1="-138.44" y1="-672.14" x2="699.01" y2="165.3"/>
        <line class="cls-2" x1="-153.17" y1="-657.41" x2="684.28" y2="180.03"/>
        <line class="cls-2" x1="-123.7" y1="-686.87" x2="713.74" y2="150.57"/>
        <line class="cls-2" x1="-108.97" y1="-701.61" x2="728.47" y2="135.84"/>
        <line class="cls-2" x1="-94.24" y1="-716.34" x2="743.2" y2="121.11"/>
        <line class="cls-2" x1="-79.51" y1="-731.07" x2="757.93" y2="106.37"/>
        <line class="cls-2" x1="-64.78" y1="-745.8" x2="772.66" y2="91.64"/>
      </g>
      <g>
        <line class="cls-2" x1="-475.8" y1="-613.09" x2="361.64" y2="224.35"/>
        <line class="cls-2" x1="-466.22" y1="-627.83" x2="371.23" y2="209.62"/>
        <line class="cls-2" x1="-451.49" y1="-642.56" x2="385.96" y2="194.89"/>
        <line class="cls-2" x1="-436.76" y1="-657.29" x2="400.69" y2="180.16"/>
        <line class="cls-2" x1="-421.9" y1="-672.14" x2="415.54" y2="165.3"/>
        <line class="cls-2" x1="-436.63" y1="-657.41" x2="400.81" y2="180.03"/>
        <line class="cls-2" x1="-407.17" y1="-686.87" x2="430.27" y2="150.57"/>
        <line class="cls-2" x1="-392.44" y1="-701.61" x2="445.01" y2="135.84"/>
        <line class="cls-2" x1="-377.71" y1="-716.34" x2="459.74" y2="121.11"/>
        <line class="cls-2" x1="-362.98" y1="-731.07" x2="474.47" y2="106.37"/>
        <line class="cls-2" x1="-348.24" y1="-745.8" x2="489.2" y2="91.64"/>
      </g>
      <g>
        <line class="cls-2" x1="-759.27" y1="-613.09" x2="78.18" y2="224.35"/>
        <line class="cls-2" x1="-749.68" y1="-627.83" x2="87.76" y2="209.62"/>
        <line class="cls-2" x1="-734.95" y1="-642.56" x2="102.49" y2="194.89"/>
        <line class="cls-2" x1="-720.22" y1="-657.29" x2="117.22" y2="180.16"/>
        <line class="cls-2" x1="-705.37" y1="-672.14" x2="132.08" y2="165.3"/>
        <line class="cls-2" x1="-720.1" y1="-657.41" x2="117.35" y2="180.03"/>
        <line class="cls-2" x1="-690.63" y1="-686.87" x2="146.81" y2="150.57"/>
        <line class="cls-2" x1="-675.9" y1="-701.61" x2="161.54" y2="135.84"/>
        <line class="cls-2" x1="-661.17" y1="-716.34" x2="176.27" y2="121.11"/>
        <line class="cls-2" x1="-646.44" y1="-731.07" x2="191" y2="106.37"/>
        <line class="cls-2" x1="-631.71" y1="-745.8" x2="205.74" y2="91.64"/>
      </g>
    </pattern>
  </defs>
  <g>
    <g id="Group_65" data-name="Group 65">
      <g id="Path_84" data-name="Path 84">
        <path class="cls-3" d="M1253.07,258.79l-206.36,0h-8.49v-8.42l0-174.32V67.6h8.49l190.28,0h16l-94,95.56Z"/>
      </g>
      <g id="Path_84-2" data-name="Path 84">
        <path class="cls-4" d="M1253.07,258.79l-206.36,0h-8.49v-8.42l0-174.32V67.6h8.49l190.28,0h16l-94,95.56Z"/>
      </g>
      <g id="Path_84-3" data-name="Path 84">
        <path class="cls-3" d="M101.84,163.2,7.89,67.64h16l190.28,0h8.49V76l0,174.32v8.42h-8.48l-206.36,0Z"/>
      </g>
      <g id="Path_84-4" data-name="Path 84">
        <path class="cls-4" d="M101.84,163.2,7.89,67.64h16l190.28,0h8.49V76l0,174.32v8.42h-8.48l-206.36,0Z"/>
      </g>
      <g id="Rectangle_37" data-name="Rectangle 37">
        <rect class="cls-5" x="146.88" y="7.52" width="964.12" height="191.16"/>
      </g>
    </g>
    <g>
      <path class="cls-6" d="M242.25,131.59c.51.72.09,1.23-.73,1.23l-23.83-.11a2.78,2.78,0,0,1-2.15-1.24l-12.62-25.74-.11,25.47a1.51,1.51,0,0,1-1.55,1.44l-18.18-.09a1.54,1.54,0,0,1-1.43-1.44L182,63.22a1.55,1.55,0,0,1,1.44-1.53l18.18.08a1.5,1.5,0,0,1,1.53,1.55l-.1,23,12.43-23.26a2.9,2.9,0,0,1,2.37-1.22l22.49.1c.82,0,1.13.52.72,1.24L220.53,95.65Z"/>
      <path class="cls-6" d="M286.59,114.53a1.4,1.4,0,0,1,1.33,1.45l-1.51,15.6a1.75,1.75,0,0,1-1.65,1.43l-37.08-.16a1.57,1.57,0,0,1-1.53-1.45l.3-67.89A1.58,1.58,0,0,1,248,62l18.18.08a1.57,1.57,0,0,1,1.53,1.55l-.23,50.84Z"/>
      <path class="cls-6" d="M312.09,62.27a1.51,1.51,0,0,1,1.53,1.55l-.31,67.89a1.49,1.49,0,0,1-1.54,1.43l-18.18-.09a1.53,1.53,0,0,1-1.43-1.44l.3-67.89a1.57,1.57,0,0,1,1.45-1.53Z"/>
      <path class="cls-6" d="M381.3,132.22c.51.72.1,1.23-.72,1.23l-23.83-.11a2.78,2.78,0,0,1-2.15-1.24L342,106.36l-.12,25.47a1.48,1.48,0,0,1-1.54,1.43l-18.18-.08a1.53,1.53,0,0,1-1.43-1.44L321,63.85a1.55,1.55,0,0,1,1.44-1.53l18.18.08A1.5,1.5,0,0,1,342.17,64l-.1,23L354.5,63.69a2.88,2.88,0,0,1,2.37-1.22l22.49.1c.82,0,1.13.52.71,1.24L359.59,96.28Z"/>
      <path class="cls-6" d="M456.08,62.92a1.52,1.52,0,0,1,1.53,1.55l-.31,67.89a1.49,1.49,0,0,1-1.55,1.43l-19.2-.09a1.46,1.46,0,0,1-1.43-1.44l.1-23-14.38-.06-.1,23a1.48,1.48,0,0,1-1.55,1.43l-19.2-.08a1.57,1.57,0,0,1-1.44-1.45l.31-67.89a1.57,1.57,0,0,1,1.45-1.53l19.2.09a1.51,1.51,0,0,1,1.54,1.54l-.13,26.81,14.38.07.13-26.81a1.5,1.5,0,0,1,1.44-1.54Z"/>
      <path class="cls-6" d="M484.63,63.05a1.51,1.51,0,0,1,1.53,1.55l-.31,67.89a1.49,1.49,0,0,1-1.55,1.43l-18.17-.08a1.57,1.57,0,0,1-1.44-1.45L465,64.5A1.57,1.57,0,0,1,466.45,63Z"/>
      <path class="cls-6" d="M542.52,115.69a1.48,1.48,0,0,1,1.53,1.35L544,132.75a1.56,1.56,0,0,1-1.54,1.43L494.68,134c-.72,0-1.44-.82-1.64-1.54l.31-67.89a1.29,1.29,0,0,1,1.44-1.43l46.73.21a1.59,1.59,0,0,1,1.64,1.44l-.07,15.51a1.54,1.54,0,0,1-1.65,1.54l-26.81-.13,0,8.12,21.77.1a1.23,1.23,0,0,1,1.33,1.34l-1.5,14.37a1.81,1.81,0,0,1-1.75,1.33l-19.93-.09,0,8.73Z"/>
      <path class="cls-6" d="M608.38,132.84c.51.92-.22,1.64-1.14,1.63l-22-.1a2.68,2.68,0,0,1-2.36-1.65l-10.58-22.44h-1.23l-.1,22.59a1.59,1.59,0,0,1-1.65,1.43l-18.08-.08a1.56,1.56,0,0,1-1.53-1.44L550,64.89a1.58,1.58,0,0,1,1.54-1.54l27.12.13c15.82.07,26.25,9.36,26.19,23.33,0,8.11-5,16.31-12.72,19.56Zm-31.15-40c3.49,0,5.87-2.14,5.88-5.42S580.77,82,577.28,82l-6.06,0-.05,10.89Z"/>
      <path class="cls-6" d="M674.9,116.29a1.48,1.48,0,0,1,1.53,1.35l-.07,15.71a1.56,1.56,0,0,1-1.54,1.43l-47.76-.22c-.72,0-1.44-.82-1.64-1.54l.31-67.89a1.29,1.29,0,0,1,1.44-1.43l46.73.21a1.59,1.59,0,0,1,1.64,1.44l-.07,15.51a1.53,1.53,0,0,1-1.65,1.53L647,82.27l0,8.12,21.77.1a1.23,1.23,0,0,1,1.33,1.34l-1.5,14.37a1.81,1.81,0,0,1-1.76,1.33l-19.92-.09,0,8.73Z"/>
      <path class="cls-6" d="M741.38,64.21a1.51,1.51,0,0,1,1.53,1.55l-.31,67.89a1.49,1.49,0,0,1-1.54,1.43L723.29,135a2.79,2.79,0,0,1-2.15-1.34l-17.73-32-.14,31.84a1.49,1.49,0,0,1-1.55,1.43l-18.18-.08a1.46,1.46,0,0,1-1.43-1.44l.31-67.89A1.5,1.5,0,0,1,683.86,64l17.77.08A2.74,2.74,0,0,1,704,65.38l17.62,32,.14-31.73a1.58,1.58,0,0,1,1.45-1.54Z"/>
      <path class="cls-6" d="M796,64.46c13.46.06,22.36,8.11,22.3,20.13,0,7.39-3.65,12.82-9.2,14.44,6.46,1.67,10.64,7.85,10.6,16.38-.05,12-9,20-22.37,19.93l-32.56-.15a1.47,1.47,0,0,1-1.43-1.45l.3-67.89a1.58,1.58,0,0,1,1.45-1.53Zm-3.11,52.47a4.93,4.93,0,1,0,0-9.86l-8.31,0,0,9.86Zm-1.74-24.66c3.08,0,5.15-1.82,5.16-4.7s-2-4.73-5.11-4.75l-6.47,0,0,9.45Z"/>
      <path class="cls-6" d="M874.75,117.2a1.48,1.48,0,0,1,1.54,1.34l-.07,15.72a1.58,1.58,0,0,1-1.55,1.43l-47.76-.22c-.72,0-1.43-.83-1.63-1.55l.3-67.89A1.31,1.31,0,0,1,827,64.6l46.73.21a1.61,1.61,0,0,1,1.64,1.45l-.08,15.51a1.53,1.53,0,0,1-1.64,1.53l-26.81-.12,0,8.11,21.78.1a1.24,1.24,0,0,1,1.33,1.34l-1.51,14.37a1.79,1.79,0,0,1-1.75,1.33l-19.93-.09,0,8.73Z"/>
      <path class="cls-6" d="M942.65,92.55A1.55,1.55,0,0,1,944.18,94L944,126.65a3.41,3.41,0,0,1-1.25,2.46c-6.18,5.21-15.65,8.25-25.51,8.21-22.18-.1-36.9-15-36.8-37.14s14.95-36.91,37.14-36.81a42.43,42.43,0,0,1,21.54,6.05,1.61,1.61,0,0,1,.92,1.86l-5.21,15.07a1.56,1.56,0,0,1-2,.81,32.51,32.51,0,0,0-14.78-3.66c-9.44,0-15.84,6.71-15.89,16.77,0,10.28,6.29,17.08,15.74,17.12,3.8,0,6.37-.69,7.51-1.91l0-6-9.45,0c-.92,0-1.54-.42-1.63-1.14l-1.28-14.18a1.51,1.51,0,0,1,1.66-1.74Zm-16.53,21.39v0Z"/>
      <path class="cls-6" d="M970.71,65.25a1.52,1.52,0,0,1,1.53,1.55l-.31,67.89a1.49,1.49,0,0,1-1.54,1.43L952.21,136a1.55,1.55,0,0,1-1.43-1.45l.3-67.89a1.57,1.57,0,0,1,1.45-1.53Z"/>
      <path class="cls-6" d="M1038.59,65.56a1.52,1.52,0,0,1,1.54,1.55l-.31,67.89a1.49,1.49,0,0,1-1.55,1.43l-17.76-.08a2.85,2.85,0,0,1-2.16-1.35l-17.72-32-.15,31.84a1.49,1.49,0,0,1-1.54,1.43l-18.18-.08a1.47,1.47,0,0,1-1.43-1.45l.3-67.89a1.5,1.5,0,0,1,1.45-1.53l17.77.08a2.68,2.68,0,0,1,2.35,1.35l17.63,32L1019,67a1.56,1.56,0,0,1,1.44-1.53Z"/>
      <path class="cls-6" d="M1061.65,120.92c8.84,0,11.28,4.78,11.26,8.47,0,3.91-2.5,8.62-11.33,8.58s-11.28-4.78-11.26-8.68C1050.34,125.59,1052.93,120.88,1061.65,120.92Zm-7.48-1.68a1.56,1.56,0,0,1-1.54-1.44l-1.31-50.64a1.59,1.59,0,0,1,1.55-1.54l18.07.09a1.57,1.57,0,0,1,1.54,1.54l-1.88,50.63a1.56,1.56,0,0,1-1.54,1.43Z"/>
    </g>
  </g>
</svg>
