<svg id="Laag_1" data-name="Laag 1" xmlns="http://www.w3.org/2000/svg" xmlns:xlink="http://www.w3.org/1999/xlink" viewBox="0 0 986.86 487.39">
  <defs>
    <style>
      .cls-1 {
        fill: #f2dda6;
      }

      .cls-10, .cls-2, .cls-8 {
        fill: none;
      }

      .cls-10, .cls-11, .cls-2, .cls-4, .cls-5, .cls-6 {
        stroke: #503c21;
      }

      .cls-10, .cls-11, .cls-2, .cls-3, .cls-4, .cls-5, .cls-6, .cls-8 {
        stroke-linecap: round;
      }

      .cls-10, .cls-11, .cls-2, .cls-3, .cls-4, .cls-5, .cls-6 {
        stroke-linejoin: round;
      }

      .cls-2, .cls-5, .cls-6 {
        stroke-width: 11px;
      }

      .cls-3, .cls-4 {
        fill: #b4934b;
      }

      .cls-3 {
        stroke: #b4934b;
      }

      .cls-11, .cls-3, .cls-4 {
        stroke-width: 9px;
      }

      .cls-5 {
        fill: #baa880;
      }

      .cls-11, .cls-6 {
        fill: #f4e9d3;
      }

      .cls-7 {
        clip-path: url(#clip-path);
      }

      .cls-8 {
        stroke: #bfad94;
        stroke-miterlimit: 10;
        stroke-width: 180px;
      }

      .cls-9 {
        clip-path: url(#clip-path-2);
      }

      .cls-10 {
        stroke-width: 5px;
      }
    </style>
    <clipPath id="clip-path">
      <path class="cls-1" d="M773.58,464.21l-570-.51A111.59,111.59,0,0,1,92.13,352l.31-337c9.38,18.43,183.54,33.27,397,33.45,208.09.18,378.83-13.61,396.07-31.35l-.3,335.58A111.57,111.57,0,0,1,773.58,464.21Z"/>
    </clipPath>
    <clipPath id="clip-path-2">
      <path class="cls-2" d="M885.55,17.15v4.93l0,32.24-.27,298.41A111.55,111.55,0,0,1,773.59,464.21l-570-.5a113,113,0,0,1-17-1.3q-4-.62-7.91-1.52A111.63,111.63,0,0,1,92.13,352L92.4,54.41l0-31.77V15.06a4.41,4.41,0,0,0,.3.5C105,33.76,277.92,48.32,489.48,48.51,697.57,48.68,868.31,34.89,885.55,17.15Z"/>
    </clipPath>
  </defs>
  <g id="pan_voorkant">
    <path class="cls-3" d="M972.92,126,959.61,82.47l-1.25-4.1a7.2,7.2,0,0,0-.7-1.84,12.78,12.78,0,0,0-10.82-5.94l-57,.1c4.54-1.65,7.81-3.3,9.73-4.93l-.15-33.56L880.7,26.59C849,10.19,679.11,102.5,482.33,102.34,282,102.16,122.75,10,95.32,26.78L80.64,33.09l.72,33.17c.85,1.61,3,3.19,6.3,4.75h4v1.65l-.29-.11c-1.38-.52-2.63-1-3.74-1.56l-52.09-.24a12.78,12.78,0,0,0-7.77,2.59,0,0,0,0,0,0,0,12.66,12.66,0,0,0-3.05,3.31s0,0,0,0A7.34,7.34,0,0,0,24,78.52L22.77,82.6h0L9.35,126.13a0,0,0,0,0,0,0l-2.18,7.08a13.84,13.84,0,0,0,.23,2.5,12.79,12.79,0,0,0,12.5,10.34l71.45.33h1.48l-.06,12a6.21,6.21,0,0,0-1.14-.22l-.29,0a3.1,3.1,0,0,0-.43,0h0a7.2,7.2,0,0,0-7.19,7.16l0,9.3a7.19,7.19,0,0,0,7.16,7.23h0a3.59,3.59,0,0,0,.47,0,1,1,0,0,0,.3,0l-.17,188.47a111.61,111.61,0,0,0,88.94,109.37q2.61.54,5.27.95l2.12.31c.68.09,1.36.18,2.05.25h0a108.27,108.27,0,0,0,13.06.79l570,.5A111.56,111.56,0,0,0,884.55,371l.15-163.72a7.06,7.06,0,0,0,4.78-6.71l0-19.27a6.74,6.74,0,0,0,1.86.25h0a7.19,7.19,0,0,0,7.18-7.21l0-9.3a7.19,7.19,0,0,0-7.19-7.18h0a6.76,6.76,0,0,0-1.87.26l0-12,72.93-.14a12.8,12.8,0,0,0,12.53-10.31,13,13,0,0,0,.24-2.51ZM91.65,120.83h-.29l-55.78-.25,5.92-24.2,49.88.22h.29Zm793.12-.33h-.3l0-24.23h.3l56-.1,5.87,24.22Z"/>
    <g>
      <path class="cls-4" d="M885.85,22l0,32.24-.26,298.56A111.58,111.58,0,0,1,773.88,464.26l-570-.5a110.57,110.57,0,0,1-17.27-1.35q-4-.62-7.91-1.52a111.61,111.61,0,0,1-86.29-108.8L92.7,54.52l0-31.78V15.56C105,33.76,277.92,48.32,489.48,48.51c208.09.17,378.83-13.62,396.07-31.36v4.93Z"/>
      <path class="cls-5" d="M860,52.5h87.83a12.78,12.78,0,0,1,12.78,12.78v0a12.78,12.78,0,0,1-12.78,12.78H860a0,0,0,0,1,0,0V52.5A0,0,0,0,1,860,52.5Z" transform="translate(-0.12 1.66) rotate(-0.1)"/>
      <path class="cls-6" d="M959.36,60.21,976.08,115l-25.24.26L941.59,77C934.89,46.86,957.13,50.47,959.36,60.21Z"/>
      <path class="cls-5" d="M23.73,52.78h87.83a12.78,12.78,0,0,1,12.78,12.78v0a12.78,12.78,0,0,1-12.78,12.78H23.73a0,0,0,0,1,0,0V52.78a0,0,0,0,1,0,0Z" transform="translate(147.77 131.46) rotate(-179.74)"/>
      <path class="cls-6" d="M25,60.36,8.16,115.05l25.24.33,9.35-38.19C49.53,47.08,27.29,50.62,25,60.36Z"/>
      <g>
        <path class="cls-1" d="M773.58,464.21l-570-.51A111.59,111.59,0,0,1,92.13,352l.31-337c9.38,18.43,183.54,33.27,397,33.45,208.09.18,378.83-13.61,396.07-31.35l-.3,335.58A111.57,111.57,0,0,1,773.58,464.21Z"/>
        <g class="cls-7">
          <rect class="cls-8" x="-88.42" y="-308.35" width="887.6" height="716.46" transform="translate(-0.09 0.65) rotate(-0.1)"/>
        </g>
      </g>
      <g>
        <g class="cls-9">
          <g>
            <line class="cls-10" x1="128.83" y1="-69.21" x2="128.83" y2="885.42"/>
            <line class="cls-10" x1="149.04" y1="-69.21" x2="149.04" y2="885.42"/>
            <line class="cls-10" x1="87.34" y1="-69.21" x2="87.34" y2="885.42"/>
            <line class="cls-10" x1="107.54" y1="-69.21" x2="107.54" y2="885.42"/>
            <line class="cls-10" x1="190.53" y1="-69.21" x2="190.53" y2="885.42"/>
            <line class="cls-10" x1="210.74" y1="-69.21" x2="210.74" y2="885.42"/>
            <line class="cls-10" x1="169.25" y1="-69.21" x2="169.25" y2="885.42"/>
            <line class="cls-10" x1="252.24" y1="-69.21" x2="252.24" y2="885.42"/>
            <line class="cls-10" x1="272.45" y1="-69.21" x2="272.45" y2="885.42"/>
            <line class="cls-10" x1="230.95" y1="-69.21" x2="230.95" y2="885.42"/>
            <line class="cls-10" x1="293.73" y1="-69.21" x2="293.73" y2="885.42"/>
            <line class="cls-10" x1="313.94" y1="-69.21" x2="313.94" y2="885.42"/>
            <line class="cls-10" x1="355.44" y1="-69.21" x2="355.44" y2="885.42"/>
            <line class="cls-10" x1="375.64" y1="-69.21" x2="375.64" y2="885.42"/>
            <line class="cls-10" x1="334.15" y1="-69.21" x2="334.15" y2="885.42"/>
            <line class="cls-10" x1="417.14" y1="-69.21" x2="417.14" y2="885.42"/>
            <line class="cls-10" x1="437.35" y1="-69.21" x2="437.35" y2="885.42"/>
            <line class="cls-10" x1="395.85" y1="-69.21" x2="395.85" y2="885.42"/>
            <line class="cls-10" x1="458.64" y1="-69.21" x2="458.64" y2="885.42"/>
            <line class="cls-10" x1="478.84" y1="-69.21" x2="478.84" y2="885.42"/>
            <line class="cls-10" x1="520.34" y1="-69.21" x2="520.34" y2="885.42"/>
            <line class="cls-10" x1="540.55" y1="-69.21" x2="540.55" y2="885.42"/>
            <line class="cls-10" x1="499.05" y1="-69.21" x2="499.05" y2="885.42"/>
            <line class="cls-10" x1="582.04" y1="-69.21" x2="582.04" y2="885.42"/>
            <line class="cls-10" x1="602.25" y1="-69.21" x2="602.25" y2="885.42"/>
            <line class="cls-10" x1="560.76" y1="-69.21" x2="560.76" y2="885.42"/>
            <line class="cls-10" x1="623.54" y1="-69.21" x2="623.54" y2="885.42"/>
            <line class="cls-10" x1="643.75" y1="-69.21" x2="643.75" y2="885.42"/>
            <line class="cls-10" x1="685.24" y1="-69.21" x2="685.24" y2="885.42"/>
            <line class="cls-10" x1="705.45" y1="-69.21" x2="705.45" y2="885.42"/>
            <line class="cls-10" x1="663.95" y1="-69.21" x2="663.95" y2="885.42"/>
            <line class="cls-10" x1="746.95" y1="-69.21" x2="746.95" y2="885.42"/>
            <line class="cls-10" x1="767.15" y1="-69.21" x2="767.15" y2="885.42"/>
            <line class="cls-10" x1="725.66" y1="-69.21" x2="725.66" y2="885.42"/>
            <line class="cls-10" x1="788.44" y1="-69.21" x2="788.44" y2="885.42"/>
            <line class="cls-10" x1="808.65" y1="-69.21" x2="808.65" y2="885.42"/>
            <line class="cls-10" x1="850.14" y1="-69.21" x2="850.14" y2="885.42"/>
            <line class="cls-10" x1="870.35" y1="-69.21" x2="870.35" y2="885.42"/>
            <line class="cls-10" x1="828.86" y1="-69.21" x2="828.86" y2="885.42"/>
            <line class="cls-10" x1="891.64" y1="-69.21" x2="891.64" y2="885.42"/>
            <line class="cls-10" x1="911.85" y1="-69.21" x2="911.85" y2="885.42"/>
            <line class="cls-10" x1="953.34" y1="-69.21" x2="953.34" y2="885.42"/>
            <line class="cls-10" x1="973.55" y1="-69.21" x2="973.55" y2="885.42"/>
            <line class="cls-10" x1="932.06" y1="-69.21" x2="932.06" y2="885.42"/>
          </g>
        </g>
        <path class="cls-2" d="M885.55,17.15v4.93l0,32.24-.27,298.41A111.55,111.55,0,0,1,773.59,464.21l-570-.5a113,113,0,0,1-17-1.3q-4-.62-7.91-1.52A111.63,111.63,0,0,1,92.13,352L92.4,54.41l0-31.77V15.06a4.41,4.41,0,0,0,.3.5C105,33.76,277.92,48.32,489.48,48.51,697.57,48.68,868.31,34.89,885.55,17.15Z"/>
      </g>
      <path class="cls-6" d="M900.62,47.6c-2.57,2.18-7.58,4.41-14.8,6.63l-.3.09C834.79,69.81,676.93,85.16,491.59,83.94,297.6,82.66,135.06,70.15,92.7,54.52l-.3-.11c-5.49-2-8.91-4.16-10-6.31l-.73-32c1.18,2.24,4.86,4.44,10.8,6.59l.3.1C136.24,38.25,298,50.62,490.87,51.89c186.27,1.23,344.75-14.16,394.68-29.81l.3-.09c7.36-2.33,12.32-4.67,14.6-6.95Z"/>
      <path class="cls-6" d="M975.84,117.45a12.8,12.8,0,0,1-12.53,10.32l-72.93.13.1,54.46a7.08,7.08,0,0,1-7.07,7.1h-.22a7.08,7.08,0,0,1-7.1-7.08l-.1-54.46h-.5l0-25.57,87.83-.16a12.78,12.78,0,0,1,12.57,15.25Z"/>
      <rect class="cls-6" x="880.45" y="144.3" width="23.7" height="14.39" rx="7.2" transform="translate(1042.16 -741.08) rotate(89.9)"/>
      <path class="cls-6" d="M8.39,117.56a12.79,12.79,0,0,0,12.5,10.34l72.93.34-.25,54.45a7.09,7.09,0,0,0,7.06,7.12h.22a7.08,7.08,0,0,0,7.12-7.06l.25-54.45h.5l.12-25.57L21,102.34A12.78,12.78,0,0,0,8.16,115.05,13.87,13.87,0,0,0,8.39,117.56Z"/>
      <rect class="cls-6" x="80" y="144.63" width="23.7" height="14.39" rx="7.2" transform="translate(244.08 60.66) rotate(90.26)"/>
      <polygon class="cls-11" points="96.32 8.61 93.82 19.15 81.64 14.93 96.32 8.61"/>
      <polygon class="cls-11" points="880.63 7.14 888.95 17.14 900.46 14.04 880.63 7.14"/>
    </g>
  </g>
</svg>
