<svg id="Laag_1" data-name="Laag 1" xmlns="http://www.w3.org/2000/svg" xmlns:xlink="http://www.w3.org/1999/xlink" viewBox="0 0 933.06 279.77">
  <defs>
    <style>
      .cls-1 {
        fill: #f2dda6;
      }

      .cls-2, .cls-5, .cls-7 {
        fill: none;
      }

      .cls-2, .cls-7 {
        stroke: #503c21;
      }

      .cls-2, .cls-3, .cls-5, .cls-7 {
        stroke-linecap: round;
      }

      .cls-2, .cls-3, .cls-7 {
        stroke-linejoin: round;
      }

      .cls-2 {
        stroke-width: 11px;
      }

      .cls-3 {
        fill: #b4934b;
        stroke: #b4934b;
        stroke-width: 9px;
      }

      .cls-4 {
        clip-path: url(#clip-path);
      }

      .cls-5 {
        stroke: #bfad94;
        stroke-miterlimit: 10;
        stroke-width: 180px;
      }

      .cls-6 {
        clip-path: url(#clip-path-2);
      }

      .cls-7 {
        stroke-width: 5px;
      }
    </style>
    <clipPath id="clip-path">
      <path class="cls-1" d="M837.54,4.89l.17,134.42A111.56,111.56,0,0,1,726.25,251l-570,.54A111.6,111.6,0,0,1,44.59,140.06L44.72,6.33"/>
    </clipPath>
    <clipPath id="clip-path-2">
      <path class="cls-2" d="M837.48,4.88l.17,134.44A111.55,111.55,0,0,1,726.19,251l-570,.54a113.9,113.9,0,0,1-14.86-1l-2.12-.31c-2.67-.4-5.31-.91-7.92-1.5-.78-.18-1.55-.36-2.32-.56A111.61,111.61,0,0,1,44.84,140.11L44.66,6.33"/>
    </clipPath>
  </defs>
  <path class="cls-3" d="M837,116.16l0,45.83A111.56,111.56,0,0,1,725.27,273.46l-570-.5a108.27,108.27,0,0,1-13.06-.79h0c-.69-.07-1.37-.16-2-.25l-2.12-.31q-2.66-.41-5.27-.95A111.61,111.61,0,0,1,43.82,161.29l0-45.13Z"/>
  <g>
    <g>
      <path class="cls-1" d="M837.54,4.89l.17,134.42A111.56,111.56,0,0,1,726.25,251l-570,.54A111.6,111.6,0,0,1,44.59,140.06L44.72,6.33"/>
      <g class="cls-4">
        <rect class="cls-5" x="-136.56" y="-520.81" width="887.6" height="687.16" transform="translate(0.65 1.12) rotate(-0.21)"/>
      </g>
    </g>
    <g>
      <g class="cls-6">
        <g>
          <line class="cls-7" x1="81.21" y1="-5.61" x2="81.21" y2="949.02"/>
          <line class="cls-7" x1="101.42" y1="-5.61" x2="101.42" y2="949.02"/>
          <line class="cls-7" x1="39.71" y1="-5.61" x2="39.71" y2="949.02"/>
          <line class="cls-7" x1="59.92" y1="-5.61" x2="59.92" y2="949.02"/>
          <line class="cls-7" x1="142.91" y1="-5.61" x2="142.91" y2="949.02"/>
          <line class="cls-7" x1="163.12" y1="-5.61" x2="163.12" y2="949.02"/>
          <line class="cls-7" x1="121.62" y1="-5.61" x2="121.62" y2="949.02"/>
          <line class="cls-7" x1="204.62" y1="-5.61" x2="204.62" y2="949.02"/>
          <line class="cls-7" x1="224.82" y1="-5.61" x2="224.82" y2="949.02"/>
          <line class="cls-7" x1="183.33" y1="-5.61" x2="183.33" y2="949.02"/>
          <line class="cls-7" x1="246.11" y1="-5.61" x2="246.11" y2="949.02"/>
          <line class="cls-7" x1="266.32" y1="-5.61" x2="266.32" y2="949.02"/>
          <line class="cls-7" x1="307.82" y1="-5.61" x2="307.82" y2="949.02"/>
          <line class="cls-7" x1="328.02" y1="-5.61" x2="328.02" y2="949.02"/>
          <line class="cls-7" x1="286.53" y1="-5.61" x2="286.53" y2="949.02"/>
          <line class="cls-7" x1="369.52" y1="-5.61" x2="369.52" y2="949.02"/>
          <line class="cls-7" x1="389.73" y1="-5.61" x2="389.73" y2="949.02"/>
          <line class="cls-7" x1="348.23" y1="-5.61" x2="348.23" y2="949.02"/>
          <line class="cls-7" x1="411.01" y1="-5.61" x2="411.01" y2="949.02"/>
          <line class="cls-7" x1="431.22" y1="-5.61" x2="431.22" y2="949.02"/>
          <line class="cls-7" x1="472.72" y1="-5.61" x2="472.72" y2="949.02"/>
          <line class="cls-7" x1="492.93" y1="-5.61" x2="492.93" y2="949.02"/>
          <line class="cls-7" x1="451.43" y1="-5.61" x2="451.43" y2="949.02"/>
          <line class="cls-7" x1="534.42" y1="-5.61" x2="534.42" y2="949.02"/>
          <line class="cls-7" x1="554.63" y1="-5.61" x2="554.63" y2="949.02"/>
          <line class="cls-7" x1="513.13" y1="-5.61" x2="513.13" y2="949.02"/>
          <line class="cls-7" x1="575.92" y1="-5.61" x2="575.92" y2="949.02"/>
          <line class="cls-7" x1="596.12" y1="-5.61" x2="596.12" y2="949.02"/>
          <line class="cls-7" x1="637.62" y1="-5.61" x2="637.62" y2="949.02"/>
          <line class="cls-7" x1="657.83" y1="-5.61" x2="657.83" y2="949.02"/>
          <line class="cls-7" x1="616.33" y1="-5.61" x2="616.33" y2="949.02"/>
          <line class="cls-7" x1="699.32" y1="-5.61" x2="699.32" y2="949.02"/>
          <line class="cls-7" x1="719.53" y1="-5.61" x2="719.53" y2="949.02"/>
          <line class="cls-7" x1="678.04" y1="-5.61" x2="678.04" y2="949.02"/>
          <line class="cls-7" x1="740.82" y1="-5.61" x2="740.82" y2="949.02"/>
          <line class="cls-7" x1="761.03" y1="-5.61" x2="761.03" y2="949.02"/>
          <line class="cls-7" x1="802.52" y1="-5.61" x2="802.52" y2="949.02"/>
          <line class="cls-7" x1="822.73" y1="-5.61" x2="822.73" y2="949.02"/>
          <line class="cls-7" x1="781.23" y1="-5.61" x2="781.23" y2="949.02"/>
          <line class="cls-7" x1="844.02" y1="-5.61" x2="844.02" y2="949.02"/>
          <line class="cls-7" x1="864.23" y1="-5.61" x2="864.23" y2="949.02"/>
          <line class="cls-7" x1="905.72" y1="-5.61" x2="905.72" y2="949.02"/>
          <line class="cls-7" x1="925.93" y1="-5.61" x2="925.93" y2="949.02"/>
          <line class="cls-7" x1="884.43" y1="-5.61" x2="884.43" y2="949.02"/>
        </g>
      </g>
      <path class="cls-2" d="M837.48,4.88l.17,134.44A111.55,111.55,0,0,1,726.19,251l-570,.54a113.9,113.9,0,0,1-14.86-1l-2.12-.31c-2.67-.4-5.31-.91-7.92-1.5-.78-.18-1.55-.36-2.32-.56A111.61,111.61,0,0,1,44.84,140.11L44.66,6.33"/>
    </g>
  </g>
</svg>
