<svg id="Laag_1" data-name="Laag 1" xmlns="http://www.w3.org/2000/svg" xmlns:xlink="http://www.w3.org/1999/xlink" viewBox="0 0 812.05 501.46">
  <defs>
    <style>
      .cls-1, .cls-4 {
        fill: none;
        stroke: #503c21;
        stroke-linecap: round;
        stroke-linejoin: round;
      }

      .cls-1 {
        stroke-width: 11px;
      }

      .cls-2 {
        fill: #b4934b;
      }

      .cls-3 {
        clip-path: url(#clip-path);
      }

      .cls-4 {
        stroke-width: 6px;
      }
    </style>
    <clipPath id="clip-path">
      <path class="cls-1" d="M690.54,494.52l-570-.51A111.55,111.55,0,0,1,9.1,382.35l.3-337V42.21a4.61,4.61,0,0,1,.53-.8C24,23.39,196.17,9.3,406.5,9.49,626,9.68,804,25.36,804,44.51a4.27,4.27,0,0,1-1.44,3L802.22,383A111.59,111.59,0,0,1,690.54,494.52Z"/>
    </clipPath>
  </defs>
  <g>
    <path class="cls-2" d="M690.54,494.52l-570-.51A111.55,111.55,0,0,1,9.1,382.35l.3-337V42.21a4.61,4.61,0,0,1,.53-.8C24,23.39,196.17,9.3,406.5,9.49,626,9.68,804,25.36,804,44.51a4.27,4.27,0,0,1-1.44,3L802.22,383A111.59,111.59,0,0,1,690.54,494.52Z"/>
    <g>
      <g class="cls-3">
        <g>
          <line class="cls-4" x1="-80.8" y1="75.89" x2="615.59" y2="772.27"/>
          <line class="cls-4" x1="-116.96" y1="71.15" x2="579.43" y2="767.53"/>
          <line class="cls-4" x1="-112.08" y1="107.17" x2="584.31" y2="803.55"/>
          <line class="cls-4" x1="-148.23" y1="102.42" x2="548.15" y2="798.81"/>
          <line class="cls-4" x1="-143.36" y1="138.45" x2="553.02" y2="834.84"/>
          <line class="cls-4" x1="-179.52" y1="133.71" x2="516.86" y2="830.1"/>
          <line class="cls-4" x1="-174.64" y1="169.73" x2="521.74" y2="866.12"/>
          <line class="cls-4" x1="-252.05" y1="124.2" x2="444.34" y2="820.58"/>
          <line class="cls-4" x1="-247.17" y1="160.22" x2="449.21" y2="856.6"/>
          <line class="cls-4" x1="-283.33" y1="155.48" x2="413.06" y2="851.86"/>
          <line class="cls-4" x1="75.65" y1="-80.56" x2="772.03" y2="615.83"/>
          <line class="cls-4" x1="39.49" y1="-85.3" x2="735.87" y2="611.08"/>
          <line class="cls-4" x1="44.37" y1="-49.28" x2="740.75" y2="647.11"/>
          <line class="cls-4" x1="8.21" y1="-54.02" x2="704.59" y2="642.36"/>
          <line class="cls-4" x1="13.08" y1="-17.99" x2="709.46" y2="678.39"/>
          <line class="cls-4" x1="-23.08" y1="-22.73" x2="673.31" y2="673.65"/>
          <line class="cls-4" x1="-18.2" y1="13.29" x2="678.19" y2="709.67"/>
          <line class="cls-4" x1="-95.6" y1="-32.25" x2="600.78" y2="664.14"/>
          <line class="cls-4" x1="-90.72" y1="3.78" x2="605.66" y2="700.16"/>
          <line class="cls-4" x1="-126.88" y1="-0.97" x2="569.5" y2="695.42"/>
          <line class="cls-4" x1="232.49" y1="-237.4" x2="928.87" y2="458.99"/>
          <line class="cls-4" x1="196.33" y1="-242.14" x2="892.71" y2="454.25"/>
          <line class="cls-4" x1="201.21" y1="-206.12" x2="897.59" y2="490.27"/>
          <line class="cls-4" x1="165.05" y1="-210.86" x2="861.43" y2="485.52"/>
          <line class="cls-4" x1="169.92" y1="-174.83" x2="866.3" y2="521.55"/>
          <line class="cls-4" x1="133.76" y1="-179.57" x2="830.15" y2="516.81"/>
          <line class="cls-4" x1="138.64" y1="-143.55" x2="835.02" y2="552.83"/>
          <line class="cls-4" x1="61.24" y1="-189.09" x2="757.62" y2="507.3"/>
          <line class="cls-4" x1="66.12" y1="-153.06" x2="762.5" y2="543.32"/>
          <line class="cls-4" x1="29.96" y1="-157.81" x2="726.34" y2="538.58"/>
          <line class="cls-4" x1="388.93" y1="-393.84" x2="1085.31" y2="302.54"/>
          <line class="cls-4" x1="424.47" y1="-389.18" x2="1120.85" y2="307.2"/>
          <line class="cls-4" x1="352.77" y1="-398.58" x2="1049.16" y2="297.8"/>
          <line class="cls-4" x1="357.65" y1="-362.56" x2="1054.04" y2="333.82"/>
          <line class="cls-4" x1="321.49" y1="-367.3" x2="1017.88" y2="329.08"/>
          <line class="cls-4" x1="326.36" y1="-331.27" x2="1022.75" y2="365.11"/>
          <line class="cls-4" x1="290.21" y1="-336.02" x2="986.59" y2="360.37"/>
          <line class="cls-4" x1="295.09" y1="-300" x2="991.47" y2="396.39"/>
          <line class="cls-4" x1="217.68" y1="-345.53" x2="914.07" y2="350.85"/>
          <line class="cls-4" x1="222.56" y1="-309.51" x2="918.94" y2="386.87"/>
          <line class="cls-4" x1="186.4" y1="-314.25" x2="882.79" y2="382.13"/>
        </g>
      </g>
      <path class="cls-1" d="M690.54,494.52l-570-.51A111.55,111.55,0,0,1,9.1,382.35l.3-337V42.21a4.61,4.61,0,0,1,.53-.8C24,23.39,196.17,9.3,406.5,9.49,626,9.68,804,25.36,804,44.51a4.27,4.27,0,0,1-1.44,3L802.22,383A111.59,111.59,0,0,1,690.54,494.52Z"/>
    </g>
  </g>
</svg>
