<svg id="Laag_1" data-name="Laag 1" xmlns="http://www.w3.org/2000/svg" xmlns:xlink="http://www.w3.org/1999/xlink" viewBox="0 0 326.4 345.88">
  <defs>
    <style>
      .cls-1, .cls-15, .cls-18, .cls-2, .cls-3, .cls-8 {
        fill: none;
      }

      .cls-2, .cls-3, .cls-8 {
        stroke: #503c21;
      }

      .cls-2 {
        stroke-miterlimit: 10;
        stroke-width: 6px;
      }

      .cls-15, .cls-18, .cls-3 {
        stroke-miterlimit: 10;
      }

      .cls-3, .cls-4 {
        stroke-width: 9px;
      }

      .cls-4 {
        fill: #b4934b;
        stroke: #b4934b;
      }

      .cls-4, .cls-8 {
        stroke-linecap: round;
        stroke-linejoin: round;
      }

      .cls-5 {
        fill: #f2dda6;
      }

      .cls-6 {
        fill: #95743f;
      }

      .cls-7 {
        clip-path: url(#clip-path);
      }

      .cls-8 {
        stroke-width: 5px;
      }

      .cls-9 {
        clip-path: url(#clip-path-2);
      }

      .cls-10 {
        clip-path: url(#clip-path-3);
      }

      .cls-11 {
        clip-path: url(#clip-path-4);
      }

      .cls-12 {
        fill: #b5944b;
      }

      .cls-13 {
        fill: #f5d697;
      }

      .cls-14 {
        clip-path: url(#clip-path-5);
      }

      .cls-15 {
        stroke: #57b24d;
      }

      .cls-15, .cls-18 {
        stroke-width: 108px;
      }

      .cls-16 {
        clip-path: url(#clip-path-6);
      }

      .cls-17 {
        clip-path: url(#clip-path-7);
      }

      .cls-18 {
        stroke: #f4e9d3;
      }
    </style>
    <clipPath id="clip-path">
      <path class="cls-1" d="M-286.7-287.56a13.68,13.68,0,0,0,5.43,8.71l18.89,13.72a2.51,2.51,0,0,0,3.51-.55,2.5,2.5,0,0,0,.44-1.91l-3.45-19.86a13.68,13.68,0,0,0-5.43-8.71l-23.9-17.37Zm42.84-15.32A13.65,13.65,0,0,0-251-295.5l-7.55,18.68a2.52,2.52,0,0,0,1.38,3.28,2.5,2.5,0,0,0,2,0l21.34-9.45a13.65,13.65,0,0,0,7.14-7.38l9.88-24.43Zm2-28.77a13.68,13.68,0,0,0-7.14,7.38l-7.55,18.69a2.51,2.51,0,0,0,1.39,3.27,2.56,2.56,0,0,0,2,0l21.34-9.45a13.73,13.73,0,0,0,7.15-7.38l9.87-24.43Zm-44.86,11.41a13.64,13.64,0,0,0,5.25,8.82l18.61,14.09a2.51,2.51,0,0,0,3.52-.49,2.48,2.48,0,0,0,.48-1.9l-3.06-19.91a13.64,13.64,0,0,0-5.25-8.82l-23.56-17.84Zm48.35-40.5a13.65,13.65,0,0,0-7.14,7.38l-7.55,18.68a2.52,2.52,0,0,0,1.39,3.28,2.52,2.52,0,0,0,2,0l21.34-9.45a13.63,13.63,0,0,0,7.14-7.37l9.87-24.44Zm-44.85,11.36a13.68,13.68,0,0,0,5.44,8.72l18.89,13.71a2.52,2.52,0,0,0,3.51-.56,2.5,2.5,0,0,0,.44-1.91l-3.46-19.85a13.63,13.63,0,0,0-5.44-8.71l-23.91-17.36Zm48.68-40.13a13.68,13.68,0,0,0-7.14,7.38l-7.55,18.69a2.52,2.52,0,0,0,1.39,3.27,2.56,2.56,0,0,0,2,0l21.35-9.45a13.68,13.68,0,0,0,7.14-7.38l9.87-24.43Zm-43.3,10.69a13.61,13.61,0,0,0,4.65,9.15l17.61,15.32a2.52,2.52,0,0,0,3.55-.25,2.54,2.54,0,0,0,.6-1.86l-1.71-20.08a13.65,13.65,0,0,0-4.65-9.16l-22.29-19.38ZM-260.37-412a13.67,13.67,0,0,0,.75,10.24l10.33,20.93a2.51,2.51,0,0,0,3.37,1.14,2.5,2.5,0,0,0,1.28-1.48l6.18-19.18a13.68,13.68,0,0,0-.75-10.24l-13.08-26.49Z"/>
    </clipPath>
    <clipPath id="clip-path-2">
      <path class="cls-1" d="M124.17-287.56a13.64,13.64,0,0,0,5.43,8.71l18.88,13.72a2.51,2.51,0,0,0,3.51-.55,2.55,2.55,0,0,0,.45-1.91L149-287.45a13.68,13.68,0,0,0-5.43-8.71l-23.91-17.37ZM167-302.88a13.65,13.65,0,0,0-7.14,7.38l-7.55,18.68a2.51,2.51,0,0,0,1.38,3.28,2.5,2.5,0,0,0,2,0L177-283a13.65,13.65,0,0,0,7.14-7.38L194-314.83Zm2-28.77a13.68,13.68,0,0,0-7.14,7.38l-7.55,18.69a2.51,2.51,0,0,0,1.39,3.27,2.56,2.56,0,0,0,2,0L179-311.79a13.68,13.68,0,0,0,7.14-7.38L196-343.6Zm-44.87,11.41a13.7,13.7,0,0,0,5.26,8.82L148-297.33a2.51,2.51,0,0,0,3.52-.49,2.52,2.52,0,0,0,.48-1.9L149-319.63a13.65,13.65,0,0,0-5.26-8.82l-23.55-17.84Zm48.35-40.5a13.65,13.65,0,0,0-7.14,7.38l-7.54,18.68a2.52,2.52,0,0,0,1.38,3.28,2.52,2.52,0,0,0,2,0l21.35-9.45a13.63,13.63,0,0,0,7.14-7.37l9.87-24.44Zm-44.84,11.36a13.68,13.68,0,0,0,5.44,8.72L152-326.95a2.52,2.52,0,0,0,3.51-.56,2.5,2.5,0,0,0,.44-1.91l-3.47-19.85A13.66,13.66,0,0,0,147-358l-23.91-17.36Zm48.68-40.13a13.68,13.68,0,0,0-7.14,7.38l-7.55,18.69a2.51,2.51,0,0,0,1.39,3.27,2.56,2.56,0,0,0,2,0l21.34-9.45a13.65,13.65,0,0,0,7.14-7.38l9.87-24.43ZM133-378.82a13.65,13.65,0,0,0,4.65,9.15l17.62,15.32a2.5,2.5,0,0,0,3.54-.25,2.5,2.5,0,0,0,.61-1.86l-1.71-20.08a13.7,13.7,0,0,0-4.65-9.16l-22.29-19.38ZM150.5-412a13.67,13.67,0,0,0,.75,10.24l10.33,20.93a2.5,2.5,0,0,0,3.36,1.14,2.5,2.5,0,0,0,1.28-1.48l6.18-19.18a13.58,13.58,0,0,0-.75-10.24l-13.07-26.49Z"/>
    </clipPath>
    <clipPath id="clip-path-3">
      <path id="Path_200" data-name="Path 200" class="cls-2" d="M580.46-326c-11.68,11.68-70.9-6.44-104.59-40.13-26.3-26.3-26.19-57.1-9.42-73.88s46.16-18.29,73.88,9.43C576.29-394.62,592.41-337.95,580.46-326Z"/>
    </clipPath>
    <clipPath id="clip-path-4">
      <path class="cls-3" d="M-386.35,146.9c11.88,23.15,54.73,3.06,54.4,23.47-.32,19.46-16.46,17.12-12.24,32.66,7.1,26.2,62.18-9.66,96.55,19.75,29.71,25.44,46.91,2.87,81.86-6.12s20.52-21.09,22.55-30.16,11.33-18.81,17.85-25.3c7.19-7.15,23.07-53.68-34.37-40.13-24.5,5.77-31,12.42-60.51-8-4.82-3.34-17.29-19.77-31.67-15.61-10,2.89,5.35,22.46-13.76,25-12,1.59-39.43-30.12-59.78-15.47C-361.56,133-395.19,129.68-386.35,146.9Zm123-47.63c-.27,7.92-7.59,3.26-13.54.33s-9.55-7.81-8-10.92,7.59-3.25,13.54-.32S-263.11,91.89-263.36,99.27Zm-120.51,58.92c7.28,2.33,4.27,5.56,2.61,8.42a6.48,6.48,0,0,1-9,1.69,6.5,6.5,0,0,1-2.19-8.16C-390.82,157.27-390.66,156-383.87,158.19Zm257,45.29c-1.46,3.23-3.19,1.12-4.75-.24a3,3,0,0,1-1.31-4.08,3,3,0,0,1,4.07-1.3,2.91,2.91,0,0,1,1.09.94C-126.16,200.17-125.47,200.48-126.83,203.48ZM-289.73,91.59c1.37,3-2.22,2.62-5,2.64s-5-1.14-5-2.58,2.22-2.63,5-2.65S-291,88.78-289.73,91.59Z"/>
    </clipPath>
    <clipPath id="clip-path-5">
      <path class="cls-1" d="M280.6,198.56a3.43,3.43,0,0,0,.9,4.68c1.56,1.36,3.3,3.47,4.76.24,1.36-3,.66-3.32-.9-4.68a4.25,4.25,0,0,0-2.74-1.09,2.6,2.6,0,0,0-2,.85m-260-38.42a6.49,6.49,0,0,0,11.21,6.47c1.66-2.86,4.67-6.09-2.61-8.42a17.69,17.69,0,0,0-5-1.1c-2.05,0-2.49,1.18-3.57,3M161.16,97.45c-10,2.89,5.35,22.46-13.76,25-5,.66-12.71-4.5-21.48-9.65-12.2-7.18-26.45-14.35-38.29-5.82-36.1,26-69.73,22.71-60.89,39.93,11.87,23.15,54.73,3.06,54.4,23.47C80.82,189.83,64.68,187.49,68.9,203c3.46,12.77,18.32,10.8,36.62,8.83,19.25-2.08,42.31-4.15,59.93,10.92,29.72,25.44,46.91,2.87,81.86-6.12s20.52-21.09,22.55-30.16,11.33-18.8,17.85-25.3c7.19-7.15,23.07-53.67-34.37-40.13-24.5,5.78-31,12.42-60.51-8-4.29-3-14.62-16.27-27-16.27a17,17,0,0,0-4.71.66M118.34,89c-2.77,0-5,1.19-5,2.64s2.26,2.6,5,2.58h.89c2.58,0,5.33,0,4.1-2.64-1.08-2.38-2-2.6-3.88-2.6h-1.14m9.83-.32c-1.52,3.11,2.07,8,8,10.92s13.27,7.59,13.54-.33c.25-7.38-2.06-8-8-10.92a19.28,19.28,0,0,0-8.14-2.1c-2.59,0-4.61.82-5.41,2.43"/>
    </clipPath>
    <clipPath id="clip-path-6">
      <path class="cls-3" d="M26.74,146.9c11.88,23.15,54.73,3.06,54.4,23.47C80.82,189.83,64.68,187.49,68.9,203c7.1,26.2,62.18-9.66,96.55,19.75,29.72,25.44,46.91,2.87,81.86-6.12s20.52-21.09,22.55-30.16,11.33-18.81,17.85-25.3c7.19-7.15,23.07-53.68-34.37-40.13-24.5,5.77-31,12.42-60.51-8-4.82-3.34-17.29-19.77-31.67-15.61-10,2.89,5.35,22.46-13.76,25C135.42,124,108,92.31,87.62,107,51.53,133,17.9,129.68,26.74,146.9Zm123-47.63c-.27,7.92-7.59,3.26-13.54.33s-9.55-7.81-8-10.92,7.59-3.25,13.54-.32S150,91.89,149.73,99.27ZM29.22,158.19c7.28,2.33,4.27,5.56,2.61,8.42a6.49,6.49,0,0,1-11.21-6.47C22.27,157.27,22.43,156,29.22,158.19Zm257,45.29c-1.46,3.23-3.19,1.12-4.75-.24a3,3,0,1,1,2.76-5.38,2.91,2.91,0,0,1,1.09.94C286.93,200.17,287.62,200.48,286.26,203.48ZM123.36,91.59c1.37,3-2.22,2.62-5,2.64s-5-1.14-5-2.58,2.22-2.63,5-2.65S122.08,88.78,123.36,91.59Z"/>
    </clipPath>
    <clipPath id="clip-path-7">
      <path class="cls-1" d="M688.48,198.56a3.42,3.42,0,0,0,.89,4.68c1.57,1.36,3.3,3.47,4.76.24,1.36-3,.66-3.32-.89-4.68a4.3,4.3,0,0,0-2.75-1.09,2.56,2.56,0,0,0-2,.85m-260-38.42a6.5,6.5,0,0,0,11.22,6.47c1.65-2.86,4.67-6.09-2.61-8.42a17.77,17.77,0,0,0-5-1.1c-2.06,0-2.5,1.18-3.58,3M569,97.45c-10,2.89,5.35,22.46-13.77,25-5,.66-12.71-4.5-21.47-9.65-12.21-7.18-26.46-14.35-38.3-5.82-36.09,26-69.72,22.71-60.89,39.93,11.88,23.15,54.73,3.06,54.4,23.47-.31,19.46-16.46,17.12-12.24,32.66,3.46,12.77,18.32,10.8,36.62,8.83,19.25-2.08,42.31-4.15,59.93,10.92,29.72,25.44,46.91,2.87,81.87-6.12s20.51-21.09,22.55-30.16,11.32-18.8,17.85-25.3c7.18-7.15,23.07-53.67-34.37-40.13-24.5,5.78-31,12.42-60.51-8-4.29-3-14.62-16.27-27-16.27a17.06,17.06,0,0,0-4.71.66M526.21,89c-2.77,0-5,1.19-5,2.64s2.26,2.6,5,2.58h.9c2.57,0,5.33,0,4.1-2.64-1.09-2.38-2-2.6-3.88-2.6h-1.14m9.83-.32c-1.53,3.11,2.06,8,8,10.92s13.28,7.59,13.54-.33c.26-7.38-2.06-8-8-10.92a19.2,19.2,0,0,0-8.14-2.1c-2.59,0-4.61.82-5.4,2.43"/>
    </clipPath>
  </defs>
  <g id="Group_108" data-name="Group 108">
    <g id="Rectangle_41" data-name="Rectangle 41">
      <rect class="cls-4" x="6.47" y="31.67" width="313.77" height="309.7" rx="44.82"/>
      <g>
        <rect class="cls-5" x="5.79" y="5.5" width="315.11" height="310.87" rx="41.09"/>
        <path class="cls-6" d="M279.81,11A35.63,35.63,0,0,1,315.4,46.59v228.7a35.63,35.63,0,0,1-35.59,35.58H46.88a35.62,35.62,0,0,1-35.59-35.58V46.59A35.62,35.62,0,0,1,46.88,11H279.81m0-11H46.88A46.59,46.59,0,0,0,.29,46.59v228.7a46.59,46.59,0,0,0,46.59,46.58H279.81a46.59,46.59,0,0,0,46.59-46.58V46.59A46.59,46.59,0,0,0,279.81,0Z"/>
      </g>
    </g>
  </g>
  <g class="cls-7">
    <g>
      <line class="cls-8" x1="36.39" y1="-767.31" x2="36.39" y2="187.32"/>
      <line class="cls-8" x1="56.59" y1="-767.31" x2="56.59" y2="187.32"/>
      <line class="cls-8" x1="15.1" y1="-767.31" x2="15.1" y2="187.32"/>
      <line class="cls-8" x1="77.88" y1="-767.31" x2="77.88" y2="187.32"/>
      <line class="cls-8" x1="98.09" y1="-767.31" x2="98.09" y2="187.32"/>
      <line class="cls-8" x1="139.59" y1="-767.31" x2="139.59" y2="187.32"/>
      <line class="cls-8" x1="159.79" y1="-767.31" x2="159.79" y2="187.32"/>
      <line class="cls-8" x1="118.3" y1="-767.31" x2="118.3" y2="187.32"/>
      <line class="cls-8" x1="181.08" y1="-767.31" x2="181.08" y2="187.32"/>
      <line class="cls-8" x1="201.29" y1="-767.31" x2="201.29" y2="187.32"/>
      <line class="cls-8" x1="242.78" y1="-767.31" x2="242.78" y2="187.32"/>
      <line class="cls-8" x1="262.99" y1="-767.31" x2="262.99" y2="187.32"/>
      <line class="cls-8" x1="221.5" y1="-767.31" x2="221.5" y2="187.32"/>
      <line class="cls-8" x1="304.49" y1="-767.31" x2="304.49" y2="187.32"/>
      <line class="cls-8" x1="324.7" y1="-767.31" x2="324.7" y2="187.32"/>
      <line class="cls-8" x1="283.2" y1="-767.31" x2="283.2" y2="187.32"/>
    </g>
  </g>
  <g class="cls-9">
    <g>
      <line class="cls-8" x1="14.25" y1="-767.31" x2="14.25" y2="187.32"/>
      <line class="cls-8" x1="55.74" y1="-767.31" x2="55.74" y2="187.32"/>
      <line class="cls-8" x1="75.95" y1="-767.31" x2="75.95" y2="187.32"/>
      <line class="cls-8" x1="34.46" y1="-767.31" x2="34.46" y2="187.32"/>
      <line class="cls-8" x1="117.45" y1="-767.31" x2="117.45" y2="187.32"/>
      <line class="cls-8" x1="137.66" y1="-767.31" x2="137.66" y2="187.32"/>
      <line class="cls-8" x1="96.16" y1="-767.31" x2="96.16" y2="187.32"/>
      <line class="cls-8" x1="158.94" y1="-767.31" x2="158.94" y2="187.32"/>
      <line class="cls-8" x1="179.15" y1="-767.31" x2="179.15" y2="187.32"/>
      <line class="cls-8" x1="220.65" y1="-767.31" x2="220.65" y2="187.32"/>
      <line class="cls-8" x1="240.86" y1="-767.31" x2="240.86" y2="187.32"/>
      <line class="cls-8" x1="199.36" y1="-767.31" x2="199.36" y2="187.32"/>
      <line class="cls-8" x1="282.35" y1="-767.31" x2="282.35" y2="187.32"/>
      <line class="cls-8" x1="302.56" y1="-767.31" x2="302.56" y2="187.32"/>
      <line class="cls-8" x1="261.06" y1="-767.31" x2="261.06" y2="187.32"/>
      <line class="cls-8" x1="323.85" y1="-767.31" x2="323.85" y2="187.32"/>
    </g>
  </g>
  <g id="Group_151" data-name="Group 151">
    <g id="Group_149" data-name="Group 149">
      <g>
        <g class="cls-10">
          <g>
            <line class="cls-8" x1="4.67" y1="-700.79" x2="4.67" y2="253.84"/>
            <line class="cls-8" x1="46.17" y1="-700.79" x2="46.17" y2="253.84"/>
            <line class="cls-8" x1="66.37" y1="-700.79" x2="66.37" y2="253.84"/>
            <line class="cls-8" x1="24.88" y1="-700.79" x2="24.88" y2="253.84"/>
            <line class="cls-8" x1="87.66" y1="-700.79" x2="87.66" y2="253.84"/>
            <line class="cls-8" x1="107.87" y1="-700.79" x2="107.87" y2="253.84"/>
            <line class="cls-8" x1="149.37" y1="-700.79" x2="149.37" y2="253.84"/>
            <line class="cls-8" x1="169.57" y1="-700.79" x2="169.57" y2="253.84"/>
            <line class="cls-8" x1="128.08" y1="-700.79" x2="128.08" y2="253.84"/>
            <line class="cls-8" x1="211.07" y1="-700.79" x2="211.07" y2="253.84"/>
            <line class="cls-8" x1="231.28" y1="-700.79" x2="231.28" y2="253.84"/>
            <line class="cls-8" x1="189.78" y1="-700.79" x2="189.78" y2="253.84"/>
            <line class="cls-8" x1="252.56" y1="-700.79" x2="252.56" y2="253.84"/>
            <line class="cls-8" x1="272.77" y1="-700.79" x2="272.77" y2="253.84"/>
            <line class="cls-8" x1="314.27" y1="-700.79" x2="314.27" y2="253.84"/>
            <line class="cls-8" x1="292.98" y1="-700.79" x2="292.98" y2="253.84"/>
          </g>
        </g>
        <path id="Path_200-2" data-name="Path 200" class="cls-2" d="M580.46-326c-11.68,11.68-70.9-6.44-104.59-40.13-26.3-26.3-26.19-57.1-9.42-73.88s46.16-18.29,73.88,9.43C576.29-394.62,592.41-337.95,580.46-326Z"/>
      </g>
    </g>
  </g>
  <g id="Group_186" data-name="Group 186">
    <g>
      <g class="cls-11">
        <g>
          <line class="cls-8" x1="-1.35" y1="-497.28" x2="-1.35" y2="425.54"/>
          <line class="cls-8" x1="18.18" y1="-497.28" x2="18.18" y2="425.54"/>
          <line class="cls-8" x1="38.76" y1="-497.28" x2="38.76" y2="425.54"/>
          <line class="cls-8" x1="58.29" y1="-497.28" x2="58.29" y2="425.54"/>
          <line class="cls-8" x1="98.41" y1="-497.28" x2="98.41" y2="425.54"/>
          <line class="cls-8" x1="117.94" y1="-497.28" x2="117.94" y2="425.54"/>
          <line class="cls-8" x1="77.83" y1="-497.28" x2="77.83" y2="425.54"/>
          <line class="cls-8" x1="158.05" y1="-497.28" x2="158.05" y2="425.54"/>
          <line class="cls-8" x1="177.59" y1="-497.28" x2="177.59" y2="425.54"/>
          <line class="cls-8" x1="137.48" y1="-497.28" x2="137.48" y2="425.54"/>
          <line class="cls-8" x1="198.17" y1="-497.28" x2="198.17" y2="425.54"/>
          <line class="cls-8" x1="217.7" y1="-497.28" x2="217.7" y2="425.54"/>
          <line class="cls-8" x1="257.81" y1="-497.28" x2="257.81" y2="425.54"/>
          <line class="cls-8" x1="277.35" y1="-497.28" x2="277.35" y2="425.54"/>
          <line class="cls-8" x1="237.24" y1="-497.28" x2="237.24" y2="425.54"/>
          <line class="cls-8" x1="297.93" y1="-497.28" x2="297.93" y2="425.54"/>
          <line class="cls-8" x1="317.46" y1="-497.28" x2="317.46" y2="425.54"/>
        </g>
      </g>
      <path class="cls-3" d="M-386.35,146.9c11.88,23.15,54.73,3.06,54.4,23.47-.32,19.46-16.46,17.12-12.24,32.66,7.1,26.2,62.18-9.66,96.55,19.75,29.71,25.44,46.91,2.87,81.86-6.12s20.52-21.09,22.55-30.16,11.33-18.81,17.85-25.3c7.19-7.15,23.07-53.68-34.37-40.13-24.5,5.77-31,12.42-60.51-8-4.82-3.34-17.29-19.77-31.67-15.61-10,2.89,5.35,22.46-13.76,25-12,1.59-39.43-30.12-59.78-15.47C-361.56,133-395.19,129.68-386.35,146.9Zm123-47.63c-.27,7.92-7.59,3.26-13.54.33s-9.55-7.81-8-10.92,7.59-3.25,13.54-.32S-263.11,91.89-263.36,99.27Zm-120.51,58.92c7.28,2.33,4.27,5.56,2.61,8.42a6.48,6.48,0,0,1-9,1.69,6.5,6.5,0,0,1-2.19-8.16C-390.82,157.27-390.66,156-383.87,158.19Zm257,45.29c-1.46,3.23-3.19,1.12-4.75-.24a3,3,0,0,1-1.31-4.08,3,3,0,0,1,4.07-1.3,2.91,2.91,0,0,1,1.09.94C-126.16,200.17-125.47,200.48-126.83,203.48ZM-289.73,91.59c1.37,3-2.22,2.62-5,2.64s-5-1.14-5-2.58,2.22-2.63,5-2.65S-291,88.78-289.73,91.59Z"/>
    </g>
  </g>
  <g id="Group_186-2" data-name="Group 186">
    <g id="Group_181" data-name="Group 181">
      <g id="Group_188" data-name="Group 188">
        <path id="Path_264" data-name="Path 264" class="cls-12" d="M38.18,159.51c11.88,23.15,54.74,3.06,54.4,23.48-.31,19.45-16.46,17.11-12.24,32.66,7.1,26.19,62.18-9.67,96.55,19.75,29.71,25.43,46.9,2.87,81.86-6.13s20.52-21.09,22.55-30.16,11.33-18.8,17.85-25.29c7.19-7.16,23.07-53.68-34.37-40.14-24.5,5.78-31,12.43-60.51-8-4.82-3.34-17.3-19.76-31.67-15.61-10,2.89,5.35,22.46-13.77,25-12,1.58-39.43-30.13-59.77-15.47-36.09,26-69.72,22.71-60.89,39.93"/>
        <path id="Path_265" data-name="Path 265" class="cls-12" d="M161.17,111.89c-.27,7.91-7.59,3.25-13.54.32s-9.54-7.81-8-10.91S147.2,98,153.16,101s8.26,3.53,8,10.92"/>
        <path id="Path_266" data-name="Path 266" class="cls-12" d="M40.67,170.8c7.28,2.33,4.26,5.56,2.61,8.43a6.5,6.5,0,0,1-11.22-6.48c1.66-2.86,1.82-4.12,8.61-1.95"/>
        <path id="Path_267" data-name="Path 267" class="cls-12" d="M297.71,216.1c-1.46,3.22-3.2,1.11-4.76-.25a3,3,0,1,1,2.77-5.38,3.12,3.12,0,0,1,1.09.95c1.56,1.36,2.26,1.67.89,4.68"/>
        <path id="Path_268" data-name="Path 268" class="cls-12" d="M134.81,104.2c1.37,3-2.23,2.62-5,2.64s-5-1.14-5-2.58,2.23-2.63,5-2.65,3.74-.22,5,2.59"/>
        <path id="Path_269" data-name="Path 269" class="cls-13" d="M87.63,107C108,92.31,135.43,124,147.4,122.44c19.11-2.53,3.75-22.1,13.76-25,14.38-4.15,26.85,12.27,31.67,15.61,29.49,20.44,36,13.79,60.51,8,57.45-13.54,41.56,33,34.38,40.14-6.53,6.49-15.81,16.18-17.85,25.29s12.4,21.16-22.55,30.16-52.14,31.57-81.87,6.13C131.08,193.37,76,229.23,68.9,203c-4.21-15.55,11.93-13.21,12.25-32.66.33-20.42-42.53-.32-54.41-23.48C17.91,129.69,51.54,133,87.63,107m54.08-18.61c-6-2.92-12-2.78-13.54.33s2.07,8,8,10.91,13.27,7.6,13.54-.32c.25-7.39-2.06-8-8-10.92M20.63,160.14a6.49,6.49,0,0,0,11.21,6.48c1.65-2.87,4.67-6.1-2.61-8.43-6.79-2.17-6.95-.91-8.61,1.95m264.75,38.67a3,3,0,1,0-3.85,4.43c1.56,1.36,3.3,3.47,4.75.25,1.37-3,.67-3.32-.89-4.68M118.34,89c-2.77,0-5,1.2-5,2.64s2.25,2.6,5,2.59,6.36.36,5-2.64c-1.28-2.81-2.26-2.6-5-2.59"/>
      </g>
    </g>
    <g id="Group_183" data-name="Group 183">
      <g class="cls-14">
        <g id="Group_182" data-name="Group 182">
          <rect id="Rectangle_151" data-name="Rectangle 151" class="cls-15" x="-90.21" y="-43.59" width="356.84" height="278.64"/>
        </g>
      </g>
    </g>
    <g>
      <g class="cls-16">
        <g>
          <line class="cls-8" x1="33.28" y1="-497.28" x2="33.28" y2="425.54"/>
          <line class="cls-8" x1="52.81" y1="-497.28" x2="52.81" y2="425.54"/>
          <line class="cls-8" x1="12.7" y1="-497.28" x2="12.7" y2="425.54"/>
          <line class="cls-8" x1="92.92" y1="-497.28" x2="92.92" y2="425.54"/>
          <line class="cls-8" x1="112.46" y1="-497.28" x2="112.46" y2="425.54"/>
          <line class="cls-8" x1="72.34" y1="-497.28" x2="72.34" y2="425.54"/>
          <line class="cls-8" x1="133.04" y1="-497.28" x2="133.04" y2="425.54"/>
          <line class="cls-8" x1="152.57" y1="-497.28" x2="152.57" y2="425.54"/>
          <line class="cls-8" x1="192.68" y1="-497.28" x2="192.68" y2="425.54"/>
          <line class="cls-8" x1="212.22" y1="-497.28" x2="212.22" y2="425.54"/>
          <line class="cls-8" x1="172.1" y1="-497.28" x2="172.1" y2="425.54"/>
          <line class="cls-8" x1="252.33" y1="-497.28" x2="252.33" y2="425.54"/>
          <line class="cls-8" x1="271.86" y1="-497.28" x2="271.86" y2="425.54"/>
          <line class="cls-8" x1="231.75" y1="-497.28" x2="231.75" y2="425.54"/>
          <line class="cls-8" x1="292.44" y1="-497.28" x2="292.44" y2="425.54"/>
          <line class="cls-8" x1="311.98" y1="-497.28" x2="311.98" y2="425.54"/>
        </g>
      </g>
      <path class="cls-3" d="M26.74,146.9c11.88,23.15,54.73,3.06,54.4,23.47C80.82,189.83,64.68,187.49,68.9,203c7.1,26.2,62.18-9.66,96.55,19.75,29.72,25.44,46.91,2.87,81.86-6.12s20.52-21.09,22.55-30.16,11.33-18.81,17.85-25.3c7.19-7.15,23.07-53.68-34.37-40.13-24.5,5.77-31,12.42-60.51-8-4.82-3.34-17.29-19.77-31.67-15.61-10,2.89,5.35,22.46-13.76,25C135.42,124,108,92.31,87.62,107,51.53,133,17.9,129.68,26.74,146.9Zm123-47.63c-.27,7.92-7.59,3.26-13.54.33s-9.55-7.81-8-10.92,7.59-3.25,13.54-.32S150,91.89,149.73,99.27ZM29.22,158.19c7.28,2.33,4.27,5.56,2.61,8.42a6.49,6.49,0,0,1-11.21-6.47C22.27,157.27,22.43,156,29.22,158.19Zm257,45.29c-1.46,3.23-3.19,1.12-4.75-.24a3,3,0,1,1,2.76-5.38,2.91,2.91,0,0,1,1.09.94C286.93,200.17,287.62,200.48,286.26,203.48ZM123.36,91.59c1.37,3-2.22,2.62-5,2.64s-5-1.14-5-2.58,2.22-2.63,5-2.65S122.08,88.78,123.36,91.59Z"/>
    </g>
  </g>
  <g id="Group_186-3" data-name="Group 186">
    <g id="Group_183-2" data-name="Group 183">
      <g class="cls-17">
        <g id="Group_182-2" data-name="Group 182">
          <rect id="Rectangle_151-2" data-name="Rectangle 151" class="cls-18" x="317.66" y="-43.59" width="356.84" height="278.64"/>
        </g>
      </g>
    </g>
  </g>
</svg>
