<svg id="Laag_1" data-name="Laag 1" xmlns="http://www.w3.org/2000/svg" xmlns:xlink="http://www.w3.org/1999/xlink" viewBox="0 0 739.52 507.39">
  <defs>
    <style>
      .cls-1, .cls-2, .cls-5, .cls-7 {
        fill: none;
      }

      .cls-2, .cls-7 {
        stroke: #503c21;
      }

      .cls-2, .cls-5 {
        stroke-miterlimit: 10;
      }

      .cls-2 {
        stroke-width: 7px;
      }

      .cls-3 {
        fill: #f5d697;
      }

      .cls-4 {
        clip-path: url(#clip-path);
      }

      .cls-5 {
        stroke: #e63a27;
        stroke-width: 210px;
      }

      .cls-6 {
        clip-path: url(#clip-path-2);
      }

      .cls-7 {
        stroke-linecap: round;
        stroke-linejoin: round;
        stroke-width: 5px;
      }
    </style>
    <clipPath id="clip-path">
      <path class="cls-1" d="M671,490c-3.29-1.12-3.12.9.4,4.5s7.17,8,12.34,8.54c4.81.54,3.12-.9-.4-4.5a44.91,44.91,0,0,0-6.71-5.51,26.36,26.36,0,0,0-5.63-3M7.27,7.6c-5.52-1.13-4,3.27,3.3,9.85s17.79,12.82,23.31,14,14.76,4.44-3.29-9.85C24.71,16.92,20.77,14,17.9,12A22,22,0,0,0,7.27,7.61m393.8,208.91c-27.38-15.86,4.56,23.4-46.47-8.74-13.36-8.42-31.36-25.22-52.11-43.88-28.91-26-63.16-55.58-97.7-71.16C99.5,45.24,12.94-16.12,28.82,10.16c21.35,35.35,141.84,98.45,132.41,110.55-9,11.55-50.22-18.39-45.72-1.3,3.69,14.05,43.37,39,92.06,70.08C258.77,222.15,320,261.54,359.7,302c67.06,68.24,121.45,84.51,216.64,140.58s62.49,23.07,71.62,21,37.51,8.29,57.28,15.76c21.8,8.23,82.84,7.32-73-85.58-66.48-39.61-86.33-47-154.87-111.7-10-9.41-31.4-35.91-63.67-57.68q-6-4.07-12.59-7.89M292.63,135.73c-7.24-4.87-13.58-8.08-14.16-7.16s4.82,5.59,12,10.46l2.33,1.57c6.72,4.56,13.92,9.43,11.84,5.59-1.85-3.4-4-5.06-9.08-8.47l-3-2m25.84,17.14c-5.29-.76,2,8.61,16.39,20.93s31.52,28.13,35.54,23.68c3.76-4.15-2-8.61-16.38-20.93a229.33,229.33,0,0,0-20.4-15.66c-6.78-4.57-12.4-7.62-15.15-8"/>
    </clipPath>
    <clipPath id="clip-path-2">
      <path class="cls-2" d="M28.82,10.16C50.18,45.51,170.66,108.6,161.24,120.71c-9,11.54-50.22-18.39-45.73-1.3C123.1,148.22,282.17,223.08,359.71,302c67.05,68.23,121.44,84.51,216.63,140.58s62.49,23.06,71.62,21,37.51,8.28,57.28,15.75c21.8,8.24,82.84,7.33-73-85.57-66.48-39.61-86.33-47-154.87-111.7-11.2-10.59-36.93-42.79-76.26-65.57-27.39-15.85,4.56,23.4-46.47-8.74-32-20.13-90.48-88.27-149.81-115C99.51,45.23,12.94-16.12,28.82,10.16ZM370.4,197.48c-4,4.45-21.21-11.36-35.55-23.68s-21.67-21.69-16.38-20.93,21.2,11.36,35.55,23.68S374.15,193.33,370.4,197.48ZM30.59,21.57c18.06,14.29,8.82,11,3.29,9.84s-16-7.39-23.32-14-8.82-11-3.29-9.84S13.75,8.24,30.59,21.57ZM683.72,503.09c-5.16-.57-8.82-4.94-12.34-8.54s-3.69-5.62-.39-4.5a39.47,39.47,0,0,1,12.34,8.54C686.85,502.19,688.54,503.61,683.72,503.09Zm-379-356.9c2.33,4.29-6.93-2.29-14.16-7.16s-12.63-9.55-12-10.46,6.92,2.29,14.16,7.16S302.51,142.19,304.68,146.19Z"/>
    </clipPath>
  </defs>
  <g id="Group_197" data-name="Group 197">
    <g id="Group_191" data-name="Group 191">
      <path id="Path_276" data-name="Path 276" class="cls-3" d="M204.79,92.73c59.34,26.77,117.84,94.91,149.81,115.05,51,32.13,19.09-7.12,46.47,8.73,39.33,22.78,65.06,55,76.27,65.57,68.53,64.72,88.38,72.09,154.86,111.71,155.89,92.89,94.84,93.8,73,85.57-19.78-7.47-48.11-17.8-57.28-15.76s23.57,35-71.63-21S426.76,370.23,359.71,302c-77.54-78.9-236.61-153.76-244.19-182.58-4.5-17.09,36.73,12.84,45.72,1.3C170.67,108.6,50.18,45.51,28.82,10.16,13-16.12,99.51,45.24,204.79,92.73M354,176.55c-14.34-12.31-30.26-22.92-35.55-23.68s2,8.61,16.39,20.93,31.52,28.13,35.54,23.68c3.76-4.15-2-8.61-16.38-20.93M7.27,7.6c-5.52-1.13-4,3.28,3.3,9.85s17.79,12.83,23.31,14,14.76,4.44-3.29-9.85C13.75,8.24,12.8,8.74,7.27,7.6m676.06,491A39.11,39.11,0,0,0,671,490c-3.29-1.11-3.12.9.4,4.5s7.17,8,12.34,8.54c4.81.54,3.12-.89-.4-4.49M292.63,135.73c-7.24-4.87-13.58-8.07-14.16-7.16s4.81,5.6,12,10.46,16.49,11.45,14.16,7.16c-2.18-4-4.81-5.59-12.05-10.46"/>
    </g>
    <g id="Group_194" data-name="Group 194">
      <g class="cls-4">
        <g id="Group_193" data-name="Group 193">
          <rect id="Rectangle_158" data-name="Rectangle 158" class="cls-5" x="109.32" y="-360.7" width="331.26" height="974.6" transform="translate(16.24 283.75) rotate(-56)"/>
        </g>
      </g>
    </g>
    <g id="Group_195" data-name="Group 195">
      <g class="cls-6">
        <g>
          <line class="cls-7" x1="317.66" y1="-281.82" x2="-240.46" y2="453.1"/>
          <line class="cls-7" x1="333.21" y1="-270.01" x2="-224.9" y2="464.91"/>
          <line class="cls-7" x1="285.71" y1="-306.08" x2="-272.41" y2="428.84"/>
          <line class="cls-7" x1="301.27" y1="-294.27" x2="-256.85" y2="440.65"/>
          <line class="cls-7" x1="365.16" y1="-245.75" x2="-192.96" y2="489.17"/>
          <line class="cls-7" x1="380.72" y1="-233.93" x2="-177.4" y2="500.99"/>
          <line class="cls-7" x1="348.77" y1="-258.19" x2="-209.35" y2="476.73"/>
          <line class="cls-7" x1="412.66" y1="-209.67" x2="-145.46" y2="525.24"/>
          <line class="cls-7" x1="428.22" y1="-197.86" x2="-129.9" y2="537.06"/>
          <line class="cls-7" x1="396.27" y1="-222.12" x2="-161.84" y2="512.8"/>
          <line class="cls-7" x1="444.61" y1="-185.41" x2="-113.51" y2="549.5"/>
          <line class="cls-7" x1="460.16" y1="-173.6" x2="-97.95" y2="561.32"/>
          <line class="cls-7" x1="492.11" y1="-149.34" x2="-66.01" y2="585.58"/>
          <line class="cls-7" x1="507.67" y1="-137.53" x2="-50.45" y2="597.39"/>
          <line class="cls-7" x1="475.72" y1="-161.78" x2="-82.4" y2="573.13"/>
          <line class="cls-7" x1="539.61" y1="-113.27" x2="-18.51" y2="621.65"/>
          <line class="cls-7" x1="555.17" y1="-101.45" x2="-2.95" y2="633.47"/>
          <line class="cls-7" x1="523.22" y1="-125.71" x2="-34.9" y2="609.21"/>
          <line class="cls-7" x1="571.56" y1="-89.01" x2="13.44" y2="645.91"/>
          <line class="cls-7" x1="587.11" y1="-77.19" x2="28.99" y2="657.73"/>
          <line class="cls-7" x1="619.06" y1="-52.93" x2="60.94" y2="681.99"/>
          <line class="cls-7" x1="634.61" y1="-41.12" x2="76.5" y2="693.8"/>
          <line class="cls-7" x1="602.67" y1="-65.38" x2="44.55" y2="669.54"/>
          <line class="cls-7" x1="666.56" y1="-16.86" x2="108.44" y2="718.06"/>
          <line class="cls-7" x1="682.12" y1="-5.04" x2="124" y2="729.88"/>
          <line class="cls-7" x1="650.17" y1="-29.3" x2="92.05" y2="705.62"/>
          <line class="cls-7" x1="698.5" y1="7.4" x2="140.39" y2="742.32"/>
          <line class="cls-7" x1="714.06" y1="19.22" x2="155.94" y2="754.14"/>
          <line class="cls-7" x1="746.01" y1="43.48" x2="187.89" y2="778.4"/>
          <line class="cls-7" x1="761.56" y1="55.29" x2="203.45" y2="790.21"/>
          <line class="cls-7" x1="729.62" y1="31.03" x2="171.5" y2="765.95"/>
          <line class="cls-7" x1="793.51" y1="79.55" x2="235.39" y2="814.47"/>
          <line class="cls-7" x1="809.07" y1="91.37" x2="250.95" y2="826.29"/>
          <line class="cls-7" x1="777.12" y1="67.11" x2="219" y2="802.03"/>
          <line class="cls-7" x1="825.45" y1="103.81" x2="267.34" y2="838.73"/>
          <line class="cls-7" x1="841.01" y1="115.63" x2="282.89" y2="850.55"/>
          <line class="cls-7" x1="872.96" y1="139.89" x2="314.84" y2="874.81"/>
          <line class="cls-7" x1="888.51" y1="151.7" x2="330.39" y2="886.62"/>
          <line class="cls-7" x1="856.57" y1="127.44" x2="298.45" y2="862.36"/>
          <line class="cls-7" x1="904.9" y1="164.15" x2="346.78" y2="899.07"/>
          <line class="cls-7" x1="920.46" y1="175.96" x2="362.34" y2="910.88"/>
          <line class="cls-7" x1="952.4" y1="200.22" x2="394.28" y2="935.14"/>
          <line class="cls-7" x1="967.96" y1="212.04" x2="409.84" y2="946.95"/>
          <line class="cls-7" x1="936.01" y1="187.78" x2="377.9" y2="922.69"/>
          <line class="cls-7" x1="999.9" y1="236.3" x2="441.79" y2="971.21"/>
          <line class="cls-7" x1="1015.46" y1="248.11" x2="457.34" y2="983.03"/>
          <line class="cls-7" x1="983.52" y1="223.85" x2="425.4" y2="958.77"/>
        </g>
      </g>
      <path class="cls-2" d="M28.82,10.16C50.18,45.51,170.66,108.6,161.24,120.71c-9,11.54-50.22-18.39-45.73-1.3C123.1,148.22,282.17,223.08,359.71,302c67.05,68.23,121.44,84.51,216.63,140.58s62.49,23.06,71.62,21,37.51,8.28,57.28,15.75c21.8,8.24,82.84,7.33-73-85.57-66.48-39.61-86.33-47-154.87-111.7-11.2-10.59-36.93-42.79-76.26-65.57-27.39-15.85,4.56,23.4-46.47-8.74-32-20.13-90.48-88.27-149.81-115C99.51,45.23,12.94-16.12,28.82,10.16ZM370.4,197.48c-4,4.45-21.21-11.36-35.55-23.68s-21.67-21.69-16.38-20.93,21.2,11.36,35.55,23.68S374.15,193.33,370.4,197.48ZM30.59,21.57c18.06,14.29,8.82,11,3.29,9.84s-16-7.39-23.32-14-8.82-11-3.29-9.84S13.75,8.24,30.59,21.57ZM683.72,503.09c-5.16-.57-8.82-4.94-12.34-8.54s-3.69-5.62-.39-4.5a39.47,39.47,0,0,1,12.34,8.54C686.85,502.19,688.54,503.61,683.72,503.09Zm-379-356.9c2.33,4.29-6.93-2.29-14.16-7.16s-12.63-9.55-12-10.46,6.92,2.29,14.16,7.16S302.51,142.19,304.68,146.19Z"/>
    </g>
  </g>
</svg>
