<svg id="Laag_1" data-name="Laag 1" xmlns="http://www.w3.org/2000/svg" xmlns:xlink="http://www.w3.org/1999/xlink" viewBox="0 0 326.08 344.39">
  <defs>
    <style>
      .cls-1, .cls-14, .cls-17, .cls-2, .cls-3, .cls-8 {
        fill: none;
      }

      .cls-2, .cls-3, .cls-8 {
        stroke: #503c21;
      }

      .cls-2 {
        stroke-miterlimit: 10;
        stroke-width: 6px;
      }

      .cls-14, .cls-17, .cls-3 {
        stroke-miterlimit: 10;
      }

      .cls-3, .cls-4 {
        stroke-width: 9px;
      }

      .cls-4 {
        fill: #b4934b;
        stroke: #b4934b;
      }

      .cls-4, .cls-8 {
        stroke-linecap: round;
        stroke-linejoin: round;
      }

      .cls-5 {
        fill: #4b8449;
      }

      .cls-6 {
        fill: #4b6140;
      }

      .cls-7 {
        clip-path: url(#clip-path);
      }

      .cls-8 {
        stroke-width: 5px;
      }

      .cls-9 {
        clip-path: url(#clip-path-2);
      }

      .cls-10 {
        clip-path: url(#clip-path-3);
      }

      .cls-11 {
        fill: #394e2d;
      }

      .cls-12 {
        fill: #f5d697;
      }

      .cls-13 {
        clip-path: url(#clip-path-4);
      }

      .cls-14 {
        stroke: #e63a27;
      }

      .cls-14, .cls-17 {
        stroke-width: 108px;
      }

      .cls-15 {
        clip-path: url(#clip-path-5);
      }

      .cls-16 {
        clip-path: url(#clip-path-6);
      }

      .cls-17 {
        stroke: #57b24d;
      }
    </style>
    <clipPath id="clip-path">
      <path class="cls-1" d="M123.85-289a13.64,13.64,0,0,0,5.43,8.71l18.89,13.72a2.51,2.51,0,0,0,3.51-.55,2.5,2.5,0,0,0,.44-1.91l-3.45-19.86a13.68,13.68,0,0,0-5.43-8.71L119.34-315Zm42.84-15.32a13.65,13.65,0,0,0-7.14,7.38L152-278.31a2.52,2.52,0,0,0,1.38,3.28,2.5,2.5,0,0,0,2,0l21.34-9.45a13.65,13.65,0,0,0,7.14-7.38l9.87-24.43Zm2-28.77a13.68,13.68,0,0,0-7.14,7.38L154-307.07a2.51,2.51,0,0,0,1.39,3.27,2.56,2.56,0,0,0,2,0l21.34-9.45a13.68,13.68,0,0,0,7.14-7.38l9.87-24.44Zm-44.87,11.41a13.7,13.7,0,0,0,5.26,8.82l18.61,14.09a2.51,2.51,0,0,0,3.52-.49,2.48,2.48,0,0,0,.48-1.9l-3.06-19.92a13.61,13.61,0,0,0-5.26-8.81l-23.55-17.84Zm48.35-40.5a13.68,13.68,0,0,0-7.14,7.38l-7.54,18.68a2.52,2.52,0,0,0,1.39,3.28,2.52,2.52,0,0,0,2,0l21.34-9.45a13.63,13.63,0,0,0,7.14-7.37l9.87-24.44Zm-44.84,11.36a13.63,13.63,0,0,0,5.44,8.71l18.89,13.72a2.52,2.52,0,0,0,3.51-.56,2.5,2.5,0,0,0,.44-1.91l-3.46-19.85a13.63,13.63,0,0,0-5.44-8.71L122.8-376.83ZM176-391a13.68,13.68,0,0,0-7.14,7.38l-7.55,18.69a2.51,2.51,0,0,0,1.39,3.27,2.56,2.56,0,0,0,2,0L186-371.14a13.73,13.73,0,0,0,7.15-7.38L203-402.95ZM132.7-380.31a13.65,13.65,0,0,0,4.65,9.15L155-355.84a2.52,2.52,0,0,0,3.55-.25,2.54,2.54,0,0,0,.6-1.86L157.41-378a13.68,13.68,0,0,0-4.65-9.16l-22.29-19.38Zm17.48-33.16a13.67,13.67,0,0,0,.75,10.24l10.33,20.93a2.51,2.51,0,0,0,3.37,1.14,2.48,2.48,0,0,0,1.27-1.48l6.19-19.18a13.63,13.63,0,0,0-.76-10.24l-13.07-26.49Z"/>
    </clipPath>
    <clipPath id="clip-path-2">
      <path class="cls-1" d="M534.72-289a13.6,13.6,0,0,0,5.43,8.71L559-266.62a2.51,2.51,0,0,0,3.51-.55,2.55,2.55,0,0,0,.45-1.91l-3.45-19.86a13.68,13.68,0,0,0-5.43-8.71L530.2-315Zm42.84-15.32a13.7,13.7,0,0,0-7.15,7.38l-7.54,18.68a2.51,2.51,0,0,0,1.38,3.28,2.5,2.5,0,0,0,2,0l21.34-9.45a13.65,13.65,0,0,0,7.14-7.38l9.87-24.43Zm2-28.77a13.68,13.68,0,0,0-7.14,7.38l-7.55,18.69a2.51,2.51,0,0,0,1.39,3.27,2.56,2.56,0,0,0,2,0l21.34-9.45a13.68,13.68,0,0,0,7.14-7.38l9.87-24.44Zm-44.87,11.41a13.7,13.7,0,0,0,5.26,8.82l18.61,14.09a2.51,2.51,0,0,0,3.52-.49,2.52,2.52,0,0,0,.48-1.9l-3.06-19.92a13.65,13.65,0,0,0-5.26-8.81l-23.55-17.84ZM583-362.23a13.65,13.65,0,0,0-7.14,7.38l-7.55,18.68a2.53,2.53,0,0,0,1.39,3.28,2.52,2.52,0,0,0,2,0l21.35-9.45a13.67,13.67,0,0,0,7.14-7.37l9.87-24.44ZM538.2-350.87a13.66,13.66,0,0,0,5.43,8.71l18.89,13.72A2.52,2.52,0,0,0,566-329a2.46,2.46,0,0,0,.45-1.91L563-350.76a13.66,13.66,0,0,0-5.43-8.71l-23.91-17.36ZM586.88-391a13.68,13.68,0,0,0-7.14,7.38l-7.55,18.69a2.51,2.51,0,0,0,1.39,3.27,2.56,2.56,0,0,0,2,0l21.34-9.45a13.68,13.68,0,0,0,7.14-7.38l9.87-24.43Zm-43.31,10.69a13.65,13.65,0,0,0,4.65,9.15l17.62,15.32a2.5,2.5,0,0,0,3.54-.25,2.5,2.5,0,0,0,.61-1.86L568.28-378a13.68,13.68,0,0,0-4.65-9.16l-22.3-19.38Zm17.48-33.16a13.67,13.67,0,0,0,.75,10.24l10.33,20.93a2.5,2.5,0,0,0,3.36,1.14,2.5,2.5,0,0,0,1.28-1.48L583-401.82a13.68,13.68,0,0,0-.75-10.24l-13.07-26.49Z"/>
    </clipPath>
    <clipPath id="clip-path-3">
      <path id="Path_200" data-name="Path 200" class="cls-2" d="M991-327.49c-11.68,11.68-70.9-6.44-104.59-40.13-26.3-26.3-26.19-57.1-9.42-73.88s46.16-18.3,73.88,9.43C986.84-396.11,1003-339.45,991-327.49Z"/>
    </clipPath>
    <clipPath id="clip-path-4">
      <path class="cls-1" d="M278.06,197.07a3.42,3.42,0,0,0,.9,4.68c1.56,1.36,3.3,3.47,4.76.24,1.36-3,.66-3.32-.9-4.68a4.22,4.22,0,0,0-2.74-1.09,2.58,2.58,0,0,0-2,.85m-260-38.42a6.49,6.49,0,0,0,11.21,6.47C31,162.26,34,159,26.68,156.7a17.77,17.77,0,0,0-5-1.1c-2,0-2.5,1.18-3.57,3.05M158.62,96c-10,2.89,5.35,22.46-13.76,25-5,.66-12.71-4.5-21.48-9.65-12.2-7.18-26.45-14.36-38.29-5.82-36.1,26-69.73,22.71-60.9,39.93,11.88,23.15,54.74,3.06,54.41,23.47-.32,19.46-16.46,17.12-12.25,32.66,3.47,12.77,18.32,10.8,36.62,8.83,19.26-2.08,42.32-4.16,59.94,10.92,29.71,25.44,46.9,2.87,81.86-6.12s20.52-21.09,22.55-30.16,11.33-18.81,17.85-25.3c7.19-7.15,23.07-53.67-34.37-40.13-24.5,5.77-31,12.42-60.51-8-4.29-3-14.62-16.28-27-16.28a17,17,0,0,0-4.71.67m-42.83-8.44c-2.76,0-5,1.19-5,2.64s2.26,2.6,5,2.58h.89c2.58,0,5.33.05,4.1-2.65-1.08-2.37-1.95-2.59-3.88-2.59H115.8m9.83-.32c-1.52,3.11,2.06,8,8,10.92s13.27,7.59,13.54-.33c.25-7.38-2.06-8-8-10.92a19.2,19.2,0,0,0-8.13-2.1c-2.6,0-4.61.82-5.41,2.43"/>
    </clipPath>
    <clipPath id="clip-path-5">
      <path class="cls-3" d="M24.19,145.41c11.88,23.15,54.74,3.06,54.41,23.47-.32,19.46-16.46,17.12-12.25,32.66,7.11,26.2,62.19-9.66,96.56,19.75,29.71,25.44,46.9,2.87,81.86-6.12s20.52-21.1,22.55-30.16,11.33-18.81,17.85-25.3c7.19-7.15,23.07-53.68-34.37-40.13-24.5,5.77-31,12.42-60.51-8C185.47,108.23,173,91.8,158.62,96c-10,2.89,5.35,22.46-13.76,25-12,1.58-39.44-30.12-59.78-15.47C49,131.48,15.36,128.19,24.19,145.41Zm123-47.63c-.26,7.92-7.58,3.25-13.54.33s-9.54-7.81-8-10.92,7.59-3.25,13.54-.32S147.44,90.4,147.18,97.78ZM26.68,156.7C34,159,31,162.26,29.29,165.12a6.49,6.49,0,0,1-11.21-6.47C19.73,155.78,19.89,154.52,26.68,156.7Zm257,45.29c-1.46,3.22-3.19,1.12-4.76-.24a3,3,0,0,1,2.77-5.38,2.91,2.91,0,0,1,1.09.94C284.38,198.68,285.08,199,283.72,202ZM120.82,90.09c1.37,3-2.23,2.63-5,2.65s-5-1.14-5-2.59,2.22-2.62,5-2.64S119.54,87.29,120.82,90.09Z"/>
    </clipPath>
    <clipPath id="clip-path-6">
      <path class="cls-1" d="M691.15,197.07a3.42,3.42,0,0,0,.9,4.68c1.56,1.36,3.3,3.47,4.76.24,1.36-3,.66-3.32-.9-4.68a4.22,4.22,0,0,0-2.74-1.09,2.6,2.6,0,0,0-2,.85m-260-38.42a6.49,6.49,0,0,0,11.21,6.47c1.66-2.86,4.67-6.09-2.61-8.42a17.77,17.77,0,0,0-5-1.1c-2.05,0-2.49,1.18-3.57,3.05M571.71,96c-10,2.89,5.35,22.46-13.76,25-5,.66-12.71-4.5-21.48-9.65-12.2-7.18-26.45-14.36-38.29-5.82-36.1,26-69.73,22.71-60.9,39.93,11.88,23.15,54.74,3.06,54.41,23.47-.32,19.46-16.46,17.12-12.25,32.66,3.47,12.77,18.32,10.8,36.62,8.83,19.26-2.08,42.32-4.16,59.94,10.92,29.71,25.44,46.9,2.87,81.86-6.12s20.52-21.09,22.55-30.16,11.33-18.81,17.85-25.3c7.19-7.15,23.07-53.67-34.37-40.13-24.5,5.77-31,12.42-60.51-8-4.29-3-14.62-16.28-27-16.28a17,17,0,0,0-4.71.67m-42.83-8.44c-2.76,0-5,1.19-5,2.64s2.26,2.6,5,2.58h.89c2.58,0,5.33.05,4.1-2.65C532.83,87.72,532,87.5,530,87.5h-1.14m9.83-.32c-1.52,3.11,2.07,8,8,10.92s13.27,7.59,13.54-.33c.25-7.38-2.06-8-8-10.92a19.2,19.2,0,0,0-8.13-2.1c-2.6,0-4.61.82-5.41,2.43"/>
    </clipPath>
  </defs>
  <g id="Group_108" data-name="Group 108">
    <g id="Rectangle_41" data-name="Rectangle 41">
      <rect class="cls-4" x="6.15" y="30.18" width="313.77" height="309.7" rx="44.82"/>
      <g>
        <rect class="cls-5" x="5.47" y="4.01" width="315.11" height="310.87" rx="41.09"/>
        <path class="cls-6" d="M279.49,9.51A35.63,35.63,0,0,1,315.08,45.1V273.79a35.63,35.63,0,0,1-35.59,35.59H46.56A35.63,35.63,0,0,1,11,273.79V45.1A35.63,35.63,0,0,1,46.56,9.51H279.49m0-11H46.56A46.59,46.59,0,0,0,0,45.1V273.79a46.59,46.59,0,0,0,46.59,46.59H279.49a46.59,46.59,0,0,0,46.59-46.59V45.1A46.59,46.59,0,0,0,279.49-1.49Z"/>
      </g>
    </g>
  </g>
  <g class="cls-7">
    <g>
      <line class="cls-8" x1="13.93" y1="-768.8" x2="13.93" y2="185.83"/>
      <line class="cls-8" x1="55.43" y1="-768.8" x2="55.43" y2="185.83"/>
      <line class="cls-8" x1="75.63" y1="-768.8" x2="75.63" y2="185.83"/>
      <line class="cls-8" x1="34.14" y1="-768.8" x2="34.14" y2="185.83"/>
      <line class="cls-8" x1="117.13" y1="-768.8" x2="117.13" y2="185.83"/>
      <line class="cls-8" x1="137.34" y1="-768.8" x2="137.34" y2="185.83"/>
      <line class="cls-8" x1="95.84" y1="-768.8" x2="95.84" y2="185.83"/>
      <line class="cls-8" x1="158.63" y1="-768.8" x2="158.63" y2="185.83"/>
      <line class="cls-8" x1="178.83" y1="-768.8" x2="178.83" y2="185.83"/>
      <line class="cls-8" x1="220.33" y1="-768.8" x2="220.33" y2="185.83"/>
      <line class="cls-8" x1="240.54" y1="-768.8" x2="240.54" y2="185.83"/>
      <line class="cls-8" x1="199.04" y1="-768.8" x2="199.04" y2="185.83"/>
      <line class="cls-8" x1="282.03" y1="-768.8" x2="282.03" y2="185.83"/>
      <line class="cls-8" x1="302.24" y1="-768.8" x2="302.24" y2="185.83"/>
      <line class="cls-8" x1="260.74" y1="-768.8" x2="260.74" y2="185.83"/>
      <line class="cls-8" x1="323.53" y1="-768.8" x2="323.53" y2="185.83"/>
    </g>
  </g>
  <g class="cls-9">
    <g>
      <line class="cls-8" x1="239.69" y1="-768.8" x2="239.69" y2="185.83"/>
      <line class="cls-8" x1="259.9" y1="-768.8" x2="259.9" y2="185.83"/>
      <line class="cls-8" x1="198.19" y1="-768.8" x2="198.19" y2="185.83"/>
      <line class="cls-8" x1="218.4" y1="-768.8" x2="218.4" y2="185.83"/>
      <line class="cls-8" x1="301.39" y1="-768.8" x2="301.39" y2="185.83"/>
      <line class="cls-8" x1="321.6" y1="-768.8" x2="321.6" y2="185.83"/>
      <line class="cls-8" x1="280.1" y1="-768.8" x2="280.1" y2="185.83"/>
    </g>
  </g>
  <g id="Group_151" data-name="Group 151">
    <g id="Group_149" data-name="Group 149">
      <g>
        <g class="cls-10">
          <g>
            <line class="cls-8" x1="291.81" y1="-702.28" x2="291.81" y2="252.35"/>
            <line class="cls-8" x1="312.02" y1="-702.28" x2="312.02" y2="252.35"/>
          </g>
        </g>
        <path id="Path_200-2" data-name="Path 200" class="cls-2" d="M991-327.49c-11.68,11.68-70.9-6.44-104.59-40.13-26.3-26.3-26.19-57.1-9.42-73.88s46.16-18.3,73.88,9.43C986.84-396.11,1003-339.45,991-327.49Z"/>
      </g>
    </g>
  </g>
  <g id="Group_186" data-name="Group 186">
    <g id="Group_181" data-name="Group 181">
      <g id="Group_188" data-name="Group 188">
        <path id="Path_264" data-name="Path 264" class="cls-11" d="M35.64,158c11.88,23.15,54.74,3.06,54.4,23.47-.32,19.46-16.46,17.12-12.25,32.66,7.11,26.2,62.19-9.66,96.56,19.76,29.71,25.43,46.9,2.87,81.86-6.13s20.52-21.09,22.55-30.16,11.33-18.8,17.85-25.29c7.19-7.16,23.07-53.68-34.37-40.14-24.5,5.78-31,12.42-60.51-8-4.83-3.34-17.3-19.76-31.67-15.61-10,2.89,5.34,22.46-13.77,25-12,1.58-39.43-30.13-59.77-15.47C60.43,144.09,26.8,140.8,35.63,158"/>
        <path id="Path_265" data-name="Path 265" class="cls-11" d="M158.63,110.39c-.27,7.92-7.59,3.26-13.54.33s-9.54-7.81-8-10.92,7.59-3.25,13.54-.32,8.27,3.53,8,10.91"/>
        <path id="Path_266" data-name="Path 266" class="cls-11" d="M38.13,169.31c7.28,2.33,4.26,5.56,2.61,8.43a6.5,6.5,0,0,1-11.22-6.48c1.66-2.86,1.82-4.12,8.61-1.95"/>
        <path id="Path_267" data-name="Path 267" class="cls-11" d="M295.17,214.61c-1.46,3.22-3.2,1.11-4.76-.25a3,3,0,1,1,2.77-5.38,3.1,3.1,0,0,1,1.09,1c1.56,1.36,2.26,1.67.89,4.68"/>
        <path id="Path_268" data-name="Path 268" class="cls-11" d="M132.27,102.71c1.37,3-2.23,2.62-5,2.64s-5-1.14-5-2.58,2.23-2.63,5-2.65,3.75-.22,5,2.59"/>
        <path id="Path_269" data-name="Path 269" class="cls-12" d="M85.09,105.47c20.34-14.65,47.8,17.06,59.77,15.48,19.11-2.53,3.75-22.1,13.76-25,14.38-4.16,26.85,12.27,31.67,15.61,29.49,20.44,36,13.79,60.51,8,57.45-13.54,41.56,33,34.37,40.14-6.52,6.49-15.8,16.18-17.84,25.29s12.4,21.16-22.55,30.16-52.15,31.56-81.87,6.12c-34.37-29.41-89.44,6.45-96.55-19.74C62.14,186,78.29,188.34,78.6,168.89c.33-20.42-42.52-.33-54.4-23.48-8.83-17.22,24.8-13.93,60.89-39.93m54.08-18.61c-5.95-2.93-12-2.78-13.54.33s2.07,8,8,10.91,13.27,7.6,13.54-.32c.25-7.39-2.06-8-8-10.92M18.08,158.65a6.5,6.5,0,0,0,11.22,6.48C31,162.26,34,159,26.69,156.7c-6.79-2.17-7-.91-8.61,2m264.75,38.67a3,3,0,1,0-3.85,4.43c1.56,1.36,3.29,3.47,4.75.25,1.36-3,.66-3.32-.89-4.68M115.8,87.51c-2.77,0-5,1.2-5,2.64s2.25,2.6,5,2.59,6.36.36,5-2.65c-1.28-2.8-2.26-2.59-5-2.58"/>
      </g>
    </g>
    <g id="Group_183" data-name="Group 183">
      <g class="cls-13">
        <g id="Group_182" data-name="Group 182">
          <rect id="Rectangle_151" data-name="Rectangle 151" class="cls-14" x="-92.75" y="-45.08" width="356.84" height="278.64"/>
        </g>
      </g>
    </g>
    <g>
      <g class="cls-15">
        <g>
          <line class="cls-8" x1="30.73" y1="-498.77" x2="30.73" y2="424.05"/>
          <line class="cls-8" x1="50.27" y1="-498.77" x2="50.27" y2="424.05"/>
          <line class="cls-8" x1="10.16" y1="-498.77" x2="10.16" y2="424.05"/>
          <line class="cls-8" x1="90.38" y1="-498.77" x2="90.38" y2="424.05"/>
          <line class="cls-8" x1="109.92" y1="-498.77" x2="109.92" y2="424.05"/>
          <line class="cls-8" x1="69.8" y1="-498.77" x2="69.8" y2="424.05"/>
          <line class="cls-8" x1="130.49" y1="-498.77" x2="130.49" y2="424.05"/>
          <line class="cls-8" x1="150.03" y1="-498.77" x2="150.03" y2="424.05"/>
          <line class="cls-8" x1="190.14" y1="-498.77" x2="190.14" y2="424.05"/>
          <line class="cls-8" x1="209.68" y1="-498.77" x2="209.68" y2="424.05"/>
          <line class="cls-8" x1="169.56" y1="-498.77" x2="169.56" y2="424.05"/>
          <line class="cls-8" x1="249.79" y1="-498.77" x2="249.79" y2="424.05"/>
          <line class="cls-8" x1="269.32" y1="-498.77" x2="269.32" y2="424.05"/>
          <line class="cls-8" x1="229.21" y1="-498.77" x2="229.21" y2="424.05"/>
          <line class="cls-8" x1="289.9" y1="-498.77" x2="289.9" y2="424.05"/>
          <line class="cls-8" x1="309.44" y1="-498.77" x2="309.44" y2="424.05"/>
        </g>
      </g>
      <path class="cls-3" d="M24.19,145.41c11.88,23.15,54.74,3.06,54.41,23.47-.32,19.46-16.46,17.12-12.25,32.66,7.11,26.2,62.19-9.66,96.56,19.75,29.71,25.44,46.9,2.87,81.86-6.12s20.52-21.1,22.55-30.16,11.33-18.81,17.85-25.3c7.19-7.15,23.07-53.68-34.37-40.13-24.5,5.77-31,12.42-60.51-8C185.47,108.23,173,91.8,158.62,96c-10,2.89,5.35,22.46-13.76,25-12,1.58-39.44-30.12-59.78-15.47C49,131.48,15.36,128.19,24.19,145.41Zm123-47.63c-.26,7.92-7.58,3.25-13.54.33s-9.54-7.81-8-10.92,7.59-3.25,13.54-.32S147.44,90.4,147.18,97.78ZM26.68,156.7C34,159,31,162.26,29.29,165.12a6.49,6.49,0,0,1-11.21-6.47C19.73,155.78,19.89,154.52,26.68,156.7Zm257,45.29c-1.46,3.22-3.19,1.12-4.76-.24a3,3,0,0,1,2.77-5.38,2.91,2.91,0,0,1,1.09.94C284.38,198.68,285.08,199,283.72,202ZM120.82,90.09c1.37,3-2.23,2.63-5,2.65s-5-1.14-5-2.59,2.22-2.62,5-2.64S119.54,87.29,120.82,90.09Z"/>
    </g>
  </g>
  <g id="Group_186-2" data-name="Group 186">
    <g id="Group_183-2" data-name="Group 183">
      <g class="cls-16">
        <g id="Group_182-2" data-name="Group 182">
          <rect id="Rectangle_151-2" data-name="Rectangle 151" class="cls-17" x="320.34" y="-45.08" width="356.84" height="278.64"/>
        </g>
      </g>
    </g>
  </g>
</svg>
