<svg id="Laag_1" data-name="Laag 1" xmlns="http://www.w3.org/2000/svg" xmlns:xlink="http://www.w3.org/1999/xlink" viewBox="0 0 325.07 344.39">
  <defs>
    <style>
      .cls-1, .cls-15, .cls-2, .cls-3, .cls-8 {
        fill: none;
      }

      .cls-2, .cls-3, .cls-8 {
        stroke: #503c21;
      }

      .cls-2 {
        stroke-miterlimit: 10;
        stroke-width: 6px;
      }

      .cls-15, .cls-3 {
        stroke-miterlimit: 10;
      }

      .cls-3, .cls-4 {
        stroke-width: 9px;
      }

      .cls-4 {
        fill: #b4934b;
        stroke: #b4934b;
      }

      .cls-4, .cls-8 {
        stroke-linecap: round;
        stroke-linejoin: round;
      }

      .cls-5 {
        fill: #e94933;
      }

      .cls-6 {
        fill: #ae3a32;
      }

      .cls-7 {
        clip-path: url(#clip-path);
      }

      .cls-8 {
        stroke-width: 5px;
      }

      .cls-9 {
        clip-path: url(#clip-path-2);
      }

      .cls-10 {
        clip-path: url(#clip-path-3);
      }

      .cls-11 {
        clip-path: url(#clip-path-4);
      }

      .cls-12 {
        fill: #bc2e2a;
      }

      .cls-13 {
        fill: #f5d697;
      }

      .cls-14 {
        clip-path: url(#clip-path-5);
      }

      .cls-15 {
        stroke: #f4e9d3;
        stroke-width: 108px;
      }

      .cls-16 {
        clip-path: url(#clip-path-6);
      }
    </style>
    <clipPath id="clip-path">
      <path class="cls-1" d="M-284.52-289a13.68,13.68,0,0,0,5.43,8.71l18.89,13.72a2.51,2.51,0,0,0,3.51-.55,2.5,2.5,0,0,0,.44-1.91l-3.44-19.86a13.66,13.66,0,0,0-5.44-8.71L-289-315Zm42.84-15.32a13.68,13.68,0,0,0-7.14,7.38l-7.54,18.68A2.51,2.51,0,0,0-255-275a2.5,2.5,0,0,0,2,0l21.35-9.45a13.65,13.65,0,0,0,7.14-7.38l9.87-24.43Zm2-28.77a13.68,13.68,0,0,0-7.14,7.38l-7.54,18.69A2.52,2.52,0,0,0-253-303.8a2.56,2.56,0,0,0,2,0l21.35-9.45a13.68,13.68,0,0,0,7.14-7.38l9.87-24.44Zm-44.86,11.41a13.66,13.66,0,0,0,5.26,8.82l18.61,14.09a2.51,2.51,0,0,0,3.52-.49,2.52,2.52,0,0,0,.48-1.9l-3.06-19.92a13.65,13.65,0,0,0-5.26-8.81l-23.55-17.84Zm48.35-40.5a13.65,13.65,0,0,0-7.14,7.38l-7.55,18.68a2.52,2.52,0,0,0,1.39,3.28,2.52,2.52,0,0,0,2,0l21.34-9.45a13.63,13.63,0,0,0,7.14-7.37l9.87-24.44ZM-281-350.87a13.66,13.66,0,0,0,5.43,8.71l18.89,13.72a2.52,2.52,0,0,0,3.51-.56,2.55,2.55,0,0,0,.45-1.91l-3.47-19.85a13.66,13.66,0,0,0-5.43-8.71l-23.91-17.36ZM-232.35-391a13.7,13.7,0,0,0-7.15,7.38L-247-364.93a2.51,2.51,0,0,0,1.39,3.27,2.56,2.56,0,0,0,2,0l21.34-9.45a13.68,13.68,0,0,0,7.14-7.38l9.87-24.43Zm-43.31,10.69a13.65,13.65,0,0,0,4.65,9.15l17.61,15.32a2.52,2.52,0,0,0,3.55-.25,2.55,2.55,0,0,0,.61-1.86L-250.95-378a13.68,13.68,0,0,0-4.65-9.16l-22.3-19.38Zm17.47-33.16a13.67,13.67,0,0,0,.75,10.24l10.33,20.93a2.51,2.51,0,0,0,3.37,1.14,2.5,2.5,0,0,0,1.28-1.48l6.18-19.18a13.68,13.68,0,0,0-.75-10.24l-13.08-26.49Z"/>
    </clipPath>
    <clipPath id="clip-path-2">
      <path id="Path_200" data-name="Path 200" class="cls-2" d="M171.77-327.49c-11.68,11.68-70.89-6.44-104.58-40.13-26.3-26.3-26.2-57.1-9.42-73.88s46.16-18.3,73.88,9.43C167.61-396.11,183.73-339.45,171.77-327.49Z"/>
    </clipPath>
    <clipPath id="clip-path-3">
      <path class="cls-3" d="M-795,145.41c11.88,23.15,54.74,3.06,54.41,23.47-.32,19.46-16.46,17.12-12.25,32.66,7.1,26.2,62.19-9.66,96.56,19.75,29.71,25.44,46.9,2.87,81.86-6.12s20.51-21.1,22.55-30.16,11.33-18.81,17.85-25.3c7.19-7.15,23.07-53.68-34.37-40.13-24.5,5.77-31,12.42-60.51-8-4.82-3.34-17.3-19.77-31.67-15.61-10,2.89,5.34,22.46-13.77,25-12,1.58-39.43-30.12-59.77-15.47C-770.24,131.48-803.87,128.19-795,145.41Zm123-47.63c-.27,7.92-7.58,3.25-13.54.33s-9.54-7.81-8-10.92,7.58-3.25,13.54-.32S-671.8,90.4-672,97.78Zm-120.5,58.92c7.28,2.33,4.26,5.56,2.61,8.42a6.5,6.5,0,0,1-9,1.69,6.49,6.49,0,0,1-2.18-8.16C-799.5,155.78-799.34,154.52-792.55,156.7Zm257,45.29c-1.46,3.22-3.2,1.12-4.76-.24a3,3,0,0,1-1.3-4.08,3,3,0,0,1,4.07-1.3,3,3,0,0,1,1.09.94C-534.85,198.68-534.15,199-535.51,202Zm-162.9-111.9c1.37,3-2.23,2.63-5,2.65s-5-1.14-5-2.59,2.23-2.62,5-2.64S-699.69,87.29-698.41,90.09Z"/>
    </clipPath>
    <clipPath id="clip-path-4">
      <path class="cls-3" d="M-381.95,145.41c11.88,23.15,54.74,3.06,54.41,23.47-.32,19.46-16.46,17.12-12.25,32.66,7.1,26.2,62.19-9.66,96.56,19.75,29.71,25.44,46.9,2.87,81.86-6.12s20.52-21.1,22.55-30.16,11.33-18.81,17.85-25.3c7.19-7.15,23.07-53.68-34.37-40.13-24.5,5.77-31,12.42-60.51-8-4.82-3.34-17.3-19.77-31.67-15.61-10,2.89,5.34,22.46-13.77,25-12,1.58-39.43-30.12-59.77-15.47C-357.15,131.48-390.78,128.19-381.95,145.41Zm123-47.63c-.27,7.92-7.58,3.25-13.54.33s-9.54-7.81-8-10.92,7.58-3.25,13.54-.32S-258.71,90.4-259,97.78Zm-120.5,58.92c7.28,2.33,4.26,5.56,2.61,8.42a6.5,6.5,0,0,1-9,1.69,6.49,6.49,0,0,1-2.18-8.16C-386.41,155.78-386.25,154.52-379.46,156.7Zm257,45.29c-1.46,3.22-3.2,1.12-4.76-.24a3,3,0,0,1-1.3-4.08,3,3,0,0,1,4.07-1.3,3,3,0,0,1,1.09.94C-121.76,198.68-121.06,199-122.42,202Zm-162.9-111.9c1.37,3-2.23,2.63-5,2.65s-5-1.14-5-2.59,2.23-2.62,5-2.64S-286.6,87.29-285.32,90.09Z"/>
    </clipPath>
    <clipPath id="clip-path-5">
      <path class="cls-1" d="M279.79,197.07a3.43,3.43,0,0,0,.9,4.68c1.56,1.36,3.3,3.47,4.76.24,1.36-3,.66-3.32-.9-4.68a4.2,4.2,0,0,0-2.74-1.09,2.56,2.56,0,0,0-2,.85m-260-38.42A6.49,6.49,0,0,0,31,165.12c1.66-2.86,4.67-6.09-2.61-8.42a17.69,17.69,0,0,0-5-1.1c-2.05,0-2.49,1.18-3.57,3.05M160.35,96c-10,2.89,5.35,22.46-13.76,25-5,.66-12.71-4.5-21.48-9.65-12.2-7.18-26.45-14.36-38.29-5.82-36.1,26-69.73,22.71-60.89,39.93,11.88,23.15,54.73,3.06,54.4,23.47C80,188.34,63.87,186,68.09,201.54c3.46,12.77,18.32,10.8,36.62,8.83,19.25-2.08,42.31-4.16,59.93,10.92,29.72,25.44,46.91,2.87,81.87-6.12S267,194.08,269.05,185s11.33-18.81,17.85-25.3c7.19-7.15,23.07-53.67-34.37-40.13-24.5,5.77-31,12.42-60.51-8-4.29-3-14.62-16.28-27-16.28a17.07,17.07,0,0,0-4.71.67m-42.82-8.44c-2.77,0-5,1.19-5,2.64s2.26,2.6,5,2.58h.89c2.58,0,5.33.05,4.11-2.65-1.09-2.37-2-2.59-3.89-2.59h-1.14m9.83-.32c-1.52,3.11,2.07,8,8,10.92s13.27,7.59,13.54-.33c.25-7.38-2.06-8-8-10.92a19.28,19.28,0,0,0-8.14-2.1c-2.59,0-4.61.82-5.41,2.43"/>
    </clipPath>
    <clipPath id="clip-path-6">
      <path class="cls-3" d="M25.93,145.41c11.88,23.15,54.73,3.06,54.4,23.47C80,188.34,63.87,186,68.09,201.54c7.1,26.2,62.18-9.66,96.55,19.75,29.72,25.44,46.91,2.87,81.87-6.12S267,194.07,269.05,185s11.33-18.81,17.85-25.3c7.19-7.15,23.08-53.68-34.37-40.13-24.5,5.77-31,12.42-60.51-8C187.2,108.23,174.73,91.8,160.35,96c-10,2.89,5.35,22.46-13.76,25-12,1.58-39.43-30.12-59.78-15.47C50.72,131.48,17.09,128.19,25.93,145.41Zm123-47.63c-.27,7.92-7.59,3.25-13.54.33s-9.55-7.81-8-10.92,7.59-3.25,13.54-.32S149.17,90.4,148.92,97.78ZM28.41,156.7c7.28,2.33,4.27,5.56,2.61,8.42a6.49,6.49,0,0,1-11.21-6.47C21.46,155.78,21.62,154.52,28.41,156.7Zm257,45.29c-1.46,3.22-3.19,1.12-4.75-.24a3,3,0,1,1,2.77-5.38,3,3,0,0,1,1.08.94C286.12,198.68,286.82,199,285.45,202ZM122.55,90.09c1.37,3-2.22,2.63-5,2.65s-5-1.14-5-2.59,2.23-2.62,5-2.64S121.27,87.29,122.55,90.09Z"/>
    </clipPath>
  </defs>
  <g id="Group_108" data-name="Group 108">
    <g id="Rectangle_41" data-name="Rectangle 41">
      <rect class="cls-4" x="5.66" y="30.18" width="313.77" height="309.7" rx="44.82"/>
      <g>
        <rect class="cls-5" x="4.98" y="4.01" width="315.11" height="310.87" rx="41.09"/>
        <path class="cls-6" d="M279,9.51A35.63,35.63,0,0,1,314.59,45.1V273.79A35.63,35.63,0,0,1,279,309.38H46.07a35.62,35.62,0,0,1-35.59-35.59V45.1A35.62,35.62,0,0,1,46.07,9.51H279m0-11H46.07A46.59,46.59,0,0,0-.52,45.1V273.79a46.59,46.59,0,0,0,46.59,46.59H279a46.59,46.59,0,0,0,46.59-46.59V45.1A46.59,46.59,0,0,0,279-1.49Z"/>
      </g>
    </g>
  </g>
  <g class="cls-7">
    <g>
      <line class="cls-8" x1="38.57" y1="-768.8" x2="38.57" y2="185.83"/>
      <line class="cls-8" x1="58.78" y1="-768.8" x2="58.78" y2="185.83"/>
      <line class="cls-8" x1="17.28" y1="-768.8" x2="17.28" y2="185.83"/>
      <line class="cls-8" x1="80.06" y1="-768.8" x2="80.06" y2="185.83"/>
      <line class="cls-8" x1="100.27" y1="-768.8" x2="100.27" y2="185.83"/>
      <line class="cls-8" x1="141.77" y1="-768.8" x2="141.77" y2="185.83"/>
      <line class="cls-8" x1="161.98" y1="-768.8" x2="161.98" y2="185.83"/>
      <line class="cls-8" x1="120.48" y1="-768.8" x2="120.48" y2="185.83"/>
      <line class="cls-8" x1="183.26" y1="-768.8" x2="183.26" y2="185.83"/>
      <line class="cls-8" x1="203.47" y1="-768.8" x2="203.47" y2="185.83"/>
      <line class="cls-8" x1="244.97" y1="-768.8" x2="244.97" y2="185.83"/>
      <line class="cls-8" x1="265.18" y1="-768.8" x2="265.18" y2="185.83"/>
      <line class="cls-8" x1="223.68" y1="-768.8" x2="223.68" y2="185.83"/>
      <line class="cls-8" x1="306.67" y1="-768.8" x2="306.67" y2="185.83"/>
      <line class="cls-8" x1="326.88" y1="-768.8" x2="326.88" y2="185.83"/>
      <line class="cls-8" x1="285.38" y1="-768.8" x2="285.38" y2="185.83"/>
    </g>
  </g>
  <g id="Group_151" data-name="Group 151">
    <g id="Group_149" data-name="Group 149">
      <g>
        <g class="cls-9">
          <g>
            <line class="cls-8" x1="8.78" y1="-702.28" x2="8.78" y2="252.35"/>
            <line class="cls-8" x1="28.99" y1="-702.28" x2="28.99" y2="252.35"/>
            <line class="cls-8" x1="70.49" y1="-702.28" x2="70.49" y2="252.35"/>
            <line class="cls-8" x1="90.69" y1="-702.28" x2="90.69" y2="252.35"/>
            <line class="cls-8" x1="49.2" y1="-702.28" x2="49.2" y2="252.35"/>
            <line class="cls-8" x1="132.19" y1="-702.28" x2="132.19" y2="252.35"/>
            <line class="cls-8" x1="152.4" y1="-702.28" x2="152.4" y2="252.35"/>
            <line class="cls-8" x1="110.9" y1="-702.28" x2="110.9" y2="252.35"/>
            <line class="cls-8" x1="173.69" y1="-702.28" x2="173.69" y2="252.35"/>
            <line class="cls-8" x1="193.89" y1="-702.28" x2="193.89" y2="252.35"/>
            <line class="cls-8" x1="235.39" y1="-702.28" x2="235.39" y2="252.35"/>
            <line class="cls-8" x1="255.6" y1="-702.28" x2="255.6" y2="252.35"/>
            <line class="cls-8" x1="214.1" y1="-702.28" x2="214.1" y2="252.35"/>
            <line class="cls-8" x1="276.88" y1="-702.28" x2="276.88" y2="252.35"/>
            <line class="cls-8" x1="297.09" y1="-702.28" x2="297.09" y2="252.35"/>
            <line class="cls-8" x1="317.3" y1="-702.28" x2="317.3" y2="252.35"/>
          </g>
        </g>
        <path id="Path_200-2" data-name="Path 200" class="cls-2" d="M171.77-327.49c-11.68,11.68-70.89-6.44-104.58-40.13-26.3-26.3-26.2-57.1-9.42-73.88s46.16-18.3,73.88,9.43C167.61-396.11,183.73-339.45,171.77-327.49Z"/>
      </g>
    </g>
  </g>
  <g id="Group_186" data-name="Group 186">
    <g>
      <g class="cls-10">
        <g>
          <line class="cls-8" x1="8.54" y1="-498.77" x2="8.54" y2="424.05"/>
          <line class="cls-8" x1="28.07" y1="-498.77" x2="28.07" y2="424.05"/>
        </g>
      </g>
      <path class="cls-3" d="M-795,145.41c11.88,23.15,54.74,3.06,54.41,23.47-.32,19.46-16.46,17.12-12.25,32.66,7.1,26.2,62.19-9.66,96.56,19.75,29.71,25.44,46.9,2.87,81.86-6.12s20.51-21.1,22.55-30.16,11.33-18.81,17.85-25.3c7.19-7.15,23.07-53.68-34.37-40.13-24.5,5.77-31,12.42-60.51-8-4.82-3.34-17.3-19.77-31.67-15.61-10,2.89,5.34,22.46-13.77,25-12,1.58-39.43-30.12-59.77-15.47C-770.24,131.48-803.87,128.19-795,145.41Zm123-47.63c-.27,7.92-7.58,3.25-13.54.33s-9.54-7.81-8-10.92,7.58-3.25,13.54-.32S-671.8,90.4-672,97.78Zm-120.5,58.92c7.28,2.33,4.26,5.56,2.61,8.42a6.5,6.5,0,0,1-9,1.69,6.49,6.49,0,0,1-2.18-8.16C-799.5,155.78-799.34,154.52-792.55,156.7Zm257,45.29c-1.46,3.22-3.2,1.12-4.76-.24a3,3,0,0,1-1.3-4.08,3,3,0,0,1,4.07-1.3,3,3,0,0,1,1.09.94C-534.85,198.68-534.15,199-535.51,202Zm-162.9-111.9c1.37,3-2.23,2.63-5,2.65s-5-1.14-5-2.59,2.23-2.62,5-2.64S-699.69,87.29-698.41,90.09Z"/>
    </g>
  </g>
  <g id="Group_186-2" data-name="Group 186">
    <g>
      <g class="cls-11">
        <g>
          <line class="cls-8" x1="3.05" y1="-498.77" x2="3.05" y2="424.05"/>
          <line class="cls-8" x1="22.59" y1="-498.77" x2="22.59" y2="424.05"/>
          <line class="cls-8" x1="43.17" y1="-498.77" x2="43.17" y2="424.05"/>
          <line class="cls-8" x1="62.7" y1="-498.77" x2="62.7" y2="424.05"/>
          <line class="cls-8" x1="102.81" y1="-498.77" x2="102.81" y2="424.05"/>
          <line class="cls-8" x1="122.35" y1="-498.77" x2="122.35" y2="424.05"/>
          <line class="cls-8" x1="82.24" y1="-498.77" x2="82.24" y2="424.05"/>
          <line class="cls-8" x1="162.46" y1="-498.77" x2="162.46" y2="424.05"/>
          <line class="cls-8" x1="182" y1="-498.77" x2="182" y2="424.05"/>
          <line class="cls-8" x1="141.88" y1="-498.77" x2="141.88" y2="424.05"/>
          <line class="cls-8" x1="202.57" y1="-498.77" x2="202.57" y2="424.05"/>
          <line class="cls-8" x1="222.11" y1="-498.77" x2="222.11" y2="424.05"/>
          <line class="cls-8" x1="262.22" y1="-498.77" x2="262.22" y2="424.05"/>
          <line class="cls-8" x1="281.76" y1="-498.77" x2="281.76" y2="424.05"/>
          <line class="cls-8" x1="241.64" y1="-498.77" x2="241.64" y2="424.05"/>
          <line class="cls-8" x1="302.33" y1="-498.77" x2="302.33" y2="424.05"/>
          <line class="cls-8" x1="321.87" y1="-498.77" x2="321.87" y2="424.05"/>
        </g>
      </g>
      <path class="cls-3" d="M-381.95,145.41c11.88,23.15,54.74,3.06,54.41,23.47-.32,19.46-16.46,17.12-12.25,32.66,7.1,26.2,62.19-9.66,96.56,19.75,29.71,25.44,46.9,2.87,81.86-6.12s20.52-21.1,22.55-30.16,11.33-18.81,17.85-25.3c7.19-7.15,23.07-53.68-34.37-40.13-24.5,5.77-31,12.42-60.51-8-4.82-3.34-17.3-19.77-31.67-15.61-10,2.89,5.34,22.46-13.77,25-12,1.58-39.43-30.12-59.77-15.47C-357.15,131.48-390.78,128.19-381.95,145.41Zm123-47.63c-.27,7.92-7.58,3.25-13.54.33s-9.54-7.81-8-10.92,7.58-3.25,13.54-.32S-258.71,90.4-259,97.78Zm-120.5,58.92c7.28,2.33,4.26,5.56,2.61,8.42a6.5,6.5,0,0,1-9,1.69,6.49,6.49,0,0,1-2.18-8.16C-386.41,155.78-386.25,154.52-379.46,156.7Zm257,45.29c-1.46,3.22-3.2,1.12-4.76-.24a3,3,0,0,1-1.3-4.08,3,3,0,0,1,4.07-1.3,3,3,0,0,1,1.09.94C-121.76,198.68-121.06,199-122.42,202Zm-162.9-111.9c1.37,3-2.23,2.63-5,2.65s-5-1.14-5-2.59,2.23-2.62,5-2.64S-286.6,87.29-285.32,90.09Z"/>
    </g>
  </g>
  <g id="Group_186-3" data-name="Group 186">
    <g id="Group_181" data-name="Group 181">
      <g id="Group_188" data-name="Group 188">
        <path id="Path_264" data-name="Path 264" class="cls-12" d="M37.37,158c11.88,23.15,54.74,3.06,54.4,23.47-.31,19.46-16.46,17.12-12.24,32.66,7.1,26.2,62.18-9.66,96.55,19.76,29.72,25.43,46.91,2.87,81.86-6.13s20.52-21.09,22.55-30.16,11.33-18.8,17.85-25.29c7.19-7.16,23.07-53.68-34.37-40.14-24.5,5.78-31,12.42-60.51-8-4.82-3.34-17.29-19.76-31.67-15.61-10,2.89,5.35,22.46-13.76,25-12,1.58-39.44-30.13-59.78-15.47-36.09,26-69.72,22.71-60.89,39.93"/>
        <path id="Path_265" data-name="Path 265" class="cls-12" d="M160.36,110.39c-.27,7.92-7.59,3.26-13.54.33s-9.54-7.81-8-10.92,7.58-3.25,13.54-.32,8.26,3.53,8,10.91"/>
        <path id="Path_266" data-name="Path 266" class="cls-12" d="M39.86,169.31c7.28,2.33,4.26,5.56,2.61,8.43a6.5,6.5,0,0,1-11.22-6.48c1.66-2.86,1.82-4.12,8.61-1.95"/>
        <path id="Path_267" data-name="Path 267" class="cls-12" d="M296.9,214.61c-1.46,3.22-3.2,1.11-4.76-.25a3,3,0,1,1,3.86-4.43c1.56,1.36,2.26,1.67.89,4.68"/>
        <path id="Path_268" data-name="Path 268" class="cls-12" d="M134,102.71c1.37,3-2.23,2.62-5,2.64s-5-1.14-5-2.58,2.23-2.63,5-2.65,3.74-.22,5,2.59"/>
        <path id="Path_269" data-name="Path 269" class="cls-13" d="M86.82,105.47c20.34-14.65,47.8,17.06,59.77,15.48,19.11-2.53,3.75-22.1,13.76-25,14.38-4.16,26.85,12.27,31.67,15.61,29.49,20.44,36,13.79,60.51,8,57.45-13.54,41.56,33,34.38,40.14-6.53,6.49-15.81,16.18-17.85,25.29s12.4,21.16-22.55,30.16-52.14,31.56-81.87,6.12c-34.36-29.41-89.44,6.45-96.55-19.74C63.88,186,80,188.34,80.34,168.89c.33-20.42-42.53-.33-54.41-23.48-8.83-17.22,24.8-13.93,60.89-39.93m54.09-18.61c-6-2.93-12-2.78-13.55.33s2.07,8,8,10.91,13.27,7.6,13.54-.32c.25-7.39-2.06-8-8-10.92M19.82,158.65A6.49,6.49,0,0,0,31,165.13c1.66-2.87,4.67-6.1-2.61-8.43-6.79-2.17-7-.91-8.61,2m264.75,38.67a3,3,0,1,0-3.85,4.43c1.56,1.36,3.3,3.47,4.76.25,1.36-3,.66-3.32-.9-4.68m-167-109.81c-2.77,0-5,1.2-5,2.64s2.25,2.6,5,2.59,6.36.36,5-2.65c-1.28-2.8-2.26-2.59-5-2.58"/>
      </g>
    </g>
    <g id="Group_183" data-name="Group 183">
      <g class="cls-14">
        <g id="Group_182" data-name="Group 182">
          <rect id="Rectangle_151" data-name="Rectangle 151" class="cls-15" x="-91.02" y="-45.08" width="356.84" height="278.64"/>
        </g>
      </g>
    </g>
    <g>
      <g class="cls-16">
        <g>
          <line class="cls-8" x1="32.47" y1="-498.77" x2="32.47" y2="424.05"/>
          <line class="cls-8" x1="52" y1="-498.77" x2="52" y2="424.05"/>
          <line class="cls-8" x1="11.89" y1="-498.77" x2="11.89" y2="424.05"/>
          <line class="cls-8" x1="92.11" y1="-498.77" x2="92.11" y2="424.05"/>
          <line class="cls-8" x1="111.65" y1="-498.77" x2="111.65" y2="424.05"/>
          <line class="cls-8" x1="71.53" y1="-498.77" x2="71.53" y2="424.05"/>
          <line class="cls-8" x1="132.23" y1="-498.77" x2="132.23" y2="424.05"/>
          <line class="cls-8" x1="151.76" y1="-498.77" x2="151.76" y2="424.05"/>
          <line class="cls-8" x1="191.87" y1="-498.77" x2="191.87" y2="424.05"/>
          <line class="cls-8" x1="211.41" y1="-498.77" x2="211.41" y2="424.05"/>
          <line class="cls-8" x1="171.29" y1="-498.77" x2="171.29" y2="424.05"/>
          <line class="cls-8" x1="251.52" y1="-498.77" x2="251.52" y2="424.05"/>
          <line class="cls-8" x1="271.05" y1="-498.77" x2="271.05" y2="424.05"/>
          <line class="cls-8" x1="230.94" y1="-498.77" x2="230.94" y2="424.05"/>
          <line class="cls-8" x1="291.63" y1="-498.77" x2="291.63" y2="424.05"/>
          <line class="cls-8" x1="311.17" y1="-498.77" x2="311.17" y2="424.05"/>
        </g>
      </g>
      <path class="cls-3" d="M25.93,145.41c11.88,23.15,54.73,3.06,54.4,23.47C80,188.34,63.87,186,68.09,201.54c7.1,26.2,62.18-9.66,96.55,19.75,29.72,25.44,46.91,2.87,81.87-6.12S267,194.07,269.05,185s11.33-18.81,17.85-25.3c7.19-7.15,23.08-53.68-34.37-40.13-24.5,5.77-31,12.42-60.51-8C187.2,108.23,174.73,91.8,160.35,96c-10,2.89,5.35,22.46-13.76,25-12,1.58-39.43-30.12-59.78-15.47C50.72,131.48,17.09,128.19,25.93,145.41Zm123-47.63c-.27,7.92-7.59,3.25-13.54.33s-9.55-7.81-8-10.92,7.59-3.25,13.54-.32S149.17,90.4,148.92,97.78ZM28.41,156.7c7.28,2.33,4.27,5.56,2.61,8.42a6.49,6.49,0,0,1-11.21-6.47C21.46,155.78,21.62,154.52,28.41,156.7Zm257,45.29c-1.46,3.22-3.19,1.12-4.75-.24a3,3,0,1,1,2.77-5.38,3,3,0,0,1,1.08.94C286.12,198.68,286.82,199,285.45,202ZM122.55,90.09c1.37,3-2.22,2.63-5,2.65s-5-1.14-5-2.59,2.23-2.62,5-2.64S121.27,87.29,122.55,90.09Z"/>
    </g>
  </g>
</svg>
