<svg id="Laag_1" data-name="Laag 1" xmlns="http://www.w3.org/2000/svg" xmlns:xlink="http://www.w3.org/1999/xlink" viewBox="0 0 148.44 169.79">
  <defs>
    <style>
      .cls-1, .cls-4 {
        fill: none;
        stroke: #503c21;
      }

      .cls-1, .cls-4, .cls-6 {
        stroke-linecap: round;
        stroke-linejoin: round;
      }

      .cls-1, .cls-6 {
        stroke-width: 11px;
      }

      .cls-2 {
        clip-path: url(#clip-path);
      }

      .cls-3 {
        clip-path: url(#clip-path-2);
      }

      .cls-4 {
        stroke-width: 5px;
      }

      .cls-5 {
        clip-path: url(#clip-path-3);
      }

      .cls-6 {
        fill: #4b8449;
        stroke: #4b6140;
      }
    </style>
    <clipPath id="clip-path">
      <path class="cls-1" d="M1123.31,980.32l-570-.51A111.55,111.55,0,0,1,441.87,868.15l.3-337V528a5.18,5.18,0,0,1,.52-.8c14.07-18,186.25-32.11,396.58-31.92,219.52.19,397.46,15.87,397.45,35a4.27,4.27,0,0,1-1.44,3L1235,868.84A111.59,111.59,0,0,1,1123.31,980.32Z"/>
    </clipPath>
    <clipPath id="clip-path-2">
      <path id="Path_99" data-name="Path 99" class="cls-1" d="M-409.9-206.15h-4c-9.5,0-17.19,6.52-17.19,14.57v14.72c0,8-7.58,12.08-17.2,14.57l-58.45,10.55a8.48,8.48,0,0,1-4.52-.31c-.25-.1-.49-.21-.73-.33l-20.82-10.51L-515-173.15a1.73,1.73,0,0,0,1-2.26,1.74,1.74,0,0,0-1-1l-20.29-10.26,17.73-10.27a1.74,1.74,0,0,0,1-2.27,1.77,1.77,0,0,0-1-1l-20.29-10.24,15.18-10.26a1.74,1.74,0,0,0,1-2.27,1.74,1.74,0,0,0-1-1L-543-234.11l20.29-10.27a1.74,1.74,0,0,0,1-2.27,1.74,1.74,0,0,0-1-1l-15.18-10.24,20.29-10.26a1.73,1.73,0,0,0,1-2.27,1.74,1.74,0,0,0-1-1l-17.73-10.26L-515-291.86a1.73,1.73,0,0,0,1-2.26,1.71,1.71,0,0,0-1-1l-17.74-10.25,21.71-11c.24-.12.48-.23.73-.33a8.56,8.56,0,0,1,4.54-.31l57.54,10.56c9.62,2.49,17.2,6.52,17.2,14.57v14.71c0,8.05,7.69,14.57,17.19,14.57h4c9.49,0,17.19-6.52,17.19-14.57v-14.71c0-8.05,8.87-12.75,17.2-14.57l58.44-10.57a8.62,8.62,0,0,1,4.53.32c.25.1.49.21.73.33l18.23,9.21a1.51,1.51,0,0,1,.83,2,1.52,1.52,0,0,1-.73.77l-15.25,8.83a1.73,1.73,0,0,0-1,2.27,1.74,1.74,0,0,0,1,1l17.71,8.95a1.5,1.5,0,0,1,.83,2,1.5,1.5,0,0,1-.73.78l-15.26,8.84a1.75,1.75,0,0,0-1,2.27,1.77,1.77,0,0,0,1,1l17.72,8.95a1.51,1.51,0,0,1,.82,2,1.56,1.56,0,0,1-.72.78L-303.62-248a1.75,1.75,0,0,0-1,2.27,1.74,1.74,0,0,0,1,1l17.53,8.86a1.51,1.51,0,0,1,.82,2,1.5,1.5,0,0,1-.82.82l-17.53,8.86a1.73,1.73,0,0,0-1,2.26,1.74,1.74,0,0,0,1,1l15.26,8.83a1.5,1.5,0,0,1,.68,2,1.48,1.48,0,0,1-.78.72l-17.71,9a1.73,1.73,0,0,0-1,2.27,1.69,1.69,0,0,0,1,.95l15.26,8.83a1.5,1.5,0,0,1,.68,2,1.48,1.48,0,0,1-.78.72l-17.72,9a1.73,1.73,0,0,0-1,2.27,1.69,1.69,0,0,0,1,1l15.25,8.83a1.49,1.49,0,0,1,.68,2,1.45,1.45,0,0,1-.78.72l-19.13,9.67c-.23.12-.48.23-.73.33a8.55,8.55,0,0,1-4.54.31l-57.54-10.56c-9.32-2.33-17.19-6.53-17.19-14.57v-14.72C-392.71-199.63-400.41-206.15-409.9-206.15Z"/>
    </clipPath>
    <clipPath id="clip-path-3">
      <path id="Path_108" data-name="Path 108" class="cls-1" d="M131.11-214.1h-208l-5.29-4.52-5.58-4.79-11.66-10-5.58-4.78-11.63-10-5.63-4.8-11.61-9.93-5.63-4.8-4.36-3.74H64.17l4.36,3.74,5.63,4.8,11.6,9.93,5.61,4.8,11.63,10,5.61,4.78,11.63,10,5.58,4.79Z"/>
    </clipPath>
  </defs>
  <g id="pan_achterkant">
    <path class="cls-1" d="M1123.31,980.32l-570-.51A111.55,111.55,0,0,1,441.87,868.15l.3-337V528a5.18,5.18,0,0,1,.52-.8c14.07-18,186.25-32.11,396.58-31.92,219.52.19,397.46,15.87,397.45,35a4.27,4.27,0,0,1-1.44,3L1235,868.84A111.59,111.59,0,0,1,1123.31,980.32Z"/>
  </g>
  <g>
    <g class="cls-3">
      <g>
        <line class="cls-4" x1="10.74" y1="-896.96" x2="10.74" y2="57.68"/>
        <line class="cls-4" x1="32.03" y1="-896.96" x2="32.03" y2="57.68"/>
        <line class="cls-4" x1="52.24" y1="-896.96" x2="52.24" y2="57.68"/>
        <line class="cls-4" x1="93.73" y1="-896.96" x2="93.73" y2="57.68"/>
        <line class="cls-4" x1="113.94" y1="-896.96" x2="113.94" y2="57.68"/>
        <line class="cls-4" x1="72.44" y1="-896.96" x2="72.44" y2="57.68"/>
        <line class="cls-4" x1="134.15" y1="-896.96" x2="134.15" y2="57.68"/>
      </g>
    </g>
    <path id="Path_99-2" data-name="Path 99" class="cls-1" d="M-409.9-206.15h-4c-9.5,0-17.19,6.52-17.19,14.57v14.72c0,8-7.58,12.08-17.2,14.57l-58.45,10.55a8.48,8.48,0,0,1-4.52-.31c-.25-.1-.49-.21-.73-.33l-20.82-10.51L-515-173.15a1.73,1.73,0,0,0,1-2.26,1.74,1.74,0,0,0-1-1l-20.29-10.26,17.73-10.27a1.74,1.74,0,0,0,1-2.27,1.77,1.77,0,0,0-1-1l-20.29-10.24,15.18-10.26a1.74,1.74,0,0,0,1-2.27,1.74,1.74,0,0,0-1-1L-543-234.11l20.29-10.27a1.74,1.74,0,0,0,1-2.27,1.74,1.74,0,0,0-1-1l-15.18-10.24,20.29-10.26a1.73,1.73,0,0,0,1-2.27,1.74,1.74,0,0,0-1-1l-17.73-10.26L-515-291.86a1.73,1.73,0,0,0,1-2.26,1.71,1.71,0,0,0-1-1l-17.74-10.25,21.71-11c.24-.12.48-.23.73-.33a8.56,8.56,0,0,1,4.54-.31l57.54,10.56c9.62,2.49,17.2,6.52,17.2,14.57v14.71c0,8.05,7.69,14.57,17.19,14.57h4c9.49,0,17.19-6.52,17.19-14.57v-14.71c0-8.05,8.87-12.75,17.2-14.57l58.44-10.57a8.62,8.62,0,0,1,4.53.32c.25.1.49.21.73.33l18.23,9.21a1.51,1.51,0,0,1,.83,2,1.52,1.52,0,0,1-.73.77l-15.25,8.83a1.73,1.73,0,0,0-1,2.27,1.74,1.74,0,0,0,1,1l17.71,8.95a1.5,1.5,0,0,1,.83,2,1.5,1.5,0,0,1-.73.78l-15.26,8.84a1.75,1.75,0,0,0-1,2.27,1.77,1.77,0,0,0,1,1l17.72,8.95a1.51,1.51,0,0,1,.82,2,1.56,1.56,0,0,1-.72.78L-303.62-248a1.75,1.75,0,0,0-1,2.27,1.74,1.74,0,0,0,1,1l17.53,8.86a1.51,1.51,0,0,1,.82,2,1.5,1.5,0,0,1-.82.82l-17.53,8.86a1.73,1.73,0,0,0-1,2.26,1.74,1.74,0,0,0,1,1l15.26,8.83a1.5,1.5,0,0,1,.68,2,1.48,1.48,0,0,1-.78.72l-17.71,9a1.73,1.73,0,0,0-1,2.27,1.69,1.69,0,0,0,1,.95l15.26,8.83a1.5,1.5,0,0,1,.68,2,1.48,1.48,0,0,1-.78.72l-17.72,9a1.73,1.73,0,0,0-1,2.27,1.69,1.69,0,0,0,1,1l15.25,8.83a1.49,1.49,0,0,1,.68,2,1.45,1.45,0,0,1-.78.72l-19.13,9.67c-.23.12-.48.23-.73.33a8.55,8.55,0,0,1-4.54.31l-57.54-10.56c-9.32-2.33-17.19-6.53-17.19-14.57v-14.72C-392.71-199.63-400.41-206.15-409.9-206.15Z"/>
  </g>
  <g>
    <g class="cls-5">
      <g>
        <line class="cls-4" x1="26.25" y1="-755.55" x2="26.25" y2="199.09"/>
        <line class="cls-4" x1="46.46" y1="-755.55" x2="46.46" y2="199.09"/>
        <line class="cls-4" x1="4.96" y1="-755.55" x2="4.96" y2="199.09"/>
        <line class="cls-4" x1="67.74" y1="-755.55" x2="67.74" y2="199.09"/>
        <line class="cls-4" x1="87.95" y1="-755.55" x2="87.95" y2="199.09"/>
        <line class="cls-4" x1="129.45" y1="-755.55" x2="129.45" y2="199.09"/>
        <line class="cls-4" x1="149.65" y1="-755.55" x2="149.65" y2="199.09"/>
        <line class="cls-4" x1="108.16" y1="-755.55" x2="108.16" y2="199.09"/>
      </g>
    </g>
    <path id="Path_108-2" data-name="Path 108" class="cls-1" d="M131.11-214.1h-208l-5.29-4.52-5.58-4.79-11.66-10-5.58-4.78-11.63-10-5.63-4.8-11.61-9.93-5.63-4.8-4.36-3.74H64.17l4.36,3.74,5.63,4.8,11.6,9.93,5.61,4.8,11.63,10,5.61,4.78,11.63,10,5.58,4.79Z"/>
  </g>
  <polygon class="cls-6" points="5.69 84.71 5.57 5.58 74.16 45.04 142.75 84.5 74.28 124.17 5.81 163.84 5.69 84.71"/>
</svg>
