<svg id="Laag_1" data-name="Laag 1" xmlns="http://www.w3.org/2000/svg" xmlns:xlink="http://www.w3.org/1999/xlink" viewBox="0 0 326.08 344.39">
  <defs>
    <style>
      .cls-1, .cls-11, .cls-13, .cls-2, .cls-3 {
        fill: none;
        stroke: #503c21;
      }

      .cls-1, .cls-2 {
        stroke-miterlimit: 10;
      }

      .cls-1, .cls-4 {
        stroke-width: 9px;
      }

      .cls-13, .cls-2 {
        stroke-width: 6px;
      }

      .cls-11, .cls-13, .cls-3, .cls-4, .cls-6 {
        stroke-linecap: round;
        stroke-linejoin: round;
      }

      .cls-3, .cls-5, .cls-6 {
        stroke-width: 11px;
      }

      .cls-4 {
        fill: #b4934b;
        stroke: #b4934b;
      }

      .cls-5 {
        fill: #4b8449;
        stroke: #4b6140;
      }

      .cls-6 {
        fill: #394e2d;
        stroke: #394e2d;
      }

      .cls-7 {
        fill: #f5d697;
      }

      .cls-8 {
        opacity: 0.5;
      }

      .cls-9 {
        fill: #a57d39;
      }

      .cls-10 {
        clip-path: url(#clip-path);
      }

      .cls-11 {
        stroke-width: 5px;
      }

      .cls-12 {
        clip-path: url(#clip-path-2);
      }

      .cls-14 {
        clip-path: url(#clip-path-3);
      }
    </style>
    <clipPath id="clip-path">
      <path id="Path_90" data-name="Path 90" class="cls-1" d="M166.47,223.15C32,225.36,34.08,136.11,34.61,119.09a6.59,6.59,0,0,1,1.5-4c3.42-4.18,13.38-14,35-19.71,10.59-2.8,30.19-.55,45.21,4.89a6.61,6.61,0,0,1,3.18,2.51c41.19,59.14,75.8,10.54,82.66-.4A6.66,6.66,0,0,1,206,99.5a69.57,69.57,0,0,1,34.4-.55,77.15,77.15,0,0,1,30.12,16.24,6.54,6.54,0,0,1,2.15,4.45C274.09,140.24,286.48,221.18,166.47,223.15Z"/>
    </clipPath>
    <clipPath id="clip-path-2">
      <path class="cls-2" d="M105,113.19c-29.25,20.68-50.67,14-58,10.6a3,3,0,0,1-1.42-3.94,3.17,3.17,0,0,1,.5-.75c4.39-4.89,16.07-12.41,28.47-14.14,11.2-1.56,22.94,1,29.59,3a3,3,0,0,1,2,3.7A3,3,0,0,1,105,113.19Zm105.06,1.53c28.2,21.5,46.58,16.05,53,12.89a2.92,2.92,0,0,0,1.35-3.9,2.55,2.55,0,0,0-.33-.52c-4-5-15.73-13.11-28.33-15.21A56,56,0,0,0,211,109.51a3,3,0,0,0-2,3.7A2.9,2.9,0,0,0,210.07,114.72Z"/>
    </clipPath>
    <clipPath id="clip-path-3">
      <path id="Path_99" data-name="Path 99" class="cls-3" d="M577.88,192.2h-4c-9.49,0-17.19,6.52-17.19,14.57v14.72c0,8-7.58,12.08-17.2,14.57L481.1,246.61a8.48,8.48,0,0,1-4.52-.31c-.26-.1-.5-.21-.74-.33L455,235.46l17.74-10.26a1.73,1.73,0,0,0,1-2.26,1.71,1.71,0,0,0-1-1l-20.29-10.26,17.73-10.27a1.74,1.74,0,0,0,1-2.27,1.69,1.69,0,0,0-1-1L449.91,188l15.19-10.26a1.73,1.73,0,0,0,.95-2.27,1.71,1.71,0,0,0-.95-.95l-20.3-10.26L465.1,154a1.73,1.73,0,0,0,.95-2.27,1.71,1.71,0,0,0-.95-.95L449.91,140.5l20.3-10.26a1.75,1.75,0,0,0,1-2.27,1.8,1.8,0,0,0-1-1l-17.74-10.26,20.29-10.25a1.75,1.75,0,0,0,1-2.27,1.71,1.71,0,0,0-1-1L455,93l21.71-11c.24-.12.48-.23.73-.33a8.56,8.56,0,0,1,4.54-.31L539.54,92c9.62,2.49,17.2,6.52,17.2,14.57v14.71c0,8.05,7.69,14.57,17.19,14.57h4c9.5,0,17.19-6.52,17.19-14.57V106.54c0-8.05,8.87-12.75,17.2-14.57L670.72,81.4a8.59,8.59,0,0,1,4.52.32c.25.1.49.21.73.33l18.24,9.21a1.51,1.51,0,0,1,.82,2,1.48,1.48,0,0,1-.73.77l-15.25,8.83a1.74,1.74,0,0,0,0,3.23l17.71,9a1.5,1.5,0,0,1,.83,2,1.52,1.52,0,0,1-.73.79l-15.26,8.83a1.75,1.75,0,0,0-1,2.27,1.8,1.8,0,0,0,1,1l17.72,8.95a1.49,1.49,0,0,1,.82,2,1.52,1.52,0,0,1-.72.78l-15.26,8.82a1.74,1.74,0,0,0,0,3.23l17.53,8.86a1.51,1.51,0,0,1,0,2.79l-17.53,8.86a1.74,1.74,0,0,0,0,3.22l15.26,8.83a1.5,1.5,0,0,1,.68,2,1.45,1.45,0,0,1-.78.72l-17.71,9a1.74,1.74,0,0,0,0,3.23l15.26,8.82a1.49,1.49,0,0,1,.68,2,1.45,1.45,0,0,1-.78.72l-17.72,9a1.74,1.74,0,0,0,0,3.23l15.26,8.82a1.5,1.5,0,0,1,.67,2,1.43,1.43,0,0,1-.77.72L675.07,246c-.23.12-.48.23-.72.33a8.59,8.59,0,0,1-4.55.31l-57.54-10.56c-9.32-2.33-17.19-6.53-17.19-14.57V206.77C595.07,198.72,587.38,192.2,577.88,192.2Z"/>
    </clipPath>
  </defs>
  <g>
    <rect class="cls-4" x="6" y="30.65" width="313.77" height="309.7" rx="44.82"/>
    <rect class="cls-5" x="6" y="6.04" width="313.77" height="309.7" rx="44.82"/>
    <g>
      <path id="Path_87" data-name="Path 87" class="cls-6" d="M175.37,235C34,237.29,43.55,138.53,43.55,128.88c0-4.65,18.65-19.37,38.74-22.16a58.12,58.12,0,0,1,7.46-.57c1.76-.06,3.52-.06,5.25,0l3.24.19,3,.28a114.65,114.65,0,0,1,26,6.17,2.35,2.35,0,0,1,.19.25c46.51,68.7,86.6-.25,86.6-.25l9.21-1.26c1.42-.19,2.8-.35,4.21-.41,1.26-.09,2.49-.16,3.71-.22.82,0,1.67,0,2.49,0s1.85,0,2.79.06a74.12,74.12,0,0,1,45.1,17.93v.19c.16,15.6,19.28,103.83-106.08,105.9"/>
      <path id="Path_88" data-name="Path 88" class="cls-7" d="M166.47,223.15C25.05,225.47,34.66,126.71,34.66,117.07c0,0,11.82-15.55,39.63-22.91,11.28-3,29.09,1.58,44,6.84,46.6,69.11,86.78,0,86.78,0s14.57-7,34.54-2.26c10,2.4,21.36,8.15,33,18.33,0,15.09,19.78,104-106.09,106.08"/>
      <g class="cls-8">
        <path id="Path_89" data-name="Path 89" class="cls-9" d="M35.37,116.21,44.3,118l62-11.76,23.26,26.71c16,17.54,44.2,18.27,61.48,1l18.18-27.7,55.49,15.25,7.88-4.42s-18.82-16.42-29.95-17.51-17-5-37.87,0c0,0-17.57,30.29-44.18,32.14S118.27,101,118.27,101s-25.5-9.74-44.39-6.21-36.1,16.52-38.51,21.43"/>
      </g>
      <g>
        <g class="cls-10">
          <g>
            <line class="cls-11" x1="5.89" y1="-301.04" x2="5.89" y2="653.6"/>
            <line class="cls-11" x1="47.39" y1="-301.04" x2="47.39" y2="653.6"/>
            <line class="cls-11" x1="67.6" y1="-301.04" x2="67.6" y2="653.6"/>
            <line class="cls-11" x1="26.1" y1="-301.04" x2="26.1" y2="653.6"/>
            <line class="cls-11" x1="88.88" y1="-301.04" x2="88.88" y2="653.6"/>
            <line class="cls-11" x1="109.09" y1="-301.04" x2="109.09" y2="653.6"/>
            <line class="cls-11" x1="150.59" y1="-301.04" x2="150.59" y2="653.6"/>
            <line class="cls-11" x1="170.8" y1="-301.04" x2="170.8" y2="653.6"/>
            <line class="cls-11" x1="129.3" y1="-301.04" x2="129.3" y2="653.6"/>
            <line class="cls-11" x1="212.29" y1="-301.04" x2="212.29" y2="653.6"/>
            <line class="cls-11" x1="232.5" y1="-301.04" x2="232.5" y2="653.6"/>
            <line class="cls-11" x1="191" y1="-301.04" x2="191" y2="653.6"/>
            <line class="cls-11" x1="253.79" y1="-301.04" x2="253.79" y2="653.6"/>
            <line class="cls-11" x1="273.99" y1="-301.04" x2="273.99" y2="653.6"/>
            <line class="cls-11" x1="315.49" y1="-301.04" x2="315.49" y2="653.6"/>
            <line class="cls-11" x1="294.2" y1="-301.04" x2="294.2" y2="653.6"/>
          </g>
        </g>
        <path id="Path_90-2" data-name="Path 90" class="cls-1" d="M166.47,223.15C32,225.36,34.08,136.11,34.61,119.09a6.59,6.59,0,0,1,1.5-4c3.42-4.18,13.38-14,35-19.71,10.59-2.8,30.19-.55,45.21,4.89a6.61,6.61,0,0,1,3.18,2.51c41.19,59.14,75.8,10.54,82.66-.4A6.66,6.66,0,0,1,206,99.5a69.57,69.57,0,0,1,34.4-.55,77.15,77.15,0,0,1,30.12,16.24,6.54,6.54,0,0,1,2.15,4.45C274.09,140.24,286.48,221.18,166.47,223.15Z"/>
      </g>
      <path id="Path_91" data-name="Path 91" class="cls-9" d="M105.69,112.61C75.58,134.29,53.51,127.4,46,123.88A3,3,0,0,1,44.58,120a2.79,2.79,0,0,1,.44-.69c4.34-5,16.32-12.72,29-14.49,11.89-1.65,24.37,1.3,30.94,3.28a2.55,2.55,0,0,1,.72,4.54"/>
      <path id="Path_93" data-name="Path 93" class="cls-9" d="M210.4,115c27.57,20.81,46.15,15.54,52.67,12.5a3,3,0,0,0,1.43-3.92,3.18,3.18,0,0,0-.23-.4c-3.43-4.92-13.53-12.76-26.29-14.89a66,66,0,0,0-26.54,1.39,3,3,0,0,0-1,5.32"/>
      <g>
        <g class="cls-12">
          <g>
            <line class="cls-13" x1="-221.92" y1="-41.85" x2="474.46" y2="654.54"/>
            <line class="cls-13" x1="-258.08" y1="-46.59" x2="438.31" y2="649.79"/>
            <line class="cls-13" x1="-253.2" y1="-10.57" x2="443.18" y2="685.82"/>
            <line class="cls-13" x1="-289.36" y1="-15.31" x2="407.03" y2="681.07"/>
            <line class="cls-13" x1="-284.49" y1="20.72" x2="411.9" y2="717.1"/>
            <line class="cls-13" x1="-320.64" y1="15.98" x2="375.74" y2="712.36"/>
            <line class="cls-13" x1="-315.77" y1="52" x2="380.62" y2="748.38"/>
            <line class="cls-13" x1="-393.17" y1="6.46" x2="303.21" y2="702.85"/>
            <line class="cls-13" x1="-388.29" y1="42.48" x2="308.09" y2="738.87"/>
            <line class="cls-13" x1="-424.45" y1="37.74" x2="271.94" y2="734.13"/>
            <line class="cls-13" x1="-65.48" y1="-198.29" x2="630.91" y2="498.09"/>
            <line class="cls-13" x1="-101.63" y1="-203.03" x2="594.75" y2="493.35"/>
            <line class="cls-13" x1="-96.75" y1="-167.01" x2="599.63" y2="529.37"/>
            <line class="cls-13" x1="-132.91" y1="-171.76" x2="563.47" y2="524.63"/>
            <line class="cls-13" x1="-128.04" y1="-135.73" x2="568.34" y2="560.66"/>
            <line class="cls-13" x1="-164.2" y1="-140.47" x2="532.19" y2="555.92"/>
            <line class="cls-13" x1="-159.32" y1="-104.45" x2="537.06" y2="591.94"/>
            <line class="cls-13" x1="-236.72" y1="-149.98" x2="459.66" y2="546.4"/>
            <line class="cls-13" x1="-231.85" y1="-113.96" x2="464.54" y2="582.42"/>
            <line class="cls-13" x1="-268" y1="-118.7" x2="428.38" y2="577.68"/>
            <line class="cls-13" x1="91.36" y1="-355.13" x2="787.75" y2="341.25"/>
            <line class="cls-13" x1="55.21" y1="-359.87" x2="751.59" y2="336.51"/>
            <line class="cls-13" x1="60.09" y1="-323.85" x2="756.47" y2="372.53"/>
            <line class="cls-13" x1="23.93" y1="-328.59" x2="720.31" y2="367.79"/>
            <line class="cls-13" x1="28.8" y1="-292.56" x2="725.18" y2="403.82"/>
            <line class="cls-13" x1="-7.36" y1="-297.31" x2="689.02" y2="399.08"/>
            <line class="cls-13" x1="-2.48" y1="-261.29" x2="693.9" y2="435.1"/>
            <line class="cls-13" x1="-79.88" y1="-306.82" x2="616.5" y2="389.56"/>
            <line class="cls-13" x1="-75.01" y1="-270.8" x2="621.38" y2="425.58"/>
            <line class="cls-13" x1="-111.16" y1="-275.54" x2="585.22" y2="420.84"/>
            <line class="cls-13" x1="247.81" y1="-511.58" x2="944.19" y2="184.81"/>
            <line class="cls-13" x1="283.34" y1="-506.91" x2="979.73" y2="189.47"/>
            <line class="cls-13" x1="211.65" y1="-516.32" x2="908.04" y2="180.07"/>
            <line class="cls-13" x1="216.53" y1="-480.3" x2="912.91" y2="216.09"/>
            <line class="cls-13" x1="180.37" y1="-485.04" x2="876.76" y2="211.34"/>
            <line class="cls-13" x1="185.24" y1="-449.01" x2="881.63" y2="247.37"/>
            <line class="cls-13" x1="149.09" y1="-453.75" x2="845.47" y2="242.63"/>
            <line class="cls-13" x1="153.96" y1="-417.73" x2="850.35" y2="278.65"/>
            <line class="cls-13" x1="76.56" y1="-463.27" x2="772.94" y2="233.12"/>
            <line class="cls-13" x1="81.44" y1="-427.24" x2="777.82" y2="269.14"/>
            <line class="cls-13" x1="45.28" y1="-431.99" x2="741.66" y2="264.4"/>
          </g>
        </g>
        <path class="cls-2" d="M105,113.19c-29.25,20.68-50.67,14-58,10.6a3,3,0,0,1-1.42-3.94,3.17,3.17,0,0,1,.5-.75c4.39-4.89,16.07-12.41,28.47-14.14,11.2-1.56,22.94,1,29.59,3a3,3,0,0,1,2,3.7A3,3,0,0,1,105,113.19Zm105.06,1.53c28.2,21.5,46.58,16.05,53,12.89a2.92,2.92,0,0,0,1.35-3.9,2.55,2.55,0,0,0-.33-.52c-4-5-15.73-13.11-28.33-15.21A56,56,0,0,0,211,109.51a3,3,0,0,0-2,3.7A2.9,2.9,0,0,0,210.07,114.72Z"/>
      </g>
    </g>
  </g>
  <g>
    <g class="cls-14">
      <g>
        <line class="cls-11" x1="257" y1="-498.6" x2="257" y2="456.03"/>
        <line class="cls-11" x1="277.21" y1="-498.6" x2="277.21" y2="456.03"/>
        <line class="cls-11" x1="215.51" y1="-498.6" x2="215.51" y2="456.03"/>
        <line class="cls-11" x1="235.71" y1="-498.6" x2="235.71" y2="456.03"/>
        <line class="cls-11" x1="318.7" y1="-498.6" x2="318.7" y2="456.03"/>
        <line class="cls-11" x1="297.42" y1="-498.6" x2="297.42" y2="456.03"/>
      </g>
    </g>
    <path id="Path_99-2" data-name="Path 99" class="cls-3" d="M577.88,192.2h-4c-9.49,0-17.19,6.52-17.19,14.57v14.72c0,8-7.58,12.08-17.2,14.57L481.1,246.61a8.48,8.48,0,0,1-4.52-.31c-.26-.1-.5-.21-.74-.33L455,235.46l17.74-10.26a1.73,1.73,0,0,0,1-2.26,1.71,1.71,0,0,0-1-1l-20.29-10.26,17.73-10.27a1.74,1.74,0,0,0,1-2.27,1.69,1.69,0,0,0-1-1L449.91,188l15.19-10.26a1.73,1.73,0,0,0,.95-2.27,1.71,1.71,0,0,0-.95-.95l-20.3-10.26L465.1,154a1.73,1.73,0,0,0,.95-2.27,1.71,1.71,0,0,0-.95-.95L449.91,140.5l20.3-10.26a1.75,1.75,0,0,0,1-2.27,1.8,1.8,0,0,0-1-1l-17.74-10.26,20.29-10.25a1.75,1.75,0,0,0,1-2.27,1.71,1.71,0,0,0-1-1L455,93l21.71-11c.24-.12.48-.23.73-.33a8.56,8.56,0,0,1,4.54-.31L539.54,92c9.62,2.49,17.2,6.52,17.2,14.57v14.71c0,8.05,7.69,14.57,17.19,14.57h4c9.5,0,17.19-6.52,17.19-14.57V106.54c0-8.05,8.87-12.75,17.2-14.57L670.72,81.4a8.59,8.59,0,0,1,4.52.32c.25.1.49.21.73.33l18.24,9.21a1.51,1.51,0,0,1,.82,2,1.48,1.48,0,0,1-.73.77l-15.25,8.83a1.74,1.74,0,0,0,0,3.23l17.71,9a1.5,1.5,0,0,1,.83,2,1.52,1.52,0,0,1-.73.79l-15.26,8.83a1.75,1.75,0,0,0-1,2.27,1.8,1.8,0,0,0,1,1l17.72,8.95a1.49,1.49,0,0,1,.82,2,1.52,1.52,0,0,1-.72.78l-15.26,8.82a1.74,1.74,0,0,0,0,3.23l17.53,8.86a1.51,1.51,0,0,1,0,2.79l-17.53,8.86a1.74,1.74,0,0,0,0,3.22l15.26,8.83a1.5,1.5,0,0,1,.68,2,1.45,1.45,0,0,1-.78.72l-17.71,9a1.74,1.74,0,0,0,0,3.23l15.26,8.82a1.49,1.49,0,0,1,.68,2,1.45,1.45,0,0,1-.78.72l-17.72,9a1.74,1.74,0,0,0,0,3.23l15.26,8.82a1.5,1.5,0,0,1,.67,2,1.43,1.43,0,0,1-.77.72L675.07,246c-.23.12-.48.23-.72.33a8.59,8.59,0,0,1-4.55.31l-57.54-10.56c-9.32-2.33-17.19-6.53-17.19-14.57V206.77C595.07,198.72,587.38,192.2,577.88,192.2Z"/>
  </g>
</svg>
