<svg id="Laag_1" data-name="Laag 1" xmlns="http://www.w3.org/2000/svg" xmlns:xlink="http://www.w3.org/1999/xlink" viewBox="0 0 325.07 344.39">
  <defs>
    <style>
      .cls-1, .cls-2, .cls-21, .cls-3, .cls-4, .cls-5, .cls-7, .cls-9 {
        fill: none;
      }

      .cls-1, .cls-2, .cls-3, .cls-5, .cls-7, .cls-9 {
        stroke: #503c21;
      }

      .cls-1, .cls-2 {
        stroke-miterlimit: 10;
      }

      .cls-1, .cls-3 {
        stroke-width: 9px;
      }

      .cls-2, .cls-9 {
        stroke-width: 6px;
      }

      .cls-14, .cls-3, .cls-7, .cls-9 {
        stroke-linecap: round;
        stroke-linejoin: round;
      }

      .cls-21, .cls-5 {
        stroke-miterlimit: 10;
      }

      .cls-5 {
        stroke-width: 8px;
      }

      .cls-6 {
        clip-path: url(#clip-path);
      }

      .cls-7 {
        stroke-width: 5px;
      }

      .cls-8 {
        clip-path: url(#clip-path-2);
      }

      .cls-10 {
        clip-path: url(#clip-path-3);
      }

      .cls-11 {
        fill: #b4934b;
      }

      .cls-12 {
        fill: #e94933;
      }

      .cls-13 {
        fill: #ae3a32;
      }

      .cls-14 {
        fill: #ab2524;
        stroke: #ab2524;
        stroke-width: 11px;
      }

      .cls-15 {
        fill: #f5d697;
      }

      .cls-16 {
        opacity: 0.5;
      }

      .cls-17 {
        fill: #a57d39;
        stroke: #a57d39;
        stroke-width: 4px;
      }

      .cls-18 {
        clip-path: url(#clip-path-4);
      }

      .cls-19 {
        clip-path: url(#clip-path-5);
      }

      .cls-20 {
        clip-path: url(#clip-path-6);
      }

      .cls-21 {
        stroke: #67bd2a;
        stroke-width: 108px;
      }

      .cls-22 {
        clip-path: url(#clip-path-7);
      }
    </style>
    <clipPath id="clip-path">
      <path id="Path_90" data-name="Path 90" class="cls-1" d="M-652.76,223.15c-134.52,2.21-132.39-87-131.86-104.06a6.59,6.59,0,0,1,1.5-4c3.42-4.18,13.38-14,35-19.71,10.59-2.8,30.19-.55,45.21,4.89a6.66,6.66,0,0,1,3.18,2.51c41.18,59.14,75.79,10.54,82.66-.4a6.6,6.6,0,0,1,3.87-2.87,69.57,69.57,0,0,1,34.4-.55,77.15,77.15,0,0,1,30.12,16.24,6.49,6.49,0,0,1,2.14,4.45C-545.14,140.24-532.75,221.18-652.76,223.15Z"/>
    </clipPath>
    <clipPath id="clip-path-2">
      <path class="cls-2" d="M-714.23,113.19c-29.24,20.68-50.66,14-58,10.6a3,3,0,0,1-1.42-3.94,3.17,3.17,0,0,1,.5-.75c4.38-4.89,16.07-12.41,28.46-14.14,11.21-1.56,22.95,1,29.6,3a3,3,0,0,1,2,3.7A3,3,0,0,1-714.23,113.19Zm105.07,1.53c28.19,21.5,46.57,16.05,52.95,12.89a2.93,2.93,0,0,0,1.36-3.9,2.55,2.55,0,0,0-.33-.52c-4-5-15.73-13.11-28.33-15.21a56.09,56.09,0,0,0-24.74,1.53,3,3,0,0,0-2,3.7A2.9,2.9,0,0,0-609.16,114.72Z"/>
    </clipPath>
    <clipPath id="clip-path-3">
      <path id="Path_99" data-name="Path 99" class="cls-3" d="M-241.35,192.2h-4c-9.5,0-17.2,6.52-17.2,14.57v14.72c0,8-7.58,12.08-17.19,14.57l-58.45,10.55a8.48,8.48,0,0,1-4.52-.31c-.25-.1-.49-.21-.73-.33l-20.82-10.51,17.74-10.26a1.73,1.73,0,0,0,1-2.26,1.74,1.74,0,0,0-1-1l-20.29-10.26L-349,201.45a1.74,1.74,0,0,0,1-2.27,1.72,1.72,0,0,0-1-1L-369.32,188l15.18-10.26a1.74,1.74,0,0,0,1-2.27,1.69,1.69,0,0,0-1-.95l-20.29-10.26L-354.14,154a1.74,1.74,0,0,0,1-2.27,1.69,1.69,0,0,0-1-.95l-15.18-10.25L-349,130.24a1.75,1.75,0,0,0,1-2.27,1.74,1.74,0,0,0-1-1l-17.73-10.26,20.29-10.25a1.75,1.75,0,0,0,1-2.27,1.71,1.71,0,0,0-1-1L-364.21,93l21.71-11c.24-.12.48-.23.73-.33a8.56,8.56,0,0,1,4.54-.31L-279.69,92c9.62,2.49,17.19,6.52,17.19,14.57v14.71c0,8.05,7.7,14.57,17.2,14.57h4c9.49,0,17.19-6.52,17.19-14.57V106.54c0-8.05,8.87-12.75,17.19-14.57l58.45-10.57a8.58,8.58,0,0,1,4.52.32c.26.1.5.21.74.33L-125,91.26a1.51,1.51,0,0,1,.83,2,1.48,1.48,0,0,1-.73.77l-15.26,8.83a1.73,1.73,0,0,0-.95,2.27,1.75,1.75,0,0,0,.95,1l17.72,9a1.5,1.5,0,0,1,.83,2,1.52,1.52,0,0,1-.73.79l-15.26,8.83a1.75,1.75,0,0,0-1,2.27,1.77,1.77,0,0,0,1,1l17.72,8.95a1.51,1.51,0,0,1,.82,2,1.54,1.54,0,0,1-.73.78l-15.25,8.82a1.75,1.75,0,0,0-1,2.27,1.71,1.71,0,0,0,1,1l17.53,8.86a1.51,1.51,0,0,1,.82,2,1.5,1.5,0,0,1-.82.82l-17.53,8.86a1.73,1.73,0,0,0-1,2.26,1.71,1.71,0,0,0,1,1l15.26,8.83a1.5,1.5,0,0,1,.68,2,1.45,1.45,0,0,1-.78.72l-17.72,9a1.73,1.73,0,0,0-1,2.27,1.75,1.75,0,0,0,1,1l15.27,8.82a1.5,1.5,0,0,1,.68,2,1.45,1.45,0,0,1-.78.72l-17.73,9a1.73,1.73,0,0,0-.95,2.27,1.75,1.75,0,0,0,.95,1l15.26,8.82a1.49,1.49,0,0,1,.68,2,1.45,1.45,0,0,1-.78.72L-144.16,246c-.23.12-.48.23-.73.33a8.55,8.55,0,0,1-4.54.31L-207,236.06c-9.32-2.33-17.19-6.53-17.19-14.57V206.77C-224.16,198.72-231.86,192.2-241.35,192.2Z"/>
    </clipPath>
    <clipPath id="clip-path-4">
      <path id="Path_108" data-name="Path 108" class="cls-3" d="M299.66,184.25h-208l-5.29-4.52-5.58-4.79L69.08,165l-5.58-4.78-11.63-10-5.63-4.8-11.61-9.93L29,130.73,24.64,127H232.71l4.37,3.74,5.63,4.8,11.6,9.93,5.61,4.8,11.63,10,5.61,4.78,11.63,9.95,5.58,4.79Z"/>
    </clipPath>
    <clipPath id="clip-path-5">
      <path class="cls-4" d="M-284.52,618.42a13.68,13.68,0,0,0,5.43,8.71l18.89,13.72a2.5,2.5,0,0,0,3.51-.56,2.5,2.5,0,0,0,.44-1.91l-3.44-19.85a13.63,13.63,0,0,0-5.44-8.71L-289,592.45Zm42.84-15.32a13.68,13.68,0,0,0-7.14,7.38l-7.54,18.68a2.51,2.51,0,0,0,1.37,3.28,2.54,2.54,0,0,0,2,0l21.35-9.45a13.68,13.68,0,0,0,7.14-7.38l9.87-24.43Zm2-28.77a13.68,13.68,0,0,0-7.14,7.38l-7.54,18.69a2.52,2.52,0,0,0,1.38,3.27,2.52,2.52,0,0,0,2,0l21.35-9.44a13.68,13.68,0,0,0,7.14-7.38l9.87-24.44Zm-44.86,11.41a13.66,13.66,0,0,0,5.26,8.82l18.61,14.09a2.51,2.51,0,0,0,3.52-.49,2.53,2.53,0,0,0,.48-1.9l-3.06-19.92a13.7,13.7,0,0,0-5.26-8.82l-23.55-17.83Zm48.35-40.5a13.65,13.65,0,0,0-7.14,7.38l-7.55,18.68a2.51,2.51,0,0,0,1.39,3.27,2.47,2.47,0,0,0,2,0l21.34-9.45a13.65,13.65,0,0,0,7.14-7.38l9.87-24.43ZM-281,556.6a13.66,13.66,0,0,0,5.43,8.71L-256.71,579a2.51,2.51,0,0,0,3.51-.55,2.55,2.55,0,0,0,.45-1.91l-3.47-19.85a13.7,13.7,0,0,0-5.43-8.72l-23.91-17.35Zm48.68-40.13a13.7,13.7,0,0,0-7.15,7.38L-247,542.54a2.51,2.51,0,0,0,1.39,3.27,2.52,2.52,0,0,0,2,0l21.34-9.44a13.68,13.68,0,0,0,7.14-7.38l9.87-24.44Zm-43.31,10.69a13.65,13.65,0,0,0,4.65,9.15l17.61,15.32a2.52,2.52,0,0,0,3.55-.26,2.51,2.51,0,0,0,.61-1.85l-1.71-20.08a13.68,13.68,0,0,0-4.65-9.16l-22.3-19.38ZM-258.19,494a13.68,13.68,0,0,0,.75,10.24l10.33,20.93a2.52,2.52,0,0,0,3.37,1.14,2.5,2.5,0,0,0,1.28-1.48l6.18-19.18a13.67,13.67,0,0,0-.75-10.24l-13.08-26.49Z"/>
    </clipPath>
    <clipPath id="clip-path-6">
      <path class="cls-4" d="M57.76,466C41,482.74,40.89,513.55,67.19,539.85c33.69,33.69,92.9,51.8,104.58,40.12,12-12-4.16-68.62-40.12-104.58-27.73-27.72-57.11-26.2-73.89-9.42"/>
    </clipPath>
    <clipPath id="clip-path-7">
      <path id="Path_200" data-name="Path 200" class="cls-5" d="M171.77,580c-11.68,11.68-70.89-6.44-104.58-40.13C40.89,513.55,41,482.74,57.77,466s46.16-18.3,73.88,9.42C167.61,511.36,183.73,568,171.77,580Z"/>
    </clipPath>
  </defs>
  <g>
    <g>
      <g class="cls-6">
        <line class="cls-7" x1="11.17" y1="-301.04" x2="11.17" y2="653.6"/>
      </g>
      <path id="Path_90-2" data-name="Path 90" class="cls-1" d="M-652.76,223.15c-134.52,2.21-132.39-87-131.86-104.06a6.59,6.59,0,0,1,1.5-4c3.42-4.18,13.38-14,35-19.71,10.59-2.8,30.19-.55,45.21,4.89a6.66,6.66,0,0,1,3.18,2.51c41.18,59.14,75.79,10.54,82.66-.4a6.6,6.6,0,0,1,3.87-2.87,69.57,69.57,0,0,1,34.4-.55,77.15,77.15,0,0,1,30.12,16.24,6.49,6.49,0,0,1,2.14,4.45C-545.14,140.24-532.75,221.18-652.76,223.15Z"/>
    </g>
    <g>
      <g class="cls-8">
        <g>
          <line class="cls-9" x1="-571.42" y1="-511.58" x2="124.96" y2="184.81"/>
          <line class="cls-9" x1="-535.89" y1="-506.91" x2="160.5" y2="189.47"/>
          <line class="cls-9" x1="-607.58" y1="-516.32" x2="88.8" y2="180.07"/>
          <line class="cls-9" x1="-602.7" y1="-480.3" x2="93.68" y2="216.09"/>
          <line class="cls-9" x1="-638.86" y1="-485.04" x2="57.52" y2="211.34"/>
          <line class="cls-9" x1="-633.99" y1="-449.01" x2="62.39" y2="247.37"/>
          <line class="cls-9" x1="-670.15" y1="-453.75" x2="26.24" y2="242.63"/>
          <line class="cls-9" x1="-665.27" y1="-417.73" x2="31.12" y2="278.65"/>
        </g>
      </g>
      <path class="cls-2" d="M-714.23,113.19c-29.24,20.68-50.66,14-58,10.6a3,3,0,0,1-1.42-3.94,3.17,3.17,0,0,1,.5-.75c4.38-4.89,16.07-12.41,28.46-14.14,11.21-1.56,22.95,1,29.6,3a3,3,0,0,1,2,3.7A3,3,0,0,1-714.23,113.19Zm105.07,1.53c28.19,21.5,46.57,16.05,52.95,12.89a2.93,2.93,0,0,0,1.36-3.9,2.55,2.55,0,0,0-.33-.52c-4-5-15.73-13.11-28.33-15.21a56.09,56.09,0,0,0-24.74,1.53,3,3,0,0,0-2,3.7A2.9,2.9,0,0,0-609.16,114.72Z"/>
    </g>
  </g>
  <g>
    <g class="cls-10">
      <g>
        <line class="cls-7" x1="14.39" y1="-498.6" x2="14.39" y2="456.03"/>
        <line class="cls-7" x1="55.88" y1="-498.6" x2="55.88" y2="456.03"/>
        <line class="cls-7" x1="76.09" y1="-498.6" x2="76.09" y2="456.03"/>
        <line class="cls-7" x1="34.6" y1="-498.6" x2="34.6" y2="456.03"/>
        <line class="cls-7" x1="97.38" y1="-498.6" x2="97.38" y2="456.03"/>
        <line class="cls-7" x1="117.59" y1="-498.6" x2="117.59" y2="456.03"/>
        <line class="cls-7" x1="159.08" y1="-498.6" x2="159.08" y2="456.03"/>
        <line class="cls-7" x1="179.29" y1="-498.6" x2="179.29" y2="456.03"/>
        <line class="cls-7" x1="137.79" y1="-498.6" x2="137.79" y2="456.03"/>
        <line class="cls-7" x1="200.58" y1="-498.6" x2="200.58" y2="456.03"/>
        <line class="cls-7" x1="220.79" y1="-498.6" x2="220.79" y2="456.03"/>
        <line class="cls-7" x1="262.28" y1="-498.6" x2="262.28" y2="456.03"/>
        <line class="cls-7" x1="282.49" y1="-498.6" x2="282.49" y2="456.03"/>
        <line class="cls-7" x1="240.99" y1="-498.6" x2="240.99" y2="456.03"/>
        <line class="cls-7" x1="323.98" y1="-498.6" x2="323.98" y2="456.03"/>
        <line class="cls-7" x1="302.7" y1="-498.6" x2="302.7" y2="456.03"/>
      </g>
    </g>
    <path id="Path_99-2" data-name="Path 99" class="cls-3" d="M-241.35,192.2h-4c-9.5,0-17.2,6.52-17.2,14.57v14.72c0,8-7.58,12.08-17.19,14.57l-58.45,10.55a8.48,8.48,0,0,1-4.52-.31c-.25-.1-.49-.21-.73-.33l-20.82-10.51,17.74-10.26a1.73,1.73,0,0,0,1-2.26,1.74,1.74,0,0,0-1-1l-20.29-10.26L-349,201.45a1.74,1.74,0,0,0,1-2.27,1.72,1.72,0,0,0-1-1L-369.32,188l15.18-10.26a1.74,1.74,0,0,0,1-2.27,1.69,1.69,0,0,0-1-.95l-20.29-10.26L-354.14,154a1.74,1.74,0,0,0,1-2.27,1.69,1.69,0,0,0-1-.95l-15.18-10.25L-349,130.24a1.75,1.75,0,0,0,1-2.27,1.74,1.74,0,0,0-1-1l-17.73-10.26,20.29-10.25a1.75,1.75,0,0,0,1-2.27,1.71,1.71,0,0,0-1-1L-364.21,93l21.71-11c.24-.12.48-.23.73-.33a8.56,8.56,0,0,1,4.54-.31L-279.69,92c9.62,2.49,17.19,6.52,17.19,14.57v14.71c0,8.05,7.7,14.57,17.2,14.57h4c9.49,0,17.19-6.52,17.19-14.57V106.54c0-8.05,8.87-12.75,17.19-14.57l58.45-10.57a8.58,8.58,0,0,1,4.52.32c.26.1.5.21.74.33L-125,91.26a1.51,1.51,0,0,1,.83,2,1.48,1.48,0,0,1-.73.77l-15.26,8.83a1.73,1.73,0,0,0-.95,2.27,1.75,1.75,0,0,0,.95,1l17.72,9a1.5,1.5,0,0,1,.83,2,1.52,1.52,0,0,1-.73.79l-15.26,8.83a1.75,1.75,0,0,0-1,2.27,1.77,1.77,0,0,0,1,1l17.72,8.95a1.51,1.51,0,0,1,.82,2,1.54,1.54,0,0,1-.73.78l-15.25,8.82a1.75,1.75,0,0,0-1,2.27,1.71,1.71,0,0,0,1,1l17.53,8.86a1.51,1.51,0,0,1,.82,2,1.5,1.5,0,0,1-.82.82l-17.53,8.86a1.73,1.73,0,0,0-1,2.26,1.71,1.71,0,0,0,1,1l15.26,8.83a1.5,1.5,0,0,1,.68,2,1.45,1.45,0,0,1-.78.72l-17.72,9a1.73,1.73,0,0,0-1,2.27,1.75,1.75,0,0,0,1,1l15.27,8.82a1.5,1.5,0,0,1,.68,2,1.45,1.45,0,0,1-.78.72l-17.73,9a1.73,1.73,0,0,0-.95,2.27,1.75,1.75,0,0,0,.95,1l15.26,8.82a1.49,1.49,0,0,1,.68,2,1.45,1.45,0,0,1-.78.72L-144.16,246c-.23.12-.48.23-.73.33a8.55,8.55,0,0,1-4.54.31L-207,236.06c-9.32-2.33-17.19-6.53-17.19-14.57V206.77C-224.16,198.72-231.86,192.2-241.35,192.2Z"/>
  </g>
  <g>
    <g>
      <rect class="cls-11" x="4.5" y="27.32" width="316.07" height="311.85" rx="41.94"/>
      <path class="cls-11" d="M278.63,31.82a37.49,37.49,0,0,1,37.44,37.44v228a37.49,37.49,0,0,1-37.44,37.44H46.44A37.48,37.48,0,0,1,9,297.23v-228A37.48,37.48,0,0,1,46.44,31.82H278.63m0-9H46.44A46.44,46.44,0,0,0,0,69.26v228a46.44,46.44,0,0,0,46.44,46.44H278.63a46.44,46.44,0,0,0,46.44-46.44v-228a46.44,46.44,0,0,0-46.44-46.44Z"/>
    </g>
    <g>
      <rect class="cls-12" x="5.5" y="5.5" width="314.07" height="309.84" rx="40.94"/>
      <path class="cls-13" d="M278.63,11a35.48,35.48,0,0,1,35.44,35.44v228a35.48,35.48,0,0,1-35.44,35.44H46.44A35.48,35.48,0,0,1,11,274.41v-228A35.48,35.48,0,0,1,46.44,11H278.63m0-11H46.44A46.44,46.44,0,0,0,0,46.44v228a46.44,46.44,0,0,0,46.44,46.44H278.63a46.44,46.44,0,0,0,46.44-46.44v-228A46.44,46.44,0,0,0,278.63,0Z"/>
    </g>
    <path id="Path_102" data-name="Path 102" class="cls-14" d="M32,144.72l4.37,3.73,5.63,4.8,11.6,9.93,5.63,4.8,11.63,10,5.58,4.79,11.66,9.95,5.58,4.78L99,202H307.06l-5.29-4.52-5.58-4.78-11.63-9.95L279,177.93l-11.63-10-5.61-4.8-11.6-9.93-5.63-4.8-4.36-3.73Z"/>
    <path id="Path_103" data-name="Path 103" class="cls-15" d="M24.65,127H232.71l66.94,57.25H91.6Z"/>
    <g id="Group_95" data-name="Group 95">
      <g class="cls-16">
        <path id="Path_104" data-name="Path 104" class="cls-17" d="M242.71,135.54H34.63L29,130.74H237.08Z"/>
      </g>
      <g class="cls-16">
        <path id="Path_105" data-name="Path 105" class="cls-17" d="M259.92,150.27h-208l-5.63-4.8H254.32Z"/>
      </g>
      <g class="cls-16">
        <path id="Path_106" data-name="Path 106" class="cls-17" d="M277.16,165H69.08l-5.58-4.79H271.55Z"/>
      </g>
      <g class="cls-16">
        <path id="Path_107" data-name="Path 107" class="cls-17" d="M294.37,179.73h-208l-5.58-4.79H288.79Z"/>
      </g>
    </g>
    <g>
      <g class="cls-18">
        <g>
          <line class="cls-7" x1="29.89" y1="-357.19" x2="29.89" y2="597.44"/>
          <line class="cls-7" x1="50.1" y1="-357.19" x2="50.1" y2="597.44"/>
          <line class="cls-7" x1="8.61" y1="-357.19" x2="8.61" y2="597.44"/>
          <line class="cls-7" x1="71.39" y1="-357.19" x2="71.39" y2="597.44"/>
          <line class="cls-7" x1="91.6" y1="-357.19" x2="91.6" y2="597.44"/>
          <line class="cls-7" x1="133.09" y1="-357.19" x2="133.09" y2="597.44"/>
          <line class="cls-7" x1="153.3" y1="-357.19" x2="153.3" y2="597.44"/>
          <line class="cls-7" x1="111.81" y1="-357.19" x2="111.81" y2="597.44"/>
          <line class="cls-7" x1="194.8" y1="-357.19" x2="194.8" y2="597.44"/>
          <line class="cls-7" x1="215" y1="-357.19" x2="215" y2="597.44"/>
          <line class="cls-7" x1="173.51" y1="-357.19" x2="173.51" y2="597.44"/>
          <line class="cls-7" x1="236.29" y1="-357.19" x2="236.29" y2="597.44"/>
          <line class="cls-7" x1="256.5" y1="-357.19" x2="256.5" y2="597.44"/>
          <line class="cls-7" x1="298" y1="-357.19" x2="298" y2="597.44"/>
          <line class="cls-7" x1="318.2" y1="-357.19" x2="318.2" y2="597.44"/>
          <line class="cls-7" x1="276.71" y1="-357.19" x2="276.71" y2="597.44"/>
        </g>
      </g>
      <path id="Path_108-2" data-name="Path 108" class="cls-3" d="M299.66,184.25h-208l-5.29-4.52-5.58-4.79L69.08,165l-5.58-4.78-11.63-10-5.63-4.8-11.61-9.93L29,130.73,24.64,127H232.71l4.37,3.74,5.63,4.8,11.6,9.93,5.61,4.8,11.63,10,5.61,4.78,11.63,9.95,5.58,4.79Z"/>
    </g>
  </g>
  <g class="cls-19">
    <g>
      <line class="cls-7" x1="38.57" y1="138.66" x2="38.57" y2="1093.3"/>
      <line class="cls-7" x1="58.78" y1="138.66" x2="58.78" y2="1093.3"/>
      <line class="cls-7" x1="17.28" y1="138.66" x2="17.28" y2="1093.3"/>
      <line class="cls-7" x1="80.06" y1="138.66" x2="80.06" y2="1093.3"/>
      <line class="cls-7" x1="100.27" y1="138.66" x2="100.27" y2="1093.3"/>
      <line class="cls-7" x1="141.77" y1="138.66" x2="141.77" y2="1093.3"/>
      <line class="cls-7" x1="161.98" y1="138.66" x2="161.98" y2="1093.3"/>
      <line class="cls-7" x1="120.48" y1="138.66" x2="120.48" y2="1093.3"/>
      <line class="cls-7" x1="183.26" y1="138.66" x2="183.26" y2="1093.3"/>
      <line class="cls-7" x1="203.47" y1="138.66" x2="203.47" y2="1093.3"/>
      <line class="cls-7" x1="244.97" y1="138.66" x2="244.97" y2="1093.3"/>
      <line class="cls-7" x1="265.18" y1="138.66" x2="265.18" y2="1093.3"/>
      <line class="cls-7" x1="223.68" y1="138.66" x2="223.68" y2="1093.3"/>
      <line class="cls-7" x1="306.67" y1="138.66" x2="306.67" y2="1093.3"/>
      <line class="cls-7" x1="326.88" y1="138.66" x2="326.88" y2="1093.3"/>
      <line class="cls-7" x1="285.38" y1="138.66" x2="285.38" y2="1093.3"/>
    </g>
  </g>
  <g id="Group_151" data-name="Group 151">
    <g id="Group_148" data-name="Group 148">
      <g class="cls-20">
        <g id="Group_147" data-name="Group 147">
          <rect id="Rectangle_114" data-name="Rectangle 114" class="cls-21" x="-128.57" y="288.28" width="296.77" height="297.57"/>
        </g>
      </g>
    </g>
    <g id="Group_149" data-name="Group 149">
      <g>
        <g class="cls-22">
          <g>
            <line class="cls-7" x1="8.78" y1="205.19" x2="8.78" y2="1159.82"/>
            <line class="cls-7" x1="28.99" y1="205.19" x2="28.99" y2="1159.82"/>
            <line class="cls-7" x1="70.49" y1="205.19" x2="70.49" y2="1159.82"/>
            <line class="cls-7" x1="90.69" y1="205.19" x2="90.69" y2="1159.82"/>
            <line class="cls-7" x1="49.2" y1="205.19" x2="49.2" y2="1159.82"/>
            <line class="cls-7" x1="132.19" y1="205.19" x2="132.19" y2="1159.82"/>
            <line class="cls-7" x1="152.4" y1="205.19" x2="152.4" y2="1159.82"/>
            <line class="cls-7" x1="110.9" y1="205.19" x2="110.9" y2="1159.82"/>
            <line class="cls-7" x1="173.69" y1="205.19" x2="173.69" y2="1159.82"/>
            <line class="cls-7" x1="193.89" y1="205.19" x2="193.89" y2="1159.82"/>
            <line class="cls-7" x1="235.39" y1="205.19" x2="235.39" y2="1159.82"/>
            <line class="cls-7" x1="255.6" y1="205.19" x2="255.6" y2="1159.82"/>
            <line class="cls-7" x1="214.1" y1="205.19" x2="214.1" y2="1159.82"/>
            <line class="cls-7" x1="276.88" y1="205.19" x2="276.88" y2="1159.82"/>
            <line class="cls-7" x1="297.09" y1="205.19" x2="297.09" y2="1159.82"/>
            <line class="cls-7" x1="317.3" y1="205.19" x2="317.3" y2="1159.82"/>
          </g>
        </g>
        <path id="Path_200-2" data-name="Path 200" class="cls-5" d="M171.77,580c-11.68,11.68-70.89-6.44-104.58-40.13C40.89,513.55,41,482.74,57.77,466s46.16-18.3,73.88,9.42C167.61,511.36,183.73,568,171.77,580Z"/>
      </g>
    </g>
  </g>
</svg>
