<svg id="Laag_1" data-name="Laag 1" xmlns="http://www.w3.org/2000/svg" xmlns:xlink="http://www.w3.org/1999/xlink" viewBox="0 0 148.28 169.54">
  <defs>
    <style>
      .cls-1, .cls-2, .cls-4, .cls-6 {
        fill: none;
        stroke: #503c21;
      }

      .cls-1, .cls-2 {
        stroke-miterlimit: 10;
      }

      .cls-1 {
        stroke-width: 9px;
      }

      .cls-2, .cls-6 {
        stroke-width: 6px;
      }

      .cls-3 {
        clip-path: url(#clip-path);
      }

      .cls-4, .cls-6, .cls-7 {
        stroke-linecap: round;
        stroke-linejoin: round;
      }

      .cls-4 {
        stroke-width: 5px;
      }

      .cls-5 {
        clip-path: url(#clip-path-2);
      }

      .cls-7 {
        fill: #e94933;
        stroke: #ae3a32;
        stroke-width: 11px;
      }
    </style>
    <clipPath id="clip-path">
      <path id="Path_90" data-name="Path 90" class="cls-1" d="M164.86-175.11C30.33-172.9,32.47-262.15,33-279.17a6.59,6.59,0,0,1,1.5-4c3.43-4.19,13.38-14,35-19.71,10.58-2.8,30.19-.55,45.2,4.88a6.69,6.69,0,0,1,3.18,2.52c41.19,59.14,75.8,10.54,82.66-.4a6.66,6.66,0,0,1,3.87-2.87,69.57,69.57,0,0,1,34.4-.55,77.08,77.08,0,0,1,30.12,16.24,6.54,6.54,0,0,1,2.15,4.45C272.47-258,284.87-177.08,164.86-175.11Z"/>
    </clipPath>
    <clipPath id="clip-path-2">
      <path class="cls-2" d="M103.39-285.07c-29.24,20.68-50.67,14-58,10.59A3,3,0,0,1,44-278.41a3,3,0,0,1,.5-.75C48.87-284,60.56-291.57,73-293.3c11.2-1.56,22.94,1,29.6,3a3,3,0,0,1,2,3.7A3,3,0,0,1,103.39-285.07Zm105.06,1.53c28.2,21.5,46.58,16.05,53,12.88a2.91,2.91,0,0,0,1.35-3.89,2.55,2.55,0,0,0-.33-.52c-4-5-15.73-13.11-28.33-15.22a56.19,56.19,0,0,0-24.73,1.53,3,3,0,0,0-2,3.71A3,3,0,0,0,208.45-283.54Z"/>
    </clipPath>
  </defs>
  <g>
    <g>
      <g class="cls-3">
        <g>
          <line class="cls-4" x1="4.27" y1="-699.3" x2="4.27" y2="255.34"/>
          <line class="cls-4" x1="45.77" y1="-699.3" x2="45.77" y2="255.34"/>
          <line class="cls-4" x1="65.98" y1="-699.3" x2="65.98" y2="255.34"/>
          <line class="cls-4" x1="24.48" y1="-699.3" x2="24.48" y2="255.34"/>
          <line class="cls-4" x1="87.27" y1="-699.3" x2="87.27" y2="255.34"/>
          <line class="cls-4" x1="107.47" y1="-699.3" x2="107.47" y2="255.34"/>
          <line class="cls-4" x1="148.97" y1="-699.3" x2="148.97" y2="255.34"/>
          <line class="cls-4" x1="127.68" y1="-699.3" x2="127.68" y2="255.34"/>
        </g>
      </g>
      <path id="Path_90-2" data-name="Path 90" class="cls-1" d="M164.86-175.11C30.33-172.9,32.47-262.15,33-279.17a6.59,6.59,0,0,1,1.5-4c3.43-4.19,13.38-14,35-19.71,10.58-2.8,30.19-.55,45.2,4.88a6.69,6.69,0,0,1,3.18,2.52c41.19,59.14,75.8,10.54,82.66-.4a6.66,6.66,0,0,1,3.87-2.87,69.57,69.57,0,0,1,34.4-.55,77.08,77.08,0,0,1,30.12,16.24,6.54,6.54,0,0,1,2.15,4.45C272.47-258,284.87-177.08,164.86-175.11Z"/>
    </g>
    <g>
      <g class="cls-5">
        <g>
          <line class="cls-6" x1="-223.54" y1="-440.11" x2="472.84" y2="256.28"/>
          <line class="cls-6" x1="-259.7" y1="-444.85" x2="436.69" y2="251.53"/>
          <line class="cls-6" x1="-254.82" y1="-408.83" x2="441.57" y2="287.56"/>
          <line class="cls-6" x1="-290.98" y1="-413.57" x2="405.41" y2="282.81"/>
          <line class="cls-6" x1="-286.11" y1="-377.54" x2="410.28" y2="318.84"/>
          <line class="cls-6" x1="-322.26" y1="-382.28" x2="374.12" y2="314.1"/>
          <line class="cls-6" x1="-317.38" y1="-346.26" x2="379" y2="350.12"/>
          <line class="cls-6" x1="-394.79" y1="-391.8" x2="301.6" y2="304.59"/>
          <line class="cls-6" x1="-389.91" y1="-355.78" x2="306.47" y2="340.61"/>
          <line class="cls-6" x1="-426.07" y1="-360.52" x2="270.32" y2="335.86"/>
          <line class="cls-6" x1="-67.09" y1="-596.55" x2="629.29" y2="99.83"/>
          <line class="cls-6" x1="-103.25" y1="-601.3" x2="593.13" y2="95.09"/>
          <line class="cls-6" x1="-98.37" y1="-565.27" x2="598.01" y2="131.11"/>
          <line class="cls-6" x1="-134.53" y1="-570.02" x2="561.85" y2="126.37"/>
          <line class="cls-6" x1="-129.66" y1="-533.99" x2="566.72" y2="162.4"/>
          <line class="cls-6" x1="-165.82" y1="-538.73" x2="530.57" y2="157.65"/>
          <line class="cls-6" x1="-160.94" y1="-502.71" x2="535.44" y2="193.68"/>
          <line class="cls-6" x1="-238.34" y1="-548.24" x2="458.04" y2="148.14"/>
          <line class="cls-6" x1="-233.47" y1="-512.22" x2="462.92" y2="184.16"/>
          <line class="cls-6" x1="-269.62" y1="-516.96" x2="426.76" y2="179.42"/>
          <line class="cls-6" x1="27.18" y1="-690.83" x2="723.56" y2="5.56"/>
          <line class="cls-6" x1="-8.98" y1="-695.57" x2="687.41" y2="0.81"/>
          <line class="cls-6" x1="-4.1" y1="-659.55" x2="692.28" y2="36.84"/>
          <line class="cls-6" x1="-76.63" y1="-669.06" x2="619.76" y2="27.32"/>
          <line class="cls-6" x1="-112.78" y1="-673.8" x2="583.6" y2="22.58"/>
        </g>
      </g>
      <path class="cls-2" d="M103.39-285.07c-29.24,20.68-50.67,14-58,10.59A3,3,0,0,1,44-278.41a3,3,0,0,1,.5-.75C48.87-284,60.56-291.57,73-293.3c11.2-1.56,22.94,1,29.6,3a3,3,0,0,1,2,3.7A3,3,0,0,1,103.39-285.07Zm105.06,1.53c28.2,21.5,46.58,16.05,53,12.88a2.91,2.91,0,0,0,1.35-3.89,2.55,2.55,0,0,0-.33-.52c-4-5-15.73-13.11-28.33-15.22a56.19,56.19,0,0,0-24.73,1.53,3,3,0,0,0-2,3.71A3,3,0,0,0,208.45-283.54Z"/>
    </g>
  </g>
  <polygon class="cls-7" points="142.7 84.7 142.7 163.83 74.17 124.26 5.64 84.7 74.17 45.13 142.7 5.57 142.7 84.7"/>
</svg>
