<svg id="Laag_1" data-name="Laag 1" xmlns="http://www.w3.org/2000/svg" xmlns:xlink="http://www.w3.org/1999/xlink" viewBox="0 0 324.24 343.67">
  <defs>
    <style>
      .cls-1, .cls-2, .cls-21, .cls-24, .cls-3, .cls-4, .cls-5, .cls-7, .cls-9 {
        fill: none;
      }

      .cls-1, .cls-2, .cls-3, .cls-5, .cls-7, .cls-9 {
        stroke: #503c21;
      }

      .cls-1, .cls-2, .cls-21 {
        stroke-miterlimit: 10;
      }

      .cls-1, .cls-10, .cls-3 {
        stroke-width: 9px;
      }

      .cls-2, .cls-9 {
        stroke-width: 6px;
      }

      .cls-10, .cls-13, .cls-3, .cls-7, .cls-9 {
        stroke-linecap: round;
        stroke-linejoin: round;
      }

      .cls-24, .cls-5 {
        stroke-miterlimit: 10;
      }

      .cls-5 {
        stroke-width: 8px;
      }

      .cls-6 {
        clip-path: url(#clip-path);
      }

      .cls-7 {
        stroke-width: 5px;
      }

      .cls-8 {
        clip-path: url(#clip-path-2);
      }

      .cls-10 {
        fill: #b4934b;
        stroke: #b4934b;
      }

      .cls-11 {
        fill: #f2dda6;
      }

      .cls-12 {
        fill: #95743f;
      }

      .cls-13, .cls-16 {
        fill: #a57d39;
      }

      .cls-13 {
        stroke: #a57d39;
        stroke-width: 11px;
      }

      .cls-14 {
        fill: #f5d697;
      }

      .cls-15 {
        opacity: 0.5;
      }

      .cls-17 {
        clip-path: url(#clip-path-3);
      }

      .cls-18 {
        clip-path: url(#clip-path-4);
      }

      .cls-19 {
        clip-path: url(#clip-path-5);
      }

      .cls-20 {
        clip-path: url(#clip-path-6);
      }

      .cls-21 {
        stroke: #9b7334;
        stroke-linecap: square;
        stroke-width: 108px;
      }

      .cls-22 {
        clip-path: url(#clip-path-7);
      }

      .cls-23 {
        clip-path: url(#clip-path-8);
      }

      .cls-24 {
        stroke: #67bd2a;
        stroke-width: 108px;
      }

      .cls-25 {
        clip-path: url(#clip-path-9);
      }
    </style>
    <clipPath id="clip-path">
      <path id="Path_90" data-name="Path 90" class="cls-1" d="M-244.78,223.15c-134.52,2.21-132.39-87-131.86-104.06a6.59,6.59,0,0,1,1.5-4c3.42-4.18,13.38-14,35-19.71,10.59-2.8,30.19-.55,45.2,4.89a6.63,6.63,0,0,1,3.19,2.51c41.18,59.14,75.79,10.54,82.66-.4a6.61,6.61,0,0,1,3.86-2.87A69.61,69.61,0,0,1-170.84,99a77.15,77.15,0,0,1,30.12,16.24,6.49,6.49,0,0,1,2.14,4.45C-137.16,140.24-124.77,221.18-244.78,223.15Z"/>
    </clipPath>
    <clipPath id="clip-path-2">
      <path class="cls-2" d="M-306.25,113.19c-29.24,20.68-50.66,14-58,10.6a3,3,0,0,1-1.42-3.94,2.66,2.66,0,0,1,.5-.75c4.38-4.89,16.07-12.41,28.46-14.14,11.21-1.56,22.94,1,29.6,3a3,3,0,0,1,2,3.7A3,3,0,0,1-306.25,113.19Zm105.07,1.53c28.19,21.5,46.57,16.05,53,12.89a2.91,2.91,0,0,0,1.35-3.9,2.51,2.51,0,0,0-.32-.52c-4-5-15.73-13.11-28.33-15.21a56.09,56.09,0,0,0-24.74,1.53,3,3,0,0,0-2,3.7A3,3,0,0,0-201.18,114.72Z"/>
    </clipPath>
    <clipPath id="clip-path-3">
      <path id="Path_99" data-name="Path 99" class="cls-3" d="M166.63,192.2h-3.95c-9.5,0-17.2,6.52-17.2,14.57v14.72c0,8-7.58,12.08-17.19,14.57L69.84,246.61a8.48,8.48,0,0,1-4.52-.31c-.25-.1-.5-.21-.73-.33L43.77,235.46,61.51,225.2a1.72,1.72,0,0,0,1-2.26,1.69,1.69,0,0,0-1-1l-20.3-10.26L59,201.45a1.74,1.74,0,0,0,1-2.27,1.72,1.72,0,0,0-1-1L38.66,188l15.18-10.26a1.74,1.74,0,0,0,1-2.27,1.72,1.72,0,0,0-1-.95L33.55,164.24,53.84,154a1.74,1.74,0,0,0,1-2.27,1.72,1.72,0,0,0-1-.95L38.66,140.5,59,130.24a1.75,1.75,0,0,0,1-2.27,1.77,1.77,0,0,0-1-1L41.22,116.75,61.51,106.5a1.74,1.74,0,0,0,0-3.23L43.77,93l21.71-11c.24-.12.48-.23.73-.33a8.55,8.55,0,0,1,4.54-.31L128.29,92c9.61,2.49,17.19,6.52,17.19,14.57v14.71c0,8.05,7.7,14.57,17.2,14.57h3.95c9.49,0,17.19-6.52,17.19-14.57V106.54c0-8.05,8.87-12.75,17.19-14.57L259.46,81.4a8.58,8.58,0,0,1,4.52.32c.25.1.5.21.74.33L283,91.26a1.49,1.49,0,0,1,.82,2,1.43,1.43,0,0,1-.72.77l-15.26,8.83a1.74,1.74,0,0,0-1,2.27,1.8,1.8,0,0,0,1,1l17.72,9a1.5,1.5,0,0,1,.83,2,1.52,1.52,0,0,1-.73.79l-15.26,8.83a1.75,1.75,0,0,0-1,2.27,1.77,1.77,0,0,0,1,1l17.71,8.95a1.51,1.51,0,0,1,.83,2,1.54,1.54,0,0,1-.73.78l-15.25,8.82a1.73,1.73,0,0,0-1,2.27,1.71,1.71,0,0,0,1,1l17.53,8.86a1.51,1.51,0,0,1,0,2.79l-17.53,8.86a1.73,1.73,0,0,0-1,2.26,1.71,1.71,0,0,0,1,1l15.26,8.83a1.5,1.5,0,0,1,.68,2,1.45,1.45,0,0,1-.78.72l-17.72,9a1.74,1.74,0,0,0-1,2.27,1.8,1.8,0,0,0,1,1l15.27,8.82a1.5,1.5,0,0,1,.68,2,1.45,1.45,0,0,1-.78.72l-17.73,9a1.74,1.74,0,0,0-1,2.27,1.8,1.8,0,0,0,1,1l15.26,8.82a1.5,1.5,0,0,1,.68,2,1.45,1.45,0,0,1-.78.72L263.82,246c-.24.12-.48.23-.73.33a8.56,8.56,0,0,1-4.54.31L201,236.06c-9.32-2.33-17.19-6.53-17.19-14.57V206.77C183.82,198.72,176.12,192.2,166.63,192.2Z"/>
    </clipPath>
    <clipPath id="clip-path-4">
      <path id="Path_108" data-name="Path 108" class="cls-3" d="M707.64,184.25h-208l-5.29-4.52-5.58-4.79L477.06,165l-5.58-4.78-11.63-10-5.63-4.8-11.61-9.93-5.63-4.8L432.62,127H640.69l4.37,3.74,5.62,4.8,11.61,9.93,5.61,4.8,11.63,10,5.6,4.78,11.64,9.95,5.58,4.79Z"/>
    </clipPath>
    <clipPath id="clip-path-5">
      <path class="cls-4" d="M-287.41,618.42a13.66,13.66,0,0,0,5.44,8.71l18.88,13.72a2.5,2.5,0,0,0,3.51-.56,2.55,2.55,0,0,0,.45-1.91l-3.45-19.85a13.63,13.63,0,0,0-5.44-8.71l-23.9-17.37Zm42.85-15.32a13.7,13.7,0,0,0-7.15,7.38l-7.54,18.68a2.51,2.51,0,0,0,1.38,3.28,2.54,2.54,0,0,0,2,0l21.34-9.45a13.68,13.68,0,0,0,7.14-7.38l9.87-24.43Zm2-28.77a13.73,13.73,0,0,0-7.15,7.38l-7.54,18.69a2.51,2.51,0,0,0,1.39,3.27,2.52,2.52,0,0,0,2,0l21.34-9.44a13.68,13.68,0,0,0,7.14-7.38l9.87-24.44Zm-44.87,11.41a13.7,13.7,0,0,0,5.26,8.82l18.61,14.09a2.51,2.51,0,0,0,3.52-.49,2.53,2.53,0,0,0,.48-1.9l-3.06-19.92a13.7,13.7,0,0,0-5.26-8.82l-23.55-17.83Zm48.35-40.5a13.65,13.65,0,0,0-7.14,7.38l-7.55,18.68a2.51,2.51,0,0,0,1.39,3.27,2.47,2.47,0,0,0,2,0l21.35-9.45a13.68,13.68,0,0,0,7.14-7.38l9.87-24.43Zm-44.84,11.36a13.66,13.66,0,0,0,5.43,8.71L-259.6,579a2.51,2.51,0,0,0,3.51-.55,2.55,2.55,0,0,0,.45-1.91l-3.47-19.85a13.7,13.7,0,0,0-5.43-8.72l-23.91-17.35Zm48.68-40.13a13.68,13.68,0,0,0-7.14,7.38l-7.55,18.69a2.51,2.51,0,0,0,1.39,3.27,2.52,2.52,0,0,0,2,0l21.34-9.44A13.68,13.68,0,0,0-218.1,529l9.87-24.44Zm-43.31,10.69a13.65,13.65,0,0,0,4.65,9.15l17.62,15.32a2.51,2.51,0,0,0,3.54-.26,2.47,2.47,0,0,0,.61-1.85l-1.71-20.08a13.68,13.68,0,0,0-4.65-9.16l-22.3-19.38ZM-261.08,494a13.68,13.68,0,0,0,.76,10.24L-250,525.17a2.51,2.51,0,0,0,3.36,1.14,2.5,2.5,0,0,0,1.28-1.48l6.18-19.18a13.67,13.67,0,0,0-.75-10.24L-253,468.92Z"/>
    </clipPath>
    <clipPath id="clip-path-6">
      <path class="cls-4" d="M122.81,619.6a13.7,13.7,0,0,0,5.43,8.72L147.13,642a2.51,2.51,0,0,0,4-2.47l-3.44-19.85A13.68,13.68,0,0,0,142.2,611l-23.9-17.36Zm42.84-15.31a13.67,13.67,0,0,0-7.14,7.37L151,630.35a2.51,2.51,0,0,0,1.38,3.28,2.56,2.56,0,0,0,2,0l21.35-9.45a13.68,13.68,0,0,0,7.14-7.38l9.87-24.44Zm2-28.77a13.68,13.68,0,0,0-7.14,7.38L153,601.58a2.51,2.51,0,0,0,1.38,3.27,2.47,2.47,0,0,0,2,0l21.35-9.45A13.63,13.63,0,0,0,184.8,588l9.87-24.44Zm-44.86,11.4a13.61,13.61,0,0,0,5.26,8.82l18.61,14.1a2.51,2.51,0,0,0,4-2.39l-3.06-19.92a13.7,13.7,0,0,0-5.26-8.82l-23.55-17.83Zm48.35-40.49A13.63,13.63,0,0,0,164,553.8l-7.55,18.69a2.52,2.52,0,0,0,3.35,3.24l21.34-9.45a13.65,13.65,0,0,0,7.14-7.38l9.88-24.43ZM126.3,557.79a13.68,13.68,0,0,0,5.43,8.71l18.89,13.71a2.51,2.51,0,0,0,3.51-.55,2.55,2.55,0,0,0,.45-1.91l-3.47-19.86a13.68,13.68,0,0,0-5.43-8.71l-23.91-17.35ZM175,517.66a13.7,13.7,0,0,0-7.15,7.38l-7.54,18.68a2.51,2.51,0,0,0,1.39,3.27,2.47,2.47,0,0,0,2,0L185,537.51a13.63,13.63,0,0,0,7.14-7.37L202,505.7Zm-43.31,10.68a13.68,13.68,0,0,0,4.65,9.16l17.61,15.31a2.52,2.52,0,0,0,3.55-.25,2.48,2.48,0,0,0,.61-1.86l-1.71-20.08a13.65,13.65,0,0,0-4.65-9.15l-22.3-19.39Zm17.47-33.15a13.68,13.68,0,0,0,.75,10.24l10.34,20.93a2.51,2.51,0,0,0,4.64-.34l6.18-19.18a13.67,13.67,0,0,0-.75-10.24l-13.07-26.5Z"/>
    </clipPath>
    <clipPath id="clip-path-7">
      <path class="cls-4" d="M123.46,618.42a13.68,13.68,0,0,0,5.43,8.71l18.89,13.72a2.51,2.51,0,0,0,3.95-2.47l-3.45-19.85a13.62,13.62,0,0,0-5.43-8.71L119,592.45ZM166.3,603.1a13.65,13.65,0,0,0-7.14,7.38l-7.55,18.68a2.52,2.52,0,0,0,3.35,3.25L176.31,623a13.68,13.68,0,0,0,7.14-7.38l9.87-24.43Zm2-28.77a13.68,13.68,0,0,0-7.14,7.38l-7.55,18.69a2.51,2.51,0,0,0,3.35,3.23l21.35-9.44a13.68,13.68,0,0,0,7.14-7.38l9.87-24.44Zm-44.86,11.41a13.66,13.66,0,0,0,5.26,8.82l18.61,14.09a2.51,2.51,0,0,0,4-2.39l-3.06-19.92a13.74,13.74,0,0,0-5.26-8.82l-23.55-17.83Zm48.35-40.5a13.65,13.65,0,0,0-7.14,7.38L157.1,571.3a2.51,2.51,0,0,0,1.39,3.27,2.47,2.47,0,0,0,2,0l21.34-9.45a13.65,13.65,0,0,0,7.14-7.38l9.87-24.43ZM127,556.6a13.66,13.66,0,0,0,5.43,8.71L151.27,579a2.51,2.51,0,0,0,3.95-2.46l-3.46-19.85a13.68,13.68,0,0,0-5.44-8.72l-23.9-17.35Zm48.67-40.13a13.72,13.72,0,0,0-7.14,7.38l-7.54,18.69a2.5,2.5,0,0,0,3.34,3.23l21.35-9.44a13.68,13.68,0,0,0,7.14-7.38l9.87-24.44Zm-43.3,10.69a13.65,13.65,0,0,0,4.65,9.15l17.61,15.32a2.52,2.52,0,0,0,3.55-.26,2.55,2.55,0,0,0,.61-1.85L157,529.44a13.72,13.72,0,0,0-4.65-9.16l-22.3-19.38ZM149.79,494a13.68,13.68,0,0,0,.75,10.24l10.33,20.93a2.52,2.52,0,0,0,4.65-.34l6.18-19.18a13.67,13.67,0,0,0-.75-10.24l-13.08-26.49Z"/>
    </clipPath>
    <clipPath id="clip-path-8">
      <path class="cls-4" d="M465.74,466c-16.77,16.77-16.87,47.58,9.43,73.88,33.69,33.69,92.9,51.8,104.58,40.12,12-12-4.16-68.62-40.13-104.58-27.72-27.72-57.1-26.2-73.88-9.42"/>
    </clipPath>
    <clipPath id="clip-path-9">
      <path id="Path_200" data-name="Path 200" class="cls-5" d="M579.75,580c-11.68,11.68-70.89-6.44-104.58-40.13-26.3-26.3-26.2-57.11-9.42-73.88s46.16-18.3,73.88,9.42C575.59,511.36,591.71,568,579.75,580Z"/>
    </clipPath>
  </defs>
  <g>
    <g>
      <g class="cls-6">
        <g>
          <line class="cls-7" x1="7.44" y1="-301.04" x2="7.44" y2="653.6"/>
          <line class="cls-7" x1="27.64" y1="-301.04" x2="27.64" y2="653.6"/>
          <line class="cls-7" x1="69.14" y1="-301.04" x2="69.14" y2="653.6"/>
          <line class="cls-7" x1="89.35" y1="-301.04" x2="89.35" y2="653.6"/>
          <line class="cls-7" x1="47.85" y1="-301.04" x2="47.85" y2="653.6"/>
          <line class="cls-7" x1="130.84" y1="-301.04" x2="130.84" y2="653.6"/>
          <line class="cls-7" x1="151.05" y1="-301.04" x2="151.05" y2="653.6"/>
          <line class="cls-7" x1="109.55" y1="-301.04" x2="109.55" y2="653.6"/>
          <line class="cls-7" x1="172.34" y1="-301.04" x2="172.34" y2="653.6"/>
          <line class="cls-7" x1="192.55" y1="-301.04" x2="192.55" y2="653.6"/>
          <line class="cls-7" x1="234.04" y1="-301.04" x2="234.04" y2="653.6"/>
          <line class="cls-7" x1="254.25" y1="-301.04" x2="254.25" y2="653.6"/>
          <line class="cls-7" x1="212.75" y1="-301.04" x2="212.75" y2="653.6"/>
          <line class="cls-7" x1="275.54" y1="-301.04" x2="275.54" y2="653.6"/>
          <line class="cls-7" x1="295.74" y1="-301.04" x2="295.74" y2="653.6"/>
          <line class="cls-7" x1="315.95" y1="-301.04" x2="315.95" y2="653.6"/>
        </g>
      </g>
      <path id="Path_90-2" data-name="Path 90" class="cls-1" d="M-244.78,223.15c-134.52,2.21-132.39-87-131.86-104.06a6.59,6.59,0,0,1,1.5-4c3.42-4.18,13.38-14,35-19.71,10.59-2.8,30.19-.55,45.2,4.89a6.63,6.63,0,0,1,3.19,2.51c41.18,59.14,75.79,10.54,82.66-.4a6.61,6.61,0,0,1,3.86-2.87A69.61,69.61,0,0,1-170.84,99a77.15,77.15,0,0,1,30.12,16.24,6.49,6.49,0,0,1,2.14,4.45C-137.16,140.24-124.77,221.18-244.78,223.15Z"/>
    </g>
    <g>
      <g class="cls-8">
        <g>
          <line class="cls-9" x1="-633.17" y1="-41.85" x2="63.21" y2="654.54"/>
          <line class="cls-9" x1="-669.33" y1="-46.59" x2="27.05" y2="649.79"/>
          <line class="cls-9" x1="-664.45" y1="-10.57" x2="31.93" y2="685.82"/>
          <line class="cls-9" x1="-695.74" y1="20.72" x2="0.64" y2="717.1"/>
          <line class="cls-9" x1="-476.73" y1="-198.29" x2="219.65" y2="498.09"/>
          <line class="cls-9" x1="-512.89" y1="-203.03" x2="183.5" y2="493.35"/>
          <line class="cls-9" x1="-508.01" y1="-167.01" x2="188.38" y2="529.37"/>
          <line class="cls-9" x1="-544.17" y1="-171.76" x2="152.22" y2="524.63"/>
          <line class="cls-9" x1="-539.3" y1="-135.73" x2="157.09" y2="560.66"/>
          <line class="cls-9" x1="-575.45" y1="-140.47" x2="120.93" y2="555.92"/>
          <line class="cls-9" x1="-570.57" y1="-104.45" x2="125.81" y2="591.94"/>
          <line class="cls-9" x1="-647.98" y1="-149.98" x2="48.41" y2="546.4"/>
          <line class="cls-9" x1="-643.1" y1="-113.96" x2="53.28" y2="582.42"/>
          <line class="cls-9" x1="-679.26" y1="-118.7" x2="17.13" y2="577.68"/>
          <line class="cls-9" x1="-319.89" y1="-355.13" x2="376.49" y2="341.25"/>
          <line class="cls-9" x1="-356.05" y1="-359.87" x2="340.34" y2="336.51"/>
          <line class="cls-9" x1="-351.17" y1="-323.85" x2="345.22" y2="372.53"/>
          <line class="cls-9" x1="-387.33" y1="-328.59" x2="309.06" y2="367.79"/>
          <line class="cls-9" x1="-382.46" y1="-292.56" x2="313.93" y2="403.82"/>
          <line class="cls-9" x1="-418.61" y1="-297.31" x2="277.77" y2="399.08"/>
          <line class="cls-9" x1="-413.73" y1="-261.29" x2="282.65" y2="435.1"/>
          <line class="cls-9" x1="-491.14" y1="-306.82" x2="205.25" y2="389.56"/>
          <line class="cls-9" x1="-486.26" y1="-270.8" x2="210.12" y2="425.58"/>
          <line class="cls-9" x1="-522.42" y1="-275.54" x2="173.97" y2="420.84"/>
          <line class="cls-9" x1="-163.44" y1="-511.58" x2="532.94" y2="184.81"/>
          <line class="cls-9" x1="-127.91" y1="-506.91" x2="568.47" y2="189.47"/>
          <line class="cls-9" x1="-199.6" y1="-516.32" x2="496.78" y2="180.07"/>
          <line class="cls-9" x1="-194.72" y1="-480.3" x2="501.66" y2="216.09"/>
          <line class="cls-9" x1="-230.88" y1="-485.04" x2="465.5" y2="211.34"/>
          <line class="cls-9" x1="-226.01" y1="-449.01" x2="470.37" y2="247.37"/>
          <line class="cls-9" x1="-262.17" y1="-453.75" x2="434.22" y2="242.63"/>
          <line class="cls-9" x1="-257.29" y1="-417.73" x2="439.09" y2="278.65"/>
          <line class="cls-9" x1="-334.69" y1="-463.27" x2="361.69" y2="233.12"/>
          <line class="cls-9" x1="-329.82" y1="-427.24" x2="366.57" y2="269.14"/>
          <line class="cls-9" x1="-365.97" y1="-431.99" x2="330.41" y2="264.4"/>
        </g>
      </g>
      <path class="cls-2" d="M-306.25,113.19c-29.24,20.68-50.66,14-58,10.6a3,3,0,0,1-1.42-3.94,2.66,2.66,0,0,1,.5-.75c4.38-4.89,16.07-12.41,28.46-14.14,11.21-1.56,22.94,1,29.6,3a3,3,0,0,1,2,3.7A3,3,0,0,1-306.25,113.19Zm105.07,1.53c28.19,21.5,46.57,16.05,53,12.89a2.91,2.91,0,0,0,1.35-3.9,2.51,2.51,0,0,0-.32-.52c-4-5-15.73-13.11-28.33-15.21a56.09,56.09,0,0,0-24.74,1.53,3,3,0,0,0-2,3.7A3,3,0,0,0-201.18,114.72Z"/>
    </g>
  </g>
  <g>
    <rect class="cls-10" x="5.75" y="30.41" width="313.77" height="309.7" rx="44.82"/>
    <g id="Rectangle_41" data-name="Rectangle 41">
      <g>
        <rect class="cls-11" x="5.5" y="5.5" width="313.24" height="309.03" rx="40.82"/>
        <path class="cls-12" d="M277.92,11a35.35,35.35,0,0,1,35.32,35.32V273.71A35.35,35.35,0,0,1,277.92,309H46.32A35.35,35.35,0,0,1,11,273.71V46.32A35.35,35.35,0,0,1,46.32,11h231.6m0-11H46.32A46.32,46.32,0,0,0,0,46.32V273.71A46.32,46.32,0,0,0,46.32,320h231.6a46.32,46.32,0,0,0,46.32-46.32V46.32A46.32,46.32,0,0,0,277.92,0Z"/>
      </g>
    </g>
    <g>
      <path id="Path_95" data-name="Path 95" class="cls-13" d="M174.06,204.09h-3.95c-9.49,0-17.19,6.52-17.19,14.56v14.72c0,8-7.58,12.08-17.2,14.56L77.28,258.5a8.38,8.38,0,0,1-4.52-.32,6.11,6.11,0,0,1-.74-.32L51.21,247.34l17.73-10.25a1.74,1.74,0,0,0,0-3.23L48.65,223.6l17.74-10.26a1.73,1.73,0,0,0,0-3.22L46.1,199.86l15.17-10.25a1.73,1.73,0,0,0,1-2.27,1.71,1.71,0,0,0-1-1L41,176.13l20.3-10.26a1.74,1.74,0,0,0,0-3.23L46.09,152.38l20.3-10.25a1.74,1.74,0,0,0,0-3.23L48.65,128.63l20.29-10.25a1.74,1.74,0,0,0,0-3.23L51.2,104.9l21.71-11a6.73,6.73,0,0,1,.73-.32,8.49,8.49,0,0,1,4.55-.32l57.54,10.57c9.61,2.48,17.19,6.52,17.19,14.56v14.72c0,8,7.7,14.56,17.19,14.56h3.95c9.5,0,17.2-6.52,17.2-14.56V118.42c0-8,8.87-12.75,17.19-14.56L266.9,93.29a8.38,8.38,0,0,1,4.52.32,6,6,0,0,1,.73.32l18.24,9.21a1.51,1.51,0,0,1,.82,2,1.52,1.52,0,0,1-.72.78l-15.26,8.82a1.74,1.74,0,0,0,0,3.23L293,126.88a1.51,1.51,0,0,1,.1,2.74l-15.27,8.83a1.74,1.74,0,0,0-1,2.27,1.77,1.77,0,0,0,1,1l17.71,8.95a1.51,1.51,0,0,1,.83,2,1.48,1.48,0,0,1-.73.77l-15.26,8.83a1.75,1.75,0,0,0-1,2.27,1.8,1.8,0,0,0,1,1l17.54,8.86a1.5,1.5,0,0,1,.82,2,1.52,1.52,0,0,1-.82.83l-17.54,8.87a1.75,1.75,0,0,0-1,2.27,1.8,1.8,0,0,0,1,1L295.59,198a1.49,1.49,0,0,1,.68,2,1.47,1.47,0,0,1-.78.73l-17.71,8.93a1.75,1.75,0,0,0-1,2.27,1.71,1.71,0,0,0,1,1L293,221.73a1.5,1.5,0,0,1,.68,2,1.48,1.48,0,0,1-.78.72l-17.72,9a1.74,1.74,0,0,0,0,3.22l15.26,8.83a1.5,1.5,0,0,1,.68,2,1.45,1.45,0,0,1-.78.72l-19.13,9.67a6.73,6.73,0,0,1-.73.32,8.46,8.46,0,0,1-4.54.32L208.44,248c-9.32-2.33-17.19-6.53-17.19-14.57V218.65c0-8-7.7-14.56-17.2-14.56"/>
      <path id="Path_96" data-name="Path 96" class="cls-14" d="M166.63,192.2h-3.95c-9.5,0-17.2,6.52-17.2,14.57v14.72c0,8-7.58,12.08-17.19,14.57L69.84,246.61a8.48,8.48,0,0,1-4.52-.31c-.25-.1-.5-.21-.73-.33L43.77,235.46,61.51,225.2a1.72,1.72,0,0,0,1-2.26,1.69,1.69,0,0,0-1-1l-20.3-10.26L59,201.45a1.74,1.74,0,0,0,1-2.27,1.72,1.72,0,0,0-1-1L38.66,188l15.18-10.26a1.74,1.74,0,0,0,1-2.27,1.72,1.72,0,0,0-1-.95L33.55,164.24,53.84,154a1.74,1.74,0,0,0,1-2.27,1.72,1.72,0,0,0-1-.95L38.66,140.5,59,130.24a1.75,1.75,0,0,0,1-2.27,1.77,1.77,0,0,0-1-1L41.22,116.75,61.51,106.5a1.74,1.74,0,0,0,0-3.23L43.77,93l21.71-11c.24-.12.48-.23.73-.33a8.55,8.55,0,0,1,4.54-.31L128.29,92c9.61,2.49,17.19,6.52,17.19,14.57v14.71c0,8.05,7.7,14.57,17.2,14.57h3.95c9.49,0,17.19-6.52,17.19-14.57V106.54c0-8.05,8.87-12.75,17.19-14.57L259.46,81.4a8.58,8.58,0,0,1,4.52.32c.25.1.5.21.74.33L283,91.26a1.49,1.49,0,0,1,.82,2,1.43,1.43,0,0,1-.72.77l-15.26,8.83a1.74,1.74,0,0,0-1,2.27,1.8,1.8,0,0,0,1,1l17.72,9a1.5,1.5,0,0,1,.83,2,1.52,1.52,0,0,1-.73.79l-15.26,8.83a1.75,1.75,0,0,0-1,2.27,1.77,1.77,0,0,0,1,1l17.71,8.95a1.51,1.51,0,0,1,.83,2,1.54,1.54,0,0,1-.73.78l-15.25,8.82a1.73,1.73,0,0,0-1,2.27,1.71,1.71,0,0,0,1,1l17.53,8.86a1.51,1.51,0,0,1,0,2.79l-17.53,8.86a1.73,1.73,0,0,0-1,2.26,1.71,1.71,0,0,0,1,1l15.26,8.83a1.5,1.5,0,0,1,.68,2,1.45,1.45,0,0,1-.78.72l-17.72,9a1.74,1.74,0,0,0-1,2.27,1.8,1.8,0,0,0,1,1l15.27,8.82a1.5,1.5,0,0,1,.68,2,1.45,1.45,0,0,1-.78.72l-17.73,9a1.74,1.74,0,0,0-1,2.27,1.8,1.8,0,0,0,1,1l15.26,8.82a1.5,1.5,0,0,1,.68,2,1.45,1.45,0,0,1-.78.72L263.82,246c-.24.12-.48.23-.73.33a8.56,8.56,0,0,1-4.54.31L201,236.06c-9.32-2.33-17.19-6.53-17.19-14.57V206.77c0-8.05-7.7-14.57-17.2-14.57"/>
      <g class="cls-15">
        <path id="Path_97" data-name="Path 97" class="cls-16" d="M248.47,207.07l-7.71,16.5a7.61,7.61,0,0,1-10.1,3.67,8.69,8.69,0,0,1-1.07-.61l-45.73-37.48a7.52,7.52,0,0,0-2.3-1.06,68.64,68.64,0,0,0-33.22,0,7.52,7.52,0,0,0-2.3,1.06l-45.73,37.48a7.6,7.6,0,0,1-10.56-2,6.89,6.89,0,0,1-.6-1.06l-7.71-16.5c-2.06-4.4.23-8.56,5.21-10.63l10.48-3.92L165,182.11l71.45,10.53,6.85,3.8c4.74,2.07,7.27,6.23,5.21,10.63"/>
      </g>
      <g class="cls-15">
        <path id="Path_98" data-name="Path 98" class="cls-16" d="M81.41,122.32l7.71-16.5a7.59,7.59,0,0,1,10.09-3.67,8.69,8.69,0,0,1,1.07.61L146,140.24a7.52,7.52,0,0,0,2.3,1.06,68.64,68.64,0,0,0,33.22,0,7.52,7.52,0,0,0,2.3-1.06l45.73-37.48a7.61,7.61,0,0,1,10.56,2,8.69,8.69,0,0,1,.61,1.07l7.71,16.5c2.05,4.4-.24,8.56-5.22,10.63l-10.47,3.91-67.83,10.42L93.48,136.75,86.63,133c-4.75-2.07-7.27-6.23-5.22-10.63"/>
      </g>
      <g>
        <g class="cls-17">
          <g>
            <line class="cls-7" x1="10.65" y1="-498.6" x2="10.65" y2="456.03"/>
            <line class="cls-7" x1="30.86" y1="-498.6" x2="30.86" y2="456.03"/>
            <line class="cls-7" x1="72.35" y1="-498.6" x2="72.35" y2="456.03"/>
            <line class="cls-7" x1="92.56" y1="-498.6" x2="92.56" y2="456.03"/>
            <line class="cls-7" x1="51.07" y1="-498.6" x2="51.07" y2="456.03"/>
            <line class="cls-7" x1="134.06" y1="-498.6" x2="134.06" y2="456.03"/>
            <line class="cls-7" x1="154.27" y1="-498.6" x2="154.27" y2="456.03"/>
            <line class="cls-7" x1="112.77" y1="-498.6" x2="112.77" y2="456.03"/>
            <line class="cls-7" x1="175.55" y1="-498.6" x2="175.55" y2="456.03"/>
            <line class="cls-7" x1="195.76" y1="-498.6" x2="195.76" y2="456.03"/>
            <line class="cls-7" x1="237.26" y1="-498.6" x2="237.26" y2="456.03"/>
            <line class="cls-7" x1="257.46" y1="-498.6" x2="257.46" y2="456.03"/>
            <line class="cls-7" x1="215.97" y1="-498.6" x2="215.97" y2="456.03"/>
            <line class="cls-7" x1="298.96" y1="-498.6" x2="298.96" y2="456.03"/>
            <line class="cls-7" x1="319.17" y1="-498.6" x2="319.17" y2="456.03"/>
            <line class="cls-7" x1="277.67" y1="-498.6" x2="277.67" y2="456.03"/>
          </g>
        </g>
        <path id="Path_99-2" data-name="Path 99" class="cls-3" d="M166.63,192.2h-3.95c-9.5,0-17.2,6.52-17.2,14.57v14.72c0,8-7.58,12.08-17.19,14.57L69.84,246.61a8.48,8.48,0,0,1-4.52-.31c-.25-.1-.5-.21-.73-.33L43.77,235.46,61.51,225.2a1.72,1.72,0,0,0,1-2.26,1.69,1.69,0,0,0-1-1l-20.3-10.26L59,201.45a1.74,1.74,0,0,0,1-2.27,1.72,1.72,0,0,0-1-1L38.66,188l15.18-10.26a1.74,1.74,0,0,0,1-2.27,1.72,1.72,0,0,0-1-.95L33.55,164.24,53.84,154a1.74,1.74,0,0,0,1-2.27,1.72,1.72,0,0,0-1-.95L38.66,140.5,59,130.24a1.75,1.75,0,0,0,1-2.27,1.77,1.77,0,0,0-1-1L41.22,116.75,61.51,106.5a1.74,1.74,0,0,0,0-3.23L43.77,93l21.71-11c.24-.12.48-.23.73-.33a8.55,8.55,0,0,1,4.54-.31L128.29,92c9.61,2.49,17.19,6.52,17.19,14.57v14.71c0,8.05,7.7,14.57,17.2,14.57h3.95c9.49,0,17.19-6.52,17.19-14.57V106.54c0-8.05,8.87-12.75,17.19-14.57L259.46,81.4a8.58,8.58,0,0,1,4.52.32c.25.1.5.21.74.33L283,91.26a1.49,1.49,0,0,1,.82,2,1.43,1.43,0,0,1-.72.77l-15.26,8.83a1.74,1.74,0,0,0-1,2.27,1.8,1.8,0,0,0,1,1l17.72,9a1.5,1.5,0,0,1,.83,2,1.52,1.52,0,0,1-.73.79l-15.26,8.83a1.75,1.75,0,0,0-1,2.27,1.77,1.77,0,0,0,1,1l17.71,8.95a1.51,1.51,0,0,1,.83,2,1.54,1.54,0,0,1-.73.78l-15.25,8.82a1.73,1.73,0,0,0-1,2.27,1.71,1.71,0,0,0,1,1l17.53,8.86a1.51,1.51,0,0,1,0,2.79l-17.53,8.86a1.73,1.73,0,0,0-1,2.26,1.71,1.71,0,0,0,1,1l15.26,8.83a1.5,1.5,0,0,1,.68,2,1.45,1.45,0,0,1-.78.72l-17.72,9a1.74,1.74,0,0,0-1,2.27,1.8,1.8,0,0,0,1,1l15.27,8.82a1.5,1.5,0,0,1,.68,2,1.45,1.45,0,0,1-.78.72l-17.73,9a1.74,1.74,0,0,0-1,2.27,1.8,1.8,0,0,0,1,1l15.26,8.82a1.5,1.5,0,0,1,.68,2,1.45,1.45,0,0,1-.78.72L263.82,246c-.24.12-.48.23-.73.33a8.56,8.56,0,0,1-4.54.31L201,236.06c-9.32-2.33-17.19-6.53-17.19-14.57V206.77C183.82,198.72,176.12,192.2,166.63,192.2Z"/>
      </g>
      <path id="Path_100" data-name="Path 100" class="cls-9" d="M236.41,191.43l-51.48-8a122.49,122.49,0,0,0-37.26,0l-51.49,8"/>
      <path id="Path_101" data-name="Path 101" class="cls-9" d="M236.41,137.91l-51.48,7.94a121.86,121.86,0,0,1-37.26,0l-51.49-7.94"/>
    </g>
  </g>
  <g>
    <g class="cls-18">
      <g>
        <line class="cls-7" x1="4.87" y1="-357.19" x2="4.87" y2="597.44"/>
        <line class="cls-7" x1="46.36" y1="-357.19" x2="46.36" y2="597.44"/>
        <line class="cls-7" x1="66.57" y1="-357.19" x2="66.57" y2="597.44"/>
        <line class="cls-7" x1="25.08" y1="-357.19" x2="25.08" y2="597.44"/>
        <line class="cls-7" x1="108.07" y1="-357.19" x2="108.07" y2="597.44"/>
        <line class="cls-7" x1="128.28" y1="-357.19" x2="128.28" y2="597.44"/>
        <line class="cls-7" x1="86.78" y1="-357.19" x2="86.78" y2="597.44"/>
        <line class="cls-7" x1="149.56" y1="-357.19" x2="149.56" y2="597.44"/>
        <line class="cls-7" x1="169.77" y1="-357.19" x2="169.77" y2="597.44"/>
        <line class="cls-7" x1="211.27" y1="-357.19" x2="211.27" y2="597.44"/>
        <line class="cls-7" x1="231.47" y1="-357.19" x2="231.47" y2="597.44"/>
        <line class="cls-7" x1="189.98" y1="-357.19" x2="189.98" y2="597.44"/>
        <line class="cls-7" x1="272.97" y1="-357.19" x2="272.97" y2="597.44"/>
        <line class="cls-7" x1="293.18" y1="-357.19" x2="293.18" y2="597.44"/>
        <line class="cls-7" x1="251.68" y1="-357.19" x2="251.68" y2="597.44"/>
        <line class="cls-7" x1="314.47" y1="-357.19" x2="314.47" y2="597.44"/>
      </g>
    </g>
    <path id="Path_108-2" data-name="Path 108" class="cls-3" d="M707.64,184.25h-208l-5.29-4.52-5.58-4.79L477.06,165l-5.58-4.78-11.63-10-5.63-4.8-11.61-9.93-5.63-4.8L432.62,127H640.69l4.37,3.74,5.62,4.8,11.61,9.93,5.61,4.8,11.63,10,5.6,4.78,11.64,9.95,5.58,4.79Z"/>
  </g>
  <g class="cls-19">
    <g>
      <line class="cls-7" x1="35.68" y1="138.66" x2="35.68" y2="1093.3"/>
      <line class="cls-7" x1="55.89" y1="138.66" x2="55.89" y2="1093.3"/>
      <line class="cls-7" x1="14.39" y1="138.66" x2="14.39" y2="1093.3"/>
      <line class="cls-7" x1="77.18" y1="138.66" x2="77.18" y2="1093.3"/>
      <line class="cls-7" x1="97.38" y1="138.66" x2="97.38" y2="1093.3"/>
      <line class="cls-7" x1="138.88" y1="138.66" x2="138.88" y2="1093.3"/>
      <line class="cls-7" x1="159.09" y1="138.66" x2="159.09" y2="1093.3"/>
      <line class="cls-7" x1="117.59" y1="138.66" x2="117.59" y2="1093.3"/>
      <line class="cls-7" x1="180.38" y1="138.66" x2="180.38" y2="1093.3"/>
      <line class="cls-7" x1="200.58" y1="138.66" x2="200.58" y2="1093.3"/>
      <line class="cls-7" x1="242.08" y1="138.66" x2="242.08" y2="1093.3"/>
      <line class="cls-7" x1="262.29" y1="138.66" x2="262.29" y2="1093.3"/>
      <line class="cls-7" x1="220.79" y1="138.66" x2="220.79" y2="1093.3"/>
      <line class="cls-7" x1="303.78" y1="138.66" x2="303.78" y2="1093.3"/>
      <line class="cls-7" x1="323.99" y1="138.66" x2="323.99" y2="1093.3"/>
      <line class="cls-7" x1="282.49" y1="138.66" x2="282.49" y2="1093.3"/>
    </g>
  </g>
  <g id="Group_108" data-name="Group 108">
    <g class="cls-20">
      <rect id="Rectangle_102" data-name="Rectangle 102" class="cls-21" x="37.83" y="391.4" width="166.89" height="250.74"/>
    </g>
  </g>
  <g class="cls-22">
    <g>
      <line class="cls-7" x1="13.54" y1="138.66" x2="13.54" y2="1093.3"/>
      <line class="cls-7" x1="55.04" y1="138.66" x2="55.04" y2="1093.3"/>
      <line class="cls-7" x1="75.25" y1="138.66" x2="75.25" y2="1093.3"/>
      <line class="cls-7" x1="33.75" y1="138.66" x2="33.75" y2="1093.3"/>
      <line class="cls-7" x1="116.74" y1="138.66" x2="116.74" y2="1093.3"/>
      <line class="cls-7" x1="136.95" y1="138.66" x2="136.95" y2="1093.3"/>
      <line class="cls-7" x1="95.46" y1="138.66" x2="95.46" y2="1093.3"/>
      <line class="cls-7" x1="158.24" y1="138.66" x2="158.24" y2="1093.3"/>
      <line class="cls-7" x1="178.45" y1="138.66" x2="178.45" y2="1093.3"/>
      <line class="cls-7" x1="219.94" y1="138.66" x2="219.94" y2="1093.3"/>
      <line class="cls-7" x1="240.15" y1="138.66" x2="240.15" y2="1093.3"/>
      <line class="cls-7" x1="198.65" y1="138.66" x2="198.65" y2="1093.3"/>
      <line class="cls-7" x1="281.65" y1="138.66" x2="281.65" y2="1093.3"/>
      <line class="cls-7" x1="301.85" y1="138.66" x2="301.85" y2="1093.3"/>
      <line class="cls-7" x1="260.36" y1="138.66" x2="260.36" y2="1093.3"/>
      <line class="cls-7" x1="323.14" y1="138.66" x2="323.14" y2="1093.3"/>
    </g>
  </g>
  <g id="Group_151" data-name="Group 151">
    <g id="Group_148" data-name="Group 148">
      <g class="cls-23">
        <g id="Group_147" data-name="Group 147">
          <rect id="Rectangle_114" data-name="Rectangle 114" class="cls-24" x="279.41" y="288.28" width="296.77" height="297.57"/>
        </g>
      </g>
    </g>
    <g id="Group_149" data-name="Group 149">
      <g>
        <g class="cls-25">
          <g>
            <line class="cls-7" x1="3.97" y1="205.19" x2="3.97" y2="1159.82"/>
            <line class="cls-7" x1="45.46" y1="205.19" x2="45.46" y2="1159.82"/>
            <line class="cls-7" x1="65.67" y1="205.19" x2="65.67" y2="1159.82"/>
            <line class="cls-7" x1="24.17" y1="205.19" x2="24.17" y2="1159.82"/>
            <line class="cls-7" x1="86.96" y1="205.19" x2="86.96" y2="1159.82"/>
            <line class="cls-7" x1="107.16" y1="205.19" x2="107.16" y2="1159.82"/>
            <line class="cls-7" x1="148.66" y1="205.19" x2="148.66" y2="1159.82"/>
            <line class="cls-7" x1="168.87" y1="205.19" x2="168.87" y2="1159.82"/>
            <line class="cls-7" x1="127.37" y1="205.19" x2="127.37" y2="1159.82"/>
            <line class="cls-7" x1="210.36" y1="205.19" x2="210.36" y2="1159.82"/>
            <line class="cls-7" x1="230.57" y1="205.19" x2="230.57" y2="1159.82"/>
            <line class="cls-7" x1="189.08" y1="205.19" x2="189.08" y2="1159.82"/>
            <line class="cls-7" x1="251.86" y1="205.19" x2="251.86" y2="1159.82"/>
            <line class="cls-7" x1="272.07" y1="205.19" x2="272.07" y2="1159.82"/>
            <line class="cls-7" x1="313.56" y1="205.19" x2="313.56" y2="1159.82"/>
            <line class="cls-7" x1="292.28" y1="205.19" x2="292.28" y2="1159.82"/>
          </g>
        </g>
        <path id="Path_200-2" data-name="Path 200" class="cls-5" d="M579.75,580c-11.68,11.68-70.89-6.44-104.58-40.13-26.3-26.3-26.2-57.11-9.42-73.88s46.16-18.3,73.88,9.42C575.59,511.36,591.71,568,579.75,580Z"/>
      </g>
    </g>
  </g>
</svg>
