<svg id="Laag_1" data-name="Laag 1" xmlns="http://www.w3.org/2000/svg" xmlns:xlink="http://www.w3.org/1999/xlink" viewBox="0 0 326.08 344.39">
  <defs>
    <style>
      .cls-1, .cls-11, .cls-12, .cls-14, .cls-16, .cls-18, .cls-2, .cls-3 {
        fill: none;
      }

      .cls-1, .cls-11, .cls-12, .cls-16 {
        stroke: #503c21;
      }

      .cls-1, .cls-14 {
        stroke-miterlimit: 10;
      }

      .cls-1, .cls-4 {
        stroke-width: 9px;
      }

      .cls-18, .cls-3 {
        stroke: #bc2e2a;
      }

      .cls-11, .cls-18, .cls-3 {
        stroke-width: 6px;
      }

      .cls-4 {
        fill: #b4934b;
        stroke: #b4934b;
      }

      .cls-11, .cls-12, .cls-16, .cls-18, .cls-4 {
        stroke-linecap: round;
        stroke-linejoin: round;
      }

      .cls-5 {
        fill: #4b8449;
      }

      .cls-6 {
        fill: #4b6140;
      }

      .cls-7 {
        fill: #9b7334;
      }

      .cls-8 {
        opacity: 0.5;
      }

      .cls-9 {
        fill: #382818;
      }

      .cls-10 {
        clip-path: url(#clip-path);
      }

      .cls-12 {
        stroke-width: 4px;
      }

      .cls-13 {
        clip-path: url(#clip-path-2);
      }

      .cls-14 {
        stroke: #396f95;
        stroke-width: 108px;
      }

      .cls-15 {
        clip-path: url(#clip-path-3);
      }

      .cls-16 {
        stroke-width: 5px;
      }

      .cls-17 {
        clip-path: url(#clip-path-4);
      }
    </style>
    <clipPath id="clip-path">
      <path class="cls-1" d="M222.37,184.19v27.63a7.55,7.55,0,0,1-.09,1.16,12.19,12.19,0,0,1-1.64,5.25l-13.81,24a12.88,12.88,0,0,1-4.68,4.68l-23.94,13.81a12.59,12.59,0,0,1-6.41,1.73H144.17a12.89,12.89,0,0,1-6.41-1.73l-23.94-13.81a12.81,12.81,0,0,1-4.68-4.68l-13.82-24a12.56,12.56,0,0,1-1.73-6.41V184.19a13,13,0,0,1,1.73-6.41l13.81-23.94a13,13,0,0,1,4.68-4.68l23.95-13.81a12.35,12.35,0,0,1,5.29-1.67c.35,0,.74-.06,1.12-.06H171.8a11.37,11.37,0,0,1,4.2.77,9.43,9.43,0,0,1,2.21,1l23.94,13.81a12.81,12.81,0,0,1,4.68,4.68l13.82,23.94A12.58,12.58,0,0,1,222.37,184.19ZM163.75,99.48l-.58.32a13,13,0,0,0-4.68,4.68l-13.81,23.94a12.12,12.12,0,0,0-1.63,5.26,12.35,12.35,0,0,0-5.29,1.67l-23.95,13.81a13,13,0,0,0-4.68,4.68L95.32,177.78a12.9,12.9,0,0,0-1.73,6.42v17.34a9.28,9.28,0,0,1-2.21-1L67.44,186.76a12.88,12.88,0,0,1-4.68-4.68L48.94,158.14a12.59,12.59,0,0,1-1.73-6.41V124.1a13,13,0,0,1,1.73-6.41l13.82-24a12.81,12.81,0,0,1,4.68-4.68L91.38,75.25a12.56,12.56,0,0,1,6.41-1.73h27.63a12.59,12.59,0,0,1,6.41,1.73l23.94,13.81a12.88,12.88,0,0,1,4.68,4.68Zm108,35.35v27.63a12.89,12.89,0,0,1-1.73,6.41l-13.81,23.95a13,13,0,0,1-4.68,4.68l-23.94,13.81a12.44,12.44,0,0,1-5.29,1.67,7.46,7.46,0,0,0,.09-1.16V184.19a12.59,12.59,0,0,0-1.73-6.41l-13.81-23.94a13,13,0,0,0-4.68-4.68l-23.94-13.81a9.25,9.25,0,0,0-2.21-1,11.37,11.37,0,0,0-4.2-.77H144.17c-.39,0-.77,0-1.12.06a12.12,12.12,0,0,1,1.63-5.26l13.81-23.93a12.76,12.76,0,0,1,4.69-4.68l.57-.32L187.12,86a12.56,12.56,0,0,1,6.41-1.73h27.63A12.56,12.56,0,0,1,227.57,86l23.94,13.82a12.73,12.73,0,0,1,4.68,4.68L270,128.43A12.61,12.61,0,0,1,271.73,134.83Z"/>
    </clipPath>
    <clipPath id="clip-path-2">
      <rect class="cls-2" x="465.02" y="156.22" width="203.93" height="105.69"/>
    </clipPath>
    <clipPath id="clip-path-3">
      <rect id="Rectangle_181" data-name="Rectangle 181" class="cls-1" x="465.02" y="156.4" width="203.93" height="105.69"/>
    </clipPath>
    <clipPath id="clip-path-4">
      <path id="Path_315" data-name="Path 315" class="cls-3" d="M567,179.08c32.11,0,58.13,13.42,58.13,30s-26,30-58.13,30-58.13-13.41-58.13-30,26-30,58.13-30"/>
    </clipPath>
  </defs>
  <g id="Group_108" data-name="Group 108">
    <g id="Rectangle_41" data-name="Rectangle 41">
      <rect class="cls-4" x="6.15" y="30.18" width="313.77" height="309.7" rx="44.82"/>
      <g>
        <rect class="cls-5" x="5.47" y="4.01" width="315.11" height="310.87" rx="41.09"/>
        <path class="cls-6" d="M279.49,9.51A35.63,35.63,0,0,1,315.08,45.1V273.79a35.63,35.63,0,0,1-35.59,35.59H46.56A35.63,35.63,0,0,1,11,273.79V45.1A35.63,35.63,0,0,1,46.56,9.51H279.49m0-11H46.56A46.59,46.59,0,0,0,0,45.1V273.79a46.59,46.59,0,0,0,46.59,46.59H279.49a46.59,46.59,0,0,0,46.59-46.59V45.1A46.59,46.59,0,0,0,279.49-1.49Z"/>
      </g>
    </g>
  </g>
  <g id="Group_213" data-name="Group 213">
    <path class="cls-7" d="M97.8,73.52a12.6,12.6,0,0,0-6.42,1.73L67.44,89.06a12.88,12.88,0,0,0-4.68,4.68L49,117.69a12.79,12.79,0,0,0-1.73,6.41v27.63A12.59,12.59,0,0,0,49,158.14l13.81,23.94a12.81,12.81,0,0,0,4.68,4.68l23.94,13.81a9.61,9.61,0,0,0,2.21,1v10.29a12.54,12.54,0,0,0,1.74,6.41l13.81,24a12.88,12.88,0,0,0,4.68,4.68l23.94,13.81a13,13,0,0,0,6.41,1.73H171.8a12.69,12.69,0,0,0,6.41-1.73l23.94-13.82a12.73,12.73,0,0,0,4.68-4.68l13.81-23.94a12.19,12.19,0,0,0,1.64-5.26,12.52,12.52,0,0,0,5.29-1.66l23.94-13.82a12.73,12.73,0,0,0,4.68-4.68L270,168.87a12.9,12.9,0,0,0,1.74-6.41V134.83a12.7,12.7,0,0,0-1.74-6.41l-13.81-23.94a12.81,12.81,0,0,0-4.68-4.68L227.57,86a12.59,12.59,0,0,0-6.41-1.73H193.52A12.56,12.56,0,0,0,187.11,86L163.75,99.48l-3.31-5.73a12.66,12.66,0,0,0-4.68-4.68L131.82,75.25a12.53,12.53,0,0,0-6.41-1.73Z"/>
    <g>
      <g class="cls-8">
        <path id="Path_286" data-name="Path 286" class="cls-9" d="M273.41,148.62v17.21L256.1,195.16,222.28,213l-15.54,31.57-1.89,1.12-28.43,16.69H144.11l-30.58-17,75.16-5.19,16.16-18.88,14.48-17,3-7.06,0-14-2.12-6.25-13.46-25.67-1.92-1.09V135.09l6.63,3.6,13.59,32.59,1.19,2.82,6.53,17.12,5.26-.35L268.69,155Z"/>
      </g>
      <g class="cls-8">
        <path id="Path_287" data-name="Path 287" class="cls-9" d="M93.25,195,93,201.13,83,195Z"/>
      </g>
      <g class="cls-8">
        <path id="Path_288" data-name="Path 288" class="cls-9" d="M204.85,135.09v15.26l-28.91-16.51-31.32,1-2.21.19v-.13l-29.26,16-8.37,12.6-11,18L93.24,195H83l-15.81-9.65,22.31-1.54v-9.39l5.81-10.93v0l11.15-22.12,32.82-21h38.43Z"/>
      </g>
      <g>
        <g class="cls-10">
          <g>
            <line class="cls-11" x1="0.02" y1="168.89" x2="696.4" y2="865.27"/>
            <line class="cls-11" x1="-36.14" y1="164.14" x2="660.25" y2="860.53"/>
            <line class="cls-11" x1="-31.26" y1="200.17" x2="665.12" y2="896.55"/>
            <line class="cls-11" x1="-67.42" y1="195.42" x2="628.97" y2="891.81"/>
            <line class="cls-11" x1="-62.55" y1="231.45" x2="633.84" y2="927.84"/>
            <line class="cls-11" x1="-98.7" y1="226.71" x2="597.68" y2="923.09"/>
            <line class="cls-11" x1="-93.83" y1="262.73" x2="602.56" y2="959.12"/>
            <line class="cls-11" x1="-171.23" y1="217.2" x2="525.15" y2="913.58"/>
            <line class="cls-11" x1="-166.35" y1="253.22" x2="530.03" y2="949.6"/>
            <line class="cls-11" x1="-202.51" y1="248.47" x2="493.87" y2="944.86"/>
            <line class="cls-11" x1="156.46" y1="12.44" x2="852.85" y2="708.83"/>
            <line class="cls-11" x1="120.31" y1="7.7" x2="816.69" y2="704.08"/>
            <line class="cls-11" x1="125.18" y1="43.72" x2="821.57" y2="740.1"/>
            <line class="cls-11" x1="89.03" y1="38.98" x2="785.41" y2="735.36"/>
            <line class="cls-11" x1="93.9" y1="75.01" x2="790.28" y2="771.39"/>
            <line class="cls-11" x1="57.74" y1="70.26" x2="754.12" y2="766.65"/>
            <line class="cls-11" x1="62.62" y1="106.29" x2="759" y2="802.67"/>
            <line class="cls-11" x1="-14.79" y1="60.75" x2="681.6" y2="757.13"/>
            <line class="cls-11" x1="-9.91" y1="96.77" x2="686.48" y2="793.16"/>
            <line class="cls-11" x1="-46.06" y1="92.03" x2="650.32" y2="788.41"/>
            <line class="cls-11" x1="313.3" y1="-144.4" x2="1009.69" y2="551.99"/>
            <line class="cls-11" x1="277.15" y1="-149.14" x2="973.53" y2="547.24"/>
            <line class="cls-11" x1="282.02" y1="-113.12" x2="978.41" y2="583.26"/>
            <line class="cls-11" x1="245.87" y1="-117.86" x2="942.25" y2="578.52"/>
            <line class="cls-11" x1="250.74" y1="-81.83" x2="947.12" y2="614.55"/>
            <line class="cls-11" x1="214.58" y1="-86.57" x2="910.96" y2="609.81"/>
            <line class="cls-11" x1="219.46" y1="-50.55" x2="915.84" y2="645.83"/>
            <line class="cls-11" x1="142.05" y1="-96.09" x2="838.44" y2="600.3"/>
            <line class="cls-11" x1="146.93" y1="-60.07" x2="843.32" y2="636.32"/>
            <line class="cls-11" x1="110.78" y1="-64.81" x2="807.16" y2="631.57"/>
            <line class="cls-11" x1="298.5" y1="-252.53" x2="994.88" y2="443.85"/>
            <line class="cls-11" x1="303.38" y1="-216.51" x2="999.76" y2="479.87"/>
            <line class="cls-11" x1="267.22" y1="-221.25" x2="963.6" y2="475.13"/>
          </g>
        </g>
        <path class="cls-1" d="M222.37,184.19v27.63a7.55,7.55,0,0,1-.09,1.16,12.19,12.19,0,0,1-1.64,5.25l-13.81,24a12.88,12.88,0,0,1-4.68,4.68l-23.94,13.81a12.59,12.59,0,0,1-6.41,1.73H144.17a12.89,12.89,0,0,1-6.41-1.73l-23.94-13.81a12.81,12.81,0,0,1-4.68-4.68l-13.82-24a12.56,12.56,0,0,1-1.73-6.41V184.19a13,13,0,0,1,1.73-6.41l13.81-23.94a13,13,0,0,1,4.68-4.68l23.95-13.81a12.35,12.35,0,0,1,5.29-1.67c.35,0,.74-.06,1.12-.06H171.8a11.37,11.37,0,0,1,4.2.77,9.43,9.43,0,0,1,2.21,1l23.94,13.81a12.81,12.81,0,0,1,4.68,4.68l13.82,23.94A12.58,12.58,0,0,1,222.37,184.19ZM163.75,99.48l-.58.32a13,13,0,0,0-4.68,4.68l-13.81,23.94a12.12,12.12,0,0,0-1.63,5.26,12.35,12.35,0,0,0-5.29,1.67l-23.95,13.81a13,13,0,0,0-4.68,4.68L95.32,177.78a12.9,12.9,0,0,0-1.73,6.42v17.34a9.28,9.28,0,0,1-2.21-1L67.44,186.76a12.88,12.88,0,0,1-4.68-4.68L48.94,158.14a12.59,12.59,0,0,1-1.73-6.41V124.1a13,13,0,0,1,1.73-6.41l13.82-24a12.81,12.81,0,0,1,4.68-4.68L91.38,75.25a12.56,12.56,0,0,1,6.41-1.73h27.63a12.59,12.59,0,0,1,6.41,1.73l23.94,13.81a12.88,12.88,0,0,1,4.68,4.68Zm108,35.35v27.63a12.89,12.89,0,0,1-1.73,6.41l-13.81,23.95a13,13,0,0,1-4.68,4.68l-23.94,13.81a12.44,12.44,0,0,1-5.29,1.67,7.46,7.46,0,0,0,.09-1.16V184.19a12.59,12.59,0,0,0-1.73-6.41l-13.81-23.94a13,13,0,0,0-4.68-4.68l-23.94-13.81a9.25,9.25,0,0,0-2.21-1,11.37,11.37,0,0,0-4.2-.77H144.17c-.39,0-.77,0-1.12.06a12.12,12.12,0,0,1,1.63-5.26l13.81-23.93a12.76,12.76,0,0,1,4.69-4.68l.57-.32L187.12,86a12.56,12.56,0,0,1,6.41-1.73h27.63A12.56,12.56,0,0,1,227.57,86l23.94,13.82a12.73,12.73,0,0,1,4.68,4.68L270,128.43A12.61,12.61,0,0,1,271.73,134.83Z"/>
      </g>
      <path id="Path_292" data-name="Path 292" class="cls-12" d="M129.61,85.42a13.13,13.13,0,0,0-6.54-1.18L110.7,89.88,95.54,86.55a12.91,12.91,0,0,0-6.25,2.24l-9,10.48L66.6,104.56a12.86,12.86,0,0,0-4.3,5.06"/>
      <path id="Path_293" data-name="Path 293" class="cls-12" d="M143.17,101.74a13.14,13.14,0,0,0-6.54-1.19l-12.37,5.64-15.16-3.33"/>
      <path id="Path_294" data-name="Path 294" class="cls-12" d="M225.35,96.16A13,13,0,0,0,218.81,95l-12.37,5.63-15.16-3.32A12.91,12.91,0,0,0,185,99.53L176,110l-13.65,5.29a12.86,12.86,0,0,0-4.3,5.06"/>
      <path id="Path_295" data-name="Path 295" class="cls-12" d="M238.91,112.47a13.17,13.17,0,0,0-6.54-1.18L220,116.93l-15.15-3.33"/>
      <path id="Path_296" data-name="Path 296" class="cls-12" d="M176,145.52a13.14,13.14,0,0,0-6.54-1.19L157.08,150l-15.16-3.33a13,13,0,0,0-6.25,2.25l-9,10.48L113,164.65a12.9,12.9,0,0,0-4.29,5.06"/>
      <path id="Path_297" data-name="Path 297" class="cls-12" d="M105.19,206.64a12.37,12.37,0,0,0,2.72,5.68l11.22,6.37,5.86,13.5a11.83,11.83,0,0,0,5.2,3.52l13.07,1.09,11.67,7.54a12.41,12.41,0,0,0,6.28.48"/>
      <path id="Path_298" data-name="Path 298" class="cls-12" d="M189.52,161.87a13.18,13.18,0,0,0-6.54-1.19l-12.38,5.64L155.45,163"/>
    </g>
  </g>
  <g>
    <g id="Group_218" data-name="Group 218">
      <g class="cls-13">
        <g id="Group_217" data-name="Group 217">
          <rect id="Rectangle_177" data-name="Rectangle 177" class="cls-14" x="326.11" y="46.3" width="338.72" height="223.74"/>
        </g>
      </g>
    </g>
    <g id="Group_219" data-name="Group 219">
      <g>
        <g class="cls-15">
          <g>
            <line class="cls-16" x1="122.51" y1="-442.59" x2="122.51" y2="480.23"/>
            <line class="cls-16" x1="142.04" y1="-442.59" x2="142.04" y2="480.23"/>
            <line class="cls-16" x1="82.39" y1="-442.59" x2="82.39" y2="480.23"/>
            <line class="cls-16" x1="101.93" y1="-442.59" x2="101.93" y2="480.23"/>
            <line class="cls-16" x1="182.15" y1="-442.59" x2="182.15" y2="480.23"/>
            <line class="cls-16" x1="201.69" y1="-442.59" x2="201.69" y2="480.23"/>
            <line class="cls-16" x1="161.57" y1="-442.59" x2="161.57" y2="480.23"/>
            <line class="cls-16" x1="241.8" y1="-442.59" x2="241.8" y2="480.23"/>
            <line class="cls-16" x1="261.33" y1="-442.59" x2="261.33" y2="480.23"/>
            <line class="cls-16" x1="221.22" y1="-442.59" x2="221.22" y2="480.23"/>
            <line class="cls-16" x1="281.91" y1="-442.59" x2="281.91" y2="480.23"/>
            <line class="cls-16" x1="301.45" y1="-442.59" x2="301.45" y2="480.23"/>
            <line class="cls-16" x1="320.98" y1="-442.59" x2="320.98" y2="480.23"/>
          </g>
        </g>
        <rect id="Rectangle_181-2" data-name="Rectangle 181" class="cls-1" x="465.02" y="156.4" width="203.93" height="105.69"/>
      </g>
      <g>
        <g class="cls-17">
          <g>
            <line class="cls-18" x1="115.12" y1="-213.14" x2="811.51" y2="483.24"/>
            <line class="cls-18" x1="78.97" y1="-217.88" x2="775.35" y2="478.5"/>
            <line class="cls-18" x1="83.85" y1="-181.86" x2="780.23" y2="514.52"/>
            <line class="cls-18" x1="47.69" y1="-186.6" x2="744.07" y2="509.78"/>
            <line class="cls-18" x1="52.56" y1="-150.57" x2="748.94" y2="545.81"/>
            <line class="cls-18" x1="16.4" y1="-155.32" x2="712.78" y2="541.07"/>
            <line class="cls-18" x1="21.28" y1="-119.3" x2="717.66" y2="577.09"/>
            <line class="cls-18" x1="-56.12" y1="-164.83" x2="640.26" y2="531.55"/>
            <line class="cls-18" x1="-51.25" y1="-128.81" x2="645.14" y2="567.57"/>
            <line class="cls-18" x1="-87.4" y1="-133.55" x2="608.98" y2="562.83"/>
            <line class="cls-18" x1="271.57" y1="-369.59" x2="967.95" y2="326.8"/>
            <line class="cls-18" x1="235.41" y1="-374.33" x2="931.8" y2="322.06"/>
            <line class="cls-18" x1="240.29" y1="-338.31" x2="936.67" y2="358.08"/>
            <line class="cls-18" x1="204.13" y1="-343.05" x2="900.52" y2="353.33"/>
            <line class="cls-18" x1="209" y1="-307.02" x2="905.39" y2="389.36"/>
            <line class="cls-18" x1="172.85" y1="-311.76" x2="869.23" y2="384.62"/>
            <line class="cls-18" x1="177.72" y1="-275.74" x2="874.11" y2="420.64"/>
            <line class="cls-18" x1="100.32" y1="-321.28" x2="796.7" y2="375.11"/>
            <line class="cls-18" x1="105.2" y1="-285.25" x2="801.58" y2="411.13"/>
            <line class="cls-18" x1="69.04" y1="-290" x2="765.42" y2="406.39"/>
            <line class="cls-18" x1="257.16" y1="-478.12" x2="953.54" y2="218.27"/>
            <line class="cls-18" x1="262.04" y1="-442.09" x2="958.42" y2="254.29"/>
            <line class="cls-18" x1="225.88" y1="-446.84" x2="922.26" y2="249.55"/>
          </g>
        </g>
        <path id="Path_315-2" data-name="Path 315" class="cls-3" d="M567,179.08c32.11,0,58.13,13.42,58.13,30s-26,30-58.13,30-58.13-13.41-58.13-30,26-30,58.13-30"/>
      </g>
    </g>
  </g>
</svg>
