<svg id="Laag_1" data-name="Laag 1" xmlns="http://www.w3.org/2000/svg" xmlns:xlink="http://www.w3.org/1999/xlink" viewBox="0 0 1260.49 269.45">
  <defs>
    <style>
      .cls-1, .cls-2 {
        fill: none;
      }

      .cls-2, .cls-3, .cls-4, .cls-5 {
        stroke: #8f2623;
        stroke-linejoin: round;
      }

      .cls-2, .cls-5 {
        stroke-linecap: round;
      }

      .cls-2 {
        stroke-width: 5px;
      }

      .cls-3 {
        fill: #bb2e2a;
      }

      .cls-3, .cls-4, .cls-5 {
        stroke-width: 11px;
      }

      .cls-4 {
        fill: url(#Nieuwe_patroonstaal_1);
      }

      .cls-5 {
        fill: #e63925;
      }

      .cls-6 {
        fill: #8f2623;
      }
    </style>
    <pattern id="Nieuwe_patroonstaal_1" data-name="Nieuwe patroonstaal 1" width="283.46" height="283.46" patternTransform="translate(789.28)" patternUnits="userSpaceOnUse" viewBox="0 0 283.46 283.46">
      <rect class="cls-1" width="283.46" height="283.46"/>
      <g>
        <line class="cls-2" x1="91.13" y1="237.3" x2="928.57" y2="1074.74"/>
        <line class="cls-2" x1="100.71" y1="222.57" x2="938.15" y2="1060.01"/>
        <line class="cls-2" x1="115.44" y1="207.84" x2="952.89" y2="1045.28"/>
        <line class="cls-2" x1="130.17" y1="193.11" x2="967.62" y2="1030.55"/>
        <line class="cls-2" x1="145.03" y1="178.25" x2="982.47" y2="1015.69"/>
        <line class="cls-2" x1="130.3" y1="192.98" x2="967.74" y2="1030.43"/>
        <line class="cls-2" x1="159.76" y1="163.52" x2="997.2" y2="1000.96"/>
        <line class="cls-2" x1="174.49" y1="148.79" x2="1011.94" y2="986.23"/>
        <line class="cls-2" x1="189.22" y1="134.06" x2="1026.67" y2="971.5"/>
        <line class="cls-2" x1="203.95" y1="119.32" x2="1041.4" y2="956.77"/>
        <line class="cls-2" x1="218.69" y1="104.59" x2="1056.13" y2="942.04"/>
      </g>
      <g>
        <line class="cls-2" x1="-192.34" y1="237.3" x2="645.11" y2="1074.74"/>
        <line class="cls-2" x1="-182.75" y1="222.57" x2="654.69" y2="1060.01"/>
        <line class="cls-2" x1="-168.02" y1="207.84" x2="669.42" y2="1045.28"/>
        <line class="cls-2" x1="-153.29" y1="193.11" x2="684.15" y2="1030.55"/>
        <line class="cls-2" x1="-138.44" y1="178.25" x2="699.01" y2="1015.69"/>
        <line class="cls-2" x1="-153.17" y1="192.98" x2="684.28" y2="1030.43"/>
        <line class="cls-2" x1="-123.7" y1="163.52" x2="713.74" y2="1000.96"/>
        <line class="cls-2" x1="-108.97" y1="148.79" x2="728.47" y2="986.23"/>
        <line class="cls-2" x1="-94.24" y1="134.06" x2="743.2" y2="971.5"/>
        <line class="cls-2" x1="-79.51" y1="119.32" x2="757.93" y2="956.77"/>
        <line class="cls-2" x1="-64.78" y1="104.59" x2="772.66" y2="942.04"/>
      </g>
      <g>
        <line class="cls-2" x1="-475.8" y1="237.3" x2="361.64" y2="1074.74"/>
        <line class="cls-2" x1="-466.22" y1="222.57" x2="371.23" y2="1060.01"/>
        <line class="cls-2" x1="-451.49" y1="207.84" x2="385.96" y2="1045.28"/>
        <line class="cls-2" x1="-436.76" y1="193.11" x2="400.69" y2="1030.55"/>
        <line class="cls-2" x1="-421.9" y1="178.25" x2="415.54" y2="1015.69"/>
        <line class="cls-2" x1="-436.63" y1="192.98" x2="400.81" y2="1030.43"/>
        <line class="cls-2" x1="-407.17" y1="163.52" x2="430.27" y2="1000.96"/>
        <line class="cls-2" x1="-392.44" y1="148.79" x2="445.01" y2="986.23"/>
        <line class="cls-2" x1="-377.71" y1="134.06" x2="459.74" y2="971.5"/>
        <line class="cls-2" x1="-362.98" y1="119.32" x2="474.47" y2="956.77"/>
        <line class="cls-2" x1="-348.24" y1="104.59" x2="489.2" y2="942.04"/>
      </g>
      <g>
        <line class="cls-2" x1="-759.27" y1="237.3" x2="78.18" y2="1074.74"/>
        <line class="cls-2" x1="-749.68" y1="222.57" x2="87.76" y2="1060.01"/>
        <line class="cls-2" x1="-734.95" y1="207.84" x2="102.49" y2="1045.28"/>
        <line class="cls-2" x1="-720.22" y1="193.11" x2="117.22" y2="1030.55"/>
        <line class="cls-2" x1="-705.37" y1="178.25" x2="132.08" y2="1015.69"/>
        <line class="cls-2" x1="-720.1" y1="192.98" x2="117.35" y2="1030.43"/>
        <line class="cls-2" x1="-690.63" y1="163.52" x2="146.81" y2="1000.96"/>
        <line class="cls-2" x1="-675.9" y1="148.79" x2="161.54" y2="986.23"/>
        <line class="cls-2" x1="-661.17" y1="134.06" x2="176.27" y2="971.5"/>
        <line class="cls-2" x1="-646.44" y1="119.32" x2="191" y2="956.77"/>
        <line class="cls-2" x1="-631.71" y1="104.59" x2="205.74" y2="942.04"/>
      </g>
      <g>
        <line class="cls-2" x1="91.13" y1="-46.16" x2="928.57" y2="791.28"/>
        <line class="cls-2" x1="100.71" y1="-60.9" x2="938.15" y2="776.55"/>
        <line class="cls-2" x1="115.44" y1="-75.63" x2="952.89" y2="761.82"/>
        <line class="cls-2" x1="130.17" y1="-90.36" x2="967.62" y2="747.08"/>
        <line class="cls-2" x1="145.03" y1="-105.21" x2="982.47" y2="732.23"/>
        <line class="cls-2" x1="130.3" y1="-90.48" x2="967.74" y2="746.96"/>
        <line class="cls-2" x1="159.76" y1="-119.95" x2="997.2" y2="717.5"/>
        <line class="cls-2" x1="174.49" y1="-134.68" x2="1011.94" y2="702.77"/>
        <line class="cls-2" x1="189.22" y1="-149.41" x2="1026.67" y2="688.04"/>
        <line class="cls-2" x1="203.95" y1="-164.14" x2="1041.4" y2="673.3"/>
        <line class="cls-2" x1="218.69" y1="-178.87" x2="1056.13" y2="658.57"/>
      </g>
      <g>
        <line class="cls-2" x1="-192.34" y1="-46.16" x2="645.11" y2="791.28"/>
        <line class="cls-2" x1="-182.75" y1="-60.9" x2="654.69" y2="776.55"/>
        <line class="cls-2" x1="-168.02" y1="-75.63" x2="669.42" y2="761.82"/>
        <line class="cls-2" x1="-153.29" y1="-90.36" x2="684.15" y2="747.08"/>
        <line class="cls-2" x1="-138.44" y1="-105.21" x2="699.01" y2="732.23"/>
        <line class="cls-2" x1="-153.17" y1="-90.48" x2="684.28" y2="746.96"/>
        <line class="cls-2" x1="-123.7" y1="-119.95" x2="713.74" y2="717.5"/>
        <line class="cls-2" x1="-108.97" y1="-134.68" x2="728.47" y2="702.77"/>
        <line class="cls-2" x1="-94.24" y1="-149.41" x2="743.2" y2="688.04"/>
        <line class="cls-2" x1="-79.51" y1="-164.14" x2="757.93" y2="673.3"/>
        <line class="cls-2" x1="-64.78" y1="-178.87" x2="772.66" y2="658.57"/>
      </g>
      <g>
        <line class="cls-2" x1="-475.8" y1="-46.16" x2="361.64" y2="791.28"/>
        <line class="cls-2" x1="-466.22" y1="-60.9" x2="371.23" y2="776.55"/>
        <line class="cls-2" x1="-451.49" y1="-75.63" x2="385.96" y2="761.82"/>
        <line class="cls-2" x1="-436.76" y1="-90.36" x2="400.69" y2="747.08"/>
        <line class="cls-2" x1="-421.9" y1="-105.21" x2="415.54" y2="732.23"/>
        <line class="cls-2" x1="-436.63" y1="-90.48" x2="400.81" y2="746.96"/>
        <line class="cls-2" x1="-407.17" y1="-119.95" x2="430.27" y2="717.5"/>
        <line class="cls-2" x1="-392.44" y1="-134.68" x2="445.01" y2="702.77"/>
        <line class="cls-2" x1="-377.71" y1="-149.41" x2="459.74" y2="688.04"/>
        <line class="cls-2" x1="-362.98" y1="-164.14" x2="474.47" y2="673.3"/>
        <line class="cls-2" x1="-348.24" y1="-178.87" x2="489.2" y2="658.57"/>
      </g>
      <g>
        <line class="cls-2" x1="-759.27" y1="-46.16" x2="78.18" y2="791.28"/>
        <line class="cls-2" x1="-749.68" y1="-60.9" x2="87.76" y2="776.55"/>
        <line class="cls-2" x1="-734.95" y1="-75.63" x2="102.49" y2="761.82"/>
        <line class="cls-2" x1="-720.22" y1="-90.36" x2="117.22" y2="747.08"/>
        <line class="cls-2" x1="-705.37" y1="-105.21" x2="132.08" y2="732.23"/>
        <line class="cls-2" x1="-720.1" y1="-90.48" x2="117.35" y2="746.96"/>
        <line class="cls-2" x1="-690.63" y1="-119.95" x2="146.81" y2="717.5"/>
        <line class="cls-2" x1="-675.9" y1="-134.68" x2="161.54" y2="702.77"/>
        <line class="cls-2" x1="-661.17" y1="-149.41" x2="176.27" y2="688.04"/>
        <line class="cls-2" x1="-646.44" y1="-164.14" x2="191" y2="673.3"/>
        <line class="cls-2" x1="-631.71" y1="-178.87" x2="205.74" y2="658.57"/>
      </g>
      <g>
        <line class="cls-2" x1="91.13" y1="-329.63" x2="928.57" y2="507.81"/>
        <line class="cls-2" x1="100.71" y1="-344.36" x2="938.15" y2="493.08"/>
        <line class="cls-2" x1="115.44" y1="-359.09" x2="952.89" y2="478.35"/>
        <line class="cls-2" x1="130.17" y1="-373.82" x2="967.62" y2="463.62"/>
        <line class="cls-2" x1="145.03" y1="-388.68" x2="982.47" y2="448.76"/>
        <line class="cls-2" x1="130.3" y1="-373.95" x2="967.74" y2="463.5"/>
        <line class="cls-2" x1="159.76" y1="-403.41" x2="997.2" y2="434.03"/>
        <line class="cls-2" x1="174.49" y1="-418.14" x2="1011.94" y2="419.3"/>
        <line class="cls-2" x1="189.22" y1="-432.87" x2="1026.67" y2="404.57"/>
        <line class="cls-2" x1="203.95" y1="-447.6" x2="1041.4" y2="389.84"/>
        <line class="cls-2" x1="218.69" y1="-462.34" x2="1056.13" y2="375.11"/>
      </g>
      <g>
        <line class="cls-2" x1="-192.34" y1="-329.63" x2="645.11" y2="507.81"/>
        <line class="cls-2" x1="-182.75" y1="-344.36" x2="654.69" y2="493.08"/>
        <line class="cls-2" x1="-168.02" y1="-359.09" x2="669.42" y2="478.35"/>
        <line class="cls-2" x1="-153.29" y1="-373.82" x2="684.15" y2="463.62"/>
        <line class="cls-2" x1="-138.44" y1="-388.68" x2="699.01" y2="448.76"/>
        <line class="cls-2" x1="-153.17" y1="-373.95" x2="684.28" y2="463.5"/>
        <line class="cls-2" x1="-123.7" y1="-403.41" x2="713.74" y2="434.03"/>
        <line class="cls-2" x1="-108.97" y1="-418.14" x2="728.47" y2="419.3"/>
        <line class="cls-2" x1="-94.24" y1="-432.87" x2="743.2" y2="404.57"/>
        <line class="cls-2" x1="-79.51" y1="-447.6" x2="757.93" y2="389.84"/>
        <line class="cls-2" x1="-64.78" y1="-462.34" x2="772.66" y2="375.11"/>
      </g>
      <g>
        <line class="cls-2" x1="-475.8" y1="-329.63" x2="361.64" y2="507.81"/>
        <line class="cls-2" x1="-466.22" y1="-344.36" x2="371.23" y2="493.08"/>
        <line class="cls-2" x1="-451.49" y1="-359.09" x2="385.96" y2="478.35"/>
        <line class="cls-2" x1="-436.76" y1="-373.82" x2="400.69" y2="463.62"/>
        <line class="cls-2" x1="-421.9" y1="-388.68" x2="415.54" y2="448.76"/>
        <line class="cls-2" x1="-436.63" y1="-373.95" x2="400.81" y2="463.5"/>
        <line class="cls-2" x1="-407.17" y1="-403.41" x2="430.27" y2="434.03"/>
        <line class="cls-2" x1="-392.44" y1="-418.14" x2="445.01" y2="419.3"/>
        <line class="cls-2" x1="-377.71" y1="-432.87" x2="459.74" y2="404.57"/>
        <line class="cls-2" x1="-362.98" y1="-447.6" x2="474.47" y2="389.84"/>
        <line class="cls-2" x1="-348.24" y1="-462.34" x2="489.2" y2="375.11"/>
      </g>
      <g>
        <line class="cls-2" x1="-759.27" y1="-329.63" x2="78.18" y2="507.81"/>
        <line class="cls-2" x1="-749.68" y1="-344.36" x2="87.76" y2="493.08"/>
        <line class="cls-2" x1="-734.95" y1="-359.09" x2="102.49" y2="478.35"/>
        <line class="cls-2" x1="-720.22" y1="-373.82" x2="117.22" y2="463.62"/>
        <line class="cls-2" x1="-705.37" y1="-388.68" x2="132.08" y2="448.76"/>
        <line class="cls-2" x1="-720.1" y1="-373.95" x2="117.35" y2="463.5"/>
        <line class="cls-2" x1="-690.63" y1="-403.41" x2="146.81" y2="434.03"/>
        <line class="cls-2" x1="-675.9" y1="-418.14" x2="161.54" y2="419.3"/>
        <line class="cls-2" x1="-661.17" y1="-432.87" x2="176.27" y2="404.57"/>
        <line class="cls-2" x1="-646.44" y1="-447.6" x2="191" y2="389.84"/>
        <line class="cls-2" x1="-631.71" y1="-462.34" x2="205.74" y2="375.11"/>
      </g>
      <g>
        <line class="cls-2" x1="91.13" y1="-613.09" x2="928.57" y2="224.35"/>
        <line class="cls-2" x1="100.71" y1="-627.83" x2="938.15" y2="209.62"/>
        <line class="cls-2" x1="115.44" y1="-642.56" x2="952.89" y2="194.89"/>
        <line class="cls-2" x1="130.17" y1="-657.29" x2="967.62" y2="180.16"/>
        <line class="cls-2" x1="145.03" y1="-672.14" x2="982.47" y2="165.3"/>
        <line class="cls-2" x1="130.3" y1="-657.41" x2="967.74" y2="180.03"/>
        <line class="cls-2" x1="159.76" y1="-686.87" x2="997.2" y2="150.57"/>
        <line class="cls-2" x1="174.49" y1="-701.61" x2="1011.94" y2="135.84"/>
        <line class="cls-2" x1="189.22" y1="-716.34" x2="1026.67" y2="121.11"/>
        <line class="cls-2" x1="203.95" y1="-731.07" x2="1041.4" y2="106.37"/>
        <line class="cls-2" x1="218.69" y1="-745.8" x2="1056.13" y2="91.64"/>
      </g>
      <g>
        <line class="cls-2" x1="-192.34" y1="-613.09" x2="645.11" y2="224.35"/>
        <line class="cls-2" x1="-182.75" y1="-627.83" x2="654.69" y2="209.62"/>
        <line class="cls-2" x1="-168.02" y1="-642.56" x2="669.42" y2="194.89"/>
        <line class="cls-2" x1="-153.29" y1="-657.29" x2="684.15" y2="180.16"/>
        <line class="cls-2" x1="-138.44" y1="-672.14" x2="699.01" y2="165.3"/>
        <line class="cls-2" x1="-153.17" y1="-657.41" x2="684.28" y2="180.03"/>
        <line class="cls-2" x1="-123.7" y1="-686.87" x2="713.74" y2="150.57"/>
        <line class="cls-2" x1="-108.97" y1="-701.61" x2="728.47" y2="135.84"/>
        <line class="cls-2" x1="-94.24" y1="-716.34" x2="743.2" y2="121.11"/>
        <line class="cls-2" x1="-79.51" y1="-731.07" x2="757.93" y2="106.37"/>
        <line class="cls-2" x1="-64.78" y1="-745.8" x2="772.66" y2="91.64"/>
      </g>
      <g>
        <line class="cls-2" x1="-475.8" y1="-613.09" x2="361.64" y2="224.35"/>
        <line class="cls-2" x1="-466.22" y1="-627.83" x2="371.23" y2="209.62"/>
        <line class="cls-2" x1="-451.49" y1="-642.56" x2="385.96" y2="194.89"/>
        <line class="cls-2" x1="-436.76" y1="-657.29" x2="400.69" y2="180.16"/>
        <line class="cls-2" x1="-421.9" y1="-672.14" x2="415.54" y2="165.3"/>
        <line class="cls-2" x1="-436.63" y1="-657.41" x2="400.81" y2="180.03"/>
        <line class="cls-2" x1="-407.17" y1="-686.87" x2="430.27" y2="150.57"/>
        <line class="cls-2" x1="-392.44" y1="-701.61" x2="445.01" y2="135.84"/>
        <line class="cls-2" x1="-377.71" y1="-716.34" x2="459.74" y2="121.11"/>
        <line class="cls-2" x1="-362.98" y1="-731.07" x2="474.47" y2="106.37"/>
        <line class="cls-2" x1="-348.24" y1="-745.8" x2="489.2" y2="91.64"/>
      </g>
      <g>
        <line class="cls-2" x1="-759.27" y1="-613.09" x2="78.18" y2="224.35"/>
        <line class="cls-2" x1="-749.68" y1="-627.83" x2="87.76" y2="209.62"/>
        <line class="cls-2" x1="-734.95" y1="-642.56" x2="102.49" y2="194.89"/>
        <line class="cls-2" x1="-720.22" y1="-657.29" x2="117.22" y2="180.16"/>
        <line class="cls-2" x1="-705.37" y1="-672.14" x2="132.08" y2="165.3"/>
        <line class="cls-2" x1="-720.1" y1="-657.41" x2="117.35" y2="180.03"/>
        <line class="cls-2" x1="-690.63" y1="-686.87" x2="146.81" y2="150.57"/>
        <line class="cls-2" x1="-675.9" y1="-701.61" x2="161.54" y2="135.84"/>
        <line class="cls-2" x1="-661.17" y1="-716.34" x2="176.27" y2="121.11"/>
        <line class="cls-2" x1="-646.44" y1="-731.07" x2="191" y2="106.37"/>
        <line class="cls-2" x1="-631.71" y1="-745.8" x2="205.74" y2="91.64"/>
      </g>
    </pattern>
  </defs>
  <g id="Group_65" data-name="Group 65">
    <g id="Path_84" data-name="Path 84">
      <path class="cls-3" d="M1253.07,259.28l-206.36,0h-8.49v-8.42l0-174.32V68.09h8.49l190.28,0h16l-94,95.56Z"/>
    </g>
    <g id="Path_84-2" data-name="Path 84">
      <path class="cls-4" d="M1253.07,259.28l-206.36,0h-8.49v-8.42l0-174.32V68.09h8.49l190.28,0h16l-94,95.56Z"/>
    </g>
    <g id="Path_84-3" data-name="Path 84">
      <path class="cls-3" d="M101.84,163.69,7.89,68.13h16l190.28,0h8.49v8.42l0,174.32v8.42h-8.48l-206.36,0Z"/>
    </g>
    <g id="Path_84-4" data-name="Path 84">
      <path class="cls-4" d="M101.84,163.69,7.89,68.13h16l190.28,0h8.49v8.42l0,174.32v8.42h-8.48l-206.36,0Z"/>
    </g>
    <g id="Rectangle_37" data-name="Rectangle 37">
      <rect class="cls-5" x="146.88" y="8.01" width="964.12" height="191.16"/>
    </g>
  </g>
  <g>
    <path class="cls-6" d="M289,144c.55.76.11,1.31-.76,1.31H262.91a3,3,0,0,1-2.29-1.31l-13.55-27.32v27.1a1.59,1.59,0,0,1-1.64,1.53H226.09a1.65,1.65,0,0,1-1.53-1.53V71.57a1.67,1.67,0,0,1,1.53-1.64h19.34a1.62,1.62,0,0,1,1.64,1.64V96.05l13.11-24.81a3.07,3.07,0,0,1,2.52-1.31h23.93c.87,0,1.2.55.76,1.31l-21.63,34.65Z"/>
    <path class="cls-6" d="M314.05,69.93a1.61,1.61,0,0,1,1.64,1.64v72.24a1.59,1.59,0,0,1-1.64,1.53H294.71a1.65,1.65,0,0,1-1.53-1.53V71.57a1.67,1.67,0,0,1,1.53-1.64Z"/>
    <path class="cls-6" d="M375.91,125.67a1.58,1.58,0,0,1,1.64,1.42v16.72a1.67,1.67,0,0,1-1.64,1.53H325.09c-.77,0-1.53-.88-1.75-1.64V71.46a1.39,1.39,0,0,1,1.53-1.53H374.6a1.69,1.69,0,0,1,1.74,1.53V88a1.63,1.63,0,0,1-1.74,1.64H346.07v8.64h23.17a1.31,1.31,0,0,1,1.42,1.42L369.13,115a1.92,1.92,0,0,1-1.86,1.42h-21.2v9.29Z"/>
    <path class="cls-6" d="M389.67,122.39c.33-1.09,1.1-1.42,2-.88,5,2.85,11,4.92,15.19,5.25,3.5,0,5.79-1.64,5.79-4.15,0-6.45-30.71-6.12-30.71-29.95,0-14.64,11-24.37,27.65-24.37,7.76,0,17.6,3.17,24.48,7.87.88.55,1.2,1.42.88,2L428,93.54c-.33,1.09-1.09,1.42-2,.87-5.35-3.06-11.58-5.35-15.41-5.68-3.38,0-5.57,1.53-5.57,3.93,0,6.45,30.93,6,30.93,30.06,0,14.53-11.26,24.26-28.09,24.26-9.18,0-18.79-2.84-24.26-7.22-.87-.65-1.2-1.42-.87-2Z"/>
    <path class="cls-6" d="M483.21,69.93c23.17,0,38.58,15,38.58,37.7,0,22.52-15.41,37.71-38.58,37.71H457.86a1.67,1.67,0,0,1-1.53-1.64V71.57a1.67,1.67,0,0,1,1.53-1.64Zm1.31,55.74c8.42,0,14.1-7.22,14.1-18s-5.68-18-14.1-18h-5.68v36.07Z"/>
    <path class="cls-6" d="M580.25,125.67a1.57,1.57,0,0,1,1.64,1.42v16.72a1.67,1.67,0,0,1-1.64,1.53H529.43c-.76,0-1.52-.88-1.74-1.64V71.46a1.38,1.38,0,0,1,1.53-1.53h49.72a1.7,1.7,0,0,1,1.75,1.53V88a1.64,1.64,0,0,1-1.75,1.64H550.42v8.64h23.17A1.31,1.31,0,0,1,575,99.66L573.48,115a1.93,1.93,0,0,1-1.86,1.42h-21.2v9.29Z"/>
    <path class="cls-6" d="M658.6,69.93a1.43,1.43,0,0,1,1.53,1.53l-1.64,16.61a1.85,1.85,0,0,1-1.75,1.53H640.46v54.21a1.57,1.57,0,0,1-1.53,1.53H619.59a1.67,1.67,0,0,1-1.64-1.53V89.6H599.81a1.56,1.56,0,0,1-1.53-1.53V71.57a1.67,1.67,0,0,1,1.53-1.64Z"/>
    <path class="cls-6" d="M698.49,146.87c-23.28,0-38.8-15.74-38.8-39.24,0-23.71,15.52-39.45,38.8-39.45s38.79,15.74,38.79,39.45C737.28,131.13,721.76,146.87,698.49,146.87Zm0-56.61c-9,0-15,7-15,17.37s6,17.38,15,17.38,15-7,15-17.38S707.45,90.26,698.49,90.26Z"/>
    <path class="cls-6" d="M771.48,69.93c19.13,0,30.6,10.38,30.6,26s-11.47,26-30.6,26H767v21.86a1.69,1.69,0,0,1-1.75,1.53H745.69a1.65,1.65,0,0,1-1.53-1.53V71.57a1.67,1.67,0,0,1,1.53-1.64Zm1,32.46a6.45,6.45,0,0,0,0-12.9h-5.68v12.9Z"/>
    <path class="cls-6" d="M834,69.93c19.12,0,30.6,10.38,30.6,26s-11.48,26-30.6,26h-4.48v21.86a1.7,1.7,0,0,1-1.75,1.53H808.2a1.65,1.65,0,0,1-1.53-1.53V71.57a1.67,1.67,0,0,1,1.53-1.64Zm1,32.46a6.45,6.45,0,0,0,0-12.9h-5.68v12.9Z"/>
    <path class="cls-6" d="M890.05,69.93a1.61,1.61,0,0,1,1.63,1.64v72.24a1.59,1.59,0,0,1-1.63,1.53H870.7a1.65,1.65,0,0,1-1.53-1.53V71.57a1.67,1.67,0,0,1,1.53-1.64Z"/>
    <path class="cls-6" d="M962.28,69.93a1.62,1.62,0,0,1,1.64,1.64v72.24a1.59,1.59,0,0,1-1.64,1.53H943.37a3,3,0,0,1-2.29-1.42l-19-34v33.88a1.59,1.59,0,0,1-1.64,1.53H901.08a1.57,1.57,0,0,1-1.53-1.53V71.57a1.59,1.59,0,0,1,1.53-1.64H920a2.9,2.9,0,0,1,2.51,1.42l18.91,34V71.57a1.67,1.67,0,0,1,1.53-1.64Z"/>
    <path class="cls-6" d="M1036.15,99.11a1.67,1.67,0,0,1,1.64,1.53v34.75a3.63,3.63,0,0,1-1.31,2.63c-6.56,5.57-16.61,8.85-27.1,8.85-23.61,0-39.35-15.74-39.35-39.34s15.74-39.35,39.35-39.35a45.23,45.23,0,0,1,22.95,6.34,1.69,1.69,0,0,1,1,2l-5.46,16.06a1.67,1.67,0,0,1-2.08.88A34.43,34.43,0,0,0,1010,89.6c-10,0-16.83,7.22-16.83,17.93,0,10.92,6.78,18.14,16.83,18.14,4.05,0,6.78-.77,8-2.08v-6.34h-10c-1,0-1.64-.44-1.75-1.2L1004.79,101a1.59,1.59,0,0,1,1.75-1.86ZM1018.67,122v0Z"/>
  </g>
</svg>
