<svg id="Laag_1" data-name="Laag 1" xmlns="http://www.w3.org/2000/svg" xmlns:xlink="http://www.w3.org/1999/xlink" viewBox="0 0 325.07 344.39">
  <defs>
    <style>
      .cls-1, .cls-11, .cls-13, .cls-15, .cls-16, .cls-18, .cls-19, .cls-2, .cls-20, .cls-21, .cls-26, .cls-28, .cls-3, .cls-4, .cls-9 {
        fill: none;
      }

      .cls-1, .cls-11, .cls-4, .cls-9 {
        stroke: #503c21;
      }

      .cls-1, .cls-16, .cls-18, .cls-19, .cls-26, .cls-28 {
        stroke-miterlimit: 10;
      }

      .cls-1, .cls-4, .cls-5 {
        stroke-width: 9px;
      }

      .cls-13, .cls-2 {
        stroke: #bc2e2a;
      }

      .cls-13, .cls-18, .cls-2, .cls-21, .cls-26, .cls-9 {
        stroke-width: 6px;
      }

      .cls-11, .cls-13, .cls-15, .cls-20, .cls-21, .cls-4, .cls-5, .cls-9 {
        stroke-linecap: round;
        stroke-linejoin: round;
      }

      .cls-5 {
        fill: #b4934b;
        stroke: #b4934b;
      }

      .cls-6 {
        fill: #e94933;
      }

      .cls-7 {
        fill: #ae3a32;
      }

      .cls-8 {
        clip-path: url(#clip-path);
      }

      .cls-10 {
        clip-path: url(#clip-path-2);
      }

      .cls-11 {
        stroke-width: 5px;
      }

      .cls-12 {
        clip-path: url(#clip-path-3);
      }

      .cls-14 {
        fill: #ab2524;
      }

      .cls-15, .cls-16 {
        stroke: #ab2524;
      }

      .cls-17 {
        fill: #67bd2a;
      }

      .cls-18, .cls-19, .cls-20 {
        stroke: #45623c;
      }

      .cls-20 {
        stroke-width: 4px;
      }

      .cls-21, .cls-26 {
        stroke: #382818;
      }

      .cls-22 {
        fill: #a57d39;
      }

      .cls-23 {
        clip-path: url(#clip-path-4);
      }

      .cls-24 {
        fill: #875c27;
      }

      .cls-25 {
        fill: #f5d697;
      }

      .cls-27 {
        clip-path: url(#clip-path-5);
      }

      .cls-28 {
        stroke: #f5e5cb;
        stroke-width: 128px;
      }

      .cls-29 {
        clip-path: url(#clip-path-6);
      }
    </style>
    <clipPath id="clip-path">
      <path class="cls-1" d="M-596.86,184.19v27.63a7.55,7.55,0,0,1-.09,1.16,12.19,12.19,0,0,1-1.64,5.25l-13.81,24a13,13,0,0,1-4.68,4.68L-641,260.67a12.53,12.53,0,0,1-6.41,1.73h-27.62a12.89,12.89,0,0,1-6.41-1.73l-23.95-13.81a13,13,0,0,1-4.68-4.68l-13.81-24a12.56,12.56,0,0,1-1.73-6.41V184.19a12.89,12.89,0,0,1,1.73-6.41l13.81-23.94a13,13,0,0,1,4.68-4.68l23.95-13.81a12.35,12.35,0,0,1,5.29-1.67c.35,0,.73-.06,1.12-.06h27.63a11.41,11.41,0,0,1,4.2.77,9.61,9.61,0,0,1,2.21,1l23.94,13.81a12.88,12.88,0,0,1,4.68,4.68l13.82,23.94A12.68,12.68,0,0,1-596.86,184.19Zm-58.62-84.71-.58.32a13,13,0,0,0-4.68,4.68l-13.81,23.94a12.27,12.27,0,0,0-1.64,5.26,12.44,12.44,0,0,0-5.29,1.67l-23.94,13.81a13,13,0,0,0-4.68,4.68l-13.81,23.94a12.9,12.9,0,0,0-1.73,6.42v17.34a9.28,9.28,0,0,1-2.21-1l-23.94-13.81a12.81,12.81,0,0,1-4.68-4.68l-13.82-23.94a12.59,12.59,0,0,1-1.73-6.41V124.1a12.89,12.89,0,0,1,1.73-6.41l13.81-24a13,13,0,0,1,4.68-4.68l23.95-13.81a12.53,12.53,0,0,1,6.41-1.73h27.63a12.59,12.59,0,0,1,6.41,1.73l23.94,13.81a13,13,0,0,1,4.68,4.68Zm108,35.35v27.63a12.89,12.89,0,0,1-1.73,6.41L-563,192.82a13,13,0,0,1-4.68,4.68l-23.95,13.81A12.35,12.35,0,0,1-597,213a6.41,6.41,0,0,0,.1-1.16V184.19a12.59,12.59,0,0,0-1.73-6.41l-13.81-23.94a13,13,0,0,0-4.68-4.68L-641,135.35a9.43,9.43,0,0,0-2.21-1,11.37,11.37,0,0,0-4.2-.77h-27.63c-.39,0-.77,0-1.13.06a12.27,12.27,0,0,1,1.64-5.26l13.81-23.93a12.81,12.81,0,0,1,4.68-4.68l.58-.32L-632.11,86a12.53,12.53,0,0,1,6.41-1.73h27.63A12.59,12.59,0,0,1-591.66,86l23.94,13.82a12.73,12.73,0,0,1,4.68,4.68l13.81,23.94A12.52,12.52,0,0,1-547.5,134.83Z"/>
    </clipPath>
    <clipPath id="clip-path-2">
      <rect id="Rectangle_181" data-name="Rectangle 181" class="cls-1" x="-354.22" y="156.4" width="203.93" height="105.69"/>
    </clipPath>
    <clipPath id="clip-path-3">
      <path id="Path_315" data-name="Path 315" class="cls-2" d="M-252.25,179.08c32.1,0,58.13,13.42,58.13,30s-26,30-58.13,30-58.13-13.41-58.13-30,26-30,58.13-30"/>
    </clipPath>
    <clipPath id="clip-path-4">
      <path id="Path_346" data-name="Path 346" class="cls-1" d="M213.85,130.91c-1.31,12.74-12.73,16.64-21.93,23-31.09,21.55-40.5,30.55-74.66,37.14-37.32,7.2-37.85,3.27-37.85,3.27C80,163.42,110,155.77,139.55,141,162,129.73,178.29,121.34,194.8,122,201.66,122.34,209,127.66,213.85,130.91Z"/>
    </clipPath>
    <clipPath id="clip-path-5">
      <path class="cls-3" d="M251.62,211.81c-1.34,16.11-11.85,34.27-32.76,44.12a84.1,84.1,0,0,1-51.68,5.82q.27,1.08.63,2.13c9.49,15.52,43.33,21.43,69,9.34,23.24-11,31.51-33.79,27.1-49.31a25.86,25.86,0,0,0-2.21-5.36,37.61,37.61,0,0,0-10-12,33.83,33.83,0,0,1-.08,5.23M171,176.56c-30.4,14.38-53.24,30.8-37,60.26a11.57,11.57,0,0,0,1.11,1.73c5.23,7.8,15.83,13.43,28.63,16,.82.2,1.65.36,2.48.48a84.15,84.15,0,0,0,48.83-6.42c18.63-8.78,29-24.11,32-38.72a41.06,41.06,0,0,0,.83-5.75A36.45,36.45,0,0,0,246,189a27,27,0,0,0-1.89-4.22c-8.35-14.93-19.25-20.52-31.95-20.52-12.28,0-26.24,5.23-41.19,12.29M115.07,38.79A85.42,85.42,0,0,0,79.43,193c.59-30.88,30.6-38.52,60.13-53.33,22.45-11.23,38.72-19.62,55.22-18.91,6.89.27,14.22,5.59,19.06,8.86a84.31,84.31,0,0,0-.86-20,85.37,85.37,0,0,0-97.72-70.88l-.2,0"/>
    </clipPath>
    <clipPath id="clip-path-6">
      <path id="Group_226" data-name="Group 226" class="cls-4" d="M213.85,129.66c-4.84-3.27-12.17-8.59-19.06-8.87-16.5-.71-32.77,7.68-55.22,18.91C110,154.51,80,162.15,79.44,193A85.44,85.44,0,1,1,213,109.64,83.36,83.36,0,0,1,213.85,129.66Zm22.93,143.55c-25.64,12.09-59.47,6.19-69-9.33q-.36-1-.63-2.13a84,84,0,0,0,51.68-5.83c20.91-9.84,31.43-28,32.76-44.11a32.73,32.73,0,0,0,.08-5.24,37.78,37.78,0,0,1,10,12,25.75,25.75,0,0,1,2.2,5.35C268.28,239.42,260,262.23,236.78,273.21Zm11.14-69.08a41.06,41.06,0,0,1-.83,5.75c-3,14.62-13.39,29.93-32,38.72A84.17,84.17,0,0,1,166.23,255c-.82-.12-1.65-.28-2.47-.47-12.8-2.56-23.4-8.19-28.64-16a11.51,11.51,0,0,1-1.1-1.73c-16.27-29.46,6.58-45.88,37-60.26s56.72-21.15,73.14,8.23A27.36,27.36,0,0,1,246,189,36.49,36.49,0,0,1,247.92,204.13Z"/>
    </clipPath>
  </defs>
  <g id="Group_108" data-name="Group 108">
    <g id="Rectangle_41" data-name="Rectangle 41">
      <rect class="cls-5" x="5.66" y="30.18" width="313.77" height="309.7" rx="44.82"/>
      <g>
        <rect class="cls-6" x="4.98" y="4.01" width="315.11" height="310.87" rx="41.09"/>
        <path class="cls-7" d="M279,9.51A35.63,35.63,0,0,1,314.59,45.1V273.79A35.63,35.63,0,0,1,279,309.38H46.07a35.62,35.62,0,0,1-35.59-35.59V45.1A35.62,35.62,0,0,1,46.07,9.51H279m0-11H46.07A46.59,46.59,0,0,0-.52,45.1V273.79a46.59,46.59,0,0,0,46.59,46.59H279a46.59,46.59,0,0,0,46.59-46.59V45.1A46.59,46.59,0,0,0,279-1.49Z"/>
      </g>
    </g>
  </g>
  <g id="Group_213" data-name="Group 213">
    <g>
      <g class="cls-8">
        <g>
          <line class="cls-9" x1="-662.77" y1="12.44" x2="33.62" y2="708.83"/>
          <line class="cls-9" x1="-698.93" y1="7.7" x2="-2.54" y2="704.08"/>
          <line class="cls-9" x1="-694.05" y1="43.72" x2="2.34" y2="740.1"/>
          <line class="cls-9" x1="-505.93" y1="-144.4" x2="190.46" y2="551.99"/>
          <line class="cls-9" x1="-542.09" y1="-149.14" x2="154.3" y2="547.24"/>
          <line class="cls-9" x1="-537.21" y1="-113.12" x2="159.18" y2="583.26"/>
          <line class="cls-9" x1="-573.36" y1="-117.86" x2="123.02" y2="578.52"/>
          <line class="cls-9" x1="-568.49" y1="-81.83" x2="127.89" y2="614.55"/>
          <line class="cls-9" x1="-604.65" y1="-86.57" x2="91.73" y2="609.81"/>
          <line class="cls-9" x1="-599.77" y1="-50.55" x2="96.61" y2="645.83"/>
          <line class="cls-9" x1="-677.18" y1="-96.09" x2="19.21" y2="600.3"/>
          <line class="cls-9" x1="-672.3" y1="-60.07" x2="24.08" y2="636.32"/>
          <line class="cls-9" x1="-349.48" y1="-300.84" x2="346.9" y2="395.54"/>
          <line class="cls-9" x1="-313.95" y1="-296.18" x2="382.44" y2="400.2"/>
          <line class="cls-9" x1="-385.64" y1="-305.59" x2="310.74" y2="390.8"/>
          <line class="cls-9" x1="-380.76" y1="-269.56" x2="315.62" y2="426.82"/>
          <line class="cls-9" x1="-416.92" y1="-274.31" x2="279.46" y2="422.08"/>
          <line class="cls-9" x1="-412.05" y1="-238.28" x2="284.33" y2="458.11"/>
          <line class="cls-9" x1="-448.21" y1="-243.02" x2="248.18" y2="453.36"/>
          <line class="cls-9" x1="-443.33" y1="-207" x2="253.05" y2="489.39"/>
          <line class="cls-9" x1="-520.73" y1="-252.53" x2="175.65" y2="443.85"/>
          <line class="cls-9" x1="-515.85" y1="-216.51" x2="180.53" y2="479.87"/>
          <line class="cls-9" x1="-552.01" y1="-221.25" x2="144.37" y2="475.13"/>
        </g>
      </g>
      <path class="cls-1" d="M-596.86,184.19v27.63a7.55,7.55,0,0,1-.09,1.16,12.19,12.19,0,0,1-1.64,5.25l-13.81,24a13,13,0,0,1-4.68,4.68L-641,260.67a12.53,12.53,0,0,1-6.41,1.73h-27.62a12.89,12.89,0,0,1-6.41-1.73l-23.95-13.81a13,13,0,0,1-4.68-4.68l-13.81-24a12.56,12.56,0,0,1-1.73-6.41V184.19a12.89,12.89,0,0,1,1.73-6.41l13.81-23.94a13,13,0,0,1,4.68-4.68l23.95-13.81a12.35,12.35,0,0,1,5.29-1.67c.35,0,.73-.06,1.12-.06h27.63a11.41,11.41,0,0,1,4.2.77,9.61,9.61,0,0,1,2.21,1l23.94,13.81a12.88,12.88,0,0,1,4.68,4.68l13.82,23.94A12.68,12.68,0,0,1-596.86,184.19Zm-58.62-84.71-.58.32a13,13,0,0,0-4.68,4.68l-13.81,23.94a12.27,12.27,0,0,0-1.64,5.26,12.44,12.44,0,0,0-5.29,1.67l-23.94,13.81a13,13,0,0,0-4.68,4.68l-13.81,23.94a12.9,12.9,0,0,0-1.73,6.42v17.34a9.28,9.28,0,0,1-2.21-1l-23.94-13.81a12.81,12.81,0,0,1-4.68-4.68l-13.82-23.94a12.59,12.59,0,0,1-1.73-6.41V124.1a12.89,12.89,0,0,1,1.73-6.41l13.81-24a13,13,0,0,1,4.68-4.68l23.95-13.81a12.53,12.53,0,0,1,6.41-1.73h27.63a12.59,12.59,0,0,1,6.41,1.73l23.94,13.81a13,13,0,0,1,4.68,4.68Zm108,35.35v27.63a12.89,12.89,0,0,1-1.73,6.41L-563,192.82a13,13,0,0,1-4.68,4.68l-23.95,13.81A12.35,12.35,0,0,1-597,213a6.41,6.41,0,0,0,.1-1.16V184.19a12.59,12.59,0,0,0-1.73-6.41l-13.81-23.94a13,13,0,0,0-4.68-4.68L-641,135.35a9.43,9.43,0,0,0-2.21-1,11.37,11.37,0,0,0-4.2-.77h-27.63c-.39,0-.77,0-1.13.06a12.27,12.27,0,0,1,1.64-5.26l13.81-23.93a12.81,12.81,0,0,1,4.68-4.68l.58-.32L-632.11,86a12.53,12.53,0,0,1,6.41-1.73h27.63A12.59,12.59,0,0,1-591.66,86l23.94,13.82a12.73,12.73,0,0,1,4.68,4.68l13.81,23.94A12.52,12.52,0,0,1-547.5,134.83Z"/>
    </g>
  </g>
  <g id="Group_219" data-name="Group 219">
    <g>
      <g class="cls-10">
        <g>
          <line class="cls-11" x1="0.55" y1="-442.59" x2="0.55" y2="480.23"/>
          <line class="cls-11" x1="20.08" y1="-442.59" x2="20.08" y2="480.23"/>
          <line class="cls-11" x1="40.66" y1="-442.59" x2="40.66" y2="480.23"/>
          <line class="cls-11" x1="60.2" y1="-442.59" x2="60.2" y2="480.23"/>
          <line class="cls-11" x1="100.31" y1="-442.59" x2="100.31" y2="480.23"/>
          <line class="cls-11" x1="119.84" y1="-442.59" x2="119.84" y2="480.23"/>
          <line class="cls-11" x1="79.73" y1="-442.59" x2="79.73" y2="480.23"/>
          <line class="cls-11" x1="159.96" y1="-442.59" x2="159.96" y2="480.23"/>
          <line class="cls-11" x1="179.49" y1="-442.59" x2="179.49" y2="480.23"/>
          <line class="cls-11" x1="139.38" y1="-442.59" x2="139.38" y2="480.23"/>
        </g>
      </g>
      <rect id="Rectangle_181-2" data-name="Rectangle 181" class="cls-1" x="-354.22" y="156.4" width="203.93" height="105.69"/>
    </g>
    <g>
      <g class="cls-12">
        <g>
          <line class="cls-13" x1="-547.66" y1="-369.59" x2="148.72" y2="326.8"/>
          <line class="cls-13" x1="-583.82" y1="-374.33" x2="112.56" y2="322.06"/>
          <line class="cls-13" x1="-578.94" y1="-338.31" x2="117.44" y2="358.08"/>
          <line class="cls-13" x1="-615.1" y1="-343.05" x2="81.28" y2="353.33"/>
          <line class="cls-13" x1="-610.23" y1="-307.02" x2="86.15" y2="389.36"/>
          <line class="cls-13" x1="-646.39" y1="-311.76" x2="50" y2="384.62"/>
          <line class="cls-13" x1="-641.51" y1="-275.74" x2="54.88" y2="420.64"/>
          <line class="cls-13" x1="-390.82" y1="-526.43" x2="305.56" y2="169.96"/>
          <line class="cls-13" x1="-426.98" y1="-531.17" x2="269.4" y2="165.22"/>
          <line class="cls-13" x1="-422.1" y1="-495.15" x2="274.28" y2="201.24"/>
          <line class="cls-13" x1="-458.26" y1="-499.89" x2="238.12" y2="196.49"/>
          <line class="cls-13" x1="-453.39" y1="-463.86" x2="242.99" y2="232.52"/>
          <line class="cls-13" x1="-489.55" y1="-468.6" x2="206.84" y2="227.78"/>
          <line class="cls-13" x1="-484.67" y1="-432.58" x2="211.72" y2="263.8"/>
          <line class="cls-13" x1="-562.07" y1="-478.12" x2="134.31" y2="218.27"/>
          <line class="cls-13" x1="-557.19" y1="-442.09" x2="139.19" y2="254.29"/>
          <line class="cls-13" x1="-593.35" y1="-446.84" x2="103.03" y2="249.55"/>
          <line class="cls-13" x1="-234.38" y1="-682.87" x2="462" y2="13.51"/>
          <line class="cls-13" x1="-198.84" y1="-678.21" x2="497.54" y2="18.18"/>
          <line class="cls-13" x1="-270.54" y1="-687.61" x2="425.85" y2="8.77"/>
          <line class="cls-13" x1="-265.66" y1="-651.59" x2="430.73" y2="44.79"/>
          <line class="cls-13" x1="-301.82" y1="-656.33" x2="394.57" y2="40.05"/>
          <line class="cls-13" x1="-296.95" y1="-620.3" x2="399.44" y2="76.08"/>
          <line class="cls-13" x1="-333.1" y1="-625.05" x2="363.28" y2="71.34"/>
          <line class="cls-13" x1="-328.22" y1="-589.02" x2="368.16" y2="107.36"/>
          <line class="cls-13" x1="-405.63" y1="-634.56" x2="290.76" y2="61.82"/>
          <line class="cls-13" x1="-400.75" y1="-598.54" x2="295.63" y2="97.85"/>
          <line class="cls-13" x1="-436.91" y1="-603.28" x2="259.48" y2="93.1"/>
        </g>
      </g>
      <path id="Path_315-2" data-name="Path 315" class="cls-2" d="M-252.25,179.08c32.1,0,58.13,13.42,58.13,30s-26,30-58.13,30-58.13-13.41-58.13-30,26-30,58.13-30"/>
    </g>
  </g>
  <g>
    <g id="Group_222" data-name="Group 222">
      <path id="Path_329" data-name="Path 329" class="cls-14" d="M277.29,117.54c.24,6.34-27,20.76-41,21.27a57.74,57.74,0,0,1-13.51-1c-1.93,11.63-12.88,15.48-21.74,21.59C170,181,160.59,190,126.44,196.55c-37.33,7.21-37.85,3.27-37.85,3.27A85.45,85.45,0,0,1,187,60.08a84.12,84.12,0,0,1,8.95,7.25c5.11-8.27,11-14.81,14.26-14.46,3.94.47,9.37,12,12.4,23.75,11.19-7.92,25.48-14.49,28.47-12,3.39,2.75-2,22.25-9,35.17,14.69,2.52,35,12.24,35.21,17.76"/>
      <path id="Path_330" data-name="Path 330" class="cls-15" d="M277.29,117.54c.24,6.34-27,20.76-41,21.27a57.74,57.74,0,0,1-13.51-1c-1.93,11.63-12.88,15.48-21.74,21.59C170,181,160.59,190,126.44,196.55c-37.33,7.21-37.85,3.27-37.85,3.27A85.45,85.45,0,0,1,187,60.08a84.12,84.12,0,0,1,8.95,7.25c5.11-8.27,11-14.81,14.26-14.46,3.94.47,9.37,12,12.4,23.75,11.19-7.92,25.48-14.49,28.47-12,3.39,2.75-2,22.25-9,35.17C256.77,102.3,277.09,112,277.29,117.54Z"/>
      <path id="Path_331" data-name="Path 331" class="cls-14" d="M177,270.67a7.25,7.25,0,0,1-.47-.75c-.27-.51-.55-1-.79-1.49l.63.11q.27,1.08.63,2.13"/>
      <path id="Path_332" data-name="Path 332" class="cls-16" d="M177,270.67a7.25,7.25,0,0,1-.47-.75c-.27-.51-.55-1-.79-1.49l.63.11Q176.61,269.62,177,270.67Z"/>
      <path id="Path_333" data-name="Path 333" class="cls-14" d="M249.44,287.53c-26,12.33-60.58,6-69.44-10.09a40.31,40.31,0,0,1-3-6.77q-.36-1.05-.63-2.13l-.63-.12c-13.27-2.87-24.1-9-28.79-17.52a46.1,46.1,0,0,1-2.63-5.55,11.32,11.32,0,0,1-1.1-1.74c-16.28-29.46,6.53-45.88,36.94-60.26s56.75-21.15,73.18,8.23a26.14,26.14,0,0,1,1.89,4.22c.63,1,1.26,2,1.85,3.07a31.81,31.81,0,0,1,3.82,14.49,37.75,37.75,0,0,1,10,12,23.43,23.43,0,0,1,2.13,5.24,0,0,0,0,1,0,0c.43.7.9,1.45,1.34,2.24,8.38,15.08,1.18,42.38-24.9,54.67"/>
      <path id="Path_334" data-name="Path 334" class="cls-16" d="M249.44,287.53c-26,12.33-60.58,6-69.44-10.09a40.31,40.31,0,0,1-3-6.77q-.36-1.05-.63-2.13l-.63-.12c-13.27-2.87-24.1-9-28.79-17.52a46.1,46.1,0,0,1-2.63-5.55,11.32,11.32,0,0,1-1.1-1.74c-16.28-29.46,6.53-45.88,36.94-60.26s56.75-21.15,73.18,8.23a26.14,26.14,0,0,1,1.89,4.22c.63,1,1.26,2,1.85,3.07a31.81,31.81,0,0,1,3.82,14.49,37.75,37.75,0,0,1,10,12,23.43,23.43,0,0,1,2.13,5.24,0,0,0,0,1,0,0c.43.7.9,1.45,1.34,2.24C282.73,248,275.51,275.24,249.44,287.53Z"/>
      <path id="Path_335" data-name="Path 335" class="cls-17" d="M227.17,133.29c-24.46.91-36.49-11.63-36.75-18.47s11.25-20.26,35.26-21.16c14-.53,42.2,11.84,42.44,18.34s-27,20.76-41,21.29"/>
      <path id="Path_336" data-name="Path 336" class="cls-18" d="M227.17,133.29c-24.46.91-36.49-11.63-36.75-18.47s11.25-20.26,35.26-21.16c14-.53,42.2,11.84,42.44,18.34S241.13,132.76,227.17,133.29Z"/>
      <line id="Line_1" data-name="Line 1" class="cls-19" x1="195.15" y1="114.56" x2="256.86" y2="113.08"/>
      <line id="Line_2" data-name="Line 2" class="cls-20" x1="195.15" y1="114.56" x2="256.86" y2="113.08"/>
      <line id="Line_3" data-name="Line 3" class="cls-19" x1="223.3" y1="113.88" x2="245.91" y2="120.68"/>
      <line id="Line_4" data-name="Line 4" class="cls-20" x1="223.3" y1="113.88" x2="245.91" y2="120.68"/>
      <line id="Line_5" data-name="Line 5" class="cls-19" x1="212.09" y1="114.15" x2="230.83" y2="103.57"/>
      <line id="Line_6" data-name="Line 6" class="cls-20" x1="212.09" y1="114.15" x2="230.83" y2="103.57"/>
      <line id="Line_7" data-name="Line 7" class="cls-19" x1="205.47" y1="114.95" x2="221.39" y2="122.31"/>
      <line id="Line_8" data-name="Line 8" class="cls-20" x1="205.47" y1="114.95" x2="221.39" y2="122.31"/>
      <path id="Path_337" data-name="Path 337" class="cls-17" d="M228.08,101.75c-15.58,18.87-31.3,20.88-35.72,17.24s-5.14-19.8,10.16-38.34c8.89-10.77,35.2-25,39.4-21.57S237,91,228.08,101.75"/>
      <path id="Path_338" data-name="Path 338" class="cls-18" d="M228.08,101.75c-15.58,18.87-31.3,20.88-35.72,17.24s-5.14-19.8,10.16-38.34c8.89-10.77,35.2-25,39.4-21.57S237,91,228.08,101.75Z"/>
      <line id="Line_9" data-name="Line 9" class="cls-19" x1="195.19" y1="115.24" x2="232.83" y2="67.81"/>
      <line id="Line_10" data-name="Line 10" class="cls-20" x1="195.19" y1="115.24" x2="232.83" y2="67.81"/>
      <line id="Line_11" data-name="Line 11" class="cls-19" x1="212.36" y1="93.61" x2="230.31" y2="80.77"/>
      <line id="Line_12" data-name="Line 12" class="cls-20" x1="212.36" y1="93.61" x2="230.31" y2="80.77"/>
      <line id="Line_13" data-name="Line 13" class="cls-19" x1="205.52" y1="102.22" x2="211.22" y2="81.55"/>
      <line id="Line_14" data-name="Line 14" class="cls-20" x1="205.52" y1="102.22" x2="211.22" y2="81.55"/>
      <line id="Line_15" data-name="Line 15" class="cls-19" x1="201.84" y1="107.71" x2="215.94" y2="100.25"/>
      <line id="Line_16" data-name="Line 16" class="cls-20" x1="201.84" y1="107.71" x2="215.94" y2="100.25"/>
      <path id="Path_339" data-name="Path 339" class="cls-17" d="M215.5,89.17c-2.66,23.24-16.44,32.78-23.05,32s-17.82-13.59-15.2-36.42c1.52-13.27,17.48-38.14,23.76-37.43s16,28.54,14.49,41.82"/>
      <path id="Path_340" data-name="Path 340" class="cls-18" d="M215.5,89.17c-2.66,23.24-16.44,32.78-23.05,32s-17.82-13.59-15.2-36.42c1.52-13.27,17.48-38.14,23.76-37.43S217,75.89,215.5,89.17Z"/>
      <line id="Line_17" data-name="Line 17" class="cls-19" x1="192.45" y1="121.2" x2="198.81" y2="60.22"/>
      <line id="Line_18" data-name="Line 18" class="cls-20" x1="192.45" y1="121.2" x2="198.81" y2="60.22"/>
      <line id="Line_19" data-name="Line 19" class="cls-19" x1="195.35" y1="93.39" x2="190.74" y2="70.78"/>
      <line id="Line_20" data-name="Line 20" class="cls-20" x1="195.35" y1="93.39" x2="190.74" y2="70.78"/>
      <line id="Line_21" data-name="Line 21" class="cls-19" x1="194.2" y1="104.46" x2="205.7" y2="86.3"/>
      <line id="Line_22" data-name="Line 22" class="cls-20" x1="194.2" y1="104.46" x2="205.7" y2="86.3"/>
      <line id="Line_23" data-name="Line 23" class="cls-19" x1="192.92" y1="110.98" x2="187.24" y2="94.97"/>
      <line id="Line_24" data-name="Line 24" class="cls-20" x1="192.92" y1="110.98" x2="187.24" y2="94.97"/>
      <path id="Path_343" data-name="Path 343" class="cls-21" d="M213,110.91a85.29,85.29,0,0,1,.85,20c-4.83-3.25-12.19-8.57-19-8.87-16.51-.7-32.79,7.69-55.25,18.91C110,155.77,80,163.42,79.41,194.31A85.46,85.46,0,1,1,213,110.91Z"/>
      <path id="Path_344" data-name="Path 344" class="cls-22" d="M213.85,130.91c-1.31,12.74-12.73,16.64-21.93,23-31.09,21.55-40.5,30.55-74.66,37.14-37.32,7.2-37.85,3.27-37.85,3.27C80,163.42,110,155.77,139.55,141,162,129.73,178.29,121.34,194.8,122c6.86.29,14.22,5.62,19,8.87"/>
      <g>
        <g class="cls-23">
          <g>
            <line class="cls-9" x1="-67.4" y1="-90.54" x2="628.98" y2="605.84"/>
            <line class="cls-9" x1="-103.56" y1="-95.28" x2="592.83" y2="601.1"/>
            <line class="cls-9" x1="-98.68" y1="-59.26" x2="597.7" y2="637.12"/>
            <line class="cls-9" x1="-134.84" y1="-64" x2="561.55" y2="632.38"/>
            <line class="cls-9" x1="-129.97" y1="-27.97" x2="566.42" y2="668.41"/>
            <line class="cls-9" x1="-166.12" y1="-32.72" x2="530.26" y2="663.67"/>
            <line class="cls-9" x1="-161.25" y1="3.31" x2="535.14" y2="699.69"/>
            <line class="cls-9" x1="-238.65" y1="-42.23" x2="457.73" y2="654.15"/>
            <line class="cls-9" x1="-233.77" y1="-6.21" x2="462.61" y2="690.18"/>
            <line class="cls-9" x1="-269.93" y1="-10.95" x2="426.45" y2="685.43"/>
            <line class="cls-9" x1="89.04" y1="-246.98" x2="785.43" y2="449.4"/>
            <line class="cls-9" x1="52.89" y1="-251.73" x2="749.27" y2="444.66"/>
            <line class="cls-9" x1="57.76" y1="-215.71" x2="754.15" y2="480.68"/>
            <line class="cls-9" x1="21.61" y1="-220.45" x2="717.99" y2="475.94"/>
            <line class="cls-9" x1="26.48" y1="-184.42" x2="722.86" y2="511.97"/>
            <line class="cls-9" x1="-9.68" y1="-189.16" x2="686.7" y2="507.22"/>
            <line class="cls-9" x1="-4.8" y1="-153.14" x2="691.58" y2="543.24"/>
            <line class="cls-9" x1="-82.21" y1="-198.67" x2="614.18" y2="497.71"/>
            <line class="cls-9" x1="-77.33" y1="-162.65" x2="619.06" y2="533.73"/>
            <line class="cls-9" x1="-113.48" y1="-167.4" x2="582.9" y2="528.99"/>
            <line class="cls-9" x1="245.88" y1="-403.82" x2="942.27" y2="292.56"/>
            <line class="cls-9" x1="209.73" y1="-408.57" x2="906.11" y2="287.82"/>
            <line class="cls-9" x1="214.6" y1="-372.54" x2="910.99" y2="323.84"/>
            <line class="cls-9" x1="178.45" y1="-377.29" x2="874.83" y2="319.1"/>
            <line class="cls-9" x1="183.32" y1="-341.26" x2="879.7" y2="355.13"/>
            <line class="cls-9" x1="147.16" y1="-346" x2="843.54" y2="350.38"/>
            <line class="cls-9" x1="152.04" y1="-309.98" x2="848.42" y2="386.41"/>
            <line class="cls-9" x1="74.63" y1="-355.51" x2="771.02" y2="340.87"/>
            <line class="cls-9" x1="79.51" y1="-319.49" x2="775.9" y2="376.89"/>
            <line class="cls-9" x1="43.36" y1="-324.24" x2="739.74" y2="372.15"/>
            <line class="cls-9" x1="303.6" y1="-502.45" x2="999.99" y2="193.94"/>
            <line class="cls-9" x1="308.48" y1="-466.42" x2="1004.87" y2="229.96"/>
            <line class="cls-9" x1="231.08" y1="-511.96" x2="927.46" y2="184.42"/>
            <line class="cls-9" x1="235.96" y1="-475.94" x2="932.34" y2="220.45"/>
            <line class="cls-9" x1="199.8" y1="-480.68" x2="896.18" y2="215.7"/>
          </g>
        </g>
        <path id="Path_346-2" data-name="Path 346" class="cls-1" d="M213.85,130.91c-1.31,12.74-12.73,16.64-21.93,23-31.09,21.55-40.5,30.55-74.66,37.14-37.32,7.2-37.85,3.27-37.85,3.27C80,163.42,110,155.77,139.55,141,162,129.73,178.29,121.34,194.8,122,201.66,122.34,209,127.66,213.85,130.91Z"/>
      </g>
      <path id="Path_347" data-name="Path 347" class="cls-24" d="M265.16,227.36c8.42,15.07,1.17,42.35-24.87,54.66s-60.58,6-69.45-10.09c-13.91-25.23,5.62-39.32,31.67-51.62s48.6-18.11,62.65,7.05"/>
      <path id="Path_348" data-name="Path 348" class="cls-1" d="M269.3,229.06c8.42,15.07,1.17,42.36-24.87,54.66s-60.57,6-69.45-10.08c-13.91-25.23,5.63-39.32,31.67-51.63S255.26,203.91,269.3,229.06Z"/>
      <path id="Path_350" data-name="Path 350" class="cls-25" d="M261.65,219.81c8.42,15.07,1.17,42.35-24.87,54.66s-60.58,6-69.45-10.09C153.42,239.15,173,225.06,199,212.76s48.6-18.11,62.65,7.05"/>
      <path id="Path_352" data-name="Path 352" class="cls-26" d="M261.65,217.87c8.42,15.08,1.17,42.36-24.87,54.67s-60.58,6-69.45-10.09C153.42,237.22,173,223.13,199,210.82S247.6,192.72,261.65,217.87Z"/>
      <path id="Path_353" data-name="Path 353" class="cls-24" d="M247.88,193.34c9.84,17.6,1.38,49.46-29,63.83s-70.72,7-81.08-11.78c-16.25-29.45,6.56-45.9,37-60.28s56.75-21.13,73.14,8.24"/>
      <path id="Path_354" data-name="Path 354" class="cls-1" d="M247.88,193.34c9.84,17.6,1.38,49.46-29,63.83s-70.72,7-81.08-11.78c-16.25-29.45,6.56-45.9,37-60.28S231.49,164,247.88,193.34Z"/>
      <path id="Path_356" data-name="Path 356" class="cls-25" d="M244.12,186.05c9.83,17.6,1.37,49.46-29,63.83s-70.72,7-81.08-11.78c-16.24-29.45,6.57-45.9,37-60.28s56.74-21.13,73.14,8.24"/>
      <path id="Path_359" data-name="Path 359" class="cls-25" d="M213.85,129.66c-4.84-3.27-12.17-8.59-19.06-8.87-16.5-.71-32.77,7.68-55.22,18.91C110,154.51,80,162.15,79.44,193A85.44,85.44,0,1,1,213,109.65a83.71,83.71,0,0,1,.87,20m50,94.25a25.75,25.75,0,0,0-2.2-5.35,37.78,37.78,0,0,0-10-12,32.73,32.73,0,0,1-.08,5.24c-1.34,16.11-11.85,34.27-32.76,44.11a84,84,0,0,1-51.68,5.83q.27,1.08.63,2.13c9.49,15.52,43.33,21.43,69,9.33,23.24-11,31.51-33.78,27.1-49.31M246,189a27,27,0,0,0-1.89-4.22c-16.43-29.38-42.74-22.6-73.14-8.23s-53.25,30.8-37,60.26a10.77,10.77,0,0,0,1.1,1.73c5.24,7.8,15.83,13.43,28.63,16a24,24,0,0,0,2.48.47,84.18,84.18,0,0,0,48.84-6.42c18.63-8.78,29-24.1,32-38.72a42.57,42.57,0,0,0,.82-5.75A36.45,36.45,0,0,0,246,189"/>
    </g>
    <g id="Group_225" data-name="Group 225">
      <g class="cls-27">
        <g id="Group_224" data-name="Group 224">
          <rect id="Rectangle_191" data-name="Rectangle 191" class="cls-28" x="-102.68" y="-86.27" width="311.57" height="304.79"/>
        </g>
      </g>
    </g>
    <g>
      <g class="cls-29">
        <g>
          <line class="cls-11" x1="5.51" y1="-270.34" x2="5.51" y2="652.48"/>
          <line class="cls-11" x1="25.04" y1="-270.34" x2="25.04" y2="652.48"/>
          <line class="cls-11" x1="65.16" y1="-270.34" x2="65.16" y2="652.48"/>
          <line class="cls-11" x1="84.69" y1="-270.34" x2="84.69" y2="652.48"/>
          <line class="cls-11" x1="44.58" y1="-270.34" x2="44.58" y2="652.48"/>
          <line class="cls-11" x1="124.8" y1="-270.34" x2="124.8" y2="652.48"/>
          <line class="cls-11" x1="144.34" y1="-270.34" x2="144.34" y2="652.48"/>
          <line class="cls-11" x1="104.23" y1="-270.34" x2="104.23" y2="652.48"/>
          <line class="cls-11" x1="164.92" y1="-270.34" x2="164.92" y2="652.48"/>
          <line class="cls-11" x1="184.45" y1="-270.34" x2="184.45" y2="652.48"/>
          <line class="cls-11" x1="224.56" y1="-270.34" x2="224.56" y2="652.48"/>
          <line class="cls-11" x1="244.1" y1="-270.34" x2="244.1" y2="652.48"/>
          <line class="cls-11" x1="203.99" y1="-270.34" x2="203.99" y2="652.48"/>
          <line class="cls-11" x1="284.21" y1="-270.34" x2="284.21" y2="652.48"/>
          <line class="cls-11" x1="303.75" y1="-270.34" x2="303.75" y2="652.48"/>
          <line class="cls-11" x1="263.63" y1="-270.34" x2="263.63" y2="652.48"/>
          <line class="cls-11" x1="324.32" y1="-270.34" x2="324.32" y2="652.48"/>
        </g>
      </g>
      <path id="Group_226-2" data-name="Group 226" class="cls-4" d="M213.85,129.66c-4.84-3.27-12.17-8.59-19.06-8.87-16.5-.71-32.77,7.68-55.22,18.91C110,154.51,80,162.15,79.44,193A85.44,85.44,0,1,1,213,109.64,83.36,83.36,0,0,1,213.85,129.66Zm22.93,143.55c-25.64,12.09-59.47,6.19-69-9.33q-.36-1-.63-2.13a84,84,0,0,0,51.68-5.83c20.91-9.84,31.43-28,32.76-44.11a32.73,32.73,0,0,0,.08-5.24,37.78,37.78,0,0,1,10,12,25.75,25.75,0,0,1,2.2,5.35C268.28,239.42,260,262.23,236.78,273.21Zm11.14-69.08a41.06,41.06,0,0,1-.83,5.75c-3,14.62-13.39,29.93-32,38.72A84.17,84.17,0,0,1,166.23,255c-.82-.12-1.65-.28-2.47-.47-12.8-2.56-23.4-8.19-28.64-16a11.51,11.51,0,0,1-1.1-1.73c-16.27-29.46,6.58-45.88,37-60.26s56.72-21.15,73.14,8.23A27.36,27.36,0,0,1,246,189,36.49,36.49,0,0,1,247.92,204.13Z"/>
    </g>
  </g>
</svg>
