<svg id="Laag_1" data-name="Laag 1" xmlns="http://www.w3.org/2000/svg" xmlns:xlink="http://www.w3.org/1999/xlink" viewBox="0 0 523.5 516.09">
  <defs>
    <style>
      .cls-1, .cls-10, .cls-2, .cls-5, .cls-9 {
        fill: none;
      }

      .cls-10, .cls-2, .cls-7, .cls-9 {
        stroke: #503c21;
      }

      .cls-2, .cls-5, .cls-7 {
        stroke-miterlimit: 10;
      }

      .cls-2, .cls-7 {
        stroke-width: 10px;
      }

      .cls-3 {
        fill: #f2dda6;
      }

      .cls-4 {
        clip-path: url(#clip-path);
      }

      .cls-5 {
        stroke: #9b7334;
        stroke-width: 180px;
      }

      .cls-10, .cls-5, .cls-9 {
        stroke-linecap: round;
      }

      .cls-6 {
        clip-path: url(#clip-path-2);
      }

      .cls-7 {
        fill: #9b7334;
      }

      .cls-8 {
        clip-path: url(#clip-path-3);
      }

      .cls-10, .cls-9 {
        stroke-linejoin: round;
      }

      .cls-9 {
        stroke-width: 6px;
      }

      .cls-10 {
        stroke-width: 9px;
      }

      .cls-11 {
        opacity: 0.5;
      }

      .cls-12 {
        clip-path: url(#clip-path-4);
      }

      .cls-13 {
        fill: #503c21;
      }

      .cls-14 {
        clip-path: url(#clip-path-5);
      }

      .cls-15 {
        clip-path: url(#clip-path-6);
      }
    </style>
    <clipPath id="clip-path">
      <path class="cls-1" d="M87.59,6.27c-.59,0-1.17.05-1.72.1a19.09,19.09,0,0,0-8.08,2.54L41.2,30a19.74,19.74,0,0,0-7.14,7.15L13,73.76a19.66,19.66,0,0,0-2.64,9.79v42.22a19.29,19.29,0,0,0,2.64,9.8l21.11,36.58a19.66,19.66,0,0,0,7.14,7.15l36.59,21.11a19.8,19.8,0,0,0,9.79,2.65H129.8a19.2,19.2,0,0,0,9.8-2.65l36.58-21.11a19.58,19.58,0,0,0,7.14-7.15l21.11-36.58a18.69,18.69,0,0,0,2.5-8,11.73,11.73,0,0,0,.14-1.77V83.56a19.16,19.16,0,0,0-2.64-9.8L183.34,37.17A19.58,19.58,0,0,0,176.2,30L139.62,8.91a14.92,14.92,0,0,0-3.38-1.47,18,18,0,0,0-6.42-1.18Z"/>
    </clipPath>
    <clipPath id="clip-path-2">
      <path class="cls-1" d="M399.14,311.78c-.59,0-1.18.05-1.73.1a19.09,19.09,0,0,0-8.08,2.54l-36.59,21.11a19.63,19.63,0,0,0-7.13,7.15L324.5,379.27a19.8,19.8,0,0,0-2.65,9.79v42.22a19.2,19.2,0,0,0,2.65,9.8l21.11,36.58a19.56,19.56,0,0,0,7.13,7.15l36.59,21.11a19.73,19.73,0,0,0,9.8,2.65h42.21a19.17,19.17,0,0,0,9.8-2.65l36.58-21.11a19.51,19.51,0,0,0,7.14-7.15L516,441.08a18.56,18.56,0,0,0,2.5-8,10.57,10.57,0,0,0,.15-1.77V389.07a19.27,19.27,0,0,0-2.65-9.8l-21.09-36.59a19.63,19.63,0,0,0-7.13-7.15l-36.59-21.1a14.52,14.52,0,0,0-3.38-1.48,18,18,0,0,0-6.41-1.18Z"/>
    </clipPath>
    <clipPath id="clip-path-3">
      <path class="cls-2" d="M205.27,83.56v42.22a10.37,10.37,0,0,1-.15,1.76,18.56,18.56,0,0,1-2.5,8l-21.11,36.59a19.56,19.56,0,0,1-7.15,7.13L137.78,200.4a19.21,19.21,0,0,1-9.8,2.66H85.76a19.72,19.72,0,0,1-9.8-2.64L39.37,179.31a19.58,19.58,0,0,1-7.15-7.14L11.11,135.58a19.14,19.14,0,0,1-2.65-9.79V83.56a19.63,19.63,0,0,1,2.65-9.8L32.22,37.17A19.61,19.61,0,0,1,39.37,30L76,8.91A19.09,19.09,0,0,1,84,6.37c.54,0,1.13-.1,1.73-.1H128a17.75,17.75,0,0,1,6.41,1.17,14.76,14.76,0,0,1,3.38,1.48L174.36,30a19.61,19.61,0,0,1,7.15,7.15l21.11,36.59A19.24,19.24,0,0,1,205.27,83.56ZM516.81,389.07v42.22a10.37,10.37,0,0,1-.15,1.76,18.56,18.56,0,0,1-2.5,8l-21.1,36.59a19.74,19.74,0,0,1-7.15,7.14l-36.59,21.1a19.29,19.29,0,0,1-9.8,2.67H397.3a19.84,19.84,0,0,1-9.8-2.65l-36.59-21.11a19.58,19.58,0,0,1-7.15-7.14L322.65,441.1a19.3,19.3,0,0,1-2.65-9.8V389.07a19.73,19.73,0,0,1,2.65-9.8l21.11-36.59a19.69,19.69,0,0,1,7.15-7.15l36.59-21.1a18.92,18.92,0,0,1,8.08-2.55c.54-.05,1.12-.1,1.72-.1h42.22a18.06,18.06,0,0,1,6.42,1.17,15,15,0,0,1,3.38,1.48l36.58,21.11a19.61,19.61,0,0,1,7.15,7.15l21.11,36.59A19.24,19.24,0,0,1,516.81,389.07ZM440.56,128.48v29.34a7.29,7.29,0,0,1-.1,1.23,12.8,12.8,0,0,1-1.74,5.58l-14.65,25.42a13.69,13.69,0,0,1-5,5l-25.42,14.66a13.24,13.24,0,0,1-6.81,1.84H357.53a13.69,13.69,0,0,1-6.81-1.84L325.3,195a13.77,13.77,0,0,1-5-5l-14.67-25.42a13.49,13.49,0,0,1-1.84-6.81V128.48a13.76,13.76,0,0,1,1.84-6.8l14.67-25.42a13.61,13.61,0,0,1,5-5l25.42-14.67a13.33,13.33,0,0,1,5.62-1.77c.37,0,.78-.07,1.19-.07h29.33a12.54,12.54,0,0,1,4.46.82,10.2,10.2,0,0,1,2.35,1l25.42,14.67a13.54,13.54,0,0,1,5,5l14.67,25.42A13.32,13.32,0,0,1,440.56,128.48Z"/>
    </clipPath>
    <clipPath id="clip-path-4">
      <rect class="cls-1" x="334.41" y="441.62" width="12.34" height="0.05"/>
    </clipPath>
    <clipPath id="clip-path-5">
      <rect class="cls-1" x="22.87" y="136.11" width="12.34" height="0.05"/>
    </clipPath>
    <clipPath id="clip-path-6">
      <rect class="cls-1" x="47.91" y="363.08" width="8.58" height="0.03"/>
    </clipPath>
  </defs>
  <g id="gehaktballen">
    <g id="Group_239" data-name="Group 239">
      <g id="Group_240" data-name="Group 240">
        <g id="Group_230" data-name="Group 230">
          <g id="Group_242" data-name="Group 242">
            <path id="Path_364" data-name="Path 364" class="cls-3" d="M207.11,83.56v42.22a10.37,10.37,0,0,1-.15,1.76,18.56,18.56,0,0,1-2.5,8l-21.12,36.59a19.58,19.58,0,0,1-7.15,7.14l-36.58,21.11a19.29,19.29,0,0,1-9.8,2.64H87.6a19.72,19.72,0,0,1-9.8-2.64L41.21,179.3a19.71,19.71,0,0,1-7.14-7.14L13,135.57a19.25,19.25,0,0,1-2.64-9.79V83.56A19.72,19.72,0,0,1,13,73.76L34.07,37.17A19.74,19.74,0,0,1,41.21,30L77.8,8.91a19.09,19.09,0,0,1,8.08-2.54c.54,0,1.12-.1,1.72-.1h42.22a17.84,17.84,0,0,1,6.42,1.17,15,15,0,0,1,3.38,1.48L176.2,30a19.54,19.54,0,0,1,7.15,7.15l21.11,36.59a19.16,19.16,0,0,1,2.65,9.79"/>
          </g>
        </g>
        <g id="Group_232" data-name="Group 232">
          <g class="cls-4">
            <g id="Group_231" data-name="Group 231">
              <rect id="Rectangle_197" data-name="Rectangle 197" class="cls-5" x="-733.49" y="-125.47" width="840.36" height="321.13"/>
            </g>
          </g>
        </g>
      </g>
    </g>
    <g id="Group_243" data-name="Group 243">
      <g id="Group_240-2" data-name="Group 240-2">
        <g id="Group_230-2" data-name="Group 230-2">
          <g id="Group_242-2" data-name="Group 242-2">
            <path id="Path_364-2" data-name="Path 364-2" class="cls-3" d="M518.65,389.07v42.22a10.37,10.37,0,0,1-.15,1.76,18.56,18.56,0,0,1-2.5,8l-21.11,36.59a19.74,19.74,0,0,1-7.15,7.14l-36.59,21.11a19.26,19.26,0,0,1-9.8,2.64H399.14a19.72,19.72,0,0,1-9.8-2.64l-36.59-21.11a19.61,19.61,0,0,1-7.13-7.14l-21.11-36.59a19.16,19.16,0,0,1-2.65-9.79V389.07a19.73,19.73,0,0,1,2.65-9.8l21.11-36.59a19.63,19.63,0,0,1,7.13-7.15l36.59-21.1a19,19,0,0,1,8.08-2.55c.54-.05,1.13-.1,1.73-.1h42.21a18,18,0,0,1,6.42,1.17,15,15,0,0,1,3.38,1.48l36.59,21.11a19.69,19.69,0,0,1,7.15,7.15L516,379.28a19.25,19.25,0,0,1,2.64,9.79"/>
          </g>
        </g>
        <g id="Group_232-2" data-name="Group 232-2">
          <g class="cls-6">
            <g id="Group_231-2" data-name="Group 231-2">
              <rect id="Rectangle_197-2" data-name="Rectangle 197-2" class="cls-5" x="-421.94" y="180.04" width="840.36" height="321.13"/>
            </g>
          </g>
        </g>
      </g>
    </g>
    <g id="Group_240-3" data-name="Group 240-3">
      <g id="Group_237-3" data-name="Group 237-3">
        <g id="Group_241-3" data-name="Group 241-3">
          <path class="cls-7" d="M205.27,83.56v42.22a10.37,10.37,0,0,1-.15,1.76,18.56,18.56,0,0,1-2.5,8l-21.11,36.59a19.56,19.56,0,0,1-7.15,7.13L137.78,200.4a19.21,19.21,0,0,1-9.8,2.66H85.76a19.72,19.72,0,0,1-9.8-2.64L39.37,179.31a19.58,19.58,0,0,1-7.15-7.14L11.11,135.58a19.14,19.14,0,0,1-2.65-9.79V83.56a19.63,19.63,0,0,1,2.65-9.8L32.22,37.17A19.61,19.61,0,0,1,39.37,30L76,8.91A19.09,19.09,0,0,1,84,6.37c.54,0,1.13-.1,1.73-.1H128a17.75,17.75,0,0,1,6.41,1.17,14.76,14.76,0,0,1,3.38,1.48L174.36,30a19.61,19.61,0,0,1,7.15,7.15l21.11,36.59A19.24,19.24,0,0,1,205.27,83.56ZM516.81,389.07v42.22a10.37,10.37,0,0,1-.15,1.76,18.56,18.56,0,0,1-2.5,8l-21.1,36.59a19.74,19.74,0,0,1-7.15,7.14l-36.59,21.1a19.29,19.29,0,0,1-9.8,2.67H397.3a19.84,19.84,0,0,1-9.8-2.65l-36.59-21.11a19.58,19.58,0,0,1-7.15-7.14L322.65,441.1a19.3,19.3,0,0,1-2.65-9.8V389.07a19.73,19.73,0,0,1,2.65-9.8l21.11-36.59a19.69,19.69,0,0,1,7.15-7.15l36.59-21.1a18.92,18.92,0,0,1,8.08-2.55c.54-.05,1.12-.1,1.72-.1h42.22a18.06,18.06,0,0,1,6.42,1.17,15,15,0,0,1,3.38,1.48l36.58,21.11a19.61,19.61,0,0,1,7.15,7.15l21.11,36.59A19.24,19.24,0,0,1,516.81,389.07ZM440.56,128.48v29.34a7.29,7.29,0,0,1-.1,1.23,12.8,12.8,0,0,1-1.74,5.58l-14.65,25.42a13.69,13.69,0,0,1-5,5l-25.42,14.66a13.24,13.24,0,0,1-6.81,1.84H357.53a13.69,13.69,0,0,1-6.81-1.84L325.3,195a13.77,13.77,0,0,1-5-5l-14.67-25.42a13.49,13.49,0,0,1-1.84-6.81V128.48a13.76,13.76,0,0,1,1.84-6.8l14.67-25.42a13.61,13.61,0,0,1,5-5l25.42-14.67a13.33,13.33,0,0,1,5.62-1.77c.37,0,.78-.07,1.19-.07h29.33a12.54,12.54,0,0,1,4.46.82,10.2,10.2,0,0,1,2.35,1l25.42,14.67a13.54,13.54,0,0,1,5,5l14.67,25.42A13.32,13.32,0,0,1,440.56,128.48Z"/>
          <g>
            <g class="cls-8">
              <g>
                <line class="cls-9" x1="-203.93" y1="-7.97" x2="492.45" y2="688.41"/>
                <line class="cls-9" x1="-240.09" y1="-12.72" x2="456.3" y2="683.67"/>
                <line class="cls-9" x1="-235.21" y1="23.3" x2="461.17" y2="719.69"/>
                <line class="cls-9" x1="-271.37" y1="18.56" x2="425.02" y2="714.95"/>
                <line class="cls-9" x1="-266.5" y1="54.59" x2="429.89" y2="750.98"/>
                <line class="cls-9" x1="-302.65" y1="49.85" x2="393.73" y2="746.23"/>
                <line class="cls-9" x1="-297.78" y1="85.87" x2="398.61" y2="782.25"/>
                <line class="cls-9" x1="-375.18" y1="40.33" x2="321.2" y2="736.72"/>
                <line class="cls-9" x1="-370.3" y1="76.36" x2="326.08" y2="772.74"/>
                <line class="cls-9" x1="-406.46" y1="71.61" x2="289.93" y2="768"/>
                <line class="cls-9" x1="-47.49" y1="-164.42" x2="648.9" y2="531.96"/>
                <line class="cls-9" x1="-83.64" y1="-169.16" x2="612.74" y2="527.22"/>
                <line class="cls-9" x1="-78.76" y1="-133.14" x2="617.62" y2="563.24"/>
                <line class="cls-9" x1="-114.92" y1="-137.88" x2="581.46" y2="558.5"/>
                <line class="cls-9" x1="-110.05" y1="-101.85" x2="586.33" y2="594.53"/>
                <line class="cls-9" x1="-146.21" y1="-106.6" x2="550.18" y2="589.79"/>
                <line class="cls-9" x1="-141.33" y1="-70.57" x2="555.05" y2="625.81"/>
                <line class="cls-9" x1="-218.73" y1="-116.11" x2="477.65" y2="580.27"/>
                <line class="cls-9" x1="-213.86" y1="-80.09" x2="482.53" y2="616.3"/>
                <line class="cls-9" x1="-250.01" y1="-84.83" x2="446.37" y2="611.55"/>
                <line class="cls-9" x1="109.35" y1="-321.26" x2="805.74" y2="375.12"/>
                <line class="cls-9" x1="73.2" y1="-326" x2="769.58" y2="370.38"/>
                <line class="cls-9" x1="78.08" y1="-289.98" x2="774.46" y2="406.4"/>
                <line class="cls-9" x1="41.92" y1="-294.72" x2="738.3" y2="401.66"/>
                <line class="cls-9" x1="46.79" y1="-258.69" x2="743.17" y2="437.69"/>
                <line class="cls-9" x1="10.63" y1="-263.44" x2="707.01" y2="432.95"/>
                <line class="cls-9" x1="15.51" y1="-227.41" x2="711.89" y2="468.97"/>
                <line class="cls-9" x1="-61.89" y1="-272.95" x2="634.49" y2="423.43"/>
                <line class="cls-9" x1="-57.02" y1="-236.93" x2="639.37" y2="459.46"/>
                <line class="cls-9" x1="-93.17" y1="-241.67" x2="603.21" y2="454.71"/>
                <line class="cls-9" x1="265.8" y1="-477.7" x2="962.18" y2="218.68"/>
                <line class="cls-9" x1="301.33" y1="-473.04" x2="997.72" y2="223.34"/>
                <line class="cls-9" x1="229.64" y1="-482.45" x2="926.03" y2="213.94"/>
                <line class="cls-9" x1="234.52" y1="-446.42" x2="930.9" y2="249.96"/>
                <line class="cls-9" x1="198.36" y1="-451.17" x2="894.75" y2="245.22"/>
                <line class="cls-9" x1="203.23" y1="-415.14" x2="899.62" y2="281.25"/>
                <line class="cls-9" x1="167.08" y1="-419.88" x2="863.46" y2="276.5"/>
                <line class="cls-9" x1="171.95" y1="-383.86" x2="868.34" y2="312.53"/>
                <line class="cls-9" x1="94.55" y1="-429.39" x2="790.93" y2="266.99"/>
                <line class="cls-9" x1="99.43" y1="-393.37" x2="795.81" y2="303.01"/>
                <line class="cls-9" x1="63.27" y1="-398.12" x2="759.65" y2="298.27"/>
              </g>
            </g>
            <path class="cls-2" d="M205.27,83.56v42.22a10.37,10.37,0,0,1-.15,1.76,18.56,18.56,0,0,1-2.5,8l-21.11,36.59a19.56,19.56,0,0,1-7.15,7.13L137.78,200.4a19.21,19.21,0,0,1-9.8,2.66H85.76a19.72,19.72,0,0,1-9.8-2.64L39.37,179.31a19.58,19.58,0,0,1-7.15-7.14L11.11,135.58a19.14,19.14,0,0,1-2.65-9.79V83.56a19.63,19.63,0,0,1,2.65-9.8L32.22,37.17A19.61,19.61,0,0,1,39.37,30L76,8.91A19.09,19.09,0,0,1,84,6.37c.54,0,1.13-.1,1.73-.1H128a17.75,17.75,0,0,1,6.41,1.17,14.76,14.76,0,0,1,3.38,1.48L174.36,30a19.61,19.61,0,0,1,7.15,7.15l21.11,36.59A19.24,19.24,0,0,1,205.27,83.56ZM516.81,389.07v42.22a10.37,10.37,0,0,1-.15,1.76,18.56,18.56,0,0,1-2.5,8l-21.1,36.59a19.74,19.74,0,0,1-7.15,7.14l-36.59,21.1a19.29,19.29,0,0,1-9.8,2.67H397.3a19.84,19.84,0,0,1-9.8-2.65l-36.59-21.11a19.58,19.58,0,0,1-7.15-7.14L322.65,441.1a19.3,19.3,0,0,1-2.65-9.8V389.07a19.73,19.73,0,0,1,2.65-9.8l21.11-36.59a19.69,19.69,0,0,1,7.15-7.15l36.59-21.1a18.92,18.92,0,0,1,8.08-2.55c.54-.05,1.12-.1,1.72-.1h42.22a18.06,18.06,0,0,1,6.42,1.17,15,15,0,0,1,3.38,1.48l36.58,21.11a19.61,19.61,0,0,1,7.15,7.15l21.11,36.59A19.24,19.24,0,0,1,516.81,389.07ZM440.56,128.48v29.34a7.29,7.29,0,0,1-.1,1.23,12.8,12.8,0,0,1-1.74,5.58l-14.65,25.42a13.69,13.69,0,0,1-5,5l-25.42,14.66a13.24,13.24,0,0,1-6.81,1.84H357.53a13.69,13.69,0,0,1-6.81-1.84L325.3,195a13.77,13.77,0,0,1-5-5l-14.67-25.42a13.49,13.49,0,0,1-1.84-6.81V128.48a13.76,13.76,0,0,1,1.84-6.8l14.67-25.42a13.61,13.61,0,0,1,5-5l25.42-14.67a13.33,13.33,0,0,1,5.62-1.77c.37,0,.78-.07,1.19-.07h29.33a12.54,12.54,0,0,1,4.46.82,10.2,10.2,0,0,1,2.35,1l25.42,14.67a13.54,13.54,0,0,1,5,5l14.67,25.42A13.32,13.32,0,0,1,440.56,128.48Z"/>
          </g>
          <g id="Group_241-2" data-name="Group 241-2">
            <path id="Path_367-2" data-name="Path 367-2" class="cls-10" d="M445.93,330a20.13,20.13,0,0,0-10-1.81L417,336.77l-23.17-5.09a19.71,19.71,0,0,0-9.55,3.43l-13.81,16-20.86,8.08a19.75,19.75,0,0,0-6.57,7.73"/>
            <path id="Path_368-2" data-name="Path 368-2" class="cls-10" d="M337.73,423.37A18.85,18.85,0,0,0,341.9,432L359,441.79l9,20.62a18.1,18.1,0,0,0,7.94,5.38l20,1.67L413.75,481a18.87,18.87,0,0,0,9.6.74"/>
            <path id="Path_369-2" data-name="Path 369-2" class="cls-10" d="M466.59,355a20,20,0,0,0-10-1.81l-18.9,8.61-23.17-5.09"/>
            <g id="Group_235-2" data-name="Group 235-2" class="cls-11">
              <g id="Group_234-2" data-name="Group 234-2">
                <g class="cls-12">
                  <g id="Group_233-2" data-name="Group 233-2">
                    <rect id="Rectangle_199-2" data-name="Rectangle 199-2" class="cls-13" x="334.41" y="441.62" width="12.34" height="0.05"/>
                  </g>
                </g>
              </g>
            </g>
          </g>
          <g id="Group_241" data-name="Group 241">
            <path id="Path_367" data-name="Path 367" class="cls-10" d="M134.38,24.46a20.1,20.1,0,0,0-10-1.81l-18.9,8.61L82.32,26.17a19.67,19.67,0,0,0-9.55,3.43L59,45.61,38.09,53.7a19.8,19.8,0,0,0-6.56,7.73"/>
            <path id="Path_368" data-name="Path 368" class="cls-10" d="M26.19,117.86a18.94,18.94,0,0,0,4.16,8.67l17.15,9.75,9,20.62a18.12,18.12,0,0,0,7.93,5.38l20,1.67,17.82,11.51a18.88,18.88,0,0,0,9.6.74"/>
            <path id="Path_369" data-name="Path 369" class="cls-10" d="M155.05,49.44a20,20,0,0,0-10-1.81l-18.91,8.61L103,51.15"/>
            <g id="Group_235" data-name="Group 235" class="cls-11">
              <g id="Group_234" data-name="Group 234">
                <g class="cls-14">
                  <g id="Group_233" data-name="Group 233">
                    <rect id="Rectangle_199" data-name="Rectangle 199" class="cls-13" x="22.87" y="136.11" width="12.34" height="0.05"/>
                  </g>
                </g>
              </g>
            </g>
          </g>
          <path id="Path_367-3" data-name="Path 367-3" class="cls-10" d="M395.18,91a14.06,14.06,0,0,0-6.94-1.26l-13.14,6L359,92.16a13.83,13.83,0,0,0-6.64,2.39l-9.6,11.13-14.5,5.61a13.66,13.66,0,0,0-4.56,5.38"/>
          <path id="Path_368-3" data-name="Path 368-3" class="cls-10" d="M320,155.88a13.15,13.15,0,0,0,2.89,6l11.92,6.78L341,183a12.56,12.56,0,0,0,5.52,3.75l13.88,1.15,12.39,8a13,13,0,0,0,6.67.51"/>
          <path id="Path_369-3" data-name="Path 369-3" class="cls-10" d="M409.54,108.34a14,14,0,0,0-6.94-1.26l-13.14,6-16.1-3.54"/>
          <g id="Group_235-3" data-name="Group 235-3" class="cls-11">
            <g id="Group_234-3" data-name="Group 234-3">
              <g class="cls-15">
                <g id="Group_233-3" data-name="Group 233-3">
                  <rect id="Rectangle_199-3" data-name="Rectangle 199-3" class="cls-13" x="47.91" y="363.08" width="8.58" height="0.03"/>
                </g>
              </g>
            </g>
          </g>
        </g>
      </g>
    </g>
  </g>
</svg>
