<svg id="Laag_1" data-name="Laag 1" xmlns="http://www.w3.org/2000/svg" xmlns:xlink="http://www.w3.org/1999/xlink" viewBox="0 0 326.4 345.88">
  <defs>
    <style>
      .cls-1, .cls-11, .cls-12, .cls-13, .cls-16, .cls-17, .cls-19, .cls-2, .cls-24, .cls-25, .cls-28, .cls-3, .cls-4, .cls-9 {
        fill: none;
      }

      .cls-1, .cls-19, .cls-21, .cls-25, .cls-4, .cls-9 {
        stroke: #503c21;
      }

      .cls-1, .cls-11, .cls-12, .cls-16, .cls-17, .cls-21, .cls-28 {
        stroke-miterlimit: 10;
      }

      .cls-1, .cls-4, .cls-5 {
        stroke-width: 9px;
      }

      .cls-24, .cls-3 {
        stroke: #bc2e2a;
      }

      .cls-12, .cls-13, .cls-21, .cls-24, .cls-3, .cls-9 {
        stroke-width: 6px;
      }

      .cls-13, .cls-19, .cls-24, .cls-25, .cls-4, .cls-5, .cls-9 {
        stroke-linecap: round;
        stroke-linejoin: round;
      }

      .cls-5 {
        fill: #b4934b;
        stroke: #b4934b;
      }

      .cls-6 {
        fill: #f2dda6;
      }

      .cls-7 {
        fill: #95743f;
      }

      .cls-8 {
        clip-path: url(#clip-path);
      }

      .cls-10 {
        fill: #a57d39;
      }

      .cls-11, .cls-12, .cls-13 {
        stroke: #a57d39;
      }

      .cls-11, .cls-17, .cls-22 {
        stroke-width: 4px;
      }

      .cls-14 {
        fill: #f5d697;
      }

      .cls-15 {
        clip-path: url(#clip-path-2);
      }

      .cls-16 {
        stroke: #396f95;
        stroke-width: 108px;
      }

      .cls-17 {
        stroke: #f5d697;
      }

      .cls-18 {
        clip-path: url(#clip-path-3);
      }

      .cls-19 {
        stroke-width: 5px;
      }

      .cls-20, .cls-21 {
        fill: #f5e5cb;
      }

      .cls-22 {
        fill: #e94933;
        stroke: #ae3a32;
      }

      .cls-23 {
        clip-path: url(#clip-path-4);
      }

      .cls-25 {
        stroke-width: 2px;
      }

      .cls-26 {
        clip-path: url(#clip-path-5);
      }

      .cls-27 {
        clip-path: url(#clip-path-6);
      }

      .cls-28 {
        stroke: #f5e5cb;
        stroke-width: 128px;
      }

      .cls-29 {
        clip-path: url(#clip-path-7);
      }
    </style>
    <clipPath id="clip-path">
      <path class="cls-1" d="M-188.17,185.68v27.63a7.46,7.46,0,0,1-.1,1.16,12.19,12.19,0,0,1-1.64,5.25l-13.81,23.95a12.88,12.88,0,0,1-4.68,4.68l-23.94,13.81a12.59,12.59,0,0,1-6.41,1.73h-27.63a12.89,12.89,0,0,1-6.41-1.73l-23.94-13.81a12.88,12.88,0,0,1-4.68-4.68l-13.82-23.95a12.63,12.63,0,0,1-1.73-6.41V185.68a13,13,0,0,1,1.73-6.41l13.82-23.94a12.81,12.81,0,0,1,4.68-4.68l23.94-13.81a12.4,12.4,0,0,1,5.29-1.67c.35,0,.74-.06,1.12-.06h27.63a11.79,11.79,0,0,1,4.2.77,9.25,9.25,0,0,1,2.21,1l23.94,13.81a12.81,12.81,0,0,1,4.68,4.68l13.82,23.95A12.62,12.62,0,0,1-188.17,185.68ZM-246.8,101l-.58.32a13,13,0,0,0-4.68,4.68l-13.81,23.95a12,12,0,0,0-1.63,5.25,12.35,12.35,0,0,0-5.29,1.67l-23.95,13.81a13,13,0,0,0-4.68,4.68l-13.81,23.95a13,13,0,0,0-1.73,6.41V203a9.46,9.46,0,0,1-2.21-1l-23.94-13.81a12.88,12.88,0,0,1-4.68-4.68l-13.82-23.94a12.59,12.59,0,0,1-1.73-6.41V125.59a13,13,0,0,1,1.73-6.41l13.82-24a12.71,12.71,0,0,1,4.68-4.67l23.94-13.82A12.56,12.56,0,0,1-312.76,75h27.63a12.56,12.56,0,0,1,6.41,1.73l23.94,13.82a12.78,12.78,0,0,1,4.68,4.67Zm108,35.36V164a12.73,12.73,0,0,1-1.73,6.41l-13.81,23.95A12.88,12.88,0,0,1-159,199L-183,212.8a12.44,12.44,0,0,1-5.29,1.67,7.43,7.43,0,0,0,.09-1.15V185.68a12.59,12.59,0,0,0-1.73-6.41l-13.81-23.94a13,13,0,0,0-4.68-4.68l-23.94-13.81a9.25,9.25,0,0,0-2.21-1,11.79,11.79,0,0,0-4.2-.77h-27.63c-.39,0-.77,0-1.12.06a12,12,0,0,1,1.63-5.25L-252,106a12.73,12.73,0,0,1,4.68-4.68l.57-.32,23.37-13.5A12.56,12.56,0,0,1-217,85.75h27.63A12.56,12.56,0,0,1-183,87.48L-159,101.3a12.66,12.66,0,0,1,4.68,4.68l13.82,23.94A12.52,12.52,0,0,1-138.82,136.33Z"/>
    </clipPath>
    <clipPath id="clip-path-2">
      <rect class="cls-2" x="54.47" y="157.71" width="203.93" height="105.69"/>
    </clipPath>
    <clipPath id="clip-path-3">
      <rect id="Rectangle_181" data-name="Rectangle 181" class="cls-1" x="54.47" y="157.89" width="203.93" height="105.69"/>
    </clipPath>
    <clipPath id="clip-path-4">
      <path id="Path_315" data-name="Path 315" class="cls-3" d="M156.43,180.57c32.11,0,58.13,13.42,58.13,30s-26,30-58.13,30-58.13-13.41-58.13-30,26-30,58.13-30"/>
    </clipPath>
    <clipPath id="clip-path-5">
      <path id="Path_346" data-name="Path 346" class="cls-1" d="M622.53,132.4c-1.31,12.74-12.73,16.64-21.93,23-31.08,21.54-40.5,30.55-74.65,37.13-37.33,7.2-37.85,3.28-37.85,3.28.59-30.89,30.6-38.54,60.13-53.36,22.46-11.22,38.74-19.61,55.25-18.91C610.35,123.83,617.7,129.15,622.53,132.4Z"/>
    </clipPath>
    <clipPath id="clip-path-6">
      <path class="cls-2" d="M660.31,213.3c-1.34,16.11-11.86,34.27-32.77,44.12a84.08,84.08,0,0,1-51.67,5.82c.17.72.38,1.43.62,2.13,9.5,15.52,43.33,21.43,69,9.34,23.24-11,31.51-33.79,27.1-49.31a25.83,25.83,0,0,0-2.2-5.36,37.77,37.77,0,0,0-10-12,32.77,32.77,0,0,1-.08,5.24m-80.62-35.26c-30.41,14.38-53.25,30.8-37,60.26a10.77,10.77,0,0,0,1.1,1.73c5.24,7.8,15.83,13.44,28.63,16,.83.2,1.66.36,2.48.48a84.18,84.18,0,0,0,48.84-6.42c18.63-8.78,29-24.1,32-38.72a42.57,42.57,0,0,0,.82-5.75,36.47,36.47,0,0,0-1.89-15.12,26.53,26.53,0,0,0-1.89-4.21c-8.35-14.94-19.25-20.53-32-20.53-12.28,0-26.24,5.23-41.19,12.29M523.76,40.28a85.43,85.43,0,0,0-35.65,154.24c.59-30.88,30.6-38.52,60.14-53.33C570.69,130,587,121.58,603.46,122.28c6.9.28,14.22,5.59,19.07,8.86a83.82,83.82,0,0,0-.87-20A85.36,85.36,0,0,0,524,40.25l-.2,0"/>
    </clipPath>
    <clipPath id="clip-path-7">
      <path id="Group_226" data-name="Group 226" class="cls-4" d="M622.54,131.15c-4.85-3.27-12.17-8.59-19.07-8.87-16.5-.7-32.76,7.69-55.21,18.91-29.54,14.81-59.56,22.45-60.14,53.33a85.44,85.44,0,1,1,133.55-83.38A83.79,83.79,0,0,1,622.54,131.15ZM645.46,274.7c-25.64,12.09-59.47,6.19-69-9.33-.24-.7-.45-1.41-.62-2.13a84,84,0,0,0,51.67-5.83c20.91-9.84,31.43-28,32.77-44.11a33.94,33.94,0,0,0,.08-5.24,37.75,37.75,0,0,1,10,12,26.57,26.57,0,0,1,2.21,5.35C677,240.91,668.7,263.72,645.46,274.7Zm11.14-69.08a42.57,42.57,0,0,1-.82,5.75c-3,14.62-13.39,29.93-32,38.72a84.19,84.19,0,0,1-48.84,6.42c-.83-.12-1.65-.28-2.48-.47-12.8-2.56-23.39-8.19-28.63-16a11.57,11.57,0,0,1-1.11-1.73c-16.26-29.46,6.58-45.88,37-60.26s56.71-21.15,73.14,8.23a27,27,0,0,1,1.88,4.22A36.42,36.42,0,0,1,656.6,205.62Z"/>
    </clipPath>
  </defs>
  <g id="Group_108" data-name="Group 108">
    <g id="Rectangle_41" data-name="Rectangle 41">
      <rect class="cls-5" x="6.47" y="31.67" width="313.77" height="309.7" rx="44.82"/>
      <g>
        <rect class="cls-6" x="5.79" y="5.5" width="315.11" height="310.87" rx="41.09"/>
        <path class="cls-7" d="M279.81,11A35.63,35.63,0,0,1,315.4,46.59v228.7a35.63,35.63,0,0,1-35.59,35.58H46.88a35.62,35.62,0,0,1-35.59-35.58V46.59A35.62,35.62,0,0,1,46.88,11H279.81m0-11H46.88A46.59,46.59,0,0,0,.29,46.59v228.7a46.59,46.59,0,0,0,46.59,46.58H279.81a46.59,46.59,0,0,0,46.59-46.58V46.59A46.59,46.59,0,0,0,279.81,0Z"/>
      </g>
    </g>
  </g>
  <g id="Group_213" data-name="Group 213">
    <g>
      <g class="cls-8">
        <g>
          <line class="cls-9" x1="-410.53" y1="170.38" x2="285.85" y2="866.76"/>
          <line class="cls-9" x1="-446.69" y1="165.63" x2="249.7" y2="862.02"/>
          <line class="cls-9" x1="-441.81" y1="201.66" x2="254.58" y2="898.04"/>
          <line class="cls-9" x1="-477.97" y1="196.91" x2="218.42" y2="893.3"/>
          <line class="cls-9" x1="-473.1" y1="232.94" x2="223.29" y2="929.33"/>
          <line class="cls-9" x1="-509.25" y1="228.2" x2="187.13" y2="924.58"/>
          <line class="cls-9" x1="-504.37" y1="264.22" x2="192.01" y2="960.61"/>
          <line class="cls-9" x1="-581.78" y1="218.69" x2="114.61" y2="915.07"/>
          <line class="cls-9" x1="-576.9" y1="254.71" x2="119.48" y2="951.09"/>
          <line class="cls-9" x1="-613.06" y1="249.97" x2="83.33" y2="946.35"/>
          <line class="cls-9" x1="-254.08" y1="13.93" x2="442.3" y2="710.32"/>
          <line class="cls-9" x1="-290.24" y1="9.19" x2="406.14" y2="705.57"/>
          <line class="cls-9" x1="-285.36" y1="45.21" x2="411.02" y2="741.6"/>
          <line class="cls-9" x1="-321.52" y1="40.47" x2="374.86" y2="736.85"/>
          <line class="cls-9" x1="-316.65" y1="76.5" x2="379.73" y2="772.88"/>
          <line class="cls-9" x1="-352.81" y1="71.76" x2="343.58" y2="768.14"/>
          <line class="cls-9" x1="-347.93" y1="107.78" x2="348.45" y2="804.16"/>
          <line class="cls-9" x1="-425.33" y1="62.24" x2="271.05" y2="758.63"/>
          <line class="cls-9" x1="-420.46" y1="98.26" x2="275.93" y2="794.65"/>
          <line class="cls-9" x1="-456.61" y1="93.52" x2="239.77" y2="789.91"/>
          <line class="cls-9" x1="-97.25" y1="-142.91" x2="599.14" y2="553.48"/>
          <line class="cls-9" x1="-133.4" y1="-147.65" x2="562.98" y2="548.73"/>
          <line class="cls-9" x1="-128.52" y1="-111.63" x2="567.86" y2="584.76"/>
          <line class="cls-9" x1="-164.68" y1="-116.37" x2="531.7" y2="580.01"/>
          <line class="cls-9" x1="-159.81" y1="-80.34" x2="536.57" y2="616.04"/>
          <line class="cls-9" x1="-195.97" y1="-85.08" x2="500.42" y2="611.3"/>
          <line class="cls-9" x1="-191.09" y1="-49.06" x2="505.29" y2="647.32"/>
          <line class="cls-9" x1="-268.49" y1="-94.6" x2="427.89" y2="601.79"/>
          <line class="cls-9" x1="-263.62" y1="-58.58" x2="432.77" y2="637.81"/>
          <line class="cls-9" x1="-299.77" y1="-63.32" x2="396.61" y2="633.07"/>
          <line class="cls-9" x1="59.2" y1="-299.35" x2="755.58" y2="397.03"/>
          <line class="cls-9" x1="94.73" y1="-294.69" x2="791.12" y2="401.69"/>
          <line class="cls-9" x1="23.04" y1="-304.09" x2="719.43" y2="392.29"/>
          <line class="cls-9" x1="27.92" y1="-268.07" x2="724.3" y2="428.31"/>
          <line class="cls-9" x1="-8.24" y1="-272.82" x2="688.15" y2="423.57"/>
          <line class="cls-9" x1="-3.37" y1="-236.79" x2="693.02" y2="459.6"/>
          <line class="cls-9" x1="-39.52" y1="-241.53" x2="656.86" y2="454.86"/>
          <line class="cls-9" x1="-34.65" y1="-205.51" x2="661.74" y2="490.88"/>
          <line class="cls-9" x1="-112.05" y1="-251.04" x2="584.33" y2="445.34"/>
          <line class="cls-9" x1="-107.17" y1="-215.02" x2="589.21" y2="481.36"/>
          <line class="cls-9" x1="-143.33" y1="-219.76" x2="553.06" y2="476.62"/>
        </g>
      </g>
      <path class="cls-1" d="M-188.17,185.68v27.63a7.46,7.46,0,0,1-.1,1.16,12.19,12.19,0,0,1-1.64,5.25l-13.81,23.95a12.88,12.88,0,0,1-4.68,4.68l-23.94,13.81a12.59,12.59,0,0,1-6.41,1.73h-27.63a12.89,12.89,0,0,1-6.41-1.73l-23.94-13.81a12.88,12.88,0,0,1-4.68-4.68l-13.82-23.95a12.63,12.63,0,0,1-1.73-6.41V185.68a13,13,0,0,1,1.73-6.41l13.82-23.94a12.81,12.81,0,0,1,4.68-4.68l23.94-13.81a12.4,12.4,0,0,1,5.29-1.67c.35,0,.74-.06,1.12-.06h27.63a11.79,11.79,0,0,1,4.2.77,9.25,9.25,0,0,1,2.21,1l23.94,13.81a12.81,12.81,0,0,1,4.68,4.68l13.82,23.95A12.62,12.62,0,0,1-188.17,185.68ZM-246.8,101l-.58.32a13,13,0,0,0-4.68,4.68l-13.81,23.95a12,12,0,0,0-1.63,5.25,12.35,12.35,0,0,0-5.29,1.67l-23.95,13.81a13,13,0,0,0-4.68,4.68l-13.81,23.95a13,13,0,0,0-1.73,6.41V203a9.46,9.46,0,0,1-2.21-1l-23.94-13.81a12.88,12.88,0,0,1-4.68-4.68l-13.82-23.94a12.59,12.59,0,0,1-1.73-6.41V125.59a13,13,0,0,1,1.73-6.41l13.82-24a12.71,12.71,0,0,1,4.68-4.67l23.94-13.82A12.56,12.56,0,0,1-312.76,75h27.63a12.56,12.56,0,0,1,6.41,1.73l23.94,13.82a12.78,12.78,0,0,1,4.68,4.67Zm108,35.36V164a12.73,12.73,0,0,1-1.73,6.41l-13.81,23.95A12.88,12.88,0,0,1-159,199L-183,212.8a12.44,12.44,0,0,1-5.29,1.67,7.43,7.43,0,0,0,.09-1.15V185.68a12.59,12.59,0,0,0-1.73-6.41l-13.81-23.94a13,13,0,0,0-4.68-4.68l-23.94-13.81a9.25,9.25,0,0,0-2.21-1,11.79,11.79,0,0,0-4.2-.77h-27.63c-.39,0-.77,0-1.12.06a12,12,0,0,1,1.63-5.25L-252,106a12.73,12.73,0,0,1,4.68-4.68l.57-.32,23.37-13.5A12.56,12.56,0,0,1-217,85.75h27.63A12.56,12.56,0,0,1-183,87.48L-159,101.3a12.66,12.66,0,0,1,4.68,4.68l13.82,23.94A12.52,12.52,0,0,1-138.82,136.33Z"/>
    </g>
  </g>
  <g>
    <g id="Group_216" data-name="Group 216">
      <g id="Group_215" data-name="Group 215">
        <g>
          <path id="Path_299" data-name="Path 299" class="cls-10" d="M269.46,275a4.23,4.23,0,0,1-4.07,4.39H61.45a4.24,4.24,0,0,1-4.09-4.38h0a4.27,4.27,0,0,1,4-4.39v-105a4.09,4.09,0,0,1,0-8.17h204a4.09,4.09,0,1,1,.15,8.17h-.24v105h.09a4.25,4.25,0,0,1,4.08,4.39Z"/>
          <path id="Path_300" data-name="Path 300" class="cls-11" d="M269.46,275a4.23,4.23,0,0,1-4.07,4.39H61.45a4.24,4.24,0,0,1-4.09-4.38h0a4.27,4.27,0,0,1,4-4.39v-105a4.09,4.09,0,0,1,0-8.17h204a4.09,4.09,0,1,1,.15,8.17h-.24v105h.09A4.25,4.25,0,0,1,269.46,275Z"/>
          <path id="Path_301" data-name="Path 301" class="cls-10" d="M182.65,40.85a.34.34,0,0,0-.06.15l0-.15Z"/>
          <path id="Path_302" data-name="Path 302" class="cls-11" d="M182.65,40.85a.34.34,0,0,0-.06.15l0-.15Z"/>
          <path id="Path_303" data-name="Path 303" class="cls-10" d="M192,44.59c-.49,5.36-1.89,23.65-1.89,23.65s-.86,4-6.16,1.89v-.06A87.69,87.69,0,0,1,186.59,41a.35.35,0,0,1,.06-.14c.45-.13,5.73-1.41,5.3,3.75Z"/>
          <path id="Path_304" data-name="Path 304" class="cls-11" d="M190,44.59c-.48,5.36-1.88,23.65-1.88,23.65s-.86,4-6.16,1.89v-.06A87.69,87.69,0,0,1,184.59,41a.35.35,0,0,1,.06-.14C185.11,40.72,190.39,39.44,190,44.59Z"/>
          <path id="Path_305" data-name="Path 305" class="cls-12" d="M265.29,157.44s-77.53-24.12-82.7-86.68"/>
          <path id="Path_306" data-name="Path 306" class="cls-10" d="M185.91,30.26q-1.89,5.2-3.26,10.58Z"/>
          <path id="Path_307" data-name="Path 307" class="cls-13" d="M187.91,30.26q-1.89,5.2-3.26,10.58"/>
        </g>
        <rect id="Rectangle_175" data-name="Rectangle 175" class="cls-14" x="54.47" y="157.71" width="203.93" height="105.69"/>
      </g>
    </g>
    <g>
      <g id="Group_218" data-name="Group 218">
        <g class="cls-15">
          <g id="Group_217" data-name="Group 217">
            <rect id="Rectangle_177" data-name="Rectangle 177" class="cls-16" x="-84.44" y="47.79" width="338.72" height="223.74"/>
          </g>
        </g>
      </g>
      <g id="Group_219" data-name="Group 219">
        <rect id="Rectangle_179" data-name="Rectangle 179" class="cls-17" x="54.47" y="157.71" width="203.93" height="105.69"/>
        <g>
          <g class="cls-18">
            <g>
              <line class="cls-19" x1="10.19" y1="-441.1" x2="10.19" y2="481.72"/>
              <line class="cls-19" x1="30.77" y1="-441.1" x2="30.77" y2="481.72"/>
              <line class="cls-19" x1="50.31" y1="-441.1" x2="50.31" y2="481.72"/>
              <line class="cls-19" x1="90.42" y1="-441.1" x2="90.42" y2="481.72"/>
              <line class="cls-19" x1="109.95" y1="-441.1" x2="109.95" y2="481.72"/>
              <line class="cls-19" x1="69.84" y1="-441.1" x2="69.84" y2="481.72"/>
              <line class="cls-19" x1="150.07" y1="-441.1" x2="150.07" y2="481.72"/>
              <line class="cls-19" x1="169.6" y1="-441.1" x2="169.6" y2="481.72"/>
              <line class="cls-19" x1="129.49" y1="-441.1" x2="129.49" y2="481.72"/>
              <line class="cls-19" x1="190.18" y1="-441.1" x2="190.18" y2="481.72"/>
              <line class="cls-19" x1="209.71" y1="-441.1" x2="209.71" y2="481.72"/>
              <line class="cls-19" x1="249.83" y1="-441.1" x2="249.83" y2="481.72"/>
              <line class="cls-19" x1="269.36" y1="-441.1" x2="269.36" y2="481.72"/>
              <line class="cls-19" x1="229.25" y1="-441.1" x2="229.25" y2="481.72"/>
              <line class="cls-19" x1="309.47" y1="-441.1" x2="309.47" y2="481.72"/>
              <line class="cls-19" x1="288.89" y1="-441.1" x2="288.89" y2="481.72"/>
            </g>
          </g>
          <rect id="Rectangle_181-2" data-name="Rectangle 181" class="cls-1" x="54.47" y="157.89" width="203.93" height="105.69"/>
        </g>
        <path id="Path_308" data-name="Path 308" class="cls-20" d="M173,62.24c5.3,2.14,6.15-1.89,6.15-1.89S180.58,42.09,181,36.7s-5.3-3.75-5.3-3.75"/>
        <path id="Path_309" data-name="Path 309" class="cls-9" d="M176,58.24c5.3,2.13,6.16-1.89,6.16-1.89s1.4-18.26,1.86-23.66-5.31-3.75-5.31-3.75"/>
        <path id="Path_310" data-name="Path 310" class="cls-9" d="M179,18.4c-33.71,92.85,79.41,127.17,79.41,127.17"/>
        <path id="Path_311" data-name="Path 311" class="cls-21" d="M258.52,157.71h-204c-2.25,0-4.08-2.62-4.08-5.86S52.31,146,54.56,146h204c2.26,0,4.09,2.63,4.09,5.87s-1.83,5.86-4.09,5.86"/>
        <path id="Path_313" data-name="Path 313" class="cls-21" d="M258.52,274.85h-204c-2.25.06-4.12-2.46-4.16-5.64s1.76-5.79,4-5.84H258.52c2.26-.06,4.12,2.46,4.16,5.64s-1.76,5.79-4,5.84h-.15"/>
        <path id="Path_315-2" data-name="Path 315" class="cls-22" d="M156.53,180.57c32.1,0,58.13,13.42,58.13,30s-26,30-58.13,30-58.13-13.41-58.13-30,26-30,58.13-30"/>
        <g>
          <g class="cls-23">
            <g>
              <line class="cls-24" x1="-295.42" y1="-211.65" x2="400.96" y2="484.73"/>
              <line class="cls-24" x1="-331.58" y1="-216.39" x2="364.8" y2="479.99"/>
              <line class="cls-24" x1="-326.7" y1="-180.37" x2="369.68" y2="516.01"/>
              <line class="cls-24" x1="-362.86" y1="-185.11" x2="333.52" y2="511.27"/>
              <line class="cls-24" x1="-357.99" y1="-149.08" x2="338.39" y2="547.3"/>
              <line class="cls-24" x1="-394.15" y1="-153.83" x2="302.24" y2="542.56"/>
              <line class="cls-24" x1="-389.27" y1="-117.8" x2="307.11" y2="578.58"/>
              <line class="cls-24" x1="-466.67" y1="-163.34" x2="229.71" y2="533.04"/>
              <line class="cls-24" x1="-461.8" y1="-127.32" x2="234.59" y2="569.07"/>
              <line class="cls-24" x1="-497.95" y1="-132.06" x2="198.43" y2="564.32"/>
              <line class="cls-24" x1="-138.98" y1="-368.09" x2="557.4" y2="328.29"/>
              <line class="cls-24" x1="-175.14" y1="-372.84" x2="521.25" y2="323.55"/>
              <line class="cls-24" x1="-170.26" y1="-336.82" x2="526.13" y2="359.57"/>
              <line class="cls-24" x1="-206.42" y1="-341.56" x2="489.97" y2="354.83"/>
              <line class="cls-24" x1="-201.55" y1="-305.53" x2="494.84" y2="390.86"/>
              <line class="cls-24" x1="-237.7" y1="-310.27" x2="458.68" y2="386.11"/>
              <line class="cls-24" x1="-232.82" y1="-274.25" x2="463.56" y2="422.13"/>
              <line class="cls-24" x1="-310.23" y1="-319.79" x2="386.16" y2="376.6"/>
              <line class="cls-24" x1="-305.35" y1="-283.76" x2="391.03" y2="412.62"/>
              <line class="cls-24" x1="-341.51" y1="-288.51" x2="354.88" y2="407.88"/>
              <line class="cls-24" x1="17.86" y1="-524.93" x2="714.24" y2="171.45"/>
              <line class="cls-24" x1="-18.3" y1="-529.68" x2="678.09" y2="166.71"/>
              <line class="cls-24" x1="-13.42" y1="-493.65" x2="682.96" y2="202.73"/>
              <line class="cls-24" x1="-49.58" y1="-498.4" x2="646.81" y2="197.99"/>
              <line class="cls-24" x1="-44.71" y1="-462.37" x2="651.68" y2="234.02"/>
              <line class="cls-24" x1="-80.86" y1="-467.11" x2="615.52" y2="229.27"/>
              <line class="cls-24" x1="-75.99" y1="-431.09" x2="620.4" y2="265.29"/>
              <line class="cls-24" x1="-153.39" y1="-476.62" x2="542.99" y2="219.76"/>
              <line class="cls-24" x1="-148.51" y1="-440.6" x2="547.87" y2="255.78"/>
              <line class="cls-24" x1="-184.67" y1="-445.35" x2="511.72" y2="251.04"/>
              <line class="cls-24" x1="174.3" y1="-681.38" x2="870.69" y2="15.01"/>
              <line class="cls-24" x1="209.84" y1="-676.72" x2="906.22" y2="19.67"/>
              <line class="cls-24" x1="138.15" y1="-686.12" x2="834.53" y2="10.26"/>
              <line class="cls-24" x1="143.03" y1="-650.1" x2="839.41" y2="46.28"/>
              <line class="cls-24" x1="106.87" y1="-654.84" x2="803.25" y2="41.54"/>
              <line class="cls-24" x1="111.74" y1="-618.81" x2="808.12" y2="77.57"/>
              <line class="cls-24" x1="75.58" y1="-623.56" x2="771.97" y2="72.83"/>
              <line class="cls-24" x1="80.46" y1="-587.53" x2="776.84" y2="108.85"/>
              <line class="cls-24" x1="3.06" y1="-633.07" x2="699.44" y2="63.31"/>
              <line class="cls-24" x1="7.93" y1="-597.05" x2="704.32" y2="99.34"/>
              <line class="cls-24" x1="-28.22" y1="-601.79" x2="668.16" y2="94.59"/>
            </g>
          </g>
          <path id="Path_315-3" data-name="Path 315" class="cls-3" d="M156.43,180.57c32.11,0,58.13,13.42,58.13,30s-26,30-58.13,30-58.13-13.41-58.13-30,26-30,58.13-30"/>
        </g>
        <path id="Path_318" data-name="Path 318" class="cls-14" d="M180.85,213.56l8.44,11.94c-10.51-8.53-18.5-7.37-18.5-7.37v-.25a50,50,0,0,1-8,2.63l5.39,6.94c-3,.37-7.89-3.66-10.42-6a62,62,0,0,1-8.38.64c-3.45,0-6.74-.09-9.73-.25l4.64,8.26c-4.21-.54-9.36-6.19-11.56-8.84-6.58-.79-10.85-2.19-11.43-4.32l4-2.66-4,.16c0-4.7,6.31-7.47,15.49-8.69,0,0,6.46-10.46,10.4-12.23a11.4,11.4,0,0,0,9.23,6.13c6.5.37,7.44,4.66,6.4,6.13h-4.26a55,55,0,0,1,12.62,3.6v-.25s7.62,1,18.13-7.5Z"/>
        <path id="Path_319" data-name="Path 319" class="cls-25" d="M180.85,213.56l8.44,11.94c-10.51-8.53-18.5-7.37-18.5-7.37v-.25a50,50,0,0,1-8,2.63l5.39,6.94c-3,.37-7.89-3.66-10.42-6a62,62,0,0,1-8.38.64c-3.45,0-6.74-.09-9.73-.25l4.64,8.26c-4.21-.54-9.36-6.19-11.56-8.84-6.58-.79-10.85-2.19-11.43-4.32l4-2.66-4,.16c0-4.7,6.31-7.47,15.49-8.69,0,0,6.46-10.46,10.4-12.23a11.4,11.4,0,0,0,9.23,6.13c6.5.37,7.44,4.66,6.4,6.13h-4.26a55,55,0,0,1,12.62,3.6v-.25s7.62,1,18.13-7.5Z"/>
        <path id="Path_320" data-name="Path 320" class="cls-25" d="M121.41,216.86c1,3.59,12.55,5.15,28.07,5.15s28.08-6.71,28.08-8.54-12.55-8.53-28.08-8.53-28.07,2.83-28.07,9.45l4-.16Z"/>
        <path id="Path_321" data-name="Path 321" class="cls-25" d="M171.28,209s7.59,1.07,18.11-7.46l-8.45,11.92"/>
        <path id="Path_322" data-name="Path 322" class="cls-25" d="M170.91,218s8-1.19,18.51,7.34L181,213.46"/>
        <path id="Path_323" data-name="Path 323" class="cls-25" d="M138,207.89l3.6,3.56a2.54,2.54,0,0,1,0,3.58l0,.05-4.3,4.14"/>
        <path id="Path_324" data-name="Path 324" class="cls-25" d="M131.07,210.26a.49.49,0,0,1,0,1,.49.49,0,0,1,0-1Z"/>
        <path id="Path_325" data-name="Path 325" class="cls-25" d="M133.48,221.54s5.4,7.78,10.91,8.48l-3.78-8.11Z"/>
        <path id="Path_326" data-name="Path 326" class="cls-25" d="M158,221.54s6.1,6.28,10.3,5.8l-5.06-7Z"/>
        <path id="Path_327" data-name="Path 327" class="cls-25" d="M136.93,205.66s6.46-10.45,10.36-12.22a11.5,11.5,0,0,0,9.24,6.13c6.49.36,7.46,4.69,6.4,6.12"/>
        <path id="Path_328" data-name="Path 328" class="cls-25" d="M141.89,210.23l12.38,1L141.89,216"/>
      </g>
    </g>
  </g>
  <g>
    <g id="Group_222" data-name="Group 222">
      <g>
        <g class="cls-26">
          <g>
            <line class="cls-9" x1="305.13" y1="-93.79" x2="1001.51" y2="602.59"/>
            <line class="cls-9" x1="310" y1="-57.77" x2="1006.39" y2="638.61"/>
            <line class="cls-9" x1="273.85" y1="-62.51" x2="970.23" y2="633.87"/>
            <line class="cls-9" x1="278.72" y1="-26.48" x2="975.1" y2="669.9"/>
            <line class="cls-9" x1="242.56" y1="-31.23" x2="938.94" y2="665.16"/>
            <line class="cls-9" x1="247.44" y1="4.8" x2="943.82" y2="701.18"/>
            <line class="cls-9" x1="170.03" y1="-40.74" x2="866.42" y2="655.64"/>
            <line class="cls-9" x1="174.91" y1="-4.72" x2="871.3" y2="691.67"/>
            <line class="cls-9" x1="138.75" y1="-9.46" x2="835.14" y2="686.92"/>
            <line class="cls-9" x1="326.48" y1="-197.18" x2="1022.86" y2="499.2"/>
            <line class="cls-9" x1="295.2" y1="-165.9" x2="991.58" y2="530.48"/>
          </g>
        </g>
        <path id="Path_346-2" data-name="Path 346" class="cls-1" d="M622.53,132.4c-1.31,12.74-12.73,16.64-21.93,23-31.08,21.54-40.5,30.55-74.65,37.13-37.33,7.2-37.85,3.28-37.85,3.28.59-30.89,30.6-38.54,60.13-53.36,22.46-11.22,38.74-19.61,55.25-18.91C610.35,123.83,617.7,129.15,622.53,132.4Z"/>
      </g>
    </g>
    <g id="Group_225" data-name="Group 225">
      <g class="cls-27">
        <g id="Group_224" data-name="Group 224">
          <rect id="Rectangle_191" data-name="Rectangle 191" class="cls-28" x="306.01" y="-84.78" width="311.57" height="304.79"/>
        </g>
      </g>
    </g>
    <g>
      <g class="cls-29">
        <g>
          <line class="cls-19" x1="95.38" y1="-268.85" x2="95.38" y2="653.97"/>
          <line class="cls-19" x1="114.91" y1="-268.85" x2="114.91" y2="653.97"/>
          <line class="cls-19" x1="55.27" y1="-268.85" x2="55.27" y2="653.97"/>
          <line class="cls-19" x1="74.8" y1="-268.85" x2="74.8" y2="653.97"/>
          <line class="cls-19" x1="155.03" y1="-268.85" x2="155.03" y2="653.97"/>
          <line class="cls-19" x1="174.56" y1="-268.85" x2="174.56" y2="653.97"/>
          <line class="cls-19" x1="134.45" y1="-268.85" x2="134.45" y2="653.97"/>
          <line class="cls-19" x1="214.67" y1="-268.85" x2="214.67" y2="653.97"/>
          <line class="cls-19" x1="234.21" y1="-268.85" x2="234.21" y2="653.97"/>
          <line class="cls-19" x1="194.09" y1="-268.85" x2="194.09" y2="653.97"/>
          <line class="cls-19" x1="254.79" y1="-268.85" x2="254.79" y2="653.97"/>
          <line class="cls-19" x1="274.32" y1="-268.85" x2="274.32" y2="653.97"/>
          <line class="cls-19" x1="314.43" y1="-268.85" x2="314.43" y2="653.97"/>
          <line class="cls-19" x1="293.85" y1="-268.85" x2="293.85" y2="653.97"/>
        </g>
      </g>
      <path id="Group_226-2" data-name="Group 226" class="cls-4" d="M622.54,131.15c-4.85-3.27-12.17-8.59-19.07-8.87-16.5-.7-32.76,7.69-55.21,18.91-29.54,14.81-59.56,22.45-60.14,53.33a85.44,85.44,0,1,1,133.55-83.38A83.79,83.79,0,0,1,622.54,131.15ZM645.46,274.7c-25.64,12.09-59.47,6.19-69-9.33-.24-.7-.45-1.41-.62-2.13a84,84,0,0,0,51.67-5.83c20.91-9.84,31.43-28,32.77-44.11a33.94,33.94,0,0,0,.08-5.24,37.75,37.75,0,0,1,10,12,26.57,26.57,0,0,1,2.21,5.35C677,240.91,668.7,263.72,645.46,274.7Zm11.14-69.08a42.57,42.57,0,0,1-.82,5.75c-3,14.62-13.39,29.93-32,38.72a84.19,84.19,0,0,1-48.84,6.42c-.83-.12-1.65-.28-2.48-.47-12.8-2.56-23.39-8.19-28.63-16a11.57,11.57,0,0,1-1.11-1.73c-16.26-29.46,6.58-45.88,37-60.26s56.71-21.15,73.14,8.23a27,27,0,0,1,1.88,4.22A36.42,36.42,0,0,1,656.6,205.62Z"/>
    </g>
  </g>
</svg>
