<svg id="Laag_1" data-name="Laag 1" xmlns="http://www.w3.org/2000/svg" xmlns:xlink="http://www.w3.org/1999/xlink" viewBox="0 0 1260.49 269.45">
  <defs>
    <style>
      .cls-1, .cls-2 {
        fill: none;
      }

      .cls-2, .cls-3, .cls-4, .cls-5 {
        stroke: #8f2623;
        stroke-linejoin: round;
      }

      .cls-2, .cls-5 {
        stroke-linecap: round;
      }

      .cls-2 {
        stroke-width: 5px;
      }

      .cls-3 {
        fill: #bb2e2a;
      }

      .cls-3, .cls-4, .cls-5 {
        stroke-width: 11px;
      }

      .cls-4 {
        fill: url(#Nieuwe_patroonstaal_1);
      }

      .cls-5 {
        fill: #e63925;
      }

      .cls-6 {
        fill: #8f2623;
      }
    </style>
    <pattern id="Nieuwe_patroonstaal_1" data-name="Nieuwe patroonstaal 1" width="283.46" height="283.46" patternTransform="translate(789.28 660.98)" patternUnits="userSpaceOnUse" viewBox="0 0 283.46 283.46">
      <rect class="cls-1" width="283.46" height="283.46"/>
      <g>
        <line class="cls-2" x1="91.13" y1="237.3" x2="928.57" y2="1074.74"/>
        <line class="cls-2" x1="100.71" y1="222.57" x2="938.15" y2="1060.01"/>
        <line class="cls-2" x1="115.44" y1="207.84" x2="952.89" y2="1045.28"/>
        <line class="cls-2" x1="130.17" y1="193.11" x2="967.62" y2="1030.55"/>
        <line class="cls-2" x1="145.03" y1="178.25" x2="982.47" y2="1015.69"/>
        <line class="cls-2" x1="130.3" y1="192.98" x2="967.74" y2="1030.43"/>
        <line class="cls-2" x1="159.76" y1="163.52" x2="997.2" y2="1000.96"/>
        <line class="cls-2" x1="174.49" y1="148.79" x2="1011.94" y2="986.23"/>
        <line class="cls-2" x1="189.22" y1="134.06" x2="1026.67" y2="971.5"/>
        <line class="cls-2" x1="203.95" y1="119.32" x2="1041.4" y2="956.77"/>
        <line class="cls-2" x1="218.69" y1="104.59" x2="1056.13" y2="942.04"/>
      </g>
      <g>
        <line class="cls-2" x1="-192.34" y1="237.3" x2="645.11" y2="1074.74"/>
        <line class="cls-2" x1="-182.75" y1="222.57" x2="654.69" y2="1060.01"/>
        <line class="cls-2" x1="-168.02" y1="207.84" x2="669.42" y2="1045.28"/>
        <line class="cls-2" x1="-153.29" y1="193.11" x2="684.15" y2="1030.55"/>
        <line class="cls-2" x1="-138.44" y1="178.25" x2="699.01" y2="1015.69"/>
        <line class="cls-2" x1="-153.17" y1="192.98" x2="684.28" y2="1030.43"/>
        <line class="cls-2" x1="-123.7" y1="163.52" x2="713.74" y2="1000.96"/>
        <line class="cls-2" x1="-108.97" y1="148.79" x2="728.47" y2="986.23"/>
        <line class="cls-2" x1="-94.24" y1="134.06" x2="743.2" y2="971.5"/>
        <line class="cls-2" x1="-79.51" y1="119.32" x2="757.93" y2="956.77"/>
        <line class="cls-2" x1="-64.78" y1="104.59" x2="772.66" y2="942.04"/>
      </g>
      <g>
        <line class="cls-2" x1="-475.8" y1="237.3" x2="361.64" y2="1074.74"/>
        <line class="cls-2" x1="-466.22" y1="222.57" x2="371.23" y2="1060.01"/>
        <line class="cls-2" x1="-451.49" y1="207.84" x2="385.96" y2="1045.28"/>
        <line class="cls-2" x1="-436.76" y1="193.11" x2="400.69" y2="1030.55"/>
        <line class="cls-2" x1="-421.9" y1="178.25" x2="415.54" y2="1015.69"/>
        <line class="cls-2" x1="-436.63" y1="192.98" x2="400.81" y2="1030.43"/>
        <line class="cls-2" x1="-407.17" y1="163.52" x2="430.27" y2="1000.96"/>
        <line class="cls-2" x1="-392.44" y1="148.79" x2="445.01" y2="986.23"/>
        <line class="cls-2" x1="-377.71" y1="134.06" x2="459.74" y2="971.5"/>
        <line class="cls-2" x1="-362.98" y1="119.32" x2="474.47" y2="956.77"/>
        <line class="cls-2" x1="-348.24" y1="104.59" x2="489.2" y2="942.04"/>
      </g>
      <g>
        <line class="cls-2" x1="-759.27" y1="237.3" x2="78.18" y2="1074.74"/>
        <line class="cls-2" x1="-749.68" y1="222.57" x2="87.76" y2="1060.01"/>
        <line class="cls-2" x1="-734.95" y1="207.84" x2="102.49" y2="1045.28"/>
        <line class="cls-2" x1="-720.22" y1="193.11" x2="117.22" y2="1030.55"/>
        <line class="cls-2" x1="-705.37" y1="178.25" x2="132.08" y2="1015.69"/>
        <line class="cls-2" x1="-720.1" y1="192.98" x2="117.35" y2="1030.43"/>
        <line class="cls-2" x1="-690.63" y1="163.52" x2="146.81" y2="1000.96"/>
        <line class="cls-2" x1="-675.9" y1="148.79" x2="161.54" y2="986.23"/>
        <line class="cls-2" x1="-661.17" y1="134.06" x2="176.27" y2="971.5"/>
        <line class="cls-2" x1="-646.44" y1="119.32" x2="191" y2="956.77"/>
        <line class="cls-2" x1="-631.71" y1="104.59" x2="205.74" y2="942.04"/>
      </g>
      <g>
        <line class="cls-2" x1="91.13" y1="-46.16" x2="928.57" y2="791.28"/>
        <line class="cls-2" x1="100.71" y1="-60.9" x2="938.15" y2="776.55"/>
        <line class="cls-2" x1="115.44" y1="-75.63" x2="952.89" y2="761.82"/>
        <line class="cls-2" x1="130.17" y1="-90.36" x2="967.62" y2="747.08"/>
        <line class="cls-2" x1="145.03" y1="-105.21" x2="982.47" y2="732.23"/>
        <line class="cls-2" x1="130.3" y1="-90.48" x2="967.74" y2="746.96"/>
        <line class="cls-2" x1="159.76" y1="-119.95" x2="997.2" y2="717.5"/>
        <line class="cls-2" x1="174.49" y1="-134.68" x2="1011.94" y2="702.77"/>
        <line class="cls-2" x1="189.22" y1="-149.41" x2="1026.67" y2="688.04"/>
        <line class="cls-2" x1="203.95" y1="-164.14" x2="1041.4" y2="673.3"/>
        <line class="cls-2" x1="218.69" y1="-178.87" x2="1056.13" y2="658.57"/>
      </g>
      <g>
        <line class="cls-2" x1="-192.34" y1="-46.16" x2="645.11" y2="791.28"/>
        <line class="cls-2" x1="-182.75" y1="-60.9" x2="654.69" y2="776.55"/>
        <line class="cls-2" x1="-168.02" y1="-75.63" x2="669.42" y2="761.82"/>
        <line class="cls-2" x1="-153.29" y1="-90.36" x2="684.15" y2="747.08"/>
        <line class="cls-2" x1="-138.44" y1="-105.21" x2="699.01" y2="732.23"/>
        <line class="cls-2" x1="-153.17" y1="-90.48" x2="684.28" y2="746.96"/>
        <line class="cls-2" x1="-123.7" y1="-119.95" x2="713.74" y2="717.5"/>
        <line class="cls-2" x1="-108.97" y1="-134.68" x2="728.47" y2="702.77"/>
        <line class="cls-2" x1="-94.24" y1="-149.41" x2="743.2" y2="688.04"/>
        <line class="cls-2" x1="-79.51" y1="-164.14" x2="757.93" y2="673.3"/>
        <line class="cls-2" x1="-64.78" y1="-178.87" x2="772.66" y2="658.57"/>
      </g>
      <g>
        <line class="cls-2" x1="-475.8" y1="-46.16" x2="361.64" y2="791.28"/>
        <line class="cls-2" x1="-466.22" y1="-60.9" x2="371.23" y2="776.55"/>
        <line class="cls-2" x1="-451.49" y1="-75.63" x2="385.96" y2="761.82"/>
        <line class="cls-2" x1="-436.76" y1="-90.36" x2="400.69" y2="747.08"/>
        <line class="cls-2" x1="-421.9" y1="-105.21" x2="415.54" y2="732.23"/>
        <line class="cls-2" x1="-436.63" y1="-90.48" x2="400.81" y2="746.96"/>
        <line class="cls-2" x1="-407.17" y1="-119.95" x2="430.27" y2="717.5"/>
        <line class="cls-2" x1="-392.44" y1="-134.68" x2="445.01" y2="702.77"/>
        <line class="cls-2" x1="-377.71" y1="-149.41" x2="459.74" y2="688.04"/>
        <line class="cls-2" x1="-362.98" y1="-164.14" x2="474.47" y2="673.3"/>
        <line class="cls-2" x1="-348.24" y1="-178.87" x2="489.2" y2="658.57"/>
      </g>
      <g>
        <line class="cls-2" x1="-759.27" y1="-46.16" x2="78.18" y2="791.28"/>
        <line class="cls-2" x1="-749.68" y1="-60.9" x2="87.76" y2="776.55"/>
        <line class="cls-2" x1="-734.95" y1="-75.63" x2="102.49" y2="761.82"/>
        <line class="cls-2" x1="-720.22" y1="-90.36" x2="117.22" y2="747.08"/>
        <line class="cls-2" x1="-705.37" y1="-105.21" x2="132.08" y2="732.23"/>
        <line class="cls-2" x1="-720.1" y1="-90.48" x2="117.35" y2="746.96"/>
        <line class="cls-2" x1="-690.63" y1="-119.95" x2="146.81" y2="717.5"/>
        <line class="cls-2" x1="-675.9" y1="-134.68" x2="161.54" y2="702.77"/>
        <line class="cls-2" x1="-661.17" y1="-149.41" x2="176.27" y2="688.04"/>
        <line class="cls-2" x1="-646.44" y1="-164.14" x2="191" y2="673.3"/>
        <line class="cls-2" x1="-631.71" y1="-178.87" x2="205.74" y2="658.57"/>
      </g>
      <g>
        <line class="cls-2" x1="91.13" y1="-329.63" x2="928.57" y2="507.81"/>
        <line class="cls-2" x1="100.71" y1="-344.36" x2="938.15" y2="493.08"/>
        <line class="cls-2" x1="115.44" y1="-359.09" x2="952.89" y2="478.35"/>
        <line class="cls-2" x1="130.17" y1="-373.82" x2="967.62" y2="463.62"/>
        <line class="cls-2" x1="145.03" y1="-388.68" x2="982.47" y2="448.76"/>
        <line class="cls-2" x1="130.3" y1="-373.95" x2="967.74" y2="463.5"/>
        <line class="cls-2" x1="159.76" y1="-403.41" x2="997.2" y2="434.03"/>
        <line class="cls-2" x1="174.49" y1="-418.14" x2="1011.94" y2="419.3"/>
        <line class="cls-2" x1="189.22" y1="-432.87" x2="1026.67" y2="404.57"/>
        <line class="cls-2" x1="203.95" y1="-447.6" x2="1041.4" y2="389.84"/>
        <line class="cls-2" x1="218.69" y1="-462.34" x2="1056.13" y2="375.11"/>
      </g>
      <g>
        <line class="cls-2" x1="-192.34" y1="-329.63" x2="645.11" y2="507.81"/>
        <line class="cls-2" x1="-182.75" y1="-344.36" x2="654.69" y2="493.08"/>
        <line class="cls-2" x1="-168.02" y1="-359.09" x2="669.42" y2="478.35"/>
        <line class="cls-2" x1="-153.29" y1="-373.82" x2="684.15" y2="463.62"/>
        <line class="cls-2" x1="-138.44" y1="-388.68" x2="699.01" y2="448.76"/>
        <line class="cls-2" x1="-153.17" y1="-373.95" x2="684.28" y2="463.5"/>
        <line class="cls-2" x1="-123.7" y1="-403.41" x2="713.74" y2="434.03"/>
        <line class="cls-2" x1="-108.97" y1="-418.14" x2="728.47" y2="419.3"/>
        <line class="cls-2" x1="-94.24" y1="-432.87" x2="743.2" y2="404.57"/>
        <line class="cls-2" x1="-79.51" y1="-447.6" x2="757.93" y2="389.84"/>
        <line class="cls-2" x1="-64.78" y1="-462.34" x2="772.66" y2="375.11"/>
      </g>
      <g>
        <line class="cls-2" x1="-475.8" y1="-329.63" x2="361.64" y2="507.81"/>
        <line class="cls-2" x1="-466.22" y1="-344.36" x2="371.23" y2="493.08"/>
        <line class="cls-2" x1="-451.49" y1="-359.09" x2="385.96" y2="478.35"/>
        <line class="cls-2" x1="-436.76" y1="-373.82" x2="400.69" y2="463.62"/>
        <line class="cls-2" x1="-421.9" y1="-388.68" x2="415.54" y2="448.76"/>
        <line class="cls-2" x1="-436.63" y1="-373.95" x2="400.81" y2="463.5"/>
        <line class="cls-2" x1="-407.17" y1="-403.41" x2="430.27" y2="434.03"/>
        <line class="cls-2" x1="-392.44" y1="-418.14" x2="445.01" y2="419.3"/>
        <line class="cls-2" x1="-377.71" y1="-432.87" x2="459.74" y2="404.57"/>
        <line class="cls-2" x1="-362.98" y1="-447.6" x2="474.47" y2="389.84"/>
        <line class="cls-2" x1="-348.24" y1="-462.34" x2="489.2" y2="375.11"/>
      </g>
      <g>
        <line class="cls-2" x1="-759.27" y1="-329.63" x2="78.18" y2="507.81"/>
        <line class="cls-2" x1="-749.68" y1="-344.36" x2="87.76" y2="493.08"/>
        <line class="cls-2" x1="-734.95" y1="-359.09" x2="102.49" y2="478.35"/>
        <line class="cls-2" x1="-720.22" y1="-373.82" x2="117.22" y2="463.62"/>
        <line class="cls-2" x1="-705.37" y1="-388.68" x2="132.08" y2="448.76"/>
        <line class="cls-2" x1="-720.1" y1="-373.95" x2="117.35" y2="463.5"/>
        <line class="cls-2" x1="-690.63" y1="-403.41" x2="146.81" y2="434.03"/>
        <line class="cls-2" x1="-675.9" y1="-418.14" x2="161.54" y2="419.3"/>
        <line class="cls-2" x1="-661.17" y1="-432.87" x2="176.27" y2="404.57"/>
        <line class="cls-2" x1="-646.44" y1="-447.6" x2="191" y2="389.84"/>
        <line class="cls-2" x1="-631.71" y1="-462.34" x2="205.74" y2="375.11"/>
      </g>
      <g>
        <line class="cls-2" x1="91.13" y1="-613.09" x2="928.57" y2="224.35"/>
        <line class="cls-2" x1="100.71" y1="-627.83" x2="938.15" y2="209.62"/>
        <line class="cls-2" x1="115.44" y1="-642.56" x2="952.89" y2="194.89"/>
        <line class="cls-2" x1="130.17" y1="-657.29" x2="967.62" y2="180.16"/>
        <line class="cls-2" x1="145.03" y1="-672.14" x2="982.47" y2="165.3"/>
        <line class="cls-2" x1="130.3" y1="-657.41" x2="967.74" y2="180.03"/>
        <line class="cls-2" x1="159.76" y1="-686.87" x2="997.2" y2="150.57"/>
        <line class="cls-2" x1="174.49" y1="-701.61" x2="1011.94" y2="135.84"/>
        <line class="cls-2" x1="189.22" y1="-716.34" x2="1026.67" y2="121.11"/>
        <line class="cls-2" x1="203.95" y1="-731.07" x2="1041.4" y2="106.37"/>
        <line class="cls-2" x1="218.69" y1="-745.8" x2="1056.13" y2="91.64"/>
      </g>
      <g>
        <line class="cls-2" x1="-192.34" y1="-613.09" x2="645.11" y2="224.35"/>
        <line class="cls-2" x1="-182.75" y1="-627.83" x2="654.69" y2="209.62"/>
        <line class="cls-2" x1="-168.02" y1="-642.56" x2="669.42" y2="194.89"/>
        <line class="cls-2" x1="-153.29" y1="-657.29" x2="684.15" y2="180.16"/>
        <line class="cls-2" x1="-138.44" y1="-672.14" x2="699.01" y2="165.3"/>
        <line class="cls-2" x1="-153.17" y1="-657.41" x2="684.28" y2="180.03"/>
        <line class="cls-2" x1="-123.7" y1="-686.87" x2="713.74" y2="150.57"/>
        <line class="cls-2" x1="-108.97" y1="-701.61" x2="728.47" y2="135.84"/>
        <line class="cls-2" x1="-94.24" y1="-716.34" x2="743.2" y2="121.11"/>
        <line class="cls-2" x1="-79.51" y1="-731.07" x2="757.93" y2="106.37"/>
        <line class="cls-2" x1="-64.78" y1="-745.8" x2="772.66" y2="91.64"/>
      </g>
      <g>
        <line class="cls-2" x1="-475.8" y1="-613.09" x2="361.64" y2="224.35"/>
        <line class="cls-2" x1="-466.22" y1="-627.83" x2="371.23" y2="209.62"/>
        <line class="cls-2" x1="-451.49" y1="-642.56" x2="385.96" y2="194.89"/>
        <line class="cls-2" x1="-436.76" y1="-657.29" x2="400.69" y2="180.16"/>
        <line class="cls-2" x1="-421.9" y1="-672.14" x2="415.54" y2="165.3"/>
        <line class="cls-2" x1="-436.63" y1="-657.41" x2="400.81" y2="180.03"/>
        <line class="cls-2" x1="-407.17" y1="-686.87" x2="430.27" y2="150.57"/>
        <line class="cls-2" x1="-392.44" y1="-701.61" x2="445.01" y2="135.84"/>
        <line class="cls-2" x1="-377.71" y1="-716.34" x2="459.74" y2="121.11"/>
        <line class="cls-2" x1="-362.98" y1="-731.07" x2="474.47" y2="106.37"/>
        <line class="cls-2" x1="-348.24" y1="-745.8" x2="489.2" y2="91.64"/>
      </g>
      <g>
        <line class="cls-2" x1="-759.27" y1="-613.09" x2="78.18" y2="224.35"/>
        <line class="cls-2" x1="-749.68" y1="-627.83" x2="87.76" y2="209.62"/>
        <line class="cls-2" x1="-734.95" y1="-642.56" x2="102.49" y2="194.89"/>
        <line class="cls-2" x1="-720.22" y1="-657.29" x2="117.22" y2="180.16"/>
        <line class="cls-2" x1="-705.37" y1="-672.14" x2="132.08" y2="165.3"/>
        <line class="cls-2" x1="-720.1" y1="-657.41" x2="117.35" y2="180.03"/>
        <line class="cls-2" x1="-690.63" y1="-686.87" x2="146.81" y2="150.57"/>
        <line class="cls-2" x1="-675.9" y1="-701.61" x2="161.54" y2="135.84"/>
        <line class="cls-2" x1="-661.17" y1="-716.34" x2="176.27" y2="121.11"/>
        <line class="cls-2" x1="-646.44" y1="-731.07" x2="191" y2="106.37"/>
        <line class="cls-2" x1="-631.71" y1="-745.8" x2="205.74" y2="91.64"/>
      </g>
    </pattern>
  </defs>
  <g id="Group_65" data-name="Group 65">
    <g id="Path_84" data-name="Path 84">
      <path class="cls-3" d="M1253.07,259.28l-206.36,0h-8.49v-8.42l0-174.32V68.09h8.49l190.28,0h16l-94,95.56Z"/>
    </g>
    <g id="Path_84-2" data-name="Path 84">
      <path class="cls-4" d="M1253.07,259.28l-206.36,0h-8.49v-8.42l0-174.32V68.09h8.49l190.28,0h16l-94,95.56Z"/>
    </g>
    <g id="Path_84-3" data-name="Path 84">
      <path class="cls-3" d="M101.84,163.69,7.89,68.13h16l190.28,0h8.49v8.42l0,174.32v8.42h-8.48l-206.36,0Z"/>
    </g>
    <g id="Path_84-4" data-name="Path 84">
      <path class="cls-4" d="M101.84,163.69,7.89,68.13h16l190.28,0h8.49v8.42l0,174.32v8.42h-8.48l-206.36,0Z"/>
    </g>
    <g id="Rectangle_37" data-name="Rectangle 37">
      <rect class="cls-5" x="146.88" y="8.01" width="964.12" height="191.16"/>
    </g>
  </g>
  <g>
    <path class="cls-6" d="M385.15,80.81c.22.52-.08,1-.67,1.33a30.4,30.4,0,0,1-15.43,4.26c-15.15,0-25.29-10.59-25.29-26.47s10.14-26.46,25.29-26.46a30.3,30.3,0,0,1,15.43,4.26c.59.3.89.81.67,1.32l-4.86,10.22a.94.94,0,0,1-1.39.59,16.34,16.34,0,0,0-8.53-2.06c-6.62,0-11,4.86-11,12.13s4.41,12.13,11,12.13A16.24,16.24,0,0,0,378.9,70a1,1,0,0,1,1.39.59Z"/>
    <path class="cls-6" d="M412.35,86.33c-15.66,0-26.1-10.59-26.1-26.4s10.44-26.54,26.1-26.54S438.44,44,438.44,59.93,428,86.33,412.35,86.33Zm0-38.09c-6,0-10.08,4.71-10.08,11.69s4.05,11.69,10.08,11.69,10.07-4.7,10.07-11.69S418.37,48.24,412.35,48.24Z"/>
    <path class="cls-6" d="M485.27,34.57a1.08,1.08,0,0,1,1.1,1.1v48.6a1.07,1.07,0,0,1-1.1,1H472.55a2,2,0,0,1-1.54-1L458.22,61.48V84.27a1.08,1.08,0,0,1-1.11,1h-13a1.05,1.05,0,0,1-1-1V35.67a1.06,1.06,0,0,1,1-1.1h12.72a1.94,1.94,0,0,1,1.69,1l12.72,22.86V35.67a1.11,1.11,0,0,1,1-1.1Z"/>
    <path class="cls-6" d="M529.6,34.57a1,1,0,0,1,1,1l-1.11,11.17a1.24,1.24,0,0,1-1.17,1h-11V84.27a1.05,1.05,0,0,1-1,1h-13a1.12,1.12,0,0,1-1.1-1V47.8h-12.2a1,1,0,0,1-1-1V35.67a1.11,1.11,0,0,1,1-1.1Z"/>
    <path class="cls-6" d="M575.25,84.12c.37.66-.15,1.18-.81,1.18H558.71A1.92,1.92,0,0,1,557,84.12l-7.65-16h-.88V84.27a1.15,1.15,0,0,1-1.18,1H534.37a1.12,1.12,0,0,1-1.1-1V35.67a1.12,1.12,0,0,1,1.1-1.1h19.41c11.32,0,18.82,6.62,18.82,16.61a15.53,15.53,0,0,1-9,14.05ZM552.83,55.6c2.5,0,4.19-1.55,4.19-3.9s-1.69-3.9-4.19-3.9h-4.34v7.8Z"/>
    <path class="cls-6" d="M603.4,86.33c-15.66,0-26.1-10.59-26.1-26.4s10.44-26.54,26.1-26.54S629.5,44,629.5,59.93,619.06,86.33,603.4,86.33Zm0-38.09c-6,0-10.07,4.71-10.07,11.69s4,11.69,10.07,11.69,10.07-4.7,10.07-11.69S609.43,48.24,603.4,48.24Z"/>
    <path class="cls-6" d="M663,72.06a1,1,0,0,1,1,1l-1,11.18a1.27,1.27,0,0,1-1.18,1H635.23a1.12,1.12,0,0,1-1.1-1V35.67a1.12,1.12,0,0,1,1.1-1.1h13a1.13,1.13,0,0,1,1.11,1.1V72.06Z"/>
    <path class="cls-6" d="M702.28,72.06a1.06,1.06,0,0,1,1.1,1V84.27a1.13,1.13,0,0,1-1.1,1H668.09c-.51,0-1-.59-1.18-1.11V35.6a.93.93,0,0,1,1-1h33.45a1.13,1.13,0,0,1,1.18,1V46.7a1.1,1.1,0,0,1-1.18,1.1H682.21v5.81h15.58a.89.89,0,0,1,1,1l-1,10.29a1.3,1.3,0,0,1-1.25,1H682.21v6.25Z"/>
    <path class="cls-6" d="M742.71,72.06a1.06,1.06,0,0,1,1.1,1V84.27a1.12,1.12,0,0,1-1.1,1H708.52c-.51,0-1-.59-1.17-1.11V35.6a.93.93,0,0,1,1-1h33.45a1.13,1.13,0,0,1,1.18,1V46.7a1.1,1.1,0,0,1-1.18,1.1H722.64v5.81h15.58a.89.89,0,0,1,1,1l-1,10.29a1.29,1.29,0,0,1-1.25,1H722.64v6.25Z"/>
    <path class="cls-6" d="M789.9,84.12c.37.66-.15,1.18-.81,1.18H773.36a1.93,1.93,0,0,1-1.69-1.18l-7.65-16h-.88V84.27a1.14,1.14,0,0,1-1.17,1H749a1.13,1.13,0,0,1-1.11-1V35.67a1.13,1.13,0,0,1,1.11-1.1h19.4c11.33,0,18.83,6.62,18.83,16.61a15.52,15.52,0,0,1-9,14.05ZM767.48,55.6c2.5,0,4.19-1.55,4.19-3.9s-1.69-3.9-4.19-3.9h-4.34v7.8Z"/>
    <path class="cls-6" d="M841.14,34.57a1.24,1.24,0,0,1,1.25,1.25V66.48c0,13-7,19.85-20.29,19.85S802,79.49,801.81,66.48V35.82a1.28,1.28,0,0,1,1.25-1.25H815.7A1.24,1.24,0,0,1,817,35.82v32c0,3.38,1.91,5.37,5.15,5.37s5.14-2,5.14-5.3V35.82a1.29,1.29,0,0,1,1.25-1.25Z"/>
    <path class="cls-6" d="M915.39,34.57a.89.89,0,0,1,.88,1.25l-13.38,48.3a1.84,1.84,0,0,1-1.62,1.18H888.48a1.86,1.86,0,0,1-1.69-1.18L880.1,58.24l-6.69,25.88a1.86,1.86,0,0,1-1.69,1.18H858.93a1.84,1.84,0,0,1-1.62-1.18l-13.38-48.3a.89.89,0,0,1,.88-1.25h16.47A1.84,1.84,0,0,1,863,35.82l4.19,22,5.66-22a2.05,2.05,0,0,1,2-1.25h10.58a2.06,2.06,0,0,1,2,1.25l5.66,22,4.19-22a1.84,1.84,0,0,1,1.69-1.25Z"/>
    <path class="cls-6" d="M464.32,122.79c9.63,0,16,5.73,16,14.33,0,5.29-2.57,9.19-6.54,10.37,4.63,1.17,7.65,5.58,7.65,11.69,0,8.6-6.4,14.33-16,14.33h-23.3a1,1,0,0,1-1-1V123.89a1.11,1.11,0,0,1,1-1.1Zm-3.39,19.92c2.21,0,3.68-1.33,3.68-3.38s-1.47-3.39-3.68-3.39H456.3v6.77Zm1.33,17.64a3.53,3.53,0,1,0,0-7.06h-6v7.06Z"/>
    <path class="cls-6" d="M520.85,160.28a1.06,1.06,0,0,1,1.1.95v11.25a1.11,1.11,0,0,1-1.1,1H486.66c-.51,0-1-.59-1.17-1.1v-48.6a.92.92,0,0,1,1-1H520a1.13,1.13,0,0,1,1.17,1v11.1A1.1,1.1,0,0,1,520,136H500.78v5.81h15.58a.88.88,0,0,1,1,.95l-1,10.29a1.29,1.29,0,0,1-1.25,1H500.78v6.25Z"/>
    <path class="cls-6" d="M530.11,158.07c.22-.73.73-.95,1.32-.58A27.81,27.81,0,0,0,541.65,161c2.35,0,3.9-1.1,3.9-2.79,0-4.34-20.66-4.12-20.66-20.14,0-9.85,7.42-16.4,18.6-16.4A31.82,31.82,0,0,1,560,127c.58.36.81,1,.58,1.32l-4.63,10.36c-.22.74-.73,1-1.32.59-3.6-2.06-7.79-3.6-10.37-3.82-2.28,0-3.75,1-3.75,2.65,0,4.33,20.81,4,20.81,20.21,0,9.78-7.57,16.32-18.89,16.32-6.18,0-12.65-1.91-16.33-4.85-.58-.44-.8-.95-.58-1.32Z"/>
    <path class="cls-6" d="M603.33,122.79a1,1,0,0,1,1,1L603.25,135a1.24,1.24,0,0,1-1.17,1h-11v36.46a1,1,0,0,1-1,1h-13a1.11,1.11,0,0,1-1.1-1V136h-12.2a1,1,0,0,1-1-1v-11.1a1.11,1.11,0,0,1,1-1.1Z"/>
    <path class="cls-6" d="M642.22,160.28a1.06,1.06,0,0,1,1.1.95v11.25a1.12,1.12,0,0,1-1.1,1H608c-.51,0-1-.59-1.18-1.1v-48.6a.93.93,0,0,1,1-1h33.45a1.14,1.14,0,0,1,1.18,1v11.1a1.11,1.11,0,0,1-1.18,1.11H622.14v5.81h15.59a.88.88,0,0,1,1,.95l-1,10.29a1.3,1.3,0,0,1-1.25,1H622.14v6.25Z"/>
    <path class="cls-6" d="M676.32,160.28a1,1,0,0,1,1,1l-1,11.17a1.25,1.25,0,0,1-1.18,1H648.53a1.12,1.12,0,0,1-1.1-1V123.89a1.13,1.13,0,0,1,1.1-1.1h13a1.12,1.12,0,0,1,1.1,1.1v36.39Z"/>
    <path class="cls-6" d="M709.26,160.28a1,1,0,0,1,1,1l-1,11.17a1.24,1.24,0,0,1-1.17,1H681.47a1.11,1.11,0,0,1-1.1-1V123.89a1.12,1.12,0,0,1,1.1-1.1h13a1.12,1.12,0,0,1,1.1,1.1v36.39Z"/>
    <path class="cls-6" d="M727.34,122.79a1.08,1.08,0,0,1,1.1,1.1v48.59a1.06,1.06,0,0,1-1.1,1h-13a1.1,1.1,0,0,1-1-1V123.89a1.11,1.11,0,0,1,1-1.1Z"/>
    <path class="cls-6" d="M775.93,122.79a1.08,1.08,0,0,1,1.11,1.1v48.59a1.07,1.07,0,0,1-1.11,1H763.22a2,2,0,0,1-1.55-.95l-12.79-22.87v22.79a1.06,1.06,0,0,1-1.1,1h-13a1,1,0,0,1-1-1V123.89a1.06,1.06,0,0,1,1-1.1h12.71a1.93,1.93,0,0,1,1.69.95l12.72,22.86V123.89a1.12,1.12,0,0,1,1-1.1Z"/>
    <path class="cls-6" d="M825.63,142.41a1.12,1.12,0,0,1,1.1,1v23.38a2.47,2.47,0,0,1-.88,1.77c-4.41,3.74-11.18,5.95-18.23,5.95-15.88,0-26.47-10.59-26.47-26.46s10.59-26.47,26.47-26.47a30.46,30.46,0,0,1,15.44,4.26,1.16,1.16,0,0,1,.66,1.33L820,138a1.12,1.12,0,0,1-1.4.59A23.16,23.16,0,0,0,808.06,136c-6.77,0-11.32,4.85-11.32,12.06s4.55,12.2,11.32,12.2c2.72,0,4.56-.52,5.36-1.4v-4.26h-6.76c-.66,0-1.1-.3-1.18-.81l-1-10.15a1.08,1.08,0,0,1,1.18-1.25Zm-11.76,15.37v0Z"/>
  </g>
</svg>
