<svg id="Laag_1" data-name="Laag 1" xmlns="http://www.w3.org/2000/svg" xmlns:xlink="http://www.w3.org/1999/xlink" viewBox="0 0 495.21 349.42">
  <defs>
    <style>
      .cls-1, .cls-17, .cls-2, .cls-4 {
        fill: none;
      }

      .cls-1, .cls-4 {
        stroke: #503c21;
        stroke-linecap: round;
        stroke-linejoin: round;
      }

      .cls-1 {
        stroke-width: 6px;
      }

      .cls-3 {
        clip-path: url(#clip-path);
      }

      .cls-4 {
        stroke-width: 5px;
      }

      .cls-5 {
        fill: #f5d697;
      }

      .cls-6 {
        opacity: 0.5;
      }

      .cls-7 {
        clip-path: url(#clip-path-2);
      }

      .cls-8 {
        fill: #a57d39;
      }

      .cls-9 {
        clip-path: url(#clip-path-3);
      }

      .cls-10 {
        clip-path: url(#clip-path-4);
      }

      .cls-11 {
        clip-path: url(#clip-path-5);
      }

      .cls-12 {
        clip-path: url(#clip-path-6);
      }

      .cls-13 {
        clip-path: url(#clip-path-7);
      }

      .cls-14 {
        clip-path: url(#clip-path-8);
      }

      .cls-15 {
        clip-path: url(#clip-path-9);
      }

      .cls-16 {
        clip-path: url(#clip-path-10);
      }

      .cls-17 {
        stroke: #ffd02a;
        stroke-miterlimit: 10;
        stroke-width: 158px;
      }

      .cls-18 {
        clip-path: url(#clip-path-11);
      }
    </style>
    <clipPath id="clip-path">
      <path class="cls-1" d="M248.15-502.93a49.77,49.77,0,0,0-9.86,33.7c-13.09-17.9-35.38-17.46-43.07-17.88a3.77,3.77,0,0,0-2.72.93A44.63,44.63,0,0,0,181-469.95a40.73,40.73,0,0,0-1.77,6.28c-31.15-14.77-30.41-45-30.19-52.29a3.89,3.89,0,0,1,.87-2.33c2-2.43,7.78-8.13,20.33-11.45,6.15-1.62,17.54-.32,26.26,2.84a3.85,3.85,0,0,1,1.85,1.45c12.72,18.27,24.37,18.85,33.08,14.42a148.52,148.52,0,0,0,15.29,7.5l1.42.59Zm100.28,68.57a40.43,40.43,0,0,0-13.8-14.46,3.85,3.85,0,0,0-2.75-.52c-7.37,1.38-41.77,5.77-32.76-35.13a3.83,3.83,0,0,0-.18-2.34,61.36,61.36,0,0,0-5.09-9.48,45.08,45.08,0,0,1-6.57,1.06c-10.2.93-23-1-39.13-7.7a49.77,49.77,0,0,0-9.86,33.7,46,46,0,0,1,6.21,12.08,67.85,67.85,0,0,1,3.32,16.28h0a128.79,128.79,0,0,0,18.44,23.92l.79.81a65.19,65.19,0,0,1,9.72-14.35,3.86,3.86,0,0,1,2.15-1.26c3.08-.62,11.17-1.38,23,4,5.79,2.64,13.78,10.86,18.54,18.82a3.87,3.87,0,0,1,.51,2.3,53.51,53.51,0,0,0,.65,14.79c16-3.34,26.34-16,30.71-20.59a3.76,3.76,0,0,0,1.05-2.66A44.78,44.78,0,0,0,348.43-434.36Zm-21-101.94A44.81,44.81,0,0,0,315.29-552a40.51,40.51,0,0,0-18.39-7.82,3.87,3.87,0,0,0-2.73.61c-6.23,4.19-36.08,21.82-44-19.3a3.81,3.81,0,0,0-1.1-2.08c-6.68-6.42-16.56-12.25-22.84-13.26-12.82-2.06-20.43.8-23.23,2.21a3.8,3.8,0,0,0-1.74,1.78c-4,8.22-23.11,48.66,30.17,78.87a148.52,148.52,0,0,0,15.29,7.5l1.42.59h0c16.12,6.65,28.93,8.63,39.13,7.7a45.08,45.08,0,0,0,6.57-1.06c24.21-5.77,30.9-29.47,33.69-37.14A3.76,3.76,0,0,0,327.45-536.3Zm-79.63,95.44h0a67.85,67.85,0,0,0-3.32-16.28,46,46,0,0,0-6.21-12.08c-13.09-17.9-35.38-17.46-43.07-17.88a3.77,3.77,0,0,0-2.72.93A44.63,44.63,0,0,0,181-469.95a40.73,40.73,0,0,0-1.77,6.28,40.26,40.26,0,0,0-.34,13.59,3.8,3.8,0,0,0,1.37,2.44c5.83,4.73,31.41,28.13-5.61,47.7a3.85,3.85,0,0,0-1.68,1.66c-4.19,8.27-6.87,19.42-6,25.72,1.77,12.86,6.73,19.3,8.9,21.57a3.87,3.87,0,0,0,2.2,1.15c9.78,1.5,61.1,9,69.34-68.69A115.73,115.73,0,0,0,247.82-440.86Zm136.53,95.35a44.8,44.8,0,0,0-7.57-18.38,40.37,40.37,0,0,0-15.69-12.4,3.84,3.84,0,0,0-2.79-.13c-6.11,2.06-31.64,9.1-36.69-15.42a53.51,53.51,0,0,1-.65-14.79,3.87,3.87,0,0,0-.51-2.3c-4.76-8-12.75-16.18-18.54-18.82-11.82-5.37-19.91-4.61-23-4a3.86,3.86,0,0,0-2.15,1.26,65.19,65.19,0,0,0-9.72,14.35c-8.42,17.14-12.44,46.78,30.8,80.94,54.72,43.24,78.9,2.26,85.83-7.53A3.8,3.8,0,0,0,384.35-345.51Zm-62-159.23a3.75,3.75,0,0,0-1.54,2.41A44.7,44.7,0,0,0,322-482.48a40.32,40.32,0,0,0,10.79,16.83,3.84,3.84,0,0,0,2.59,1c7.5.05,42.1,2.3,25.46,40.73a3.84,3.84,0,0,0-.27,2.34c1.9,9.08,6.78,19.46,11.4,23.84,9.43,8.93,17.32,10.85,20.43,11.26a3.84,3.84,0,0,0,2.44-.49c8.58-4.94,53.33-31.16,11.13-97C368.33-542.6,332.13-511.74,322.37-504.74ZM469.14-370.31a3.8,3.8,0,0,0-2.69-1,44.74,44.74,0,0,0-19.12,5.45,40.34,40.34,0,0,0-14.09,14.17,3.76,3.76,0,0,0-.45,2.76c1.58,7.34,6.86,41.6-34.26,33.67a3.84,3.84,0,0,0-2.34.24c-8.45,3.83-17.53,10.83-20.8,16.29-6.68,11.13-6.85,19.26-6.58,22.38a4,4,0,0,0,1,2.28c6.68,7.3,42,45.33,97.08-10.11C516.06-333.62,478.09-362.3,469.14-370.31ZM139.08-486.5a3.78,3.78,0,0,0-.36-2.85,44.82,44.82,0,0,0-13.58-14.53,40.53,40.53,0,0,0-19-6.07,3.89,3.89,0,0,0-2.66.86c-5.8,4.76-33.87,25.11-45.59-15.1a4,4,0,0,0-1.29-2c-7.26-5.77-17.64-10.64-24-11.07-13-.85-20.26,2.71-22.91,4.38a3.78,3.78,0,0,0-1.57,1.93c-3.45,9.28-21.16,58,53.32,81.74C127.85-428,136-474.89,139.08-486.5Z"/>
    </clipPath>
    <clipPath id="clip-path-2">
      <rect class="cls-2" x="149.49" y="68.21" width="137.82" height="30.5"/>
    </clipPath>
    <clipPath id="clip-path-3">
      <rect class="cls-2" x="260.23" y="83.48" width="93.15" height="101.77"/>
    </clipPath>
    <clipPath id="clip-path-4">
      <rect class="cls-2" x="202.35" y="4.16" width="125.74" height="60.23"/>
    </clipPath>
    <clipPath id="clip-path-5">
      <rect class="cls-2" x="166.79" y="111.52" width="36.2" height="136.73"/>
    </clipPath>
    <clipPath id="clip-path-6">
      <rect class="cls-2" x="278.17" y="166.61" width="106.42" height="88.2"/>
    </clipPath>
    <clipPath id="clip-path-7">
      <rect class="cls-2" x="320.22" y="94.83" width="72.98" height="117.49"/>
    </clipPath>
    <clipPath id="clip-path-8">
      <rect class="cls-2" x="368.72" y="227.4" width="99.35" height="95.78"/>
    </clipPath>
    <clipPath id="clip-path-9">
      <rect class="cls-2" x="9.03" y="61.35" width="130.46" height="50.42"/>
    </clipPath>
    <clipPath id="clip-path-10">
      <path class="cls-2" d="M247.8,96.36a49.77,49.77,0,0,0-9.86,33.7c-13.09-17.9-35.38-17.46-43.07-17.88a3.77,3.77,0,0,0-2.72.93,44.63,44.63,0,0,0-11.49,16.23,40.73,40.73,0,0,0-1.77,6.28c-31.15-14.77-30.41-45-30.19-52.29a3.89,3.89,0,0,1,.87-2.33c2-2.43,7.78-8.13,20.33-11.45,6.15-1.62,17.54-.32,26.26,2.84A3.85,3.85,0,0,1,198,73.84c12.72,18.27,24.37,18.85,33.08,14.42a148.52,148.52,0,0,0,15.29,7.5l1.42.59Zm100.28,68.57a40.43,40.43,0,0,0-13.8-14.46,3.85,3.85,0,0,0-2.75-.52c-7.37,1.38-41.77,5.77-32.76-35.13a3.83,3.83,0,0,0-.18-2.34A61.36,61.36,0,0,0,293.5,103a45.08,45.08,0,0,1-6.57,1.06c-10.2.93-23-1-39.13-7.7a49.77,49.77,0,0,0-9.86,33.7,46,46,0,0,1,6.21,12.08,67.85,67.85,0,0,1,3.32,16.28h0a128.79,128.79,0,0,0,18.44,23.92l.79.81a65.19,65.19,0,0,1,9.72-14.35,3.86,3.86,0,0,1,2.15-1.26c3.08-.62,11.17-1.38,23,4,5.79,2.64,13.78,10.86,18.54,18.82a3.87,3.87,0,0,1,.51,2.3,53.51,53.51,0,0,0,.65,14.79c16-3.34,26.34-16,30.71-20.59a3.76,3.76,0,0,0,1-2.66A44.78,44.78,0,0,0,348.08,164.93ZM327.1,63a44.81,44.81,0,0,0-12.16-15.74,40.51,40.51,0,0,0-18.39-7.82,3.87,3.87,0,0,0-2.73.61c-6.23,4.19-36.08,21.82-44-19.3a3.81,3.81,0,0,0-1.1-2.08c-6.68-6.42-16.56-12.25-22.84-13.26-12.82-2.06-20.43.8-23.23,2.21a3.8,3.8,0,0,0-1.74,1.78c-4,8.22-23.11,48.66,30.17,78.87a148.52,148.52,0,0,0,15.29,7.5l1.42.59h0c16.12,6.65,28.93,8.63,39.13,7.7A45.08,45.08,0,0,0,293.5,103c24.21-5.77,30.9-29.47,33.69-37.14A3.76,3.76,0,0,0,327.1,63Zm-79.63,95.44h0a67.85,67.85,0,0,0-3.32-16.28,46,46,0,0,0-6.21-12.08c-13.09-17.9-35.38-17.46-43.07-17.88a3.77,3.77,0,0,0-2.72.93,44.63,44.63,0,0,0-11.49,16.23,40.73,40.73,0,0,0-1.77,6.28,40.26,40.26,0,0,0-.34,13.59,3.8,3.8,0,0,0,1.37,2.44c5.83,4.73,31.41,28.13-5.61,47.7a3.85,3.85,0,0,0-1.68,1.66c-4.19,8.27-6.87,19.42-6,25.72,1.77,12.86,6.73,19.3,8.9,21.57a3.87,3.87,0,0,0,2.2,1.15c9.78,1.5,61.1,9,69.34-68.69A115.73,115.73,0,0,0,247.47,158.43ZM384,253.78a44.8,44.8,0,0,0-7.57-18.38A40.37,40.37,0,0,0,360.74,223a3.84,3.84,0,0,0-2.79-.13c-6.11,2.06-31.64,9.1-36.69-15.42a53.51,53.51,0,0,1-.65-14.79,3.87,3.87,0,0,0-.51-2.3c-4.76-8-12.75-16.18-18.54-18.82-11.82-5.37-19.91-4.61-23-4a3.86,3.86,0,0,0-2.15,1.26,65.19,65.19,0,0,0-9.72,14.35c-8.42,17.14-12.44,46.78,30.8,80.94,54.72,43.24,78.9,2.26,85.83-7.53A3.8,3.8,0,0,0,384,253.78ZM322,94.54A3.8,3.8,0,0,0,320.49,97a44.85,44.85,0,0,0,1.17,19.85,40.39,40.39,0,0,0,10.79,16.83,3.86,3.86,0,0,0,2.6,1c7.5,0,42.1,2.3,25.46,40.73a3.84,3.84,0,0,0-.27,2.34c1.9,9.08,6.78,19.46,11.4,23.83,9.43,8.93,17.32,10.86,20.43,11.27a3.85,3.85,0,0,0,2.44-.49c8.58-4.94,53.33-31.16,11.13-97C368,56.69,331.78,87.55,322,94.54ZM468.8,229a3.76,3.76,0,0,0-2.69-1A44.7,44.7,0,0,0,447,233.45a40.37,40.37,0,0,0-14.1,14.17,3.86,3.86,0,0,0-.45,2.76c1.58,7.34,6.87,41.6-34.25,33.67a3.83,3.83,0,0,0-2.34.24c-8.46,3.83-17.53,10.83-20.8,16.29-6.68,11.13-6.85,19.26-6.58,22.38a3.82,3.82,0,0,0,1,2.28c6.68,7.3,42,45.33,97.08-10.12C515.71,265.67,477.75,237,468.8,229ZM138.74,112.78a3.85,3.85,0,0,0-.36-2.84A45,45,0,0,0,124.8,95.41a40.41,40.41,0,0,0-19-6.07,3.84,3.84,0,0,0-2.66.86C97.28,95,69.22,115.3,57.5,75.1a4,4,0,0,0-1.29-2c-7.26-5.77-17.64-10.65-24-11.07C19.27,61.21,12,64.77,9.3,66.44a3.88,3.88,0,0,0-1.57,1.93c-3.44,9.28-21.15,58,53.33,81.74C127.51,171.27,135.69,124.4,138.74,112.78Z"/>
    </clipPath>
    <clipPath id="clip-path-11">
      <path class="cls-1" d="M248.15,95.8a49.77,49.77,0,0,0-9.86,33.7c-13.09-17.9-35.38-17.46-43.07-17.88a3.77,3.77,0,0,0-2.72.93A44.63,44.63,0,0,0,181,128.78a40.73,40.73,0,0,0-1.77,6.28c-31.15-14.77-30.41-45-30.19-52.29a3.89,3.89,0,0,1,.87-2.33c2-2.43,7.78-8.13,20.33-11.45,6.15-1.62,17.54-.32,26.26,2.84a3.85,3.85,0,0,1,1.85,1.45c12.72,18.27,24.37,18.85,33.08,14.42a148.52,148.52,0,0,0,15.29,7.5l1.42.59Zm100.28,68.57a40.43,40.43,0,0,0-13.8-14.46,3.85,3.85,0,0,0-2.75-.52c-7.37,1.38-41.77,5.77-32.76-35.13a3.83,3.83,0,0,0-.18-2.34,61.36,61.36,0,0,0-5.09-9.48,45.08,45.08,0,0,1-6.57,1.06c-10.2.93-23-1-39.13-7.7a49.77,49.77,0,0,0-9.86,33.7,46,46,0,0,1,6.21,12.08,67.85,67.85,0,0,1,3.32,16.28h0a128.79,128.79,0,0,0,18.44,23.92l.79.81a65.19,65.19,0,0,1,9.72-14.35,3.86,3.86,0,0,1,2.15-1.26c3.08-.62,11.17-1.38,23,4,5.79,2.64,13.78,10.86,18.54,18.82a3.87,3.87,0,0,1,.51,2.3,53.51,53.51,0,0,0,.65,14.79c16-3.34,26.34-16,30.71-20.59a3.76,3.76,0,0,0,1.05-2.66A44.78,44.78,0,0,0,348.43,164.37Zm-21-101.94a44.81,44.81,0,0,0-12.16-15.74,40.51,40.51,0,0,0-18.39-7.82,3.87,3.87,0,0,0-2.73.61c-6.23,4.19-36.08,21.82-44-19.3a3.81,3.81,0,0,0-1.1-2.08c-6.68-6.42-16.56-12.25-22.84-13.26-12.82-2.06-20.43.8-23.23,2.21a3.8,3.8,0,0,0-1.74,1.78c-4,8.22-23.11,48.66,30.17,78.87a148.52,148.52,0,0,0,15.29,7.5l1.42.59h0c16.12,6.65,28.93,8.63,39.13,7.7a45.08,45.08,0,0,0,6.57-1.06c24.21-5.77,30.9-29.47,33.69-37.14A3.76,3.76,0,0,0,327.45,62.43Zm-79.63,95.44h0a67.85,67.85,0,0,0-3.32-16.28,46,46,0,0,0-6.21-12.08c-13.09-17.9-35.38-17.46-43.07-17.88a3.77,3.77,0,0,0-2.72.93A44.63,44.63,0,0,0,181,128.78a40.73,40.73,0,0,0-1.77,6.28,40.26,40.26,0,0,0-.34,13.59,3.8,3.8,0,0,0,1.37,2.44c5.83,4.73,31.41,28.13-5.61,47.7a3.85,3.85,0,0,0-1.68,1.66c-4.19,8.27-6.87,19.42-6,25.72,1.77,12.86,6.73,19.3,8.9,21.57a3.87,3.87,0,0,0,2.2,1.15c9.78,1.5,61.1,9,69.34-68.69A115.73,115.73,0,0,0,247.82,157.87Zm136.53,95.35a44.8,44.8,0,0,0-7.57-18.38,40.37,40.37,0,0,0-15.69-12.4,3.84,3.84,0,0,0-2.79-.13c-6.11,2.06-31.64,9.1-36.69-15.42A53.51,53.51,0,0,1,321,192.1a3.87,3.87,0,0,0-.51-2.3c-4.76-8-12.75-16.18-18.54-18.82-11.82-5.37-19.91-4.61-23-4a3.86,3.86,0,0,0-2.15,1.26,65.19,65.19,0,0,0-9.72,14.35c-8.42,17.14-12.44,46.78,30.8,80.94,54.72,43.24,78.9,2.26,85.83-7.53A3.8,3.8,0,0,0,384.35,253.22ZM322.37,94a3.75,3.75,0,0,0-1.54,2.41A44.7,44.7,0,0,0,322,116.25a40.32,40.32,0,0,0,10.79,16.83,3.84,3.84,0,0,0,2.59,1c7.5,0,42.1,2.3,25.46,40.73a3.84,3.84,0,0,0-.27,2.34c1.9,9.08,6.78,19.46,11.4,23.84,9.43,8.93,17.32,10.85,20.43,11.26a3.84,3.84,0,0,0,2.44-.49c8.58-4.94,53.33-31.16,11.13-97C368.33,56.13,332.13,87,322.37,94ZM469.14,228.42a3.8,3.8,0,0,0-2.69-1,44.74,44.74,0,0,0-19.12,5.45,40.34,40.34,0,0,0-14.09,14.17,3.76,3.76,0,0,0-.45,2.76c1.58,7.34,6.86,41.6-34.26,33.67a3.91,3.91,0,0,0-2.34.24c-8.45,3.83-17.53,10.83-20.8,16.29-6.68,11.13-6.85,19.26-6.58,22.38a4,4,0,0,0,1,2.28c6.68,7.3,42,45.33,97.08-10.11C516.06,265.11,478.09,236.43,469.14,228.42ZM139.08,112.23a3.78,3.78,0,0,0-.36-2.85,44.82,44.82,0,0,0-13.58-14.53,40.53,40.53,0,0,0-19-6.07,3.89,3.89,0,0,0-2.66.86c-5.8,4.76-33.87,25.11-45.59-15.1a4,4,0,0,0-1.29-2c-7.26-5.77-17.64-10.64-24-11.07-13-.85-20.26,2.71-22.91,4.38a3.78,3.78,0,0,0-1.57,1.93c-3.45,9.28-21.16,58,53.32,81.74C127.85,170.71,136,123.84,139.08,112.23Z"/>
    </clipPath>
  </defs>
  <g>
    <g class="cls-3">
      <g>
        <line class="cls-4" x1="0.59" y1="-709.66" x2="0.59" y2="244.98"/>
        <line class="cls-4" x1="42.09" y1="-709.66" x2="42.09" y2="244.98"/>
        <line class="cls-4" x1="62.3" y1="-709.66" x2="62.3" y2="244.98"/>
        <line class="cls-4" x1="20.8" y1="-709.66" x2="20.8" y2="244.98"/>
        <line class="cls-4" x1="103.79" y1="-709.66" x2="103.79" y2="244.98"/>
        <line class="cls-4" x1="124" y1="-709.66" x2="124" y2="244.98"/>
        <line class="cls-4" x1="82.5" y1="-709.66" x2="82.5" y2="244.98"/>
        <line class="cls-4" x1="145.29" y1="-709.66" x2="145.29" y2="244.98"/>
        <line class="cls-4" x1="165.49" y1="-709.66" x2="165.49" y2="244.98"/>
        <line class="cls-4" x1="206.99" y1="-709.66" x2="206.99" y2="244.98"/>
        <line class="cls-4" x1="227.2" y1="-709.66" x2="227.2" y2="244.98"/>
        <line class="cls-4" x1="185.7" y1="-709.66" x2="185.7" y2="244.98"/>
        <line class="cls-4" x1="268.69" y1="-709.66" x2="268.69" y2="244.98"/>
        <line class="cls-4" x1="288.9" y1="-709.66" x2="288.9" y2="244.98"/>
        <line class="cls-4" x1="247.41" y1="-709.66" x2="247.41" y2="244.98"/>
        <line class="cls-4" x1="310.19" y1="-709.66" x2="310.19" y2="244.98"/>
        <line class="cls-4" x1="330.4" y1="-709.66" x2="330.4" y2="244.98"/>
        <line class="cls-4" x1="371.89" y1="-709.66" x2="371.89" y2="244.98"/>
        <line class="cls-4" x1="392.1" y1="-709.66" x2="392.1" y2="244.98"/>
        <line class="cls-4" x1="350.61" y1="-709.66" x2="350.61" y2="244.98"/>
        <line class="cls-4" x1="433.6" y1="-709.66" x2="433.6" y2="244.98"/>
        <line class="cls-4" x1="453.8" y1="-709.66" x2="453.8" y2="244.98"/>
        <line class="cls-4" x1="412.31" y1="-709.66" x2="412.31" y2="244.98"/>
        <line class="cls-4" x1="475.09" y1="-709.66" x2="475.09" y2="244.98"/>
        <line class="cls-4" x1="495.3" y1="-709.66" x2="495.3" y2="244.98"/>
      </g>
    </g>
    <path class="cls-1" d="M248.15-502.93a49.77,49.77,0,0,0-9.86,33.7c-13.09-17.9-35.38-17.46-43.07-17.88a3.77,3.77,0,0,0-2.72.93A44.63,44.63,0,0,0,181-469.95a40.73,40.73,0,0,0-1.77,6.28c-31.15-14.77-30.41-45-30.19-52.29a3.89,3.89,0,0,1,.87-2.33c2-2.43,7.78-8.13,20.33-11.45,6.15-1.62,17.54-.32,26.26,2.84a3.85,3.85,0,0,1,1.85,1.45c12.72,18.27,24.37,18.85,33.08,14.42a148.52,148.52,0,0,0,15.29,7.5l1.42.59Zm100.28,68.57a40.43,40.43,0,0,0-13.8-14.46,3.85,3.85,0,0,0-2.75-.52c-7.37,1.38-41.77,5.77-32.76-35.13a3.83,3.83,0,0,0-.18-2.34,61.36,61.36,0,0,0-5.09-9.48,45.08,45.08,0,0,1-6.57,1.06c-10.2.93-23-1-39.13-7.7a49.77,49.77,0,0,0-9.86,33.7,46,46,0,0,1,6.21,12.08,67.85,67.85,0,0,1,3.32,16.28h0a128.79,128.79,0,0,0,18.44,23.92l.79.81a65.19,65.19,0,0,1,9.72-14.35,3.86,3.86,0,0,1,2.15-1.26c3.08-.62,11.17-1.38,23,4,5.79,2.64,13.78,10.86,18.54,18.82a3.87,3.87,0,0,1,.51,2.3,53.51,53.51,0,0,0,.65,14.79c16-3.34,26.34-16,30.71-20.59a3.76,3.76,0,0,0,1.05-2.66A44.78,44.78,0,0,0,348.43-434.36Zm-21-101.94A44.81,44.81,0,0,0,315.29-552a40.51,40.51,0,0,0-18.39-7.82,3.87,3.87,0,0,0-2.73.61c-6.23,4.19-36.08,21.82-44-19.3a3.81,3.81,0,0,0-1.1-2.08c-6.68-6.42-16.56-12.25-22.84-13.26-12.82-2.06-20.43.8-23.23,2.21a3.8,3.8,0,0,0-1.74,1.78c-4,8.22-23.11,48.66,30.17,78.87a148.52,148.52,0,0,0,15.29,7.5l1.42.59h0c16.12,6.65,28.93,8.63,39.13,7.7a45.08,45.08,0,0,0,6.57-1.06c24.21-5.77,30.9-29.47,33.69-37.14A3.76,3.76,0,0,0,327.45-536.3Zm-79.63,95.44h0a67.85,67.85,0,0,0-3.32-16.28,46,46,0,0,0-6.21-12.08c-13.09-17.9-35.38-17.46-43.07-17.88a3.77,3.77,0,0,0-2.72.93A44.63,44.63,0,0,0,181-469.95a40.73,40.73,0,0,0-1.77,6.28,40.26,40.26,0,0,0-.34,13.59,3.8,3.8,0,0,0,1.37,2.44c5.83,4.73,31.41,28.13-5.61,47.7a3.85,3.85,0,0,0-1.68,1.66c-4.19,8.27-6.87,19.42-6,25.72,1.77,12.86,6.73,19.3,8.9,21.57a3.87,3.87,0,0,0,2.2,1.15c9.78,1.5,61.1,9,69.34-68.69A115.73,115.73,0,0,0,247.82-440.86Zm136.53,95.35a44.8,44.8,0,0,0-7.57-18.38,40.37,40.37,0,0,0-15.69-12.4,3.84,3.84,0,0,0-2.79-.13c-6.11,2.06-31.64,9.1-36.69-15.42a53.51,53.51,0,0,1-.65-14.79,3.87,3.87,0,0,0-.51-2.3c-4.76-8-12.75-16.18-18.54-18.82-11.82-5.37-19.91-4.61-23-4a3.86,3.86,0,0,0-2.15,1.26,65.19,65.19,0,0,0-9.72,14.35c-8.42,17.14-12.44,46.78,30.8,80.94,54.72,43.24,78.9,2.26,85.83-7.53A3.8,3.8,0,0,0,384.35-345.51Zm-62-159.23a3.75,3.75,0,0,0-1.54,2.41A44.7,44.7,0,0,0,322-482.48a40.32,40.32,0,0,0,10.79,16.83,3.84,3.84,0,0,0,2.59,1c7.5.05,42.1,2.3,25.46,40.73a3.84,3.84,0,0,0-.27,2.34c1.9,9.08,6.78,19.46,11.4,23.84,9.43,8.93,17.32,10.85,20.43,11.26a3.84,3.84,0,0,0,2.44-.49c8.58-4.94,53.33-31.16,11.13-97C368.33-542.6,332.13-511.74,322.37-504.74ZM469.14-370.31a3.8,3.8,0,0,0-2.69-1,44.74,44.74,0,0,0-19.12,5.45,40.34,40.34,0,0,0-14.09,14.17,3.76,3.76,0,0,0-.45,2.76c1.58,7.34,6.86,41.6-34.26,33.67a3.84,3.84,0,0,0-2.34.24c-8.45,3.83-17.53,10.83-20.8,16.29-6.68,11.13-6.85,19.26-6.58,22.38a4,4,0,0,0,1,2.28c6.68,7.3,42,45.33,97.08-10.11C516.06-333.62,478.09-362.3,469.14-370.31ZM139.08-486.5a3.78,3.78,0,0,0-.36-2.85,44.82,44.82,0,0,0-13.58-14.53,40.53,40.53,0,0,0-19-6.07,3.89,3.89,0,0,0-2.66.86c-5.8,4.76-33.87,25.11-45.59-15.1a4,4,0,0,0-1.29-2c-7.26-5.77-17.64-10.64-24-11.07-13-.85-20.26,2.71-22.91,4.38a3.78,3.78,0,0,0-1.57,1.93c-3.45,9.28-21.16,58,53.32,81.74C127.85-428,136-474.89,139.08-486.5Z"/>
  </g>
  <g>
    <path id="Path_117" data-name="Path 117" class="cls-5" d="M225.67,143.24c-82.17,1.35-76.59-56-76.59-61.64,0,0,6.87-9,23-13.31,6.55-1.73,16.9.92,25.55,4,27.08,40.16,50.43,0,50.43,0A32.29,32.29,0,0,1,268.15,71a45.94,45.94,0,0,1,19.16,10.64c0,8.77,11.5,60.44-61.64,61.64"/>
    <g id="Group_110" data-name="Group 110" class="cls-6">
      <g class="cls-7">
        <g id="Group_109" data-name="Group 109">
          <path id="Path_118" data-name="Path 118" class="cls-8" d="M149.5,81.1l5.19,1,36-6.84,13.53,15.52A24.81,24.81,0,0,0,239.29,92l.64-.63L250.5,75.3l32.23,8.87,4.59-2.57s-10.94-9.55-17.41-10.18-9.84-2.93-22,0c0,0-10.21,17.6-25.67,18.68s-24.57-17.84-24.57-17.84-14.82-5.66-25.79-3.61-21,9.6-22.38,12.45"/>
        </g>
      </g>
    </g>
    <path id="Path_124" data-name="Path 124" class="cls-5" d="M266.27,181.79c-56.75-59.45-10.81-94.28-6.68-98.09,0,0,11.29-1.08,25.4,7.89,5.72,3.64,10.79,13,14.43,21.46-11.13,47.14,34.21,37,34.21,37a32.3,32.3,0,0,1,14.58,13.85,45.93,45.93,0,0,1,5.18,21.3c-6.44,5.95-36.61,49.45-87.11-3.46"/>
    <g id="Group_113" data-name="Group 113" class="cls-6">
      <g class="cls-9">
        <g id="Group_112" data-name="Group 112">
          <path id="Path_125" data-name="Path 125" class="cls-8" d="M260.23,83.67,263,88.18,292.43,110l-2.23,20.46A24.81,24.81,0,0,0,313.11,157l.89.05,19-3.16,15.37,29.69,5,1.63S353,170.74,349,165.56s-4.53-9.22-14.93-16.16c0,0-19.86,4.43-31.14-6.19s-3.56-30.16-3.56-30.16-5.9-14.72-14.85-21.39-21.29-8.9-24.33-8"/>
        </g>
      </g>
    </g>
    <path id="Path_131" data-name="Path 131" class="cls-5" d="M246.73,95.2c-75.65-32.14-47.24-82.31-45-87.43,0,0,9.94-5.47,26.45-2.81C234.91,6,243.29,12.66,250,19,258.39,66.66,296,39.44,296,39.44a32.28,32.28,0,0,1,18.87,7,45.83,45.83,0,0,1,13.18,17.5c-3.56,8-14,59.9-81.36,31.3"/>
    <g id="Group_116" data-name="Group 116" class="cls-6">
      <g class="cls-10">
        <g id="Group_115" data-name="Group 115">
          <path id="Path_132" data-name="Path 132" class="cls-8" d="M202.35,7.48l4.33,3.06,35.67,8.37,6.05,19.68A24.81,24.81,0,0,0,280,53.93l.85-.31L297,43.2l25.86,21.19,5.23-.49S322,50.74,316.32,47.54s-7.81-6.67-20.11-8.93c0,0-16.48,11.93-31,6.64S250,19,250,19,238.71,7.78,227.85,5.19s-23.07.26-25.5,2.3"/>
        </g>
      </g>
    </g>
    <path id="Path_138" data-name="Path 138" class="cls-5" d="M247.41,180.2c-8.65,81.73-64.94,69.2-70.5,68.52,0,0-8.13-7.92-10.41-24.48-.92-6.71,3-16.66,7.05-24.88,43.16-22,6.14-50.05,6.14-50.05a32.25,32.25,0,0,1,1.14-20.08,45.84,45.84,0,0,1,12.9-17.72c8.7,1.06,61.39-4.05,53.68,68.69"/>
    <g id="Group_119" data-name="Group 119" class="cls-6">
      <g class="cls-11">
        <g id="Group_118" data-name="Group 118">
          <path id="Path_139" data-name="Path 139" class="cls-8" d="M176.47,248.25l1.65-5-2.4-36.57,17.05-11.52a24.82,24.82,0,0,0,5.47-34.67l-.55-.72L183,147.3l12.72-30.93-2-4.87s-10.81,9.7-12.22,16-4.11,9.41-2.68,21.84c0,0,16.24,12.28,15.42,27.75s-20.7,22.22-20.7,22.22-7.42,14-6.72,25.16,7,22,9.63,23.73"/>
        </g>
      </g>
    </g>
    <path id="Path_145" data-name="Path 145" class="cls-5" d="M297.85,263.55c-64.49-51-23.85-91.85-20.31-96.19,0,0,11-2.65,26.25,4.26,6.18,2.81,12.51,11.4,17.28,19.24-4.44,48.23,39.05,31.91,39.05,31.91a32.29,32.29,0,0,1,16.37,11.68,46,46,0,0,1,8.1,20.36c-5.55,6.8-29.34,54.08-86.74,8.74"/>
    <g id="Group_122" data-name="Group 122" class="cls-6">
      <g class="cls-12">
        <g id="Group_121" data-name="Group 121">
          <path id="Path_146" data-name="Path 146" class="cls-8" d="M278.17,167.23l3.37,4.09,32.2,17.49.65,20.57a24.81,24.81,0,0,0,26.4,23.12l.9-.07,18.36-5.78,19.36,27.26,5.18.9s-2.44-14.31-7-18.89-5.77-8.5-17-13.92c0,0-19,7.17-31.69-1.78s-7.74-29.36-7.74-29.36-7.89-13.76-17.7-19.12-22.31-5.84-25.2-4.51"/>
        </g>
      </g>
    </g>
    <path id="Path_152" data-name="Path 152" class="cls-5" d="M406,114.84c44.37,69.18-7.38,94.61-12.15,97.56,0,0-11.29-1.08-23.42-12.58-4.93-4.67-8.12-14.86-10.07-23.83,19.92-44.14-26.51-42.88-26.51-42.88a32.35,32.35,0,0,1-11.67-16.38,46,46,0,0,1-1-21.9c7.46-4.61,45.36-41.56,84.85,20"/>
    <g id="Group_125" data-name="Group 125" class="cls-6">
      <g class="cls-13">
        <g id="Group_124" data-name="Group 124">
          <path id="Path_153" data-name="Path 153" class="cls-8" d="M393.2,212.31l-1.85-5-24.74-27,6.09-19.66a24.81,24.81,0,0,0-17.43-30.46l-.87-.22-19.25-.52-9.41-32.08-4.6-2.55s-2.36,14.33.5,20.15,2.69,9.92,11.57,18.72c0,0,20.34-.57,29.39,12S360.35,176,360.35,176s3,15.58,10.49,23.84,19.2,12.79,22.37,12.48"/>
        </g>
      </g>
    </g>
    <path id="Path_159" data-name="Path 159" class="cls-5" d="M466.9,314.57c-57.95,58.28-94,13.27-97.88,9.25,0,0-1.38-11.26,7.21-25.59,3.49-5.82,12.75-11.14,21.08-15,47.41,9.89,36.14-35.17,36.14-35.17a32.27,32.27,0,0,1,13.46-14.94,45.82,45.82,0,0,1,21.15-5.73c6.12,6.28,50.4,35.29-1.17,87.17"/>
    <g id="Group_128" data-name="Group 128" class="cls-6">
      <g class="cls-14">
        <g id="Group_127" data-name="Group 127">
          <path id="Path_160" data-name="Path 160" class="cls-8" d="M369,323.18l4.44-2.88,21-30L415,292a24.81,24.81,0,0,0,26-23.6q0-.45,0-.9l-3.66-18.9,29.29-16.14,1.49-5s-14.5.8-19.57,4.85-9.1,4.77-15.76,15.35c0,0,4.95,19.73-5.37,31.29s-30.05,4.35-30.05,4.35-14.57,6.28-21,15.41S368,320.16,369,323.18"/>
        </g>
      </g>
    </g>
    <path id="Path_166" data-name="Path 166" class="cls-5" d="M61.41,149.55C-16.9,124.62,6.7,72,8.48,66.7c0,0,9.39-6.37,26.07-5.26,6.77.44,15.73,6.25,23,11.91,12.86,46.7,47.8,16.08,47.8,16.08a32.32,32.32,0,0,1,19.43,5.16,45.89,45.89,0,0,1,14.76,16.2c-2.79,8.31-8.38,61-78.09,38.76"/>
    <g id="Group_131" data-name="Group 131" class="cls-6">
      <g class="cls-15">
        <g id="Group_130" data-name="Group 130">
          <path id="Path_167" data-name="Path 167" class="cls-8" d="M9,66.37,13.62,69l36.3,5,7.86,19a24.82,24.82,0,0,0,32.86,12.33c.28-.13.55-.25.82-.39l15.15-11.88,27.72,18.68,5.16-1s-7.32-12.53-13.24-15.19-8.4-5.92-20.86-7c0,0-15.29,13.42-30.29,9.51S57.51,73.35,57.51,73.35,45.27,63.25,34.21,61.7,11.26,64.11,9,66.37"/>
        </g>
      </g>
    </g>
    <g class="cls-16">
      <rect class="cls-17" x="-108.16" y="-135.49" width="559.65" height="425.89"/>
    </g>
    <g>
      <g class="cls-18">
        <g>
          <line class="cls-4" x1="0.59" y1="-110.93" x2="0.59" y2="843.71"/>
          <line class="cls-4" x1="42.09" y1="-110.93" x2="42.09" y2="843.71"/>
          <line class="cls-4" x1="62.3" y1="-110.93" x2="62.3" y2="843.71"/>
          <line class="cls-4" x1="20.8" y1="-110.93" x2="20.8" y2="843.71"/>
          <line class="cls-4" x1="103.79" y1="-110.93" x2="103.79" y2="843.71"/>
          <line class="cls-4" x1="124" y1="-110.93" x2="124" y2="843.71"/>
          <line class="cls-4" x1="82.5" y1="-110.93" x2="82.5" y2="843.71"/>
          <line class="cls-4" x1="145.29" y1="-110.93" x2="145.29" y2="843.71"/>
          <line class="cls-4" x1="165.49" y1="-110.93" x2="165.49" y2="843.71"/>
          <line class="cls-4" x1="206.99" y1="-110.93" x2="206.99" y2="843.71"/>
          <line class="cls-4" x1="227.2" y1="-110.93" x2="227.2" y2="843.71"/>
          <line class="cls-4" x1="185.7" y1="-110.93" x2="185.7" y2="843.71"/>
          <line class="cls-4" x1="268.69" y1="-110.93" x2="268.69" y2="843.71"/>
          <line class="cls-4" x1="288.9" y1="-110.93" x2="288.9" y2="843.71"/>
          <line class="cls-4" x1="247.41" y1="-110.93" x2="247.41" y2="843.71"/>
          <line class="cls-4" x1="310.19" y1="-110.93" x2="310.19" y2="843.71"/>
          <line class="cls-4" x1="330.4" y1="-110.93" x2="330.4" y2="843.71"/>
          <line class="cls-4" x1="371.89" y1="-110.93" x2="371.89" y2="843.71"/>
          <line class="cls-4" x1="392.1" y1="-110.93" x2="392.1" y2="843.71"/>
          <line class="cls-4" x1="350.61" y1="-110.93" x2="350.61" y2="843.71"/>
          <line class="cls-4" x1="433.6" y1="-110.93" x2="433.6" y2="843.71"/>
          <line class="cls-4" x1="453.8" y1="-110.93" x2="453.8" y2="843.71"/>
          <line class="cls-4" x1="412.31" y1="-110.93" x2="412.31" y2="843.71"/>
          <line class="cls-4" x1="475.09" y1="-110.93" x2="475.09" y2="843.71"/>
          <line class="cls-4" x1="495.3" y1="-110.93" x2="495.3" y2="843.71"/>
        </g>
      </g>
      <path class="cls-1" d="M248.15,95.8a49.77,49.77,0,0,0-9.86,33.7c-13.09-17.9-35.38-17.46-43.07-17.88a3.77,3.77,0,0,0-2.72.93A44.63,44.63,0,0,0,181,128.78a40.73,40.73,0,0,0-1.77,6.28c-31.15-14.77-30.41-45-30.19-52.29a3.89,3.89,0,0,1,.87-2.33c2-2.43,7.78-8.13,20.33-11.45,6.15-1.62,17.54-.32,26.26,2.84a3.85,3.85,0,0,1,1.85,1.45c12.72,18.27,24.37,18.85,33.08,14.42a148.52,148.52,0,0,0,15.29,7.5l1.42.59Zm100.28,68.57a40.43,40.43,0,0,0-13.8-14.46,3.85,3.85,0,0,0-2.75-.52c-7.37,1.38-41.77,5.77-32.76-35.13a3.83,3.83,0,0,0-.18-2.34,61.36,61.36,0,0,0-5.09-9.48,45.08,45.08,0,0,1-6.57,1.06c-10.2.93-23-1-39.13-7.7a49.77,49.77,0,0,0-9.86,33.7,46,46,0,0,1,6.21,12.08,67.85,67.85,0,0,1,3.32,16.28h0a128.79,128.79,0,0,0,18.44,23.92l.79.81a65.19,65.19,0,0,1,9.72-14.35,3.86,3.86,0,0,1,2.15-1.26c3.08-.62,11.17-1.38,23,4,5.79,2.64,13.78,10.86,18.54,18.82a3.87,3.87,0,0,1,.51,2.3,53.51,53.51,0,0,0,.65,14.79c16-3.34,26.34-16,30.71-20.59a3.76,3.76,0,0,0,1.05-2.66A44.78,44.78,0,0,0,348.43,164.37Zm-21-101.94a44.81,44.81,0,0,0-12.16-15.74,40.51,40.51,0,0,0-18.39-7.82,3.87,3.87,0,0,0-2.73.61c-6.23,4.19-36.08,21.82-44-19.3a3.81,3.81,0,0,0-1.1-2.08c-6.68-6.42-16.56-12.25-22.84-13.26-12.82-2.06-20.43.8-23.23,2.21a3.8,3.8,0,0,0-1.74,1.78c-4,8.22-23.11,48.66,30.17,78.87a148.52,148.52,0,0,0,15.29,7.5l1.42.59h0c16.12,6.65,28.93,8.63,39.13,7.7a45.08,45.08,0,0,0,6.57-1.06c24.21-5.77,30.9-29.47,33.69-37.14A3.76,3.76,0,0,0,327.45,62.43Zm-79.63,95.44h0a67.85,67.85,0,0,0-3.32-16.28,46,46,0,0,0-6.21-12.08c-13.09-17.9-35.38-17.46-43.07-17.88a3.77,3.77,0,0,0-2.72.93A44.63,44.63,0,0,0,181,128.78a40.73,40.73,0,0,0-1.77,6.28,40.26,40.26,0,0,0-.34,13.59,3.8,3.8,0,0,0,1.37,2.44c5.83,4.73,31.41,28.13-5.61,47.7a3.85,3.85,0,0,0-1.68,1.66c-4.19,8.27-6.87,19.42-6,25.72,1.77,12.86,6.73,19.3,8.9,21.57a3.87,3.87,0,0,0,2.2,1.15c9.78,1.5,61.1,9,69.34-68.69A115.73,115.73,0,0,0,247.82,157.87Zm136.53,95.35a44.8,44.8,0,0,0-7.57-18.38,40.37,40.37,0,0,0-15.69-12.4,3.84,3.84,0,0,0-2.79-.13c-6.11,2.06-31.64,9.1-36.69-15.42A53.51,53.51,0,0,1,321,192.1a3.87,3.87,0,0,0-.51-2.3c-4.76-8-12.75-16.18-18.54-18.82-11.82-5.37-19.91-4.61-23-4a3.86,3.86,0,0,0-2.15,1.26,65.19,65.19,0,0,0-9.72,14.35c-8.42,17.14-12.44,46.78,30.8,80.94,54.72,43.24,78.9,2.26,85.83-7.53A3.8,3.8,0,0,0,384.35,253.22ZM322.37,94a3.75,3.75,0,0,0-1.54,2.41A44.7,44.7,0,0,0,322,116.25a40.32,40.32,0,0,0,10.79,16.83,3.84,3.84,0,0,0,2.59,1c7.5,0,42.1,2.3,25.46,40.73a3.84,3.84,0,0,0-.27,2.34c1.9,9.08,6.78,19.46,11.4,23.84,9.43,8.93,17.32,10.85,20.43,11.26a3.84,3.84,0,0,0,2.44-.49c8.58-4.94,53.33-31.16,11.13-97C368.33,56.13,332.13,87,322.37,94ZM469.14,228.42a3.8,3.8,0,0,0-2.69-1,44.74,44.74,0,0,0-19.12,5.45,40.34,40.34,0,0,0-14.09,14.17,3.76,3.76,0,0,0-.45,2.76c1.58,7.34,6.86,41.6-34.26,33.67a3.91,3.91,0,0,0-2.34.24c-8.45,3.83-17.53,10.83-20.8,16.29-6.68,11.13-6.85,19.26-6.58,22.38a4,4,0,0,0,1,2.28c6.68,7.3,42,45.33,97.08-10.11C516.06,265.11,478.09,236.43,469.14,228.42ZM139.08,112.23a3.78,3.78,0,0,0-.36-2.85,44.82,44.82,0,0,0-13.58-14.53,40.53,40.53,0,0,0-19-6.07,3.89,3.89,0,0,0-2.66.86c-5.8,4.76-33.87,25.11-45.59-15.1a4,4,0,0,0-1.29-2c-7.26-5.77-17.64-10.64-24-11.07-13-.85-20.26,2.71-22.91,4.38a3.78,3.78,0,0,0-1.57,1.93c-3.45,9.28-21.16,58,53.32,81.74C127.85,170.71,136,123.84,139.08,112.23Z"/>
    </g>
    <path id="Path_120" data-name="Path 120" class="cls-8" d="M190.35,76.69C172.86,89.28,160,85.28,155.7,83.24a1.7,1.7,0,0,1-.6-2.68A31.12,31.12,0,0,1,172,72.14a44.65,44.65,0,0,1,18,1.91,1.49,1.49,0,0,1,1,1.86,1.52,1.52,0,0,1-.56.78"/>
    <path id="Path_121" data-name="Path 121" class="cls-1" d="M190,77c-17,12-29.44,8.14-33.69,6.15a1.73,1.73,0,0,1-.84-2.29,1.9,1.9,0,0,1,.3-.44,30.79,30.79,0,0,1,16.53-8.21A43.71,43.71,0,0,1,189.46,74a1.73,1.73,0,0,1,1.15,2.16A1.79,1.79,0,0,1,190,77Z"/>
    <path id="Path_127" data-name="Path 127" class="cls-8" d="M291.2,110.68c-12.2-1-19.3-7.31-19.3-7.31-.3-.9,14.06-.13,19.26-1.31a32.35,32.35,0,0,1,1.69,6.52c.15.85,0,1.63-.7,2a1.48,1.48,0,0,1-.95.11"/>
    <path id="Path_128" data-name="Path 128" class="cls-1" d="M290.68,110.62a59.27,59.27,0,0,1-20.49-8.1c3.32.88,17.46,1.22,20.83.39,1,.25,2.08,5.27,1.57,5.28a1.72,1.72,0,0,1-1.91,2.43Z"/>
    <path id="Path_129" data-name="Path 129" class="cls-8" d="M331.47,156.3c2,20,11.56,25.83,15.42,27.42a1.73,1.73,0,0,0,2.24-.94,2.41,2.41,0,0,0,.08-.25,25.22,25.22,0,0,0-4-17.09,38.38,38.38,0,0,0-11.05-10.79,1.75,1.75,0,0,0-2.68,1.65"/>
    <path id="Path_130" data-name="Path 130" class="cls-1" d="M331.44,156.08c1.94,20.5,11.51,26.2,15.38,27.68a1.69,1.69,0,0,0,2.19-1,1.4,1.4,0,0,0,.1-.35,30.55,30.55,0,0,0-4.68-18.09,32.55,32.55,0,0,0-10.41-10,1.72,1.72,0,0,0-2.35.62A1.68,1.68,0,0,0,331.44,156.08Z"/>
    <path id="Path_134" data-name="Path 134" class="cls-8" d="M241.48,20c-21.1,4.41-31.2-4.46-34.33-8.09a1.72,1.72,0,0,1,.15-2.43,2,2,0,0,1,.39-.26,31.07,31.07,0,0,1,18.83-.84,44.7,44.7,0,0,1,15.65,9,1.49,1.49,0,0,1,.15,2.1,1.54,1.54,0,0,1-.83.49"/>
    <path id="Path_135" data-name="Path 135" class="cls-1" d="M241,20.19c-20.41,4.08-30.21-4.51-33.28-8.06a1.72,1.72,0,0,1,.16-2.43,2.11,2.11,0,0,1,.45-.28,30.83,30.83,0,0,1,18.45-.79,43.55,43.55,0,0,1,15,8.56,1.72,1.72,0,0,1,.17,2.43A1.76,1.76,0,0,1,241,20.19Z"/>
    <path id="Path_136" data-name="Path 136" class="cls-8" d="M296.52,46c9.74,17.56,20.84,19.14,25,19.07a1.72,1.72,0,0,0,1.68-1.75,2.3,2.3,0,0,0,0-.26A25.26,25.26,0,0,0,312.75,49a38.56,38.56,0,0,0-14.43-5.53,1.75,1.75,0,0,0-2,1.45,1.65,1.65,0,0,0,.2,1.13"/>
    <path id="Path_137" data-name="Path 137" class="cls-1" d="M296.4,45.79c9.9,18.07,21,19.51,25.07,19.34a1.71,1.71,0,0,0,1.64-1.76,2.27,2.27,0,0,0-.05-.35A30.53,30.53,0,0,0,311.6,48.26a32.68,32.68,0,0,0-13.49-5,1.72,1.72,0,0,0-1.91,1.52A1.74,1.74,0,0,0,296.4,45.79Z"/>
    <path id="Path_141" data-name="Path 141" class="cls-8" d="M177.05,207.15c10.38,18.9,4.84,31.15,2.29,35.2a1.71,1.71,0,0,1-2.36.57,1.52,1.52,0,0,1-.37-.3,31,31,0,0,1-6.3-17.76,44.69,44.69,0,0,1,4.07-17.61,1.49,1.49,0,0,1,2-.75,1.43,1.43,0,0,1,.7.65"/>
    <path id="Path_142" data-name="Path 142" class="cls-1" d="M177.34,207.59c9.86,18.33,4.51,30.21,2,34.19a1.73,1.73,0,0,1-2.37.55,1.9,1.9,0,0,1-.4-.35,30.74,30.74,0,0,1-6.13-17.42,43.58,43.58,0,0,1,3.8-16.85,1.74,1.74,0,0,1,2.29-.87A1.76,1.76,0,0,1,177.34,207.59Z"/>
    <path id="Path_143" data-name="Path 143" class="cls-8" d="M185.82,146.94c14-14.43,12.22-25.52,10.93-29.49a1.72,1.72,0,0,0-2.16-1.1,1.22,1.22,0,0,0-.24.1,25.23,25.23,0,0,0-10.45,14.11,38.32,38.32,0,0,0-1.08,15.4,1.75,1.75,0,0,0,3,1"/>
    <path id="Path_144" data-name="Path 144" class="cls-1" d="M185.66,147.11c14.39-14.74,12.54-25.73,11.18-29.63a1.69,1.69,0,0,0-2.16-1,1.87,1.87,0,0,0-.32.15,30.42,30.42,0,0,0-10.77,15.26,32.63,32.63,0,0,0-.87,14.37,1.74,1.74,0,0,0,2,1.39A1.83,1.83,0,0,0,185.66,147.11Z"/>
    <path id="Path_148" data-name="Path 148" class="cls-8" d="M312.61,189.66c-21.52-1.31-28.92-12.53-31-16.85a1.72,1.72,0,0,1,1.23-2.45,31.11,31.11,0,0,1,18.38,4.15A44.84,44.84,0,0,1,314,187.35a1.5,1.5,0,0,1-.42,2.07,1.52,1.52,0,0,1-.93.25"/>
    <path id="Path_149" data-name="Path 149" class="cls-1" d="M312.09,189.67c-20.76-1.44-27.95-12.31-30-16.55a1.72,1.72,0,0,1,.8-2.29,1.5,1.5,0,0,1,.51-.15,30.73,30.73,0,0,1,18,4.1A43.62,43.62,0,0,1,313.65,187a1.72,1.72,0,0,1-1.56,2.68Z"/>
    <path id="Path_150" data-name="Path 150" class="cls-8" d="M358.86,229.21c4.75,19.51,15.05,24,19.1,25A1.71,1.71,0,0,0,380,253a2,2,0,0,0,0-.26,25.27,25.27,0,0,0-6.36-16.36,38.33,38.33,0,0,0-12.45-9.14,1.75,1.75,0,0,0-2.32.87,1.72,1.72,0,0,0-.1,1.14"/>
    <path id="Path_151" data-name="Path 151" class="cls-1" d="M358.8,229c4.78,20,15.06,24.34,19.09,25.26a1.68,1.68,0,0,0,2-1.25,1.49,1.49,0,0,0,.05-.36,30.47,30.47,0,0,0-7.16-17.26,32.64,32.64,0,0,0-11.69-8.4,1.73,1.73,0,0,0-2.25.94A1.71,1.71,0,0,0,358.8,229Z"/>
    <path id="Path_155" data-name="Path 155" class="cls-8" d="M368,179.88c19.92,8.26,23.26,21.27,23.81,26a1.73,1.73,0,0,1-1.49,1.93,1.93,1.93,0,0,1-.48,0,31.06,31.06,0,0,1-16-9.92,44.7,44.7,0,0,1-7.84-16.28,1.49,1.49,0,0,1,1.06-1.82,1.44,1.44,0,0,1,1,.07"/>
    <path id="Path_156" data-name="Path 156" class="cls-1" d="M368.46,180c19.15,8.13,22.41,20.76,23,25.42a1.73,1.73,0,0,1-1.51,1.91,1.87,1.87,0,0,1-.53,0,30.74,30.74,0,0,1-15.69-9.74,43.46,43.46,0,0,1-7.57-15.53,1.73,1.73,0,0,1,1.21-2.12A1.78,1.78,0,0,1,368.46,180Z"/>
    <path id="Path_157" data-name="Path 157" class="cls-8" d="M337.12,127.42c1.86-20-6.42-27.56-9.91-29.85a1.71,1.71,0,0,0-2.37.49,1,1,0,0,0-.13.23,25.28,25.28,0,0,0,.67,17.54,38.31,38.31,0,0,0,8.79,12.7,1.76,1.76,0,0,0,2.48-.07,1.69,1.69,0,0,0,.47-1"/>
    <path id="Path_158" data-name="Path 158" class="cls-1" d="M337.1,127.65c2-20.5-6.31-27.92-9.81-30.1a1.7,1.7,0,0,0-2.34.52,1.37,1.37,0,0,0-.16.32A30.52,30.52,0,0,0,325.93,117a32.62,32.62,0,0,0,8.32,11.75,1.71,1.71,0,0,0,2.43-.16A1.67,1.67,0,0,0,337.1,127.65Z"/>
    <path id="Path_162" data-name="Path 162" class="cls-8" d="M395.16,291.51c-3.74,21.23-15.73,27.31-20.26,28.87a1.72,1.72,0,0,1-2.2-1,2.21,2.21,0,0,1-.1-.46,31.08,31.08,0,0,1,6.21-17.79A44.68,44.68,0,0,1,393,289.91a1.48,1.48,0,0,1,2,.64,1.43,1.43,0,0,1,.14.95"/>
    <path id="Path_163" data-name="Path 163" class="cls-1" d="M395.12,292c-3.79,20.46-15.42,26.38-19.85,27.91a1.72,1.72,0,0,1-2.19-1.06,1.5,1.5,0,0,1-.09-.52,30.74,30.74,0,0,1,6.11-17.42,43.76,43.76,0,0,1,13.53-10.76,1.73,1.73,0,0,1,2.49,1.85Z"/>
    <path id="Path_164" data-name="Path 164" class="cls-8" d="M439.71,250.06c19.92-2.52,25.52-12.24,27-16.14a1.72,1.72,0,0,0-1-2.21l-.26-.08a25.26,25.26,0,0,0-17,4.46A38.33,38.33,0,0,0,438,247.42a1.74,1.74,0,0,0,.6,2.4,1.69,1.69,0,0,0,1.12.24"/>
    <path id="Path_165" data-name="Path 165" class="cls-1" d="M439.48,250.09c20.45-2.47,25.89-12.19,27.27-16.1a1.7,1.7,0,0,0-1-2.17,2.09,2.09,0,0,0-.34-.08,30.48,30.48,0,0,0-18,5.15,32.62,32.62,0,0,0-9.68,10.66,1.72,1.72,0,0,0,.68,2.34A1.68,1.68,0,0,0,439.48,250.09Z"/>
    <path id="Path_169" data-name="Path 169" class="cls-8" d="M49.17,75.21c-20.6,6.36-31.48-1.53-34.94-4.84a1.72,1.72,0,0,1-.08-2.43,1.52,1.52,0,0,1,.37-.3A31,31,0,0,1,33.18,65a44.86,44.86,0,0,1,16.43,7.53A1.49,1.49,0,0,1,50,74.65a1.46,1.46,0,0,1-.78.56"/>
    <path id="Path_170" data-name="Path 170" class="cls-1" d="M48.68,75.41c-19.93,6-30.5-1.67-33.89-4.92a1.71,1.71,0,0,1-.06-2.43,1.46,1.46,0,0,1,.42-.32,30.72,30.72,0,0,1,18.29-2.51,43.56,43.56,0,0,1,15.75,7.12,1.71,1.71,0,0,1,.4,2.4A1.68,1.68,0,0,1,48.68,75.41Z"/>
    <path id="Path_171" data-name="Path 171" class="cls-8" d="M106.38,95.91c11.34,16.57,22.55,17.12,26.7,16.65a1.71,1.71,0,0,0,1.51-1.89,2,2,0,0,0-.05-.26,25.31,25.31,0,0,0-11.72-13.08,38.5,38.5,0,0,0-14.88-4.14,1.75,1.75,0,0,0-1.56,2.73"/>
    <path id="Path_172" data-name="Path 172" class="cls-1" d="M106.25,95.72c11.55,17.07,22.68,17.47,26.78,16.91a1.69,1.69,0,0,0,1.46-1.9,1.4,1.4,0,0,0-.08-.34,30.53,30.53,0,0,0-12.78-13.63A32.8,32.8,0,0,0,107.72,93a1.73,1.73,0,0,0-1.47,2.7Z"/>
  </g>
</svg>
