<svg id="Laag_1" data-name="Laag 1" xmlns="http://www.w3.org/2000/svg" xmlns:xlink="http://www.w3.org/1999/xlink" viewBox="0 0 1260.49 269.45">
  <defs>
    <style>
      .cls-1, .cls-2 {
        fill: none;
      }

      .cls-2, .cls-3, .cls-4, .cls-5 {
        stroke: #8f2623;
        stroke-linejoin: round;
      }

      .cls-2, .cls-5 {
        stroke-linecap: round;
      }

      .cls-2 {
        stroke-width: 5px;
      }

      .cls-3 {
        fill: #bb2e2a;
      }

      .cls-3, .cls-4, .cls-5 {
        stroke-width: 11px;
      }

      .cls-4 {
        fill: url(#Nieuwe_patroonstaal_1);
      }

      .cls-5 {
        fill: #e63925;
      }

      .cls-6 {
        fill: #8f2623;
      }
    </style>
    <pattern id="Nieuwe_patroonstaal_1" data-name="Nieuwe patroonstaal 1" width="283.46" height="283.46" patternTransform="translate(0 377.51)" patternUnits="userSpaceOnUse" viewBox="0 0 283.46 283.46">
      <rect class="cls-1" width="283.46" height="283.46"/>
      <g>
        <line class="cls-2" x1="91.13" y1="237.3" x2="928.57" y2="1074.74"/>
        <line class="cls-2" x1="100.71" y1="222.57" x2="938.15" y2="1060.01"/>
        <line class="cls-2" x1="115.44" y1="207.84" x2="952.89" y2="1045.28"/>
        <line class="cls-2" x1="130.17" y1="193.11" x2="967.62" y2="1030.55"/>
        <line class="cls-2" x1="145.03" y1="178.25" x2="982.47" y2="1015.69"/>
        <line class="cls-2" x1="130.3" y1="192.98" x2="967.74" y2="1030.43"/>
        <line class="cls-2" x1="159.76" y1="163.52" x2="997.2" y2="1000.96"/>
        <line class="cls-2" x1="174.49" y1="148.79" x2="1011.94" y2="986.23"/>
        <line class="cls-2" x1="189.22" y1="134.06" x2="1026.67" y2="971.5"/>
        <line class="cls-2" x1="203.95" y1="119.32" x2="1041.4" y2="956.77"/>
        <line class="cls-2" x1="218.69" y1="104.59" x2="1056.13" y2="942.04"/>
      </g>
      <g>
        <line class="cls-2" x1="-192.34" y1="237.3" x2="645.11" y2="1074.74"/>
        <line class="cls-2" x1="-182.75" y1="222.57" x2="654.69" y2="1060.01"/>
        <line class="cls-2" x1="-168.02" y1="207.84" x2="669.42" y2="1045.28"/>
        <line class="cls-2" x1="-153.29" y1="193.11" x2="684.15" y2="1030.55"/>
        <line class="cls-2" x1="-138.44" y1="178.25" x2="699.01" y2="1015.69"/>
        <line class="cls-2" x1="-153.17" y1="192.98" x2="684.28" y2="1030.43"/>
        <line class="cls-2" x1="-123.7" y1="163.52" x2="713.74" y2="1000.96"/>
        <line class="cls-2" x1="-108.97" y1="148.79" x2="728.47" y2="986.23"/>
        <line class="cls-2" x1="-94.24" y1="134.06" x2="743.2" y2="971.5"/>
        <line class="cls-2" x1="-79.51" y1="119.32" x2="757.93" y2="956.77"/>
        <line class="cls-2" x1="-64.78" y1="104.59" x2="772.66" y2="942.04"/>
      </g>
      <g>
        <line class="cls-2" x1="-475.8" y1="237.3" x2="361.64" y2="1074.74"/>
        <line class="cls-2" x1="-466.22" y1="222.57" x2="371.23" y2="1060.01"/>
        <line class="cls-2" x1="-451.49" y1="207.84" x2="385.96" y2="1045.28"/>
        <line class="cls-2" x1="-436.76" y1="193.11" x2="400.69" y2="1030.55"/>
        <line class="cls-2" x1="-421.9" y1="178.25" x2="415.54" y2="1015.69"/>
        <line class="cls-2" x1="-436.63" y1="192.98" x2="400.81" y2="1030.43"/>
        <line class="cls-2" x1="-407.17" y1="163.52" x2="430.27" y2="1000.96"/>
        <line class="cls-2" x1="-392.44" y1="148.79" x2="445.01" y2="986.23"/>
        <line class="cls-2" x1="-377.71" y1="134.06" x2="459.74" y2="971.5"/>
        <line class="cls-2" x1="-362.98" y1="119.32" x2="474.47" y2="956.77"/>
        <line class="cls-2" x1="-348.24" y1="104.59" x2="489.2" y2="942.04"/>
      </g>
      <g>
        <line class="cls-2" x1="-759.27" y1="237.3" x2="78.18" y2="1074.74"/>
        <line class="cls-2" x1="-749.68" y1="222.57" x2="87.76" y2="1060.01"/>
        <line class="cls-2" x1="-734.95" y1="207.84" x2="102.49" y2="1045.28"/>
        <line class="cls-2" x1="-720.22" y1="193.11" x2="117.22" y2="1030.55"/>
        <line class="cls-2" x1="-705.37" y1="178.25" x2="132.08" y2="1015.69"/>
        <line class="cls-2" x1="-720.1" y1="192.98" x2="117.35" y2="1030.43"/>
        <line class="cls-2" x1="-690.63" y1="163.52" x2="146.81" y2="1000.96"/>
        <line class="cls-2" x1="-675.9" y1="148.79" x2="161.54" y2="986.23"/>
        <line class="cls-2" x1="-661.17" y1="134.06" x2="176.27" y2="971.5"/>
        <line class="cls-2" x1="-646.44" y1="119.32" x2="191" y2="956.77"/>
        <line class="cls-2" x1="-631.71" y1="104.59" x2="205.74" y2="942.04"/>
      </g>
      <g>
        <line class="cls-2" x1="91.13" y1="-46.16" x2="928.57" y2="791.28"/>
        <line class="cls-2" x1="100.71" y1="-60.9" x2="938.15" y2="776.55"/>
        <line class="cls-2" x1="115.44" y1="-75.63" x2="952.89" y2="761.82"/>
        <line class="cls-2" x1="130.17" y1="-90.36" x2="967.62" y2="747.08"/>
        <line class="cls-2" x1="145.03" y1="-105.21" x2="982.47" y2="732.23"/>
        <line class="cls-2" x1="130.3" y1="-90.48" x2="967.74" y2="746.96"/>
        <line class="cls-2" x1="159.76" y1="-119.95" x2="997.2" y2="717.5"/>
        <line class="cls-2" x1="174.49" y1="-134.68" x2="1011.94" y2="702.77"/>
        <line class="cls-2" x1="189.22" y1="-149.41" x2="1026.67" y2="688.04"/>
        <line class="cls-2" x1="203.95" y1="-164.14" x2="1041.4" y2="673.3"/>
        <line class="cls-2" x1="218.69" y1="-178.87" x2="1056.13" y2="658.57"/>
      </g>
      <g>
        <line class="cls-2" x1="-192.34" y1="-46.16" x2="645.11" y2="791.28"/>
        <line class="cls-2" x1="-182.75" y1="-60.9" x2="654.69" y2="776.55"/>
        <line class="cls-2" x1="-168.02" y1="-75.63" x2="669.42" y2="761.82"/>
        <line class="cls-2" x1="-153.29" y1="-90.36" x2="684.15" y2="747.08"/>
        <line class="cls-2" x1="-138.44" y1="-105.21" x2="699.01" y2="732.23"/>
        <line class="cls-2" x1="-153.17" y1="-90.48" x2="684.28" y2="746.96"/>
        <line class="cls-2" x1="-123.7" y1="-119.95" x2="713.74" y2="717.5"/>
        <line class="cls-2" x1="-108.97" y1="-134.68" x2="728.47" y2="702.77"/>
        <line class="cls-2" x1="-94.24" y1="-149.41" x2="743.2" y2="688.04"/>
        <line class="cls-2" x1="-79.51" y1="-164.14" x2="757.93" y2="673.3"/>
        <line class="cls-2" x1="-64.78" y1="-178.87" x2="772.66" y2="658.57"/>
      </g>
      <g>
        <line class="cls-2" x1="-475.8" y1="-46.16" x2="361.64" y2="791.28"/>
        <line class="cls-2" x1="-466.22" y1="-60.9" x2="371.23" y2="776.55"/>
        <line class="cls-2" x1="-451.49" y1="-75.63" x2="385.96" y2="761.82"/>
        <line class="cls-2" x1="-436.76" y1="-90.36" x2="400.69" y2="747.08"/>
        <line class="cls-2" x1="-421.9" y1="-105.21" x2="415.54" y2="732.23"/>
        <line class="cls-2" x1="-436.63" y1="-90.48" x2="400.81" y2="746.96"/>
        <line class="cls-2" x1="-407.17" y1="-119.95" x2="430.27" y2="717.5"/>
        <line class="cls-2" x1="-392.44" y1="-134.68" x2="445.01" y2="702.77"/>
        <line class="cls-2" x1="-377.71" y1="-149.41" x2="459.74" y2="688.04"/>
        <line class="cls-2" x1="-362.98" y1="-164.14" x2="474.47" y2="673.3"/>
        <line class="cls-2" x1="-348.24" y1="-178.87" x2="489.2" y2="658.57"/>
      </g>
      <g>
        <line class="cls-2" x1="-759.27" y1="-46.16" x2="78.18" y2="791.28"/>
        <line class="cls-2" x1="-749.68" y1="-60.9" x2="87.76" y2="776.55"/>
        <line class="cls-2" x1="-734.95" y1="-75.63" x2="102.49" y2="761.82"/>
        <line class="cls-2" x1="-720.22" y1="-90.36" x2="117.22" y2="747.08"/>
        <line class="cls-2" x1="-705.37" y1="-105.21" x2="132.08" y2="732.23"/>
        <line class="cls-2" x1="-720.1" y1="-90.48" x2="117.35" y2="746.96"/>
        <line class="cls-2" x1="-690.63" y1="-119.95" x2="146.81" y2="717.5"/>
        <line class="cls-2" x1="-675.9" y1="-134.68" x2="161.54" y2="702.77"/>
        <line class="cls-2" x1="-661.17" y1="-149.41" x2="176.27" y2="688.04"/>
        <line class="cls-2" x1="-646.44" y1="-164.14" x2="191" y2="673.3"/>
        <line class="cls-2" x1="-631.71" y1="-178.87" x2="205.74" y2="658.57"/>
      </g>
      <g>
        <line class="cls-2" x1="91.13" y1="-329.63" x2="928.57" y2="507.81"/>
        <line class="cls-2" x1="100.71" y1="-344.36" x2="938.15" y2="493.08"/>
        <line class="cls-2" x1="115.44" y1="-359.09" x2="952.89" y2="478.35"/>
        <line class="cls-2" x1="130.17" y1="-373.82" x2="967.62" y2="463.62"/>
        <line class="cls-2" x1="145.03" y1="-388.68" x2="982.47" y2="448.76"/>
        <line class="cls-2" x1="130.3" y1="-373.95" x2="967.74" y2="463.5"/>
        <line class="cls-2" x1="159.76" y1="-403.41" x2="997.2" y2="434.03"/>
        <line class="cls-2" x1="174.49" y1="-418.14" x2="1011.94" y2="419.3"/>
        <line class="cls-2" x1="189.22" y1="-432.87" x2="1026.67" y2="404.57"/>
        <line class="cls-2" x1="203.95" y1="-447.6" x2="1041.4" y2="389.84"/>
        <line class="cls-2" x1="218.69" y1="-462.34" x2="1056.13" y2="375.11"/>
      </g>
      <g>
        <line class="cls-2" x1="-192.34" y1="-329.63" x2="645.11" y2="507.81"/>
        <line class="cls-2" x1="-182.75" y1="-344.36" x2="654.69" y2="493.08"/>
        <line class="cls-2" x1="-168.02" y1="-359.09" x2="669.42" y2="478.35"/>
        <line class="cls-2" x1="-153.29" y1="-373.82" x2="684.15" y2="463.62"/>
        <line class="cls-2" x1="-138.44" y1="-388.68" x2="699.01" y2="448.76"/>
        <line class="cls-2" x1="-153.17" y1="-373.95" x2="684.28" y2="463.5"/>
        <line class="cls-2" x1="-123.7" y1="-403.41" x2="713.74" y2="434.03"/>
        <line class="cls-2" x1="-108.97" y1="-418.14" x2="728.47" y2="419.3"/>
        <line class="cls-2" x1="-94.24" y1="-432.87" x2="743.2" y2="404.57"/>
        <line class="cls-2" x1="-79.51" y1="-447.6" x2="757.93" y2="389.84"/>
        <line class="cls-2" x1="-64.78" y1="-462.34" x2="772.66" y2="375.11"/>
      </g>
      <g>
        <line class="cls-2" x1="-475.8" y1="-329.63" x2="361.64" y2="507.81"/>
        <line class="cls-2" x1="-466.22" y1="-344.36" x2="371.23" y2="493.08"/>
        <line class="cls-2" x1="-451.49" y1="-359.09" x2="385.96" y2="478.35"/>
        <line class="cls-2" x1="-436.76" y1="-373.82" x2="400.69" y2="463.62"/>
        <line class="cls-2" x1="-421.9" y1="-388.68" x2="415.54" y2="448.76"/>
        <line class="cls-2" x1="-436.63" y1="-373.95" x2="400.81" y2="463.5"/>
        <line class="cls-2" x1="-407.17" y1="-403.41" x2="430.27" y2="434.03"/>
        <line class="cls-2" x1="-392.44" y1="-418.14" x2="445.01" y2="419.3"/>
        <line class="cls-2" x1="-377.71" y1="-432.87" x2="459.74" y2="404.57"/>
        <line class="cls-2" x1="-362.98" y1="-447.6" x2="474.47" y2="389.84"/>
        <line class="cls-2" x1="-348.24" y1="-462.34" x2="489.2" y2="375.11"/>
      </g>
      <g>
        <line class="cls-2" x1="-759.27" y1="-329.63" x2="78.18" y2="507.81"/>
        <line class="cls-2" x1="-749.68" y1="-344.36" x2="87.76" y2="493.08"/>
        <line class="cls-2" x1="-734.95" y1="-359.09" x2="102.49" y2="478.35"/>
        <line class="cls-2" x1="-720.22" y1="-373.82" x2="117.22" y2="463.62"/>
        <line class="cls-2" x1="-705.37" y1="-388.68" x2="132.08" y2="448.76"/>
        <line class="cls-2" x1="-720.1" y1="-373.95" x2="117.35" y2="463.5"/>
        <line class="cls-2" x1="-690.63" y1="-403.41" x2="146.81" y2="434.03"/>
        <line class="cls-2" x1="-675.9" y1="-418.14" x2="161.54" y2="419.3"/>
        <line class="cls-2" x1="-661.17" y1="-432.87" x2="176.27" y2="404.57"/>
        <line class="cls-2" x1="-646.44" y1="-447.6" x2="191" y2="389.84"/>
        <line class="cls-2" x1="-631.71" y1="-462.34" x2="205.74" y2="375.11"/>
      </g>
      <g>
        <line class="cls-2" x1="91.13" y1="-613.09" x2="928.57" y2="224.35"/>
        <line class="cls-2" x1="100.71" y1="-627.83" x2="938.15" y2="209.62"/>
        <line class="cls-2" x1="115.44" y1="-642.56" x2="952.89" y2="194.89"/>
        <line class="cls-2" x1="130.17" y1="-657.29" x2="967.62" y2="180.16"/>
        <line class="cls-2" x1="145.03" y1="-672.14" x2="982.47" y2="165.3"/>
        <line class="cls-2" x1="130.3" y1="-657.41" x2="967.74" y2="180.03"/>
        <line class="cls-2" x1="159.76" y1="-686.87" x2="997.2" y2="150.57"/>
        <line class="cls-2" x1="174.49" y1="-701.61" x2="1011.94" y2="135.84"/>
        <line class="cls-2" x1="189.22" y1="-716.34" x2="1026.67" y2="121.11"/>
        <line class="cls-2" x1="203.95" y1="-731.07" x2="1041.4" y2="106.37"/>
        <line class="cls-2" x1="218.69" y1="-745.8" x2="1056.13" y2="91.64"/>
      </g>
      <g>
        <line class="cls-2" x1="-192.34" y1="-613.09" x2="645.11" y2="224.35"/>
        <line class="cls-2" x1="-182.75" y1="-627.83" x2="654.69" y2="209.62"/>
        <line class="cls-2" x1="-168.02" y1="-642.56" x2="669.42" y2="194.89"/>
        <line class="cls-2" x1="-153.29" y1="-657.29" x2="684.15" y2="180.16"/>
        <line class="cls-2" x1="-138.44" y1="-672.14" x2="699.01" y2="165.3"/>
        <line class="cls-2" x1="-153.17" y1="-657.41" x2="684.28" y2="180.03"/>
        <line class="cls-2" x1="-123.7" y1="-686.87" x2="713.74" y2="150.57"/>
        <line class="cls-2" x1="-108.97" y1="-701.61" x2="728.47" y2="135.84"/>
        <line class="cls-2" x1="-94.24" y1="-716.34" x2="743.2" y2="121.11"/>
        <line class="cls-2" x1="-79.51" y1="-731.07" x2="757.93" y2="106.37"/>
        <line class="cls-2" x1="-64.78" y1="-745.8" x2="772.66" y2="91.64"/>
      </g>
      <g>
        <line class="cls-2" x1="-475.8" y1="-613.09" x2="361.64" y2="224.35"/>
        <line class="cls-2" x1="-466.22" y1="-627.83" x2="371.23" y2="209.62"/>
        <line class="cls-2" x1="-451.49" y1="-642.56" x2="385.96" y2="194.89"/>
        <line class="cls-2" x1="-436.76" y1="-657.29" x2="400.69" y2="180.16"/>
        <line class="cls-2" x1="-421.9" y1="-672.14" x2="415.54" y2="165.3"/>
        <line class="cls-2" x1="-436.63" y1="-657.41" x2="400.81" y2="180.03"/>
        <line class="cls-2" x1="-407.17" y1="-686.87" x2="430.27" y2="150.57"/>
        <line class="cls-2" x1="-392.44" y1="-701.61" x2="445.01" y2="135.84"/>
        <line class="cls-2" x1="-377.71" y1="-716.34" x2="459.74" y2="121.11"/>
        <line class="cls-2" x1="-362.98" y1="-731.07" x2="474.47" y2="106.37"/>
        <line class="cls-2" x1="-348.24" y1="-745.8" x2="489.2" y2="91.64"/>
      </g>
      <g>
        <line class="cls-2" x1="-759.27" y1="-613.09" x2="78.18" y2="224.35"/>
        <line class="cls-2" x1="-749.68" y1="-627.83" x2="87.76" y2="209.62"/>
        <line class="cls-2" x1="-734.95" y1="-642.56" x2="102.49" y2="194.89"/>
        <line class="cls-2" x1="-720.22" y1="-657.29" x2="117.22" y2="180.16"/>
        <line class="cls-2" x1="-705.37" y1="-672.14" x2="132.08" y2="165.3"/>
        <line class="cls-2" x1="-720.1" y1="-657.41" x2="117.35" y2="180.03"/>
        <line class="cls-2" x1="-690.63" y1="-686.87" x2="146.81" y2="150.57"/>
        <line class="cls-2" x1="-675.9" y1="-701.61" x2="161.54" y2="135.84"/>
        <line class="cls-2" x1="-661.17" y1="-716.34" x2="176.27" y2="121.11"/>
        <line class="cls-2" x1="-646.44" y1="-731.07" x2="191" y2="106.37"/>
        <line class="cls-2" x1="-631.71" y1="-745.8" x2="205.74" y2="91.64"/>
      </g>
    </pattern>
  </defs>
  <g id="Group_65" data-name="Group 65">
    <g id="Path_84" data-name="Path 84">
      <path class="cls-3" d="M1253.07,259.28l-206.36,0h-8.49v-8.42l0-174.32V68.09h8.49l190.28,0h16l-94,95.56Z"/>
    </g>
    <g id="Path_84-2" data-name="Path 84">
      <path class="cls-4" d="M1253.07,259.28l-206.36,0h-8.49v-8.42l0-174.32V68.09h8.49l190.28,0h16l-94,95.56Z"/>
    </g>
    <g id="Path_84-3" data-name="Path 84">
      <path class="cls-3" d="M101.84,163.69,7.89,68.13h16l190.28,0h8.49v8.42l0,174.32v8.42h-8.48l-206.36,0Z"/>
    </g>
    <g id="Path_84-4" data-name="Path 84">
      <path class="cls-4" d="M101.84,163.69,7.89,68.13h16l190.28,0h8.49v8.42l0,174.32v8.42h-8.48l-206.36,0Z"/>
    </g>
    <g id="Rectangle_37" data-name="Rectangle 37">
      <rect class="cls-5" x="146.88" y="8.01" width="964.12" height="191.16"/>
    </g>
  </g>
  <g>
    <path class="cls-6" d="M249.42,131.12c.44.61.09,1-.61,1H228.53a2.39,2.39,0,0,1-1.84-1l-10.83-21.85V131a1.28,1.28,0,0,1-1.32,1.22H199.07a1.31,1.31,0,0,1-1.22-1.22V73.17a1.33,1.33,0,0,1,1.22-1.31h15.47a1.29,1.29,0,0,1,1.32,1.31V92.75l10.48-19.84a2.46,2.46,0,0,1,2-1H247.5c.7,0,1,.44.61,1L230.8,100.62Z"/>
    <path class="cls-6" d="M269.43,71.86a1.28,1.28,0,0,1,1.31,1.31V131a1.27,1.27,0,0,1-1.31,1.22H254a1.31,1.31,0,0,1-1.22-1.22V73.17A1.33,1.33,0,0,1,254,71.86Z"/>
    <path class="cls-6" d="M318.9,116.44a1.26,1.26,0,0,1,1.31,1.13V131a1.33,1.33,0,0,1-1.31,1.22H278.26c-.61,0-1.23-.7-1.4-1.31V73.09a1.11,1.11,0,0,1,1.22-1.23h39.77a1.35,1.35,0,0,1,1.4,1.23V86.28a1.31,1.31,0,0,1-1.4,1.31H295V94.5h18.53a1,1,0,0,1,1.13,1.14l-1.22,12.23A1.53,1.53,0,0,1,312,109H295v7.43Z"/>
    <path class="cls-6" d="M329.91,113.82c.26-.88.87-1.14,1.57-.7,4,2.27,8.83,3.93,12.15,4.19,2.8,0,4.64-1.31,4.64-3.32,0-5.16-24.56-4.89-24.56-23.95,0-11.71,8.82-19.49,22.11-19.49a38,38,0,0,1,19.58,6.29c.7.44,1,1.14.7,1.58l-5.51,12.32c-.26.88-.87,1.14-1.57.7-4.29-2.45-9.27-4.28-12.33-4.54-2.71,0-4.45,1.22-4.45,3.14,0,5.16,24.73,4.81,24.73,24,0,11.62-9,19.4-22.46,19.4-7.34,0-15-2.27-19.41-5.77-.7-.52-1-1.13-.7-1.57Z"/>
    <path class="cls-6" d="M431.91,71.86a1.29,1.29,0,0,1,1.31,1.31V131a1.27,1.27,0,0,1-1.31,1.22H415.56a1.24,1.24,0,0,1-1.22-1.22V111.37H402.1V131a1.27,1.27,0,0,1-1.31,1.22H384.45a1.32,1.32,0,0,1-1.23-1.22V73.17a1.34,1.34,0,0,1,1.23-1.31h16.34a1.28,1.28,0,0,1,1.31,1.31V96h12.24V73.17a1.27,1.27,0,0,1,1.22-1.31Z"/>
    <path class="cls-6" d="M481.37,116.44a1.27,1.27,0,0,1,1.32,1.13V131a1.34,1.34,0,0,1-1.32,1.22H440.73c-.61,0-1.22-.7-1.4-1.31V73.09a1.11,1.11,0,0,1,1.23-1.23h39.77a1.35,1.35,0,0,1,1.39,1.23V86.28a1.3,1.3,0,0,1-1.39,1.31H457.51V94.5H476a1,1,0,0,1,1.14,1.14L476,107.87a1.51,1.51,0,0,1-1.48,1.14h-17v7.43Z"/>
    <path class="cls-6" d="M532.68,71.86a1.14,1.14,0,0,1,1.22,1.23l-1.31,13.28a1.48,1.48,0,0,1-1.4,1.22h-13V131a1.25,1.25,0,0,1-1.22,1.22H501.47a1.34,1.34,0,0,1-1.31-1.22V87.59H485.65a1.24,1.24,0,0,1-1.22-1.22V73.17a1.33,1.33,0,0,1,1.22-1.31Z"/>
    <path class="cls-6" d="M553.21,113.82c.27-.88.88-1.14,1.58-.7a33,33,0,0,0,12.15,4.19c2.79,0,4.63-1.31,4.63-3.32,0-5.16-24.56-4.89-24.56-23.95,0-11.71,8.83-19.49,22.11-19.49a38,38,0,0,1,19.58,6.29c.7.44,1,1.14.7,1.58l-5.51,12.32c-.26.88-.87,1.14-1.57.7C578,89,573.05,87.16,570,86.9c-2.71,0-4.46,1.22-4.46,3.14,0,5.16,24.73,4.81,24.73,24,0,11.62-9,19.4-22.46,19.4-7.34,0-15-2.27-19.4-5.77-.7-.52-1-1.13-.7-1.57Z"/>
    <path class="cls-6" d="M625.32,133.39c-18.62,0-31-12.58-31-31.37,0-19,12.41-31.56,31-31.56s31,12.59,31,31.56C656.35,120.81,643.94,133.39,625.32,133.39Zm0-45.27c-7.17,0-12,5.59-12,13.9s4.81,13.89,12,13.89,12-5.59,12-13.89S632.49,88.12,625.32,88.12Z"/>
    <path class="cls-6" d="M692,133.39c-18.61,0-31-12.58-31-31.37,0-19,12.41-31.56,31-31.56S723,83.05,723,102C723,120.81,710.62,133.39,692,133.39Zm0-45.27c-7.16,0-12,5.59-12,13.9s4.81,13.89,12,13.89,12-5.59,12-13.89S699.17,88.12,692,88.12Z"/>
    <path class="cls-6" d="M778.44,130.77c.44.79-.17,1.4-1,1.4h-18.7a2.27,2.27,0,0,1-2-1.4l-9.09-19.05h-1V131a1.35,1.35,0,0,1-1.4,1.22H729.85a1.34,1.34,0,0,1-1.32-1.22V73.17a1.35,1.35,0,0,1,1.32-1.31h23.07c13.46,0,22.37,7.87,22.37,19.76a18.43,18.43,0,0,1-10.75,16.69ZM751.78,96.86c3,0,5-1.84,5-4.63s-2-4.64-5-4.64h-5.15v9.27Z"/>
    <path class="cls-6" d="M826.86,71.86a1.14,1.14,0,0,1,1.22,1.23l-1.31,13.28a1.47,1.47,0,0,1-1.4,1.22h-13V131a1.24,1.24,0,0,1-1.22,1.22H795.66a1.33,1.33,0,0,1-1.31-1.22V87.59H779.84a1.25,1.25,0,0,1-1.23-1.22V73.17a1.34,1.34,0,0,1,1.23-1.31Z"/>
    <path class="cls-6" d="M864.09,71.86c18.53,0,30.85,12,30.85,30.16,0,18-12.32,30.15-30.85,30.15H843.81a1.33,1.33,0,0,1-1.22-1.31V73.17a1.33,1.33,0,0,1,1.22-1.31Zm1,44.58c6.73,0,11.27-5.77,11.27-14.42s-4.54-14.43-11.27-14.43h-4.55v28.85Z"/>
    <path class="cls-6" d="M941.7,116.44a1.26,1.26,0,0,1,1.31,1.13V131a1.33,1.33,0,0,1-1.31,1.22H901.06c-.61,0-1.22-.7-1.4-1.31V73.09a1.11,1.11,0,0,1,1.23-1.23h39.76a1.35,1.35,0,0,1,1.4,1.23V86.28a1.31,1.31,0,0,1-1.4,1.31H917.84V94.5h18.53a1.05,1.05,0,0,1,1.14,1.14l-1.23,12.23A1.52,1.52,0,0,1,934.8,109h-17v7.43Z"/>
    <path class="cls-6" d="M989.77,116.44a1.26,1.26,0,0,1,1.31,1.13V131a1.33,1.33,0,0,1-1.31,1.22H949.13c-.61,0-1.22-.7-1.4-1.31V73.09A1.11,1.11,0,0,1,949,71.86h39.77a1.35,1.35,0,0,1,1.4,1.23V86.28a1.31,1.31,0,0,1-1.4,1.31H965.91V94.5h18.53a1.05,1.05,0,0,1,1.14,1.14l-1.23,12.23a1.52,1.52,0,0,1-1.48,1.14h-17v7.43Z"/>
    <path class="cls-6" d="M1047.45,95.2a1.34,1.34,0,0,1,1.32,1.22v27.8a2.88,2.88,0,0,1-1,2.09c-5.25,4.46-13.29,7.08-21.68,7.08-18.88,0-31.46-12.58-31.46-31.46s12.58-31.47,31.46-31.47a36.2,36.2,0,0,1,18.36,5.07,1.36,1.36,0,0,1,.78,1.58L1040.81,90a1.32,1.32,0,0,1-1.66.7,27.6,27.6,0,0,0-12.58-3.06c-8,0-13.46,5.77-13.46,14.34,0,8.74,5.41,14.51,13.46,14.51,3.23,0,5.41-.61,6.38-1.66v-5.07h-8c-.78,0-1.31-.35-1.39-1l-1.14-12.07a1.27,1.27,0,0,1,1.4-1.48Zm-14,18.27v0Z"/>
  </g>
</svg>
