<svg id="Laag_1" data-name="Laag 1" xmlns="http://www.w3.org/2000/svg" xmlns:xlink="http://www.w3.org/1999/xlink" viewBox="0 0 325.07 344.39">
  <defs>
    <style>
      .cls-1, .cls-19, .cls-2, .cls-21, .cls-3, .cls-4, .cls-5, .cls-7 {
        fill: none;
      }

      .cls-1, .cls-16, .cls-2, .cls-21, .cls-3, .cls-5, .cls-7 {
        stroke: #503c21;
      }

      .cls-1, .cls-2 {
        stroke-miterlimit: 10;
      }

      .cls-1, .cls-11, .cls-3 {
        stroke-width: 9px;
      }

      .cls-15, .cls-2 {
        stroke-width: 6px;
      }

      .cls-11, .cls-21, .cls-3, .cls-7 {
        stroke-linecap: round;
        stroke-linejoin: round;
      }

      .cls-15, .cls-16, .cls-19, .cls-5 {
        stroke-miterlimit: 10;
      }

      .cls-5 {
        stroke-width: 8px;
      }

      .cls-6 {
        clip-path: url(#clip-path);
      }

      .cls-7 {
        stroke-width: 5px;
      }

      .cls-8 {
        clip-path: url(#clip-path-2);
      }

      .cls-9 {
        clip-path: url(#clip-path-3);
      }

      .cls-10 {
        clip-path: url(#clip-path-4);
      }

      .cls-11 {
        fill: #b4934b;
        stroke: #b4934b;
      }

      .cls-12 {
        fill: #e94933;
      }

      .cls-13 {
        fill: #ae3a32;
      }

      .cls-14 {
        clip-path: url(#clip-path-5);
      }

      .cls-15 {
        fill: #ab2524;
        stroke: #ab2524;
      }

      .cls-16 {
        fill: #503c21;
        stroke-width: 4px;
      }

      .cls-17 {
        fill: #f5d697;
      }

      .cls-18 {
        clip-path: url(#clip-path-6);
      }

      .cls-19 {
        stroke: #67bd2a;
        stroke-width: 108px;
      }

      .cls-20 {
        clip-path: url(#clip-path-7);
      }

      .cls-21 {
        stroke-width: 6px;
      }

      .cls-22 {
        clip-path: url(#clip-path-8);
      }

      .cls-23 {
        clip-path: url(#clip-path-9);
      }

      .cls-24 {
        clip-path: url(#clip-path-10);
      }
    </style>
    <clipPath id="clip-path">
      <path id="Path_90" data-name="Path 90" class="cls-1" d="M-652.76-199c-134.52,2.21-132.39-87-131.86-104.06a6.59,6.59,0,0,1,1.5-4c3.42-4.19,13.38-14,35-19.72,10.59-2.8,30.19-.54,45.21,4.89a6.78,6.78,0,0,1,3.18,2.51c41.18,59.15,75.79,10.55,82.66-.4a6.63,6.63,0,0,1,3.87-2.86,69.57,69.57,0,0,1,34.4-.56A77,77,0,0,1-548.7-307a6.49,6.49,0,0,1,2.14,4.45C-545.14-282-532.75-201-652.76-199Z"/>
    </clipPath>
    <clipPath id="clip-path-2">
      <path class="cls-2" d="M-714.23-309c-29.24,20.68-50.66,14-58,10.59a2.94,2.94,0,0,1-1.42-3.93,3,3,0,0,1,.5-.75c4.38-4.89,16.07-12.41,28.46-14.14,11.21-1.56,22.95,1,29.6,3a3,3,0,0,1,2,3.71A3,3,0,0,1-714.23-309Zm105.07,1.53c28.19,21.5,46.57,16.05,52.95,12.88a2.92,2.92,0,0,0,1.36-3.89,2.55,2.55,0,0,0-.33-.52c-4-5-15.73-13.11-28.33-15.22a56.24,56.24,0,0,0-24.74,1.53,3,3,0,0,0-2,3.7A2.92,2.92,0,0,0-609.16-307.48Z"/>
    </clipPath>
    <clipPath id="clip-path-3">
      <path id="Path_99" data-name="Path 99" class="cls-3" d="M-241.35-230h-4c-9.5,0-17.2,6.52-17.2,14.56v14.73c0,8-7.58,12.07-17.19,14.56l-58.45,10.56a8.39,8.39,0,0,1-4.52-.32,6.73,6.73,0,0,1-.73-.32l-20.82-10.51L-346.47-197a1.75,1.75,0,0,0,1-2.27,1.8,1.8,0,0,0-1-1l-20.29-10.25L-349-220.75a1.75,1.75,0,0,0,1-2.27,1.77,1.77,0,0,0-1-1l-20.29-10.24,15.18-10.26a1.75,1.75,0,0,0,1-2.27,1.74,1.74,0,0,0-1-1L-374.43-258l20.29-10.27a1.75,1.75,0,0,0,1-2.27,1.74,1.74,0,0,0-1-1l-15.18-10.24L-349-292a1.75,1.75,0,0,0,1-2.27,1.71,1.71,0,0,0-1-1l-17.73-10.26,20.29-10.26a1.75,1.75,0,0,0,1-2.27,1.77,1.77,0,0,0-1-1l-17.74-10.25,21.71-11,.73-.32a8.46,8.46,0,0,1,4.54-.31l57.54,10.56c9.62,2.49,17.19,6.52,17.19,14.57v14.71c0,8.05,7.7,14.57,17.2,14.57h4c9.49,0,17.19-6.53,17.19-14.57v-14.71c0-8,8.87-12.75,17.19-14.57l58.45-10.57a8.58,8.58,0,0,1,4.52.32c.26.1.5.2.74.32l18.23,9.22a1.5,1.5,0,0,1,.83,1.95,1.5,1.5,0,0,1-.73.78l-15.26,8.82a1.74,1.74,0,0,0-.95,2.27,1.69,1.69,0,0,0,.95,1l17.72,9a1.5,1.5,0,0,1,.83,1.95,1.5,1.5,0,0,1-.73.78l-15.26,8.84a1.73,1.73,0,0,0-1,2.26,1.71,1.71,0,0,0,1,1l17.72,9a1.5,1.5,0,0,1,.82,1.95,1.5,1.5,0,0,1-.73.78l-15.25,8.83a1.74,1.74,0,0,0-1,2.27,1.74,1.74,0,0,0,1,1l17.53,8.86a1.51,1.51,0,0,1,.82,2,1.53,1.53,0,0,1-.82.82l-17.53,8.85a1.75,1.75,0,0,0-1,2.27,1.74,1.74,0,0,0,1,1l15.26,8.82a1.5,1.5,0,0,1,.68,2,1.5,1.5,0,0,1-.78.73l-17.72,9a1.74,1.74,0,0,0-1,2.27,1.69,1.69,0,0,0,1,1l15.27,8.83a1.5,1.5,0,0,1,.68,2,1.52,1.52,0,0,1-.78.72l-17.73,8.95a1.74,1.74,0,0,0-.95,2.27,1.69,1.69,0,0,0,.95,1l15.26,8.83a1.49,1.49,0,0,1,.68,2,1.48,1.48,0,0,1-.78.72l-19.13,9.67a6,6,0,0,1-.73.32,8.45,8.45,0,0,1-4.54.32L-207-186.15c-9.32-2.32-17.19-6.52-17.19-14.56v-14.72C-224.16-223.48-231.86-230-241.35-230Z"/>
    </clipPath>
    <clipPath id="clip-path-4">
      <path id="Path_108" data-name="Path 108" class="cls-3" d="M299.66-238h-208l-5.29-4.51-5.58-4.79-11.66-9.95L63.5-262l-11.63-9.95-5.63-4.8-11.61-9.93L29-291.47l-4.36-3.74H232.71l4.37,3.74,5.63,4.8,11.6,9.93,5.61,4.8L271.55-262l5.61,4.78,11.63,9.95,5.58,4.79Z"/>
    </clipPath>
    <clipPath id="clip-path-5">
      <path class="cls-4" d="M-284.52,196.21a13.7,13.7,0,0,0,5.43,8.72l18.89,13.72a2.52,2.52,0,0,0,3.51-.56,2.5,2.5,0,0,0,.44-1.91l-3.44-19.85a13.68,13.68,0,0,0-5.44-8.72L-289,170.25Zm42.84-15.31a13.67,13.67,0,0,0-7.14,7.37L-256.36,207a2.5,2.5,0,0,0,1.37,3.27,2.5,2.5,0,0,0,2,0l21.35-9.44a13.68,13.68,0,0,0,7.14-7.38l9.87-24.44Zm2-28.77a13.65,13.65,0,0,0-7.14,7.38l-7.54,18.68a2.51,2.51,0,0,0,1.38,3.27,2.47,2.47,0,0,0,2,0l21.35-9.45a13.62,13.62,0,0,0,7.14-7.38l9.87-24.43Zm-44.86,11.4a13.63,13.63,0,0,0,5.26,8.82l18.61,14.09a2.51,2.51,0,0,0,3.52-.48,2.53,2.53,0,0,0,.48-1.9l-3.06-19.92a13.7,13.7,0,0,0-5.26-8.82l-23.55-17.83Zm48.35-40.5a13.68,13.68,0,0,0-7.14,7.38l-7.55,18.69a2.51,2.51,0,0,0,1.39,3.27,2.52,2.52,0,0,0,2,0l21.34-9.45a13.65,13.65,0,0,0,7.14-7.38l9.87-24.43ZM-281,134.4a13.68,13.68,0,0,0,5.43,8.71l18.89,13.71a2.51,2.51,0,0,0,3.51-.55,2.55,2.55,0,0,0,.45-1.91l-3.47-19.86a13.68,13.68,0,0,0-5.43-8.71l-23.91-17.35Zm48.68-40.13a13.67,13.67,0,0,0-7.15,7.38L-247,120.33a2.51,2.51,0,0,0,1.39,3.27,2.47,2.47,0,0,0,2,0l21.34-9.45a13.63,13.63,0,0,0,7.14-7.37l9.87-24.44ZM-275.66,105a13.68,13.68,0,0,0,4.65,9.16l17.61,15.31a2.52,2.52,0,0,0,3.55-.25,2.52,2.52,0,0,0,.61-1.86l-1.71-20.08a13.65,13.65,0,0,0-4.65-9.15l-22.3-19.39Zm17.47-33.15A13.68,13.68,0,0,0-257.44,82L-247.11,103a2.53,2.53,0,0,0,3.37,1.14,2.53,2.53,0,0,0,1.28-1.48l6.18-19.18A13.67,13.67,0,0,0-237,73.21l-13.08-26.5Z"/>
    </clipPath>
    <clipPath id="clip-path-6">
      <path class="cls-4" d="M57.76,43.76C41,60.53,40.89,91.35,67.19,117.64c33.69,33.7,92.9,51.81,104.58,40.13,12-12-4.16-68.62-40.12-104.58C103.92,25.47,74.54,27,57.76,43.76"/>
    </clipPath>
    <clipPath id="clip-path-7">
      <path id="Path_200" data-name="Path 200" class="cls-5" d="M171.77,157.77c-11.68,11.68-70.89-6.43-104.58-40.12C40.89,91.35,41,60.54,57.77,43.77s46.16-18.3,73.88,9.42C167.61,89.15,183.73,145.82,171.77,157.77Z"/>
    </clipPath>
    <clipPath id="clip-path-8">
      <path class="cls-1" d="M-795,630.67c11.88,23.16,54.74,3.06,54.41,23.48-.32,19.46-16.46,17.11-12.25,32.66,7.1,26.19,62.19-9.67,96.56,19.75,29.71,25.43,46.9,2.87,81.86-6.13s20.51-21.09,22.55-30.16,11.33-18.8,17.85-25.29c7.19-7.15,23.07-53.68-34.37-40.14-24.5,5.78-31,12.43-60.51-8-4.82-3.34-17.3-19.76-31.67-15.61-10,2.89,5.34,22.47-13.77,25-12,1.58-39.43-30.13-59.77-15.47C-770.24,616.74-803.87,613.46-795,630.67Zm123-47.62c-.27,7.91-7.58,3.25-13.54.33s-9.54-7.82-8-10.92,7.58-3.25,13.54-.33S-671.8,575.66-672,583.05ZM-792.55,642c7.28,2.33,4.26,5.56,2.61,8.43a6.49,6.49,0,0,1-9,1.68,6.49,6.49,0,0,1-2.18-8.16C-799.5,641.05-799.34,639.79-792.55,642Zm257,45.3c-1.46,3.22-3.2,1.11-4.76-.25a3,3,0,0,1-1.3-4.07,3,3,0,0,1,4.07-1.31,3,3,0,0,1,1.09,1C-534.85,683.94-534.15,684.25-535.51,687.26Zm-162.9-111.9c1.37,3-2.23,2.63-5,2.64s-5-1.14-5-2.58,2.23-2.63,5-2.64S-699.69,572.56-698.41,575.36Z"/>
    </clipPath>
    <clipPath id="clip-path-9">
      <path class="cls-1" d="M-381.95,630.67c11.88,23.16,54.74,3.06,54.41,23.48-.32,19.46-16.46,17.11-12.25,32.66,7.1,26.19,62.19-9.67,96.56,19.75,29.71,25.43,46.9,2.87,81.86-6.13s20.52-21.09,22.55-30.16S-127.49,651.47-121,645c7.19-7.15,23.07-53.68-34.37-40.14-24.5,5.78-31,12.43-60.51-8-4.82-3.34-17.3-19.76-31.67-15.61-10,2.89,5.34,22.47-13.77,25-12,1.58-39.43-30.13-59.77-15.47C-357.15,616.74-390.78,613.46-381.95,630.67Zm123-47.62c-.27,7.91-7.58,3.25-13.54.33s-9.54-7.82-8-10.92,7.58-3.25,13.54-.33S-258.71,575.66-259,583.05ZM-379.46,642c7.28,2.33,4.26,5.56,2.61,8.43a6.49,6.49,0,0,1-9,1.68,6.49,6.49,0,0,1-2.18-8.16C-386.41,641.05-386.25,639.79-379.46,642Zm257,45.3c-1.46,3.22-3.2,1.11-4.76-.25a3,3,0,0,1-1.3-4.07,3,3,0,0,1,4.07-1.31,3,3,0,0,1,1.09,1C-121.76,683.94-121.06,684.25-122.42,687.26Zm-162.9-111.9c1.37,3-2.23,2.63-5,2.64s-5-1.14-5-2.58,2.23-2.63,5-2.64S-286.6,572.56-285.32,575.36Z"/>
    </clipPath>
    <clipPath id="clip-path-10">
      <path class="cls-1" d="M25.93,630.67c11.88,23.16,54.73,3.06,54.4,23.48-.32,19.46-16.46,17.11-12.24,32.66,7.1,26.19,62.18-9.67,96.55,19.75,29.72,25.43,46.91,2.87,81.87-6.13s20.51-21.09,22.54-30.16,11.33-18.8,17.85-25.29c7.19-7.15,23.08-53.68-34.37-40.14-24.5,5.78-31,12.43-60.51-8-4.82-3.34-17.29-19.76-31.67-15.61-10,2.89,5.35,22.47-13.76,25-12,1.58-39.43-30.13-59.78-15.47C50.72,616.74,17.09,613.46,25.93,630.67Zm123-47.62c-.27,7.91-7.59,3.25-13.54.33s-9.55-7.82-8-10.92,7.59-3.25,13.54-.33S149.17,575.66,148.92,583.05ZM28.41,642c7.28,2.33,4.27,5.56,2.61,8.43a6.49,6.49,0,0,1-11.21-6.48C21.46,641.05,21.62,639.79,28.41,642Zm257,45.3c-1.46,3.22-3.19,1.11-4.75-.25a3,3,0,1,1,2.77-5.38,3,3,0,0,1,1.08,1C286.12,683.94,286.82,684.25,285.45,687.26Zm-162.9-111.9c1.37,3-2.22,2.63-5,2.64s-5-1.14-5-2.58,2.23-2.63,5-2.64S121.27,572.56,122.55,575.36Z"/>
    </clipPath>
  </defs>
  <g>
    <g>
      <g class="cls-6">
        <line class="cls-7" x1="11.17" y1="-723.24" x2="11.17" y2="231.39"/>
      </g>
      <path id="Path_90-2" data-name="Path 90" class="cls-1" d="M-652.76-199c-134.52,2.21-132.39-87-131.86-104.06a6.59,6.59,0,0,1,1.5-4c3.42-4.19,13.38-14,35-19.72,10.59-2.8,30.19-.54,45.21,4.89a6.78,6.78,0,0,1,3.18,2.51c41.18,59.15,75.79,10.55,82.66-.4a6.63,6.63,0,0,1,3.87-2.86,69.57,69.57,0,0,1,34.4-.56A77,77,0,0,1-548.7-307a6.49,6.49,0,0,1,2.14,4.45C-545.14-282-532.75-201-652.76-199Z"/>
    </g>
    <path class="cls-2" d="M-714.23-309c-29.24,20.68-50.66,14-58,10.59a2.94,2.94,0,0,1-1.42-3.93,3,3,0,0,1,.5-.75c4.38-4.89,16.07-12.41,28.46-14.14,11.21-1.56,22.95,1,29.6,3a3,3,0,0,1,2,3.71A3,3,0,0,1-714.23-309Zm105.07,1.53c28.19,21.5,46.57,16.05,52.95,12.88a2.92,2.92,0,0,0,1.36-3.89,2.55,2.55,0,0,0-.33-.52c-4-5-15.73-13.11-28.33-15.22a56.24,56.24,0,0,0-24.74,1.53,3,3,0,0,0-2,3.7A2.92,2.92,0,0,0-609.16-307.48Z"/>
  </g>
  <g>
    <g class="cls-9">
      <g>
        <line class="cls-7" x1="14.39" y1="-920.81" x2="14.39" y2="33.83"/>
        <line class="cls-7" x1="55.88" y1="-920.81" x2="55.88" y2="33.83"/>
        <line class="cls-7" x1="76.09" y1="-920.81" x2="76.09" y2="33.83"/>
        <line class="cls-7" x1="34.6" y1="-920.81" x2="34.6" y2="33.83"/>
        <line class="cls-7" x1="97.38" y1="-920.81" x2="97.38" y2="33.83"/>
        <line class="cls-7" x1="117.59" y1="-920.81" x2="117.59" y2="33.83"/>
        <line class="cls-7" x1="159.08" y1="-920.81" x2="159.08" y2="33.83"/>
        <line class="cls-7" x1="179.29" y1="-920.81" x2="179.29" y2="33.83"/>
        <line class="cls-7" x1="137.79" y1="-920.81" x2="137.79" y2="33.83"/>
        <line class="cls-7" x1="200.58" y1="-920.81" x2="200.58" y2="33.83"/>
        <line class="cls-7" x1="220.79" y1="-920.81" x2="220.79" y2="33.83"/>
        <line class="cls-7" x1="262.28" y1="-920.81" x2="262.28" y2="33.83"/>
        <line class="cls-7" x1="282.49" y1="-920.81" x2="282.49" y2="33.83"/>
        <line class="cls-7" x1="240.99" y1="-920.81" x2="240.99" y2="33.83"/>
        <line class="cls-7" x1="323.98" y1="-920.81" x2="323.98" y2="33.83"/>
        <line class="cls-7" x1="302.7" y1="-920.81" x2="302.7" y2="33.83"/>
      </g>
    </g>
    <path id="Path_99-2" data-name="Path 99" class="cls-3" d="M-241.35-230h-4c-9.5,0-17.2,6.52-17.2,14.56v14.73c0,8-7.58,12.07-17.19,14.56l-58.45,10.56a8.39,8.39,0,0,1-4.52-.32,6.73,6.73,0,0,1-.73-.32l-20.82-10.51L-346.47-197a1.75,1.75,0,0,0,1-2.27,1.8,1.8,0,0,0-1-1l-20.29-10.25L-349-220.75a1.75,1.75,0,0,0,1-2.27,1.77,1.77,0,0,0-1-1l-20.29-10.24,15.18-10.26a1.75,1.75,0,0,0,1-2.27,1.74,1.74,0,0,0-1-1L-374.43-258l20.29-10.27a1.75,1.75,0,0,0,1-2.27,1.74,1.74,0,0,0-1-1l-15.18-10.24L-349-292a1.75,1.75,0,0,0,1-2.27,1.71,1.71,0,0,0-1-1l-17.73-10.26,20.29-10.26a1.75,1.75,0,0,0,1-2.27,1.77,1.77,0,0,0-1-1l-17.74-10.25,21.71-11,.73-.32a8.46,8.46,0,0,1,4.54-.31l57.54,10.56c9.62,2.49,17.19,6.52,17.19,14.57v14.71c0,8.05,7.7,14.57,17.2,14.57h4c9.49,0,17.19-6.53,17.19-14.57v-14.71c0-8,8.87-12.75,17.19-14.57l58.45-10.57a8.58,8.58,0,0,1,4.52.32c.26.1.5.2.74.32l18.23,9.22a1.5,1.5,0,0,1,.83,1.95,1.5,1.5,0,0,1-.73.78l-15.26,8.82a1.74,1.74,0,0,0-.95,2.27,1.69,1.69,0,0,0,.95,1l17.72,9a1.5,1.5,0,0,1,.83,1.95,1.5,1.5,0,0,1-.73.78l-15.26,8.84a1.73,1.73,0,0,0-1,2.26,1.71,1.71,0,0,0,1,1l17.72,9a1.5,1.5,0,0,1,.82,1.95,1.5,1.5,0,0,1-.73.78l-15.25,8.83a1.74,1.74,0,0,0-1,2.27,1.74,1.74,0,0,0,1,1l17.53,8.86a1.51,1.51,0,0,1,.82,2,1.53,1.53,0,0,1-.82.82l-17.53,8.85a1.75,1.75,0,0,0-1,2.27,1.74,1.74,0,0,0,1,1l15.26,8.82a1.5,1.5,0,0,1,.68,2,1.5,1.5,0,0,1-.78.73l-17.72,9a1.74,1.74,0,0,0-1,2.27,1.69,1.69,0,0,0,1,1l15.27,8.83a1.5,1.5,0,0,1,.68,2,1.52,1.52,0,0,1-.78.72l-17.73,8.95a1.74,1.74,0,0,0-.95,2.27,1.69,1.69,0,0,0,.95,1l15.26,8.83a1.49,1.49,0,0,1,.68,2,1.48,1.48,0,0,1-.78.72l-19.13,9.67a6,6,0,0,1-.73.32,8.45,8.45,0,0,1-4.54.32L-207-186.15c-9.32-2.32-17.19-6.52-17.19-14.56v-14.72C-224.16-223.48-231.86-230-241.35-230Z"/>
  </g>
  <g>
    <g class="cls-10">
      <g>
        <line class="cls-7" x1="29.89" y1="-779.4" x2="29.89" y2="175.24"/>
        <line class="cls-7" x1="50.1" y1="-779.4" x2="50.1" y2="175.24"/>
        <line class="cls-7" x1="8.61" y1="-779.4" x2="8.61" y2="175.24"/>
        <line class="cls-7" x1="71.39" y1="-779.4" x2="71.39" y2="175.24"/>
        <line class="cls-7" x1="91.6" y1="-779.4" x2="91.6" y2="175.24"/>
        <line class="cls-7" x1="133.09" y1="-779.4" x2="133.09" y2="175.24"/>
        <line class="cls-7" x1="153.3" y1="-779.4" x2="153.3" y2="175.24"/>
        <line class="cls-7" x1="111.81" y1="-779.4" x2="111.81" y2="175.24"/>
        <line class="cls-7" x1="194.8" y1="-779.4" x2="194.8" y2="175.24"/>
        <line class="cls-7" x1="215" y1="-779.4" x2="215" y2="175.24"/>
        <line class="cls-7" x1="173.51" y1="-779.4" x2="173.51" y2="175.24"/>
        <line class="cls-7" x1="236.29" y1="-779.4" x2="236.29" y2="175.24"/>
        <line class="cls-7" x1="256.5" y1="-779.4" x2="256.5" y2="175.24"/>
        <line class="cls-7" x1="298" y1="-779.4" x2="298" y2="175.24"/>
        <line class="cls-7" x1="318.2" y1="-779.4" x2="318.2" y2="175.24"/>
        <line class="cls-7" x1="276.71" y1="-779.4" x2="276.71" y2="175.24"/>
      </g>
    </g>
    <path id="Path_108-2" data-name="Path 108" class="cls-3" d="M299.66-238h-208l-5.29-4.51-5.58-4.79-11.66-9.95L63.5-262l-11.63-9.95-5.63-4.8-11.61-9.93L29-291.47l-4.36-3.74H232.71l4.37,3.74,5.63,4.8,11.6,9.93,5.61,4.8L271.55-262l5.61,4.78,11.63,9.95,5.58,4.79Z"/>
  </g>
  <g id="Group_108" data-name="Group 108">
    <g id="Rectangle_41" data-name="Rectangle 41">
      <rect class="cls-11" x="5.66" y="30.18" width="313.77" height="309.7" rx="44.82"/>
      <g>
        <rect class="cls-12" x="4.98" y="4.01" width="315.11" height="310.87" rx="41.09"/>
        <path class="cls-13" d="M279,9.51A35.63,35.63,0,0,1,314.59,45.1V273.79A35.63,35.63,0,0,1,279,309.38H46.07a35.62,35.62,0,0,1-35.59-35.59V45.1A35.62,35.62,0,0,1,46.07,9.51H279m0-11H46.07A46.59,46.59,0,0,0-.52,45.1V273.79a46.59,46.59,0,0,0,46.59,46.59H279a46.59,46.59,0,0,0,46.59-46.59V45.1A46.59,46.59,0,0,0,279-1.49Z"/>
      </g>
    </g>
  </g>
  <g class="cls-14">
    <g>
      <line class="cls-7" x1="38.57" y1="-283.54" x2="38.57" y2="671.1"/>
      <line class="cls-7" x1="58.78" y1="-283.54" x2="58.78" y2="671.1"/>
      <line class="cls-7" x1="17.28" y1="-283.54" x2="17.28" y2="671.1"/>
      <line class="cls-7" x1="80.06" y1="-283.54" x2="80.06" y2="671.1"/>
      <line class="cls-7" x1="100.27" y1="-283.54" x2="100.27" y2="671.1"/>
      <line class="cls-7" x1="141.77" y1="-283.54" x2="141.77" y2="671.1"/>
      <line class="cls-7" x1="161.98" y1="-283.54" x2="161.98" y2="671.1"/>
      <line class="cls-7" x1="120.48" y1="-283.54" x2="120.48" y2="671.1"/>
      <line class="cls-7" x1="183.26" y1="-283.54" x2="183.26" y2="671.1"/>
      <line class="cls-7" x1="203.47" y1="-283.54" x2="203.47" y2="671.1"/>
      <line class="cls-7" x1="244.97" y1="-283.54" x2="244.97" y2="671.1"/>
      <line class="cls-7" x1="265.18" y1="-283.54" x2="265.18" y2="671.1"/>
      <line class="cls-7" x1="223.68" y1="-283.54" x2="223.68" y2="671.1"/>
      <line class="cls-7" x1="306.67" y1="-283.54" x2="306.67" y2="671.1"/>
      <line class="cls-7" x1="326.88" y1="-283.54" x2="326.88" y2="671.1"/>
      <line class="cls-7" x1="285.38" y1="-283.54" x2="285.38" y2="671.1"/>
    </g>
  </g>
  <g id="Group_151" data-name="Group 151">
    <g id="Group_145" data-name="Group 145">
      <path id="Path_196" data-name="Path 196" class="cls-15" d="M262.14,299.87A9.12,9.12,0,0,1,252,292.44a4.46,4.46,0,0,1-.07-.51l0-.45a55.32,55.32,0,0,0-5.21-15.31A168.63,168.63,0,0,0,237.78,260c-3.25-5.26-6.77-10.44-10.5-15.4-1.87-2.48-3.8-4.89-5.75-7.24s-4-4.59-6.2-7.07l-51.49-58.23a6.65,6.65,0,0,1-.62-.88c-17.76,6-69.73-11.82-100.45-42.55-26.29-26.28-26.19-57.09-9.43-73.85s46.16-18.32,73.88,9.4c33.58,33.58,49.85,85.13,42.17,101.61a2.82,2.82,0,0,1,.58.45l.07.07,55.08,54.6c2.26,2.22,4.68,4.64,7,7.17s4.49,5,6.65,7.62q6.4,7.78,12.09,16.07a189.08,189.08,0,0,1,10.56,17.34c3.15,6.17,6.24,12.28,7.79,20.78a8.48,8.48,0,0,1-6.73,9.91l-.34.05"/>
      <path id="Path_197" data-name="Path 197" class="cls-16" d="M174,155.75q27.18,27.63,54.79,54.87c1.15,1.16,2.27,2.22,3.46,3.45s2.36,2.43,3.49,3.68c2.28,2.48,4.46,5,6.58,7.6q6.34,7.76,12,16a181,181,0,0,1,10.44,17.25,100.9,100.9,0,0,1,4.41,9.42,48.77,48.77,0,0,1,3.17,11,7.17,7.17,0,0,1-5.91,8.23l-.33.05a7.77,7.77,0,0,1-8.5-6.53c0-.11,0-.23,0-.35v-.05a34.92,34.92,0,0,0-1.92-7.54c-1-2.79-2.17-5.53-3.46-8.2a169.53,169.53,0,0,0-9-16.22c-3.3-5.3-6.85-10.47-10.62-15.46-1.89-2.49-3.83-4.93-5.83-7.29q-1.5-1.78-3.06-3.49l-3.22-3.56q-26.08-28.82-51.74-58a3.6,3.6,0,1,1,5.21-5,.46.46,0,0,0,.07.07Z"/>
      <path id="Path_198" data-name="Path 198" class="cls-17" d="M171.77,157.77c-11.68,11.68-70.89-6.43-104.58-40.12C40.89,91.35,41,60.54,57.77,43.77s46.16-18.3,73.88,9.42c36,36,52.07,92.63,40.12,104.58"/>
    </g>
    <g id="Group_148" data-name="Group 148">
      <g class="cls-18">
        <g id="Group_147" data-name="Group 147">
          <rect id="Rectangle_114" data-name="Rectangle 114" class="cls-19" x="-128.57" y="-133.92" width="296.77" height="297.57"/>
        </g>
      </g>
    </g>
    <g id="Group_149" data-name="Group 149">
      <g>
        <g class="cls-20">
          <g>
            <line class="cls-7" x1="8.78" y1="-217.02" x2="8.78" y2="737.62"/>
            <line class="cls-7" x1="28.99" y1="-217.02" x2="28.99" y2="737.62"/>
            <line class="cls-7" x1="70.49" y1="-217.02" x2="70.49" y2="737.62"/>
            <line class="cls-7" x1="90.69" y1="-217.02" x2="90.69" y2="737.62"/>
            <line class="cls-7" x1="49.2" y1="-217.02" x2="49.2" y2="737.62"/>
            <line class="cls-7" x1="132.19" y1="-217.02" x2="132.19" y2="737.62"/>
            <line class="cls-7" x1="152.4" y1="-217.02" x2="152.4" y2="737.62"/>
            <line class="cls-7" x1="110.9" y1="-217.02" x2="110.9" y2="737.62"/>
            <line class="cls-7" x1="173.69" y1="-217.02" x2="173.69" y2="737.62"/>
            <line class="cls-7" x1="193.89" y1="-217.02" x2="193.89" y2="737.62"/>
            <line class="cls-7" x1="235.39" y1="-217.02" x2="235.39" y2="737.62"/>
            <line class="cls-7" x1="255.6" y1="-217.02" x2="255.6" y2="737.62"/>
            <line class="cls-7" x1="214.1" y1="-217.02" x2="214.1" y2="737.62"/>
            <line class="cls-7" x1="276.88" y1="-217.02" x2="276.88" y2="737.62"/>
            <line class="cls-7" x1="297.09" y1="-217.02" x2="297.09" y2="737.62"/>
            <line class="cls-7" x1="317.3" y1="-217.02" x2="317.3" y2="737.62"/>
          </g>
        </g>
        <path id="Path_200-2" data-name="Path 200" class="cls-5" d="M171.77,157.77c-11.68,11.68-70.89-6.43-104.58-40.12C40.89,91.35,41,60.54,57.77,43.77s46.16-18.3,73.88,9.42C167.61,89.15,183.73,145.82,171.77,157.77Z"/>
      </g>
      <path id="Path_201" data-name="Path 201" class="cls-21" d="M72.34,54.36c15,10.18,99,103.83,99,103.83"/>
      <path id="Path_202" data-name="Path 202" class="cls-21" d="M96,52.5s2.54,17.42-.18,24.11"/>
      <path id="Path_203" data-name="Path 203" class="cls-21" d="M71.94,47.76l.4,6.6-7.21.54"/>
      <path id="Path_204" data-name="Path 204" class="cls-21" d="M87,68.05s-10.56-3.85-16.15-.2"/>
      <path id="Path_205" data-name="Path 205" class="cls-21" d="M135,119s-3.19-28.1,5.57-37.21"/>
      <path id="Path_206" data-name="Path 206" class="cls-21" d="M148.31,133s-13-9.95-22.42-10.15a108.34,108.34,0,0,0-29.45,4.34"/>
      <path id="Path_207" data-name="Path 207" class="cls-21" d="M163.11,116.38a53.06,53.06,0,0,1-4.52,27.67s-17.94,5.8-33.51,1.34"/>
    </g>
  </g>
  <g id="Group_186" data-name="Group 186">
    <g>
      <g class="cls-22">
        <g>
          <line class="cls-7" x1="8.54" y1="-13.51" x2="8.54" y2="909.32"/>
          <line class="cls-7" x1="28.07" y1="-13.51" x2="28.07" y2="909.32"/>
        </g>
      </g>
      <path class="cls-1" d="M-795,630.67c11.88,23.16,54.74,3.06,54.41,23.48-.32,19.46-16.46,17.11-12.25,32.66,7.1,26.19,62.19-9.67,96.56,19.75,29.71,25.43,46.9,2.87,81.86-6.13s20.51-21.09,22.55-30.16,11.33-18.8,17.85-25.29c7.19-7.15,23.07-53.68-34.37-40.14-24.5,5.78-31,12.43-60.51-8-4.82-3.34-17.3-19.76-31.67-15.61-10,2.89,5.34,22.47-13.77,25-12,1.58-39.43-30.13-59.77-15.47C-770.24,616.74-803.87,613.46-795,630.67Zm123-47.62c-.27,7.91-7.58,3.25-13.54.33s-9.54-7.82-8-10.92,7.58-3.25,13.54-.33S-671.8,575.66-672,583.05ZM-792.55,642c7.28,2.33,4.26,5.56,2.61,8.43a6.49,6.49,0,0,1-9,1.68,6.49,6.49,0,0,1-2.18-8.16C-799.5,641.05-799.34,639.79-792.55,642Zm257,45.3c-1.46,3.22-3.2,1.11-4.76-.25a3,3,0,0,1-1.3-4.07,3,3,0,0,1,4.07-1.31,3,3,0,0,1,1.09,1C-534.85,683.94-534.15,684.25-535.51,687.26Zm-162.9-111.9c1.37,3-2.23,2.63-5,2.64s-5-1.14-5-2.58,2.23-2.63,5-2.64S-699.69,572.56-698.41,575.36Z"/>
    </g>
  </g>
  <g id="Group_186-2" data-name="Group 186">
    <g>
      <g class="cls-23">
        <g>
          <line class="cls-7" x1="3.05" y1="-13.51" x2="3.05" y2="909.32"/>
          <line class="cls-7" x1="22.59" y1="-13.51" x2="22.59" y2="909.32"/>
          <line class="cls-7" x1="43.17" y1="-13.51" x2="43.17" y2="909.32"/>
          <line class="cls-7" x1="62.7" y1="-13.51" x2="62.7" y2="909.32"/>
          <line class="cls-7" x1="102.81" y1="-13.51" x2="102.81" y2="909.32"/>
          <line class="cls-7" x1="122.35" y1="-13.51" x2="122.35" y2="909.32"/>
          <line class="cls-7" x1="82.24" y1="-13.51" x2="82.24" y2="909.32"/>
          <line class="cls-7" x1="162.46" y1="-13.51" x2="162.46" y2="909.32"/>
          <line class="cls-7" x1="182" y1="-13.51" x2="182" y2="909.32"/>
          <line class="cls-7" x1="141.88" y1="-13.51" x2="141.88" y2="909.32"/>
          <line class="cls-7" x1="202.57" y1="-13.51" x2="202.57" y2="909.32"/>
          <line class="cls-7" x1="222.11" y1="-13.51" x2="222.11" y2="909.32"/>
          <line class="cls-7" x1="262.22" y1="-13.51" x2="262.22" y2="909.32"/>
          <line class="cls-7" x1="281.76" y1="-13.51" x2="281.76" y2="909.32"/>
          <line class="cls-7" x1="241.64" y1="-13.51" x2="241.64" y2="909.32"/>
          <line class="cls-7" x1="302.33" y1="-13.51" x2="302.33" y2="909.32"/>
          <line class="cls-7" x1="321.87" y1="-13.51" x2="321.87" y2="909.32"/>
        </g>
      </g>
      <path class="cls-1" d="M-381.95,630.67c11.88,23.16,54.74,3.06,54.41,23.48-.32,19.46-16.46,17.11-12.25,32.66,7.1,26.19,62.19-9.67,96.56,19.75,29.71,25.43,46.9,2.87,81.86-6.13s20.52-21.09,22.55-30.16S-127.49,651.47-121,645c7.19-7.15,23.07-53.68-34.37-40.14-24.5,5.78-31,12.43-60.51-8-4.82-3.34-17.3-19.76-31.67-15.61-10,2.89,5.34,22.47-13.77,25-12,1.58-39.43-30.13-59.77-15.47C-357.15,616.74-390.78,613.46-381.95,630.67Zm123-47.62c-.27,7.91-7.58,3.25-13.54.33s-9.54-7.82-8-10.92,7.58-3.25,13.54-.33S-258.71,575.66-259,583.05ZM-379.46,642c7.28,2.33,4.26,5.56,2.61,8.43a6.49,6.49,0,0,1-9,1.68,6.49,6.49,0,0,1-2.18-8.16C-386.41,641.05-386.25,639.79-379.46,642Zm257,45.3c-1.46,3.22-3.2,1.11-4.76-.25a3,3,0,0,1-1.3-4.07,3,3,0,0,1,4.07-1.31,3,3,0,0,1,1.09,1C-121.76,683.94-121.06,684.25-122.42,687.26Zm-162.9-111.9c1.37,3-2.23,2.63-5,2.64s-5-1.14-5-2.58,2.23-2.63,5-2.64S-286.6,572.56-285.32,575.36Z"/>
    </g>
  </g>
  <g id="Group_186-3" data-name="Group 186">
    <g>
      <g class="cls-24">
        <g>
          <line class="cls-7" x1="32.47" y1="-13.51" x2="32.47" y2="909.32"/>
          <line class="cls-7" x1="52" y1="-13.51" x2="52" y2="909.32"/>
          <line class="cls-7" x1="11.89" y1="-13.51" x2="11.89" y2="909.32"/>
          <line class="cls-7" x1="92.11" y1="-13.51" x2="92.11" y2="909.32"/>
          <line class="cls-7" x1="111.65" y1="-13.51" x2="111.65" y2="909.32"/>
          <line class="cls-7" x1="71.53" y1="-13.51" x2="71.53" y2="909.32"/>
          <line class="cls-7" x1="132.23" y1="-13.51" x2="132.23" y2="909.32"/>
          <line class="cls-7" x1="151.76" y1="-13.51" x2="151.76" y2="909.32"/>
          <line class="cls-7" x1="191.87" y1="-13.51" x2="191.87" y2="909.32"/>
          <line class="cls-7" x1="211.41" y1="-13.51" x2="211.41" y2="909.32"/>
          <line class="cls-7" x1="171.29" y1="-13.51" x2="171.29" y2="909.32"/>
          <line class="cls-7" x1="251.52" y1="-13.51" x2="251.52" y2="909.32"/>
          <line class="cls-7" x1="271.05" y1="-13.51" x2="271.05" y2="909.32"/>
          <line class="cls-7" x1="230.94" y1="-13.51" x2="230.94" y2="909.32"/>
          <line class="cls-7" x1="291.63" y1="-13.51" x2="291.63" y2="909.32"/>
          <line class="cls-7" x1="311.17" y1="-13.51" x2="311.17" y2="909.32"/>
        </g>
      </g>
      <path class="cls-1" d="M25.93,630.67c11.88,23.16,54.73,3.06,54.4,23.48-.32,19.46-16.46,17.11-12.24,32.66,7.1,26.19,62.18-9.67,96.55,19.75,29.72,25.43,46.91,2.87,81.87-6.13s20.51-21.09,22.54-30.16,11.33-18.8,17.85-25.29c7.19-7.15,23.08-53.68-34.37-40.14-24.5,5.78-31,12.43-60.51-8-4.82-3.34-17.29-19.76-31.67-15.61-10,2.89,5.35,22.47-13.76,25-12,1.58-39.43-30.13-59.78-15.47C50.72,616.74,17.09,613.46,25.93,630.67Zm123-47.62c-.27,7.91-7.59,3.25-13.54.33s-9.55-7.82-8-10.92,7.59-3.25,13.54-.33S149.17,575.66,148.92,583.05ZM28.41,642c7.28,2.33,4.27,5.56,2.61,8.43a6.49,6.49,0,0,1-11.21-6.48C21.46,641.05,21.62,639.79,28.41,642Zm257,45.3c-1.46,3.22-3.19,1.11-4.75-.25a3,3,0,1,1,2.77-5.38,3,3,0,0,1,1.08,1C286.12,683.94,286.82,684.25,285.45,687.26Zm-162.9-111.9c1.37,3-2.22,2.63-5,2.64s-5-1.14-5-2.58,2.23-2.63,5-2.64S121.27,572.56,122.55,575.36Z"/>
    </g>
  </g>
</svg>
