<svg id="Laag_1" data-name="Laag 1" xmlns="http://www.w3.org/2000/svg" xmlns:xlink="http://www.w3.org/1999/xlink" viewBox="0 0 326.08 344.39">
  <defs>
    <style>
      .cls-1, .cls-17, .cls-2, .cls-3, .cls-4, .cls-5, .cls-7, .cls-9 {
        fill: none;
      }

      .cls-1, .cls-18, .cls-2, .cls-3, .cls-5, .cls-7, .cls-9 {
        stroke: #503c21;
      }

      .cls-1, .cls-14, .cls-17, .cls-18, .cls-2 {
        stroke-miterlimit: 10;
      }

      .cls-1, .cls-11 {
        stroke-width: 9px;
      }

      .cls-2, .cls-5, .cls-9 {
        stroke-width: 6px;
      }

      .cls-11, .cls-3, .cls-7, .cls-9 {
        stroke-linecap: round;
        stroke-linejoin: round;
      }

      .cls-3 {
        stroke-width: 11px;
      }

      .cls-5 {
        stroke-miterlimit: 10;
      }

      .cls-6 {
        clip-path: url(#clip-path);
      }

      .cls-7 {
        stroke-width: 5px;
      }

      .cls-8 {
        clip-path: url(#clip-path-2);
      }

      .cls-10 {
        clip-path: url(#clip-path-3);
      }

      .cls-11 {
        fill: #b4934b;
        stroke: #b4934b;
      }

      .cls-12 {
        fill: #4b8449;
      }

      .cls-13 {
        fill: #4b6140;
      }

      .cls-14 {
        fill: #394e2d;
        stroke: #394e2d;
        stroke-width: 3px;
      }

      .cls-15 {
        fill: #f5d697;
      }

      .cls-16 {
        clip-path: url(#clip-path-4);
      }

      .cls-17 {
        stroke: #ffc421;
        stroke-linecap: square;
        stroke-width: 108px;
      }

      .cls-18 {
        fill: #503c21;
      }

      .cls-19 {
        clip-path: url(#clip-path-5);
      }

      .cls-20 {
        clip-path: url(#clip-path-6);
      }

      .cls-21 {
        clip-path: url(#clip-path-7);
      }
    </style>
    <clipPath id="clip-path">
      <path id="Path_90" data-name="Path 90" class="cls-1" d="M166.47-199C32-196.84,34.08-286.09,34.61-303.11a6.59,6.59,0,0,1,1.5-4c3.42-4.19,13.38-14,35-19.72,10.59-2.8,30.19-.54,45.21,4.89a6.73,6.73,0,0,1,3.18,2.51c41.19,59.15,75.8,10.55,82.66-.4A6.69,6.69,0,0,1,206-322.7a69.57,69.57,0,0,1,34.4-.56A77,77,0,0,1,270.53-307a6.54,6.54,0,0,1,2.15,4.45C274.09-282,286.48-201,166.47-199Z"/>
    </clipPath>
    <clipPath id="clip-path-2">
      <path class="cls-2" d="M105-309c-29.25,20.68-50.67,14-58,10.59a3,3,0,0,1-1.42-3.93,3,3,0,0,1,.5-.75c4.39-4.89,16.07-12.41,28.47-14.14,11.2-1.56,22.94,1,29.59,3a3,3,0,0,1,2,3.71A3,3,0,0,1,105-309Zm105.06,1.53c28.2,21.5,46.58,16.05,53,12.88a2.91,2.91,0,0,0,1.35-3.89,2.55,2.55,0,0,0-.33-.52c-4-5-15.73-13.11-28.33-15.22A56.18,56.18,0,0,0,211-312.7a3,3,0,0,0-2,3.7A2.92,2.92,0,0,0,210.07-307.48Z"/>
    </clipPath>
    <clipPath id="clip-path-3">
      <path id="Path_99" data-name="Path 99" class="cls-3" d="M577.88-230h-4c-9.49,0-17.19,6.52-17.19,14.56v14.73c0,8-7.58,12.07-17.2,14.56L481.1-175.59a8.38,8.38,0,0,1-4.52-.32,6.11,6.11,0,0,1-.74-.32L455-186.74,472.76-197a1.75,1.75,0,0,0,1-2.27,1.77,1.77,0,0,0-1-1l-20.29-10.25,17.73-10.27a1.75,1.75,0,0,0,1-2.27,1.74,1.74,0,0,0-1-1l-20.29-10.24,15.19-10.26a1.73,1.73,0,0,0,.95-2.27,1.75,1.75,0,0,0-.95-1L444.8-258l20.3-10.27a1.73,1.73,0,0,0,.95-2.27,1.75,1.75,0,0,0-.95-1L449.91-281.7,470.21-292a1.75,1.75,0,0,0,1-2.27,1.77,1.77,0,0,0-1-1l-17.74-10.26,20.29-10.26a1.75,1.75,0,0,0,1-2.27,1.77,1.77,0,0,0-1-1L455-329.19l21.71-11,.73-.32a8.46,8.46,0,0,1,4.54-.31l57.54,10.56c9.62,2.49,17.2,6.52,17.2,14.57v14.71c0,8.05,7.69,14.57,17.19,14.57h4c9.5,0,17.19-6.53,17.19-14.57v-14.71c0-8,8.87-12.75,17.2-14.57l58.45-10.57a8.59,8.59,0,0,1,4.52.32c.25.1.49.2.73.32l18.24,9.22A1.5,1.5,0,0,1,695-329a1.5,1.5,0,0,1-.73.78l-15.25,8.82a1.75,1.75,0,0,0-1,2.27,1.68,1.68,0,0,0,1,1l17.71,9a1.5,1.5,0,0,1,.83,1.95,1.5,1.5,0,0,1-.73.78l-15.26,8.84a1.73,1.73,0,0,0-1,2.26,1.74,1.74,0,0,0,1,1l17.72,9a1.49,1.49,0,0,1,.82,1.95,1.48,1.48,0,0,1-.72.78l-15.26,8.83a1.74,1.74,0,0,0-1,2.27,1.77,1.77,0,0,0,1,1l17.53,8.86a1.51,1.51,0,0,1,.82,2,1.53,1.53,0,0,1-.82.82l-17.53,8.85a1.75,1.75,0,0,0-1,2.27,1.77,1.77,0,0,0,1,1l15.26,8.82a1.5,1.5,0,0,1,.68,2,1.5,1.5,0,0,1-.78.73l-17.71,9a1.75,1.75,0,0,0-1,2.27,1.68,1.68,0,0,0,1,1l15.26,8.83a1.49,1.49,0,0,1,.68,2,1.52,1.52,0,0,1-.78.72l-17.72,8.95a1.75,1.75,0,0,0-1,2.27,1.68,1.68,0,0,0,1,1l15.26,8.83a1.5,1.5,0,0,1,.67,2,1.46,1.46,0,0,1-.77.72l-19.14,9.67a6.58,6.58,0,0,1-.72.32,8.49,8.49,0,0,1-4.55.32l-57.54-10.57c-9.32-2.32-17.19-6.52-17.19-14.56v-14.72C595.07-223.48,587.38-230,577.88-230Z"/>
    </clipPath>
    <clipPath id="clip-path-4">
      <path class="cls-4" d="M123.2,197.4a13.66,13.66,0,0,0,5.43,8.71l18.89,13.72a2.51,2.51,0,0,0,3.95-2.46L148,197.51a13.68,13.68,0,0,0-5.43-8.71l-23.9-17.36ZM166,182.08a13.68,13.68,0,0,0-7.14,7.38l-7.55,18.69a2.51,2.51,0,0,0,3.35,3.24l21.35-9.45a13.6,13.6,0,0,0,7.13-7.38l9.88-24.43Zm2-28.76a13.63,13.63,0,0,0-7.14,7.37l-7.55,18.69a2.52,2.52,0,0,0,3.35,3.24l21.35-9.45a13.68,13.68,0,0,0,7.14-7.38l9.87-24.43Zm-44.86,11.4a13.62,13.62,0,0,0,5.25,8.82L147,187.63a2.51,2.51,0,0,0,3.52-.48,2.46,2.46,0,0,0,.48-1.9L148,165.33a13.66,13.66,0,0,0-5.25-8.82l-23.56-17.84Zm48.35-40.5a13.68,13.68,0,0,0-7.14,7.38l-7.55,18.69a2.51,2.51,0,0,0,1.39,3.27,2.56,2.56,0,0,0,2,0l21.34-9.45a13.68,13.68,0,0,0,7.14-7.38l9.87-24.43Zm-44.85,11.37a13.66,13.66,0,0,0,5.44,8.71L151,158a2.51,2.51,0,0,0,4-2.47l-3.46-19.85a13.66,13.66,0,0,0-5.44-8.71l-23.9-17.35Zm48.68-40.13a13.63,13.63,0,0,0-7.14,7.37l-7.55,18.69a2.52,2.52,0,0,0,3.35,3.24l21.35-9.45a13.65,13.65,0,0,0,7.14-7.38l9.87-24.43Zm-43.3,10.68a13.61,13.61,0,0,0,4.65,9.15l17.61,15.32a2.51,2.51,0,0,0,4.15-2.11l-1.7-20.08a13.7,13.7,0,0,0-4.65-9.15l-22.3-19.39ZM149.53,73a13.67,13.67,0,0,0,.75,10.24l10.33,20.93a2.51,2.51,0,0,0,4.65-.34l6.18-19.18a13.68,13.68,0,0,0-.75-10.24L157.61,47.9Z"/>
    </clipPath>
    <clipPath id="clip-path-5">
      <path class="cls-4" d="M123.85,196.21a13.66,13.66,0,0,0,5.43,8.72l18.89,13.72a2.51,2.51,0,0,0,4-2.47l-3.45-19.85a13.7,13.7,0,0,0-5.43-8.72l-23.9-17.36Zm42.84-15.31a13.63,13.63,0,0,0-7.14,7.37L152,207a2.51,2.51,0,0,0,3.35,3.24l21.34-9.44a13.68,13.68,0,0,0,7.14-7.38l9.87-24.44Zm2-28.77a13.65,13.65,0,0,0-7.14,7.38L154,178.19a2.51,2.51,0,0,0,1.39,3.27,2.47,2.47,0,0,0,2,0L178.69,172a13.62,13.62,0,0,0,7.14-7.38l9.87-24.43Zm-44.87,11.4a13.67,13.67,0,0,0,5.26,8.82l18.61,14.09a2.51,2.51,0,0,0,4-2.38l-3.06-19.92a13.66,13.66,0,0,0-5.26-8.82l-23.55-17.83ZM172.17,123a13.72,13.72,0,0,0-7.14,7.38l-7.54,18.69a2.52,2.52,0,0,0,3.35,3.24l21.34-9.45a13.65,13.65,0,0,0,7.14-7.38l9.87-24.43ZM127.33,134.4a13.66,13.66,0,0,0,5.44,8.71l18.89,13.71a2.51,2.51,0,0,0,4-2.46l-3.46-19.86a13.66,13.66,0,0,0-5.44-8.71L122.8,108.44ZM176,94.27a13.65,13.65,0,0,0-7.14,7.38l-7.55,18.68a2.51,2.51,0,0,0,1.39,3.27,2.47,2.47,0,0,0,2,0L186,114.12a13.68,13.68,0,0,0,7.15-7.37L203,82.31ZM132.7,105a13.68,13.68,0,0,0,4.65,9.16L155,129.42a2.51,2.51,0,0,0,4.15-2.11l-1.71-20.08a13.65,13.65,0,0,0-4.65-9.15L130.47,78.69ZM150.18,71.8A13.68,13.68,0,0,0,150.93,82L161.26,103a2.51,2.51,0,0,0,4.64-.34l6.19-19.18a13.62,13.62,0,0,0-.76-10.24l-13.07-26.5Z"/>
    </clipPath>
    <clipPath id="clip-path-6">
      <path class="cls-4" d="M534.72,196.21a13.62,13.62,0,0,0,5.43,8.72L559,218.65a2.52,2.52,0,0,0,3.51-.56,2.55,2.55,0,0,0,.45-1.91l-3.45-19.85a13.7,13.7,0,0,0-5.43-8.72L530.2,170.25Zm42.84-15.31a13.68,13.68,0,0,0-7.15,7.37L562.87,207a2.51,2.51,0,0,0,3.35,3.24l21.34-9.44a13.68,13.68,0,0,0,7.14-7.38l9.87-24.44Zm2-28.77a13.65,13.65,0,0,0-7.14,7.38l-7.55,18.68a2.51,2.51,0,0,0,1.39,3.27,2.47,2.47,0,0,0,2,0L589.56,172a13.62,13.62,0,0,0,7.14-7.38l9.87-24.43Zm-44.87,11.4a13.67,13.67,0,0,0,5.26,8.82l18.61,14.09a2.51,2.51,0,0,0,4-2.38l-3.06-19.92a13.7,13.7,0,0,0-5.26-8.82l-23.55-17.83ZM583,123a13.68,13.68,0,0,0-7.14,7.38l-7.55,18.69a2.52,2.52,0,0,0,3.35,3.24l21.35-9.45a13.68,13.68,0,0,0,7.14-7.38l9.87-24.43ZM538.2,134.4a13.68,13.68,0,0,0,5.43,8.71l18.89,13.71a2.51,2.51,0,0,0,3.51-.55,2.46,2.46,0,0,0,.45-1.91L563,134.5a13.68,13.68,0,0,0-5.43-8.71l-23.91-17.35Zm48.68-40.13a13.65,13.65,0,0,0-7.14,7.38l-7.55,18.68a2.51,2.51,0,0,0,1.39,3.27,2.47,2.47,0,0,0,2,0l21.34-9.45a13.63,13.63,0,0,0,7.14-7.37l9.87-24.44ZM543.57,105a13.68,13.68,0,0,0,4.65,9.16l17.62,15.31a2.5,2.5,0,0,0,3.54-.25,2.48,2.48,0,0,0,.61-1.86l-1.71-20.08a13.65,13.65,0,0,0-4.65-9.15l-22.3-19.39ZM561.05,71.8A13.68,13.68,0,0,0,561.8,82L572.13,103a2.51,2.51,0,0,0,4.64-.34L583,83.45a13.67,13.67,0,0,0-.75-10.24l-13.07-26.5Z"/>
    </clipPath>
    <clipPath id="clip-path-7">
      <path id="Path_200" data-name="Path 200" class="cls-5" d="M991,157.77c-11.68,11.68-70.9-6.43-104.59-40.12-26.3-26.3-26.19-57.11-9.42-73.88s46.16-18.3,73.88,9.42C986.84,89.15,1003,145.82,991,157.77Z"/>
    </clipPath>
  </defs>
  <g>
    <g>
      <g class="cls-6">
        <g>
          <line class="cls-7" x1="5.89" y1="-723.24" x2="5.89" y2="231.39"/>
          <line class="cls-7" x1="47.39" y1="-723.24" x2="47.39" y2="231.39"/>
          <line class="cls-7" x1="67.6" y1="-723.24" x2="67.6" y2="231.39"/>
          <line class="cls-7" x1="26.1" y1="-723.24" x2="26.1" y2="231.39"/>
          <line class="cls-7" x1="88.88" y1="-723.24" x2="88.88" y2="231.39"/>
          <line class="cls-7" x1="109.09" y1="-723.24" x2="109.09" y2="231.39"/>
          <line class="cls-7" x1="150.59" y1="-723.24" x2="150.59" y2="231.39"/>
          <line class="cls-7" x1="170.8" y1="-723.24" x2="170.8" y2="231.39"/>
          <line class="cls-7" x1="129.3" y1="-723.24" x2="129.3" y2="231.39"/>
          <line class="cls-7" x1="212.29" y1="-723.24" x2="212.29" y2="231.39"/>
          <line class="cls-7" x1="232.5" y1="-723.24" x2="232.5" y2="231.39"/>
          <line class="cls-7" x1="191" y1="-723.24" x2="191" y2="231.39"/>
          <line class="cls-7" x1="253.79" y1="-723.24" x2="253.79" y2="231.39"/>
          <line class="cls-7" x1="273.99" y1="-723.24" x2="273.99" y2="231.39"/>
          <line class="cls-7" x1="315.49" y1="-723.24" x2="315.49" y2="231.39"/>
          <line class="cls-7" x1="294.2" y1="-723.24" x2="294.2" y2="231.39"/>
        </g>
      </g>
      <path id="Path_90-2" data-name="Path 90" class="cls-1" d="M166.47-199C32-196.84,34.08-286.09,34.61-303.11a6.59,6.59,0,0,1,1.5-4c3.42-4.19,13.38-14,35-19.72,10.59-2.8,30.19-.54,45.21,4.89a6.73,6.73,0,0,1,3.18,2.51c41.19,59.15,75.8,10.55,82.66-.4A6.69,6.69,0,0,1,206-322.7a69.57,69.57,0,0,1,34.4-.56A77,77,0,0,1,270.53-307a6.54,6.54,0,0,1,2.15,4.45C274.09-282,286.48-201,166.47-199Z"/>
    </g>
    <g>
      <g class="cls-8">
        <g>
          <line class="cls-9" x1="-221.92" y1="-464.05" x2="474.46" y2="232.33"/>
          <line class="cls-9" x1="-258.08" y1="-468.79" x2="438.31" y2="227.59"/>
          <line class="cls-9" x1="-253.2" y1="-432.77" x2="443.18" y2="263.61"/>
          <line class="cls-9" x1="-289.36" y1="-437.51" x2="407.03" y2="258.87"/>
          <line class="cls-9" x1="-284.49" y1="-401.48" x2="411.9" y2="294.9"/>
          <line class="cls-9" x1="-320.64" y1="-406.23" x2="375.74" y2="290.16"/>
          <line class="cls-9" x1="-315.77" y1="-370.2" x2="380.62" y2="326.18"/>
          <line class="cls-9" x1="-393.17" y1="-415.74" x2="303.21" y2="280.64"/>
          <line class="cls-9" x1="-388.29" y1="-379.72" x2="308.09" y2="316.67"/>
          <line class="cls-9" x1="-424.45" y1="-384.46" x2="271.94" y2="311.92"/>
          <line class="cls-9" x1="-65.48" y1="-620.49" x2="630.91" y2="75.89"/>
          <line class="cls-9" x1="-101.63" y1="-625.24" x2="594.75" y2="71.15"/>
          <line class="cls-9" x1="-96.75" y1="-589.22" x2="599.63" y2="107.17"/>
          <line class="cls-9" x1="-132.91" y1="-593.96" x2="563.47" y2="102.43"/>
          <line class="cls-9" x1="-128.04" y1="-557.93" x2="568.34" y2="138.46"/>
          <line class="cls-9" x1="-164.2" y1="-562.67" x2="532.19" y2="133.71"/>
          <line class="cls-9" x1="-159.32" y1="-526.65" x2="537.06" y2="169.73"/>
          <line class="cls-9" x1="-236.72" y1="-572.18" x2="459.66" y2="124.2"/>
          <line class="cls-9" x1="-231.85" y1="-536.16" x2="464.54" y2="160.22"/>
          <line class="cls-9" x1="-268" y1="-540.91" x2="428.38" y2="155.48"/>
          <line class="cls-9" x1="-2.48" y1="-683.49" x2="693.9" y2="12.9"/>
          <line class="cls-9" x1="-75.01" y1="-693" x2="621.38" y2="3.38"/>
          <line class="cls-9" x1="-111.16" y1="-697.75" x2="585.22" y2="-1.36"/>
        </g>
      </g>
      <path class="cls-2" d="M105-309c-29.25,20.68-50.67,14-58,10.59a3,3,0,0,1-1.42-3.93,3,3,0,0,1,.5-.75c4.39-4.89,16.07-12.41,28.47-14.14,11.2-1.56,22.94,1,29.59,3a3,3,0,0,1,2,3.71A3,3,0,0,1,105-309Zm105.06,1.53c28.2,21.5,46.58,16.05,53,12.88a2.91,2.91,0,0,0,1.35-3.89,2.55,2.55,0,0,0-.33-.52c-4-5-15.73-13.11-28.33-15.22A56.18,56.18,0,0,0,211-312.7a3,3,0,0,0-2,3.7A2.92,2.92,0,0,0,210.07-307.48Z"/>
    </g>
  </g>
  <g>
    <g class="cls-10">
      <g>
        <line class="cls-7" x1="257" y1="-920.81" x2="257" y2="33.83"/>
        <line class="cls-7" x1="277.21" y1="-920.81" x2="277.21" y2="33.83"/>
        <line class="cls-7" x1="215.51" y1="-920.81" x2="215.51" y2="33.83"/>
        <line class="cls-7" x1="235.71" y1="-920.81" x2="235.71" y2="33.83"/>
        <line class="cls-7" x1="318.7" y1="-920.81" x2="318.7" y2="33.83"/>
        <line class="cls-7" x1="297.42" y1="-920.81" x2="297.42" y2="33.83"/>
      </g>
    </g>
    <path id="Path_99-2" data-name="Path 99" class="cls-3" d="M577.88-230h-4c-9.49,0-17.19,6.52-17.19,14.56v14.73c0,8-7.58,12.07-17.2,14.56L481.1-175.59a8.38,8.38,0,0,1-4.52-.32,6.11,6.11,0,0,1-.74-.32L455-186.74,472.76-197a1.75,1.75,0,0,0,1-2.27,1.77,1.77,0,0,0-1-1l-20.29-10.25,17.73-10.27a1.75,1.75,0,0,0,1-2.27,1.74,1.74,0,0,0-1-1l-20.29-10.24,15.19-10.26a1.73,1.73,0,0,0,.95-2.27,1.75,1.75,0,0,0-.95-1L444.8-258l20.3-10.27a1.73,1.73,0,0,0,.95-2.27,1.75,1.75,0,0,0-.95-1L449.91-281.7,470.21-292a1.75,1.75,0,0,0,1-2.27,1.77,1.77,0,0,0-1-1l-17.74-10.26,20.29-10.26a1.75,1.75,0,0,0,1-2.27,1.77,1.77,0,0,0-1-1L455-329.19l21.71-11,.73-.32a8.46,8.46,0,0,1,4.54-.31l57.54,10.56c9.62,2.49,17.2,6.52,17.2,14.57v14.71c0,8.05,7.69,14.57,17.19,14.57h4c9.5,0,17.19-6.53,17.19-14.57v-14.71c0-8,8.87-12.75,17.2-14.57l58.45-10.57a8.59,8.59,0,0,1,4.52.32c.25.1.49.2.73.32l18.24,9.22A1.5,1.5,0,0,1,695-329a1.5,1.5,0,0,1-.73.78l-15.25,8.82a1.75,1.75,0,0,0-1,2.27,1.68,1.68,0,0,0,1,1l17.71,9a1.5,1.5,0,0,1,.83,1.95,1.5,1.5,0,0,1-.73.78l-15.26,8.84a1.73,1.73,0,0,0-1,2.26,1.74,1.74,0,0,0,1,1l17.72,9a1.49,1.49,0,0,1,.82,1.95,1.48,1.48,0,0,1-.72.78l-15.26,8.83a1.74,1.74,0,0,0-1,2.27,1.77,1.77,0,0,0,1,1l17.53,8.86a1.51,1.51,0,0,1,.82,2,1.53,1.53,0,0,1-.82.82l-17.53,8.85a1.75,1.75,0,0,0-1,2.27,1.77,1.77,0,0,0,1,1l15.26,8.82a1.5,1.5,0,0,1,.68,2,1.5,1.5,0,0,1-.78.73l-17.71,9a1.75,1.75,0,0,0-1,2.27,1.68,1.68,0,0,0,1,1l15.26,8.83a1.49,1.49,0,0,1,.68,2,1.52,1.52,0,0,1-.78.72l-17.72,8.95a1.75,1.75,0,0,0-1,2.27,1.68,1.68,0,0,0,1,1l15.26,8.83a1.5,1.5,0,0,1,.67,2,1.46,1.46,0,0,1-.77.72l-19.14,9.67a6.58,6.58,0,0,1-.72.32,8.49,8.49,0,0,1-4.55.32l-57.54-10.57c-9.32-2.32-17.19-6.52-17.19-14.56v-14.72C595.07-223.48,587.38-230,577.88-230Z"/>
  </g>
  <g id="Group_108" data-name="Group 108">
    <g id="Rectangle_41" data-name="Rectangle 41">
      <rect class="cls-11" x="6.15" y="30.18" width="313.77" height="309.7" rx="44.82"/>
      <g>
        <rect class="cls-12" x="5.47" y="4.01" width="315.11" height="310.87" rx="41.09"/>
        <path class="cls-13" d="M279.49,9.51A35.63,35.63,0,0,1,315.08,45.1V273.79a35.63,35.63,0,0,1-35.59,35.59H46.56A35.63,35.63,0,0,1,11,273.79V45.1A35.63,35.63,0,0,1,46.56,9.51H279.49m0-11H46.56A46.59,46.59,0,0,0,0,45.1V273.79a46.59,46.59,0,0,0,46.59,46.59H279.49a46.59,46.59,0,0,0,46.59-46.59V45.1A46.59,46.59,0,0,0,279.49-1.49Z"/>
      </g>
    </g>
    <g>
      <path id="Path_173" data-name="Path 173" class="cls-14" d="M219.47,147.38a189.66,189.66,0,0,1-8.41,33.35,237,237,0,0,1-13.93,31.54c-5.25,10.22-11,20.15-15.43,30.38a81,81,0,0,0-7.23,28,70.32,70.32,0,0,0,4.17,8,51.62,51.62,0,0,0,2.93,4.49l1.6,2a9.37,9.37,0,0,0,.81.86l.38.43.23.21.33.32a5.73,5.73,0,0,1-7.83,8.37.51.51,0,0,0-.12-.13,38.07,38.07,0,0,1-4.52-5.6,61.32,61.32,0,0,1-3.29-5.52A102.14,102.14,0,0,1,164,272.68a.49.49,0,0,1-.05-.2s0-.06,0-.06a159.21,159.21,0,0,0-18.35-25.36c-3.95-4.48-8.23-8.74-12.61-13s-8.9-8.47-13.08-13.15a77.29,77.29,0,0,1-10.95-15.36A84.92,84.92,0,0,1,102,188.2a184.14,184.14,0,0,1-5.6-36.46.61.61,0,0,1,.55-.66h0a.63.63,0,0,1,.66.53A181.77,181.77,0,0,0,105,187.29a75,75,0,0,0,18.52,30.23c8.47,8.41,18.42,15.83,27.11,24.83q3.87,3.92,7.45,8.11l-.29-1.47-1-6-.66-6c-.44-3.8-.87-7.6-1-11.43a2.08,2.08,0,0,1-.73-.36l-19.22-14a13.79,13.79,0,0,1-5.53-8.87l-4.48-25.69a.72.72,0,0,1-.76-.28v0A76.2,76.2,0,0,1,117,163a48.25,48.25,0,0,1-3.85-14.69.34.34,0,0,1,.28-.38h0a.34.34,0,0,1,.38.3h0A48.11,48.11,0,0,0,118,162.55a76.8,76.8,0,0,0,7.53,13v0a.69.69,0,0,1,0,.84l23.74,17.25a13.79,13.79,0,0,1,5.5,8.67l0-1.24c0-2.72.18-5.43.41-8.11a2.53,2.53,0,0,1-1.37-.51l-18.95-14.37a13.78,13.78,0,0,1-5.35-9l-3.93-25.61a.67.67,0,0,1-.73-.29l0,0a78.22,78.22,0,0,1-7.32-13.38,49.09,49.09,0,0,1-3.85-14.72.38.38,0,0,1,.33-.38.4.4,0,0,1,.38.33,47.53,47.53,0,0,0,4.15,14.34,76,76,0,0,0,7.5,12.92l0,0a.76.76,0,0,1,0,.76l23.31,17.66a13.78,13.78,0,0,1,5.35,9l1.47,9.52c.05-.66.1-1.31.17-2,.66-4.92,1.22-9.83,1.88-14.75a2.3,2.3,0,0,1-.43-.25l-19.23-14a13.73,13.73,0,0,1-5.52-8.87l-4.33-24.86a.65.65,0,0,1-.31-.23A77.08,77.08,0,0,1,121.2,101a48.57,48.57,0,0,1-3.85-14.73.35.35,0,0,1,.3-.38h0a.35.35,0,0,1,.38.29v0a47.79,47.79,0,0,0,4.16,14.32,75.33,75.33,0,0,0,7.52,12.95l0,0a.64.64,0,0,1,.12.48l23,16.73a13.85,13.85,0,0,1,5.55,8.87l1.85,10.56c.92-5,1.75-10.08,2.72-15.12a2.42,2.42,0,0,1-1.7-.64l-17.94-15.58a14,14,0,0,1-4.74-9.32l-2.15-25.59a.67.67,0,0,1-.74-.28s0,0,0,0h0a77.54,77.54,0,0,1-7.32-13.38,49.09,49.09,0,0,1-3.85-14.72.38.38,0,0,1,.32-.38.42.42,0,0,1,.39.33,47.53,47.53,0,0,0,4.15,14.34,75.24,75.24,0,0,0,7.5,12.92l0,0a.67.67,0,0,1,.1.58l22,19.18a13.93,13.93,0,0,1,4.74,9.32L165,125.72l3.86-17.16a2.24,2.24,0,0,1-1.12-1.11L157.19,86.11a14,14,0,0,1-.78-10.41l7.9-24.5a.93.93,0,0,1-.28-.31h0a78,78,0,0,1-5.65-14.16,48.67,48.67,0,0,1-2.05-15.07.34.34,0,0,1,.32-.34h0a.38.38,0,0,1,.36.36A47.8,47.8,0,0,0,159.4,36.4a76.36,76.36,0,0,0,5.9,13.76l0,0a.73.73,0,0,1-.23.92v0l12.87,26a13.85,13.85,0,0,1,.76,10.42l-6.3,19.53a2.39,2.39,0,0,1-.66,1.07l-2.26,12.64,6-14.72a13.87,13.87,0,0,1,7.27-7.5L209.54,86.7a.68.68,0,0,1,.05-.69l0-.05A76.68,76.68,0,0,0,217.14,73,48.59,48.59,0,0,0,221.3,58.7a.36.36,0,0,1,.38-.33.35.35,0,0,1,.3.38,47.86,47.86,0,0,1-3.85,14.72,76.87,76.87,0,0,1-7.32,13.38.73.73,0,0,1-.87.25l-9.8,24.18a13.82,13.82,0,0,1-7.27,7.53l-21.72,9.6a2.52,2.52,0,0,1-2.91-.61l-.58,3.25c-1.14,6.94-1.93,14-2.87,21l6.72-16.64a14,14,0,0,1,7.27-7.5L205.61,116a.62.62,0,0,1,0-.68s0,0,0,0v0a73.68,73.68,0,0,0,7.52-13A47.79,47.79,0,0,0,217.37,88a.32.32,0,0,1,.34-.33h0a.36.36,0,0,1,.31.38,47.6,47.6,0,0,1-3.86,14.72,76.87,76.87,0,0,1-7.32,13.38.72.72,0,0,1-.86.25l-9.78,24.17a13.82,13.82,0,0,1-7.27,7.53l-21.72,9.6a2.58,2.58,0,0,1-3-.73c-.76,6.91-1.14,13.83-1.77,20.77,0,.36,0,.71-.05,1.07L168,165a14.05,14.05,0,0,1,7.28-7.5L202,145.63a.65.65,0,0,1,0-.71l0,0h0l0,0a76.18,76.18,0,0,0,7.5-12.94,47.78,47.78,0,0,0,4.15-14.32.35.35,0,0,1,.37-.33h0a.36.36,0,0,1,.3.38,47.86,47.86,0,0,1-3.85,14.72,78.22,78.22,0,0,1-7.32,13.38.73.73,0,0,1-.84.28l-9.76,24.14a13.79,13.79,0,0,1-7.27,7.53l-21.71,9.6a2.59,2.59,0,0,1-1.6.18c0,.63,0,1.29-.05,1.92-.05,3.9-.33,7.8-.13,11.71L162,204l3.92-9.7a13.83,13.83,0,0,1,7.27-7.5L199.83,175a.64.64,0,0,1,.13-.37v0l0,0a72.72,72.72,0,0,0,7.5-12.92,47.26,47.26,0,0,0,4.16-14.34.36.36,0,0,1,.34-.37.37.37,0,0,1,.37.35v.07a48.74,48.74,0,0,1-3.86,14.72,75.5,75.5,0,0,1-7.32,13.38.74.74,0,0,1-.91.23l-9.6,23.82a14.07,14.07,0,0,1-7.27,7.52l-20.88,9.22c.2,2.72.51,5.43.7,8.14.26,3.87.89,7.68,1.5,11.48l.89,5.7,1.24,5.6,1.29,5.6.86,2.86a102.24,102.24,0,0,1,6.56-15.84c5.33-10.44,11.63-20,17.41-29.79a235.06,235.06,0,0,0,15.56-30.23,190,190,0,0,0,10.26-32.51.34.34,0,0,1,.39-.26h0a.36.36,0,0,1,.28.41"/>
      <path id="Path_174" data-name="Path 174" class="cls-15" d="M160.67,121.52l7.55-18.69a13.63,13.63,0,0,1,7.14-7.37l27-12-9.87,24.43a13.65,13.65,0,0,1-7.14,7.38L164,124.76a2.52,2.52,0,0,1-3.35-3.24m-.48,32,21.34-9.45a13.68,13.68,0,0,0,7.14-7.38l9.87-24.43-27,12a13.68,13.68,0,0,0-7.14,7.38l-7.55,18.69a2.51,2.51,0,0,0,1.39,3.27,2.56,2.56,0,0,0,2,0m-3.49,29.09L178,173.17a13.65,13.65,0,0,0,7.14-7.38l9.88-24.43-27,12a13.62,13.62,0,0,0-7.14,7.38l-7.55,18.68a2.51,2.51,0,0,0,1.39,3.27,2.47,2.47,0,0,0,2,0m-2,28.77,21.35-9.45a13.7,13.7,0,0,0,7.13-7.38l9.87-24.43-27,12a13.63,13.63,0,0,0-7.14,7.37l-7.55,18.69a2.51,2.51,0,0,0,3.35,3.24m3.77-82.88-1.7-20.08a13.7,13.7,0,0,0-4.65-9.15l-22.3-19.39,2.23,26.26a13.7,13.7,0,0,0,4.65,9.15l17.62,15.32a2.51,2.51,0,0,0,4.15-2.11m6.78-24.68,6.18-19.18a13.67,13.67,0,0,0-.75-10.24L157.61,47.9,149.52,73a13.68,13.68,0,0,0,.75,10.24l10.33,20.93a2.52,2.52,0,0,0,4.65-.34M155,155.54l-3.46-19.86a13.66,13.66,0,0,0-5.44-8.71l-23.91-17.35,4.53,26a13.66,13.66,0,0,0,5.44,8.71L151,158a2.51,2.51,0,0,0,4-2.47M151,185.24,148,165.32a13.63,13.63,0,0,0-5.26-8.82l-23.55-17.83,4,26a13.64,13.64,0,0,0,5.25,8.82L147,187.62a2.51,2.51,0,0,0,4-2.38m.43,32.12L148,197.51a13.68,13.68,0,0,0-5.43-8.71l-23.9-17.36,4.52,26a13.58,13.58,0,0,0,5.43,8.71l18.88,13.72a2.52,2.52,0,0,0,4-2.46"/>
    </g>
    <g class="cls-16">
      <rect id="Rectangle_102" data-name="Rectangle 102" class="cls-17" x="38.22" y="-30.8" width="166.89" height="250.74"/>
    </g>
    <g id="Group_140" data-name="Group 140">
      <path id="Path_176" data-name="Path 176" class="cls-9" d="M160.72,121.71,168.27,103a13.65,13.65,0,0,1,7.14-7.38l27-12-9.87,24.43a13.65,13.65,0,0,1-7.14,7.38L164.07,125a2.51,2.51,0,0,1-3.35-3.24Z"/>
      <path id="Path_177" data-name="Path 177" class="cls-9" d="M156.89,150.48l7.54-18.69a13.68,13.68,0,0,1,7.14-7.38l27-12-9.87,24.43a13.68,13.68,0,0,1-7.14,7.38l-21.35,9.45a2.51,2.51,0,0,1-3.31-1.29A2.45,2.45,0,0,1,156.89,150.48Z"/>
      <path id="Path_178" data-name="Path 178" class="cls-9" d="M153.4,179.57,161,160.89a13.65,13.65,0,0,1,7.14-7.38l27-12L185.24,166a13.68,13.68,0,0,1-7.14,7.38l-21.35,9.45a2.52,2.52,0,0,1-3.35-3.24Z"/>
      <path id="Path_179" data-name="Path 179" class="cls-9" d="M151.4,208.34l7.54-18.69a13.73,13.73,0,0,1,7.15-7.38l27-12-9.87,24.43a13.68,13.68,0,0,1-7.14,7.38l-21.34,9.45a2.52,2.52,0,0,1-3.32-1.29A2.49,2.49,0,0,1,151.4,208.34Z"/>
      <path id="Path_180" data-name="Path 180" class="cls-9" d="M158.52,128.69l-1.71-20.08a13.65,13.65,0,0,0-4.65-9.15L129.87,80.07l2.23,26.26a13.68,13.68,0,0,0,4.65,9.16l17.62,15.31a2.51,2.51,0,0,0,4.15-2.11Z"/>
      <path id="Path_181" data-name="Path 181" class="cls-9" d="M165.3,104l6.19-19.18a13.63,13.63,0,0,0-.76-10.24l-13.07-26.5-8.08,25.09a13.68,13.68,0,0,0,.75,10.24l10.33,20.93a2.51,2.51,0,0,0,4.64-.34Z"/>
      <path id="Path_182" data-name="Path 182" class="cls-9" d="M155,155.73l-3.47-19.85a13.68,13.68,0,0,0-5.43-8.71L122.2,109.82l4.53,26a13.68,13.68,0,0,0,5.43,8.71l18.89,13.71a2.51,2.51,0,0,0,3.52-.56A2.59,2.59,0,0,0,155,155.73Z"/>
      <path id="Path_183" data-name="Path 183" class="cls-9" d="M151.09,185.44,148,165.52a13.67,13.67,0,0,0-5.26-8.82l-23.55-17.83,4,26a13.7,13.7,0,0,0,5.26,8.82l18.61,14.09a2.51,2.51,0,0,0,4-2.39Z"/>
      <path id="Path_184" data-name="Path 184" class="cls-9" d="M151.52,217.56l-3.46-19.85a13.66,13.66,0,0,0-5.43-8.71l-23.9-17.37,4.52,26a13.66,13.66,0,0,0,5.43,8.72L147.56,220a2.52,2.52,0,0,0,3.51-.56A2.55,2.55,0,0,0,151.52,217.56Z"/>
      <path id="Path_185" data-name="Path 185" class="cls-18" d="M170.84,287.59c-.25-.23-.54-.48-.76-.7l-.6-.59c-.38-.4-.82-.8-1.15-1.2-.69-.81-1.39-1.62-2.06-2.45l-1.83-2.55-.9-1.28-.79-1.32-1.56-2.66c-.26-.45-.54-.89-.78-1.34l-.67-1.37c-.87-1.84-1.79-3.67-2.6-5.53a107.31,107.31,0,0,1-4-11.42c-.55-1.93-1.13-3.85-1.66-5.79l-1.21-5.86-1.18-5.88-.73-5.91-.72-5.91c-.14-1-.19-2-.24-3l-.16-3L147,214l-.15-3-.06-1.47,0-1.48.17-11.79c-.06-3.94.43-7.84.68-11.75s.57-7.81,1-11.7l1.59-11.61.8-5.8.41-2.89.55-2.88,2.25-11.47,1.13-5.72.59-2.85.71-2.83c1.93-7.54,3.78-15.07,5.82-22.56a1,1,0,0,1,1.88.38v0c-1,7.69-2.21,15.31-3.34,22.94l-.42,2.86-.3,2.88-.63,5.74-1.3,11.46-.34,2.86-.21,2.88-.4,5.74-.83,11.47c-.18,3.82-.2,7.64-.31,11.46s-.29,7.64-.1,11.44l.29,11.4,0,1.43.12,1.41.24,2.82.5,5.66.22,2.83a27,27,0,0,0,.29,2.82l.8,5.59.78,5.59,1.09,5.51,1.11,5.5c.5,1.79.95,3.59,1.43,5.39.83,3.65,2.2,7.06,3.3,10.59a107.31,107.31,0,0,0,4.4,10l.6,1.22.67,1.15,1.34,2.32,1.46,2.16c.24.38.49.66.74,1l.63.82.44.56a4,4,0,0,1-5.79,5.43"/>
      <path id="Path_186" data-name="Path 186" class="cls-18" d="M91.82,147.74a179.18,179.18,0,0,0,7.41,35,79.24,79.24,0,0,0,7.4,15.93,71.9,71.9,0,0,0,10.89,13.57c4.13,4.13,8.69,7.94,13.27,11.89s9.16,8,13.49,12.38a158,158,0,0,1,12.27,13.86c3.82,4.86,7.36,9.93,10.7,15.11l-9.43,2.41a77.43,77.43,0,0,1,3.34-17.59,98.4,98.4,0,0,1,6.74-16.19c5.3-10.27,11.54-19.62,17.28-29.2a231.34,231.34,0,0,0,15.43-29.58q3.25-7.68,5.84-15.67c1.69-5.32,3.13-10.73,4.4-16.19a.36.36,0,0,1,.41-.27.36.36,0,0,1,.27.4c-.88,5.55-1.95,11.09-3.27,16.57s-3,10.89-4.8,16.26a237.75,237.75,0,0,1-13.55,31.11c-5.12,10.06-10.67,19.84-15,29.88a76.73,76.73,0,0,0-7,30.83l-9.42,2.41c-2.87-5.1-5.91-10.11-9.23-14.92a150,150,0,0,0-10.8-13.82c-3.86-4.42-8-8.61-12.31-12.79s-8.7-8.38-12.8-13a76.25,76.25,0,0,1-10.7-15.19A82.76,82.76,0,0,1,96,183.73a180.45,180.45,0,0,1-5.33-35.88.6.6,0,0,1,1.19-.11Z"/>
      <path id="Path_187" data-name="Path 187" class="cls-18" d="M190.25,168.69a64.23,64.23,0,0,0,4.12-5.72c1.3-2,2.5-4.07,3.6-6.19a57.62,57.62,0,0,0,2.85-6.55,41.63,41.63,0,0,0,1.77-6.86v-.07a1.61,1.61,0,0,1,3.19.34,44.62,44.62,0,0,1-1,7.72,60.07,60.07,0,0,1-2.22,7.41c-.9,2.41-1.91,4.77-3,7.09a71.28,71.28,0,0,1-3.8,6.84,3.38,3.38,0,1,1-5.7-3.65,2.73,2.73,0,0,1,.21-.3Z"/>
      <path id="Path_188" data-name="Path 188" class="cls-18" d="M192.34,139.54a67.75,67.75,0,0,0,4.12-5.71,70.79,70.79,0,0,0,3.59-6.2,55.89,55.89,0,0,0,2.85-6.55,40.41,40.41,0,0,0,1.77-6.86v-.07a1.61,1.61,0,0,1,3.19.35,44.64,44.64,0,0,1-1,7.71,60.07,60.07,0,0,1-2.22,7.41c-.9,2.41-1.91,4.77-3.05,7.09a69.33,69.33,0,0,1-3.8,6.85,3.39,3.39,0,0,1-5.7-3.66,2.73,2.73,0,0,1,.21-.3Z"/>
      <path id="Path_189" data-name="Path 189" class="cls-18" d="M195.87,110.45a66.32,66.32,0,0,0,4.12-5.72,70.61,70.61,0,0,0,3.59-6.19A55.89,55.89,0,0,0,206.43,92a40.66,40.66,0,0,0,1.77-6.86l0-.07a1.6,1.6,0,0,1,3.18.34,43.67,43.67,0,0,1-1,7.72,60.07,60.07,0,0,1-2.22,7.41q-1.35,3.61-3,7.09a71.28,71.28,0,0,1-3.8,6.84,3.39,3.39,0,0,1-5.71-3.65l.21-.3Z"/>
      <path id="Path_190" data-name="Path 190" class="cls-18" d="M199.71,81.68A67.75,67.75,0,0,0,203.83,76c1.3-2,2.49-4.08,3.59-6.2a55.89,55.89,0,0,0,2.85-6.55A40.66,40.66,0,0,0,212,56.36v-.07a1.61,1.61,0,0,1,3.19.35,44.64,44.64,0,0,1-1,7.71A60.07,60.07,0,0,1,212,71.76c-.9,2.41-1.91,4.77-3.05,7.09a72.67,72.67,0,0,1-3.8,6.85,3.39,3.39,0,0,1-5.72-3.64,3.55,3.55,0,0,1,.23-.31Z"/>
      <path id="Path_191" data-name="Path 191" class="cls-18" d="M154.73,50.11a70.1,70.1,0,0,1-2.95-7.25c-.85-2.43-1.57-4.9-2.18-7.41a63.18,63.18,0,0,1-1.31-7.62,46,46,0,0,1-.09-7.78,1.61,1.61,0,0,1,3.21,0v.07a41.52,41.52,0,0,0,.93,7,56.52,56.52,0,0,0,2,6.84q1.25,3.36,2.82,6.58a62.75,62.75,0,0,0,3.41,6.17l0,.06A3.39,3.39,0,1,1,155,50.57a.61.61,0,0,1-.07-.1,2.37,2.37,0,0,1-.19-.35"/>
      <path id="Path_192" data-name="Path 192" class="cls-18" d="M127.1,82.47a71.44,71.44,0,0,1-3.8-6.85q-1.69-3.47-3-7.09A61.9,61.9,0,0,1,118,61.12a44.62,44.62,0,0,1-1-7.71,1.6,1.6,0,0,1,3.18-.35l0,.07A41.35,41.35,0,0,0,122,60a57.69,57.69,0,0,0,2.86,6.55q1.64,3.18,3.59,6.2a64.09,64.09,0,0,0,4.12,5.71l0,0a3.39,3.39,0,0,1-5.24,4.3l-.24-.33"/>
      <path id="Path_193" data-name="Path 193" class="cls-18" d="M120.05,112.7a71.44,71.44,0,0,1-3.8-6.85c-1.13-2.31-2.15-4.68-3-7.09A60.07,60.07,0,0,1,111,91.35a44.64,44.64,0,0,1-1-7.71,1.61,1.61,0,0,1,3.19-.35v.07a41.37,41.37,0,0,0,1.77,6.86,57.62,57.62,0,0,0,2.85,6.55c1.1,2.12,2.3,4.19,3.59,6.19a66.42,66.42,0,0,0,4.13,5.72l0,0a3.39,3.39,0,1,1-5.15,4.41l-.09-.11a3.43,3.43,0,0,1-.24-.33"/>
      <path id="Path_194" data-name="Path 194" class="cls-18" d="M116.5,141a71.44,71.44,0,0,1-3.8-6.85q-1.7-3.47-3-7.09a63.16,63.16,0,0,1-2.22-7.41,44.38,44.38,0,0,1-1-7.71,1.61,1.61,0,0,1,3.19-.35v.07a41.74,41.74,0,0,0,1.77,6.87,58.26,58.26,0,0,0,2.85,6.54c1.1,2.12,2.29,4.19,3.59,6.2a66.27,66.27,0,0,0,4.13,5.71l0,.05a3.39,3.39,0,0,1-5.24,4.3h0a3.43,3.43,0,0,1-.24-.33"/>
      <path id="Path_195" data-name="Path 195" class="cls-18" d="M116,173.64a71.44,71.44,0,0,1-3.8-6.85c-1.13-2.31-2.14-4.67-3-7.09a63.16,63.16,0,0,1-2.22-7.41,44.37,44.37,0,0,1-1-7.71,1.6,1.6,0,0,1,3.18-.34v.06a42.77,42.77,0,0,0,1.77,6.87,60.15,60.15,0,0,0,2.85,6.54q1.65,3.18,3.6,6.2a64.09,64.09,0,0,0,4.12,5.71l0,0a3.39,3.39,0,0,1-5.24,4.3,4,4,0,0,1-.24-.33"/>
    </g>
  </g>
  <g class="cls-19">
    <g>
      <line class="cls-7" x1="13.93" y1="-283.54" x2="13.93" y2="671.1"/>
      <line class="cls-7" x1="55.43" y1="-283.54" x2="55.43" y2="671.1"/>
      <line class="cls-7" x1="75.63" y1="-283.54" x2="75.63" y2="671.1"/>
      <line class="cls-7" x1="34.14" y1="-283.54" x2="34.14" y2="671.1"/>
      <line class="cls-7" x1="117.13" y1="-283.54" x2="117.13" y2="671.1"/>
      <line class="cls-7" x1="137.34" y1="-283.54" x2="137.34" y2="671.1"/>
      <line class="cls-7" x1="95.84" y1="-283.54" x2="95.84" y2="671.1"/>
      <line class="cls-7" x1="158.63" y1="-283.54" x2="158.63" y2="671.1"/>
      <line class="cls-7" x1="178.83" y1="-283.54" x2="178.83" y2="671.1"/>
      <line class="cls-7" x1="220.33" y1="-283.54" x2="220.33" y2="671.1"/>
      <line class="cls-7" x1="240.54" y1="-283.54" x2="240.54" y2="671.1"/>
      <line class="cls-7" x1="199.04" y1="-283.54" x2="199.04" y2="671.1"/>
      <line class="cls-7" x1="282.03" y1="-283.54" x2="282.03" y2="671.1"/>
      <line class="cls-7" x1="302.24" y1="-283.54" x2="302.24" y2="671.1"/>
      <line class="cls-7" x1="260.74" y1="-283.54" x2="260.74" y2="671.1"/>
      <line class="cls-7" x1="323.53" y1="-283.54" x2="323.53" y2="671.1"/>
    </g>
  </g>
  <g class="cls-20">
    <g>
      <line class="cls-7" x1="239.69" y1="-283.54" x2="239.69" y2="671.1"/>
      <line class="cls-7" x1="259.9" y1="-283.54" x2="259.9" y2="671.1"/>
      <line class="cls-7" x1="198.19" y1="-283.54" x2="198.19" y2="671.1"/>
      <line class="cls-7" x1="218.4" y1="-283.54" x2="218.4" y2="671.1"/>
      <line class="cls-7" x1="301.39" y1="-283.54" x2="301.39" y2="671.1"/>
      <line class="cls-7" x1="321.6" y1="-283.54" x2="321.6" y2="671.1"/>
      <line class="cls-7" x1="280.1" y1="-283.54" x2="280.1" y2="671.1"/>
    </g>
  </g>
  <g id="Group_151" data-name="Group 151">
    <g id="Group_149" data-name="Group 149">
      <g>
        <g class="cls-21">
          <g>
            <line class="cls-7" x1="291.81" y1="-217.02" x2="291.81" y2="737.62"/>
            <line class="cls-7" x1="312.02" y1="-217.02" x2="312.02" y2="737.62"/>
          </g>
        </g>
        <path id="Path_200-2" data-name="Path 200" class="cls-5" d="M991,157.77c-11.68,11.68-70.9-6.43-104.59-40.12-26.3-26.3-26.19-57.11-9.42-73.88s46.16-18.3,73.88,9.42C986.84,89.15,1003,145.82,991,157.77Z"/>
      </g>
    </g>
  </g>
</svg>
