<svg id="Laag_1" data-name="Laag 1" xmlns="http://www.w3.org/2000/svg" xmlns:xlink="http://www.w3.org/1999/xlink" viewBox="0 0 326.4 345.88">
  <defs>
    <style>
      .cls-1, .cls-19, .cls-2, .cls-23, .cls-3, .cls-4, .cls-5, .cls-7, .cls-9 {
        fill: none;
      }

      .cls-1, .cls-2, .cls-20, .cls-3, .cls-5, .cls-7, .cls-9 {
        stroke: #503c21;
      }

      .cls-1, .cls-19, .cls-2, .cls-20 {
        stroke-miterlimit: 10;
      }

      .cls-1, .cls-13 {
        stroke-width: 9px;
      }

      .cls-2, .cls-5, .cls-9 {
        stroke-width: 6px;
      }

      .cls-13, .cls-16, .cls-3, .cls-7, .cls-9 {
        stroke-linecap: round;
        stroke-linejoin: round;
      }

      .cls-3 {
        stroke-width: 11px;
      }

      .cls-23, .cls-5 {
        stroke-miterlimit: 10;
      }

      .cls-6 {
        clip-path: url(#clip-path);
      }

      .cls-7 {
        stroke-width: 5px;
      }

      .cls-8 {
        clip-path: url(#clip-path-2);
      }

      .cls-10 {
        clip-path: url(#clip-path-3);
      }

      .cls-11 {
        clip-path: url(#clip-path-4);
      }

      .cls-12 {
        clip-path: url(#clip-path-5);
      }

      .cls-13 {
        fill: #b4934b;
        stroke: #b4934b;
      }

      .cls-14 {
        fill: #f2dda6;
      }

      .cls-15 {
        fill: #95743f;
      }

      .cls-16 {
        fill: #a57d39;
        stroke: #a57d39;
        stroke-width: 4px;
      }

      .cls-17 {
        fill: #f5d697;
      }

      .cls-18 {
        clip-path: url(#clip-path-6);
      }

      .cls-19 {
        stroke: #9b7334;
        stroke-linecap: square;
        stroke-width: 108px;
      }

      .cls-20 {
        fill: #503c21;
      }

      .cls-21 {
        clip-path: url(#clip-path-7);
      }

      .cls-22 {
        clip-path: url(#clip-path-8);
      }

      .cls-23 {
        stroke: #67bd2a;
        stroke-width: 108px;
      }

      .cls-24 {
        clip-path: url(#clip-path-9);
      }
    </style>
    <clipPath id="clip-path">
      <path id="Path_90" data-name="Path 90" class="cls-1" d="M-244.07-197.56c-134.53,2.21-132.39-87-131.87-104.06a6.59,6.59,0,0,1,1.5-4c3.43-4.19,13.38-14,35-19.72,10.58-2.8,30.19-.54,45.2,4.89a6.73,6.73,0,0,1,3.18,2.51c41.19,59.15,75.8,10.55,82.66-.39a6.66,6.66,0,0,1,3.87-2.87,69.69,69.69,0,0,1,34.4-.56A77.34,77.34,0,0,1-140-305.52a6.53,6.53,0,0,1,2.14,4.45C-136.46-280.47-124.06-199.53-244.07-197.56Z"/>
    </clipPath>
    <clipPath id="clip-path-2">
      <path class="cls-2" d="M-305.54-307.52c-29.24,20.68-50.67,14-58,10.59a3,3,0,0,1-1.43-3.93,3,3,0,0,1,.5-.75c4.39-4.89,16.08-12.41,28.47-14.14,11.2-1.56,22.94,1,29.6,3a3,3,0,0,1,2,3.7A3,3,0,0,1-305.54-307.52ZM-200.48-306c28.2,21.5,46.58,16.05,53,12.88a2.91,2.91,0,0,0,1.35-3.89,2.55,2.55,0,0,0-.33-.52c-4-5-15.73-13.11-28.33-15.22a56.2,56.2,0,0,0-24.73,1.53,3,3,0,0,0-2,3.71A3,3,0,0,0-200.48-306Z"/>
    </clipPath>
    <clipPath id="clip-path-3">
      <path id="Path_99" data-name="Path 99" class="cls-3" d="M167.33-228.51h-4c-9.49,0-17.19,6.52-17.19,14.57v14.72c0,8-7.58,12.08-17.2,14.56L70.55-174.1a8.38,8.38,0,0,1-4.52-.32,6.88,6.88,0,0,1-.74-.32L44.48-185.25l17.73-10.26a1.74,1.74,0,0,0,1-2.27,1.77,1.77,0,0,0-1-1L41.92-209l17.73-10.27a1.73,1.73,0,0,0,1-2.27,1.74,1.74,0,0,0-1-1L39.37-232.73,54.55-243a1.75,1.75,0,0,0,1-2.27,1.8,1.8,0,0,0-1-1l-20.3-10.25,20.3-10.27a1.75,1.75,0,0,0,1-2.27,1.8,1.8,0,0,0-1-1L39.37-280.21l20.29-10.26a1.75,1.75,0,0,0,1-2.27,1.77,1.77,0,0,0-1-1L41.92-304l20.29-10.26a1.74,1.74,0,0,0,1-2.27,1.74,1.74,0,0,0-1-1L44.48-327.7l21.7-11,.73-.32a8.59,8.59,0,0,1,4.55-.31L129-328.74c9.62,2.49,17.2,6.52,17.2,14.57v14.71c0,8,7.7,14.57,17.19,14.57h4c9.5,0,17.19-6.52,17.19-14.57v-14.71c0-8.05,8.88-12.75,17.2-14.57l58.45-10.57a8.58,8.58,0,0,1,4.52.32c.25.1.5.2.73.32l18.24,9.22a1.5,1.5,0,0,1,.82,2,1.54,1.54,0,0,1-.72.77l-15.26,8.83a1.73,1.73,0,0,0-1,2.26,1.71,1.71,0,0,0,1,1l17.72,9a1.5,1.5,0,0,1,.82,1.95,1.5,1.5,0,0,1-.73.78l-15.26,8.84a1.74,1.74,0,0,0-1,2.27,1.8,1.8,0,0,0,1,1l17.72,9a1.49,1.49,0,0,1,.82,1.95,1.45,1.45,0,0,1-.72.78l-15.26,8.83a1.75,1.75,0,0,0-1,2.27,1.77,1.77,0,0,0,1,1l17.53,8.86a1.51,1.51,0,0,1,.82,2,1.5,1.5,0,0,1-.82.82l-17.53,8.85a1.75,1.75,0,0,0-1,2.27,1.74,1.74,0,0,0,1,1l15.26,8.83a1.49,1.49,0,0,1,.68,2,1.52,1.52,0,0,1-.78.72l-17.71,9a1.73,1.73,0,0,0-1,2.26,1.71,1.71,0,0,0,1,1l15.26,8.83a1.49,1.49,0,0,1,.68,2,1.48,1.48,0,0,1-.78.72l-17.72,9a1.73,1.73,0,0,0-1,2.26,1.71,1.71,0,0,0,1,1l15.26,8.83a1.51,1.51,0,0,1,.68,2,1.52,1.52,0,0,1-.78.72l-19.14,9.67a5.83,5.83,0,0,1-.72.32,8.49,8.49,0,0,1-4.55.32l-57.54-10.57c-9.32-2.32-17.19-6.52-17.19-14.56v-14.72C184.52-222,176.83-228.51,167.33-228.51Z"/>
    </clipPath>
    <clipPath id="clip-path-4">
      <path id="Path_108" data-name="Path 108" class="cls-3" d="M708.35-236.47H500.29L495-241l-5.58-4.79-11.66-9.95-5.57-4.78-11.64-9.95-5.63-4.8-11.6-9.93-5.63-4.8-4.36-3.74H641.4l4.36,3.74,5.63,4.8L663-275.25l5.6,4.8,11.63,9.95,5.61,4.78,11.63,9.95,5.58,4.79Z"/>
    </clipPath>
    <clipPath id="clip-path-5">
      <path class="cls-4" d="M-286.7,197.7a13.7,13.7,0,0,0,5.43,8.72l18.89,13.72a2.52,2.52,0,0,0,3.51-.56,2.5,2.5,0,0,0,.44-1.91l-3.45-19.85a13.7,13.7,0,0,0-5.43-8.72l-23.9-17.36Zm42.84-15.31a13.63,13.63,0,0,0-7.14,7.37l-7.55,18.69a2.53,2.53,0,0,0,1.38,3.28,2.59,2.59,0,0,0,2,0l21.34-9.45a13.68,13.68,0,0,0,7.14-7.38l9.88-24.44Zm2-28.77A13.65,13.65,0,0,0-249,161l-7.55,18.68a2.51,2.51,0,0,0,1.39,3.27,2.47,2.47,0,0,0,2,0l21.34-9.45a13.68,13.68,0,0,0,7.15-7.37l9.87-24.44ZM-286.72,165a13.6,13.6,0,0,0,5.25,8.82l18.61,14.1a2.52,2.52,0,0,0,3.52-.49,2.49,2.49,0,0,0,.48-1.9l-3.06-19.92a13.68,13.68,0,0,0-5.25-8.82L-290.73,139Zm48.35-40.49a13.63,13.63,0,0,0-7.14,7.37l-7.55,18.69a2.51,2.51,0,0,0,1.39,3.27,2.52,2.52,0,0,0,2,0l21.34-9.45a13.65,13.65,0,0,0,7.14-7.38l9.87-24.43Zm-44.85,11.36a13.66,13.66,0,0,0,5.44,8.71l18.89,13.71a2.51,2.51,0,0,0,3.51-.55,2.5,2.5,0,0,0,.44-1.91L-258.4,136a13.66,13.66,0,0,0-5.44-8.71l-23.91-17.35Zm48.68-40.13a13.65,13.65,0,0,0-7.14,7.38l-7.55,18.68a2.53,2.53,0,0,0,1.39,3.28,2.52,2.52,0,0,0,2,0l21.35-9.44a13.72,13.72,0,0,0,7.14-7.38l9.87-24.44Zm-43.3,10.68a13.63,13.63,0,0,0,4.65,9.16l17.61,15.31a2.52,2.52,0,0,0,3.55-.25,2.51,2.51,0,0,0,.6-1.86l-1.71-20.08a13.61,13.61,0,0,0-4.65-9.15l-22.29-19.38Zm17.47-33.15a13.68,13.68,0,0,0,.75,10.24l10.33,20.93a2.53,2.53,0,0,0,3.37,1.14,2.53,2.53,0,0,0,1.28-1.48l6.18-19.18a13.67,13.67,0,0,0-.75-10.24l-13.08-26.5Z"/>
    </clipPath>
    <clipPath id="clip-path-6">
      <path class="cls-4" d="M123.52,198.89a13.7,13.7,0,0,0,5.43,8.72l18.89,13.72a2.51,2.51,0,0,0,3.95-2.47L148.34,199a13.7,13.7,0,0,0-5.43-8.72L119,172.93Zm42.84-15.32a13.68,13.68,0,0,0-7.14,7.38l-7.55,18.69a2.51,2.51,0,0,0,3.35,3.24l21.34-9.44a13.68,13.68,0,0,0,7.14-7.38l9.87-24.44Zm2-28.76a13.62,13.62,0,0,0-7.14,7.38l-7.55,18.68a2.51,2.51,0,0,0,1.39,3.27,2.47,2.47,0,0,0,2,0l21.34-9.45a13.65,13.65,0,0,0,7.14-7.38l9.88-24.43Zm-44.87,11.4a13.67,13.67,0,0,0,5.26,8.82l18.61,14.09a2.52,2.52,0,0,0,3.52-.48,2.49,2.49,0,0,0,.48-1.9l-3.06-19.92A13.63,13.63,0,0,0,143,158l-23.55-17.83Zm48.35-40.5a13.72,13.72,0,0,0-7.14,7.38l-7.54,18.69a2.51,2.51,0,0,0,1.39,3.27,2.56,2.56,0,0,0,2,0l21.34-9.45a13.68,13.68,0,0,0,7.14-7.38l9.87-24.43ZM127,137.08a13.66,13.66,0,0,0,5.44,8.71l18.89,13.71a2.51,2.51,0,0,0,3.95-2.47l-3.46-19.85a13.66,13.66,0,0,0-5.44-8.71l-23.91-17.35ZM175.68,97a13.62,13.62,0,0,0-7.14,7.38L161,123a2.51,2.51,0,0,0,1.39,3.27,2.47,2.47,0,0,0,2,0l21.34-9.45a13.68,13.68,0,0,0,7.15-7.37L202.7,85Zm-43.31,10.68a13.74,13.74,0,0,0,4.65,9.16l17.62,15.31a2.51,2.51,0,0,0,4.15-2.11l-1.71-20.08a13.65,13.65,0,0,0-4.65-9.15L130.14,81.37Zm17.48-33.15a13.68,13.68,0,0,0,.75,10.24l10.33,20.93a2.51,2.51,0,0,0,4.64-.34l6.19-19.19A13.63,13.63,0,0,0,171,75.88L157.93,49.39Z"/>
    </clipPath>
    <clipPath id="clip-path-7">
      <path class="cls-4" d="M124.17,197.7a13.66,13.66,0,0,0,5.43,8.72l18.88,13.72a2.52,2.52,0,0,0,3.51-.56,2.55,2.55,0,0,0,.45-1.91L149,197.82a13.7,13.7,0,0,0-5.43-8.72l-23.91-17.36ZM167,182.39a13.63,13.63,0,0,0-7.14,7.37l-7.55,18.69a2.51,2.51,0,0,0,1.38,3.28,2.59,2.59,0,0,0,2,0L177,202.25a13.68,13.68,0,0,0,7.14-7.38L194,170.43Zm2-28.77a13.65,13.65,0,0,0-7.14,7.38l-7.55,18.68a2.51,2.51,0,0,0,1.39,3.27,2.47,2.47,0,0,0,2,0L179,173.47a13.63,13.63,0,0,0,7.14-7.37L196,141.66ZM124.14,165a13.65,13.65,0,0,0,5.26,8.82L148,187.94a2.51,2.51,0,0,0,4-2.39L149,165.63a13.7,13.7,0,0,0-5.26-8.82L120.14,139Zm48.35-40.49a13.63,13.63,0,0,0-7.14,7.37l-7.54,18.69a2.51,2.51,0,0,0,3.34,3.24l21.35-9.45a13.65,13.65,0,0,0,7.14-7.38l9.87-24.43Zm-44.84,11.36a13.66,13.66,0,0,0,5.44,8.71L152,158.31a2.51,2.51,0,0,0,4-2.46L152.46,136a13.68,13.68,0,0,0-5.43-8.71l-23.91-17.35Zm48.68-40.13a13.65,13.65,0,0,0-7.14,7.38l-7.55,18.68a2.51,2.51,0,0,0,3.35,3.24l21.34-9.44a13.68,13.68,0,0,0,7.14-7.38l9.87-24.44ZM133,106.44a13.68,13.68,0,0,0,4.65,9.16l17.62,15.31a2.5,2.5,0,0,0,3.54-.25,2.48,2.48,0,0,0,.61-1.86l-1.71-20.08a13.65,13.65,0,0,0-4.65-9.15L130.79,80.19ZM150.5,73.29a13.68,13.68,0,0,0,.75,10.24l10.33,20.93a2.51,2.51,0,0,0,4.64-.34l6.18-19.18a13.58,13.58,0,0,0-.75-10.24L158.58,48.2Z"/>
    </clipPath>
    <clipPath id="clip-path-8">
      <path class="cls-4" d="M466.45,45.26c-16.77,16.77-16.87,47.58,9.42,73.88,33.69,33.69,92.9,51.8,104.58,40.12,12-11.95-4.16-68.62-40.12-104.58-27.72-27.72-57.11-26.2-73.88-9.42"/>
    </clipPath>
    <clipPath id="clip-path-9">
      <path id="Path_200" data-name="Path 200" class="cls-5" d="M580.46,159.27c-11.68,11.68-70.9-6.44-104.59-40.13-26.3-26.3-26.19-57.11-9.42-73.88s46.16-18.3,73.88,9.42C576.29,90.64,592.41,147.31,580.46,159.27Z"/>
    </clipPath>
  </defs>
  <g>
    <g>
      <g class="cls-6">
        <g>
          <line class="cls-7" x1="8.14" y1="-721.75" x2="8.14" y2="232.89"/>
          <line class="cls-7" x1="28.35" y1="-721.75" x2="28.35" y2="232.89"/>
          <line class="cls-7" x1="69.84" y1="-721.75" x2="69.84" y2="232.89"/>
          <line class="cls-7" x1="90.05" y1="-721.75" x2="90.05" y2="232.89"/>
          <line class="cls-7" x1="48.56" y1="-721.75" x2="48.56" y2="232.89"/>
          <line class="cls-7" x1="131.55" y1="-721.75" x2="131.55" y2="232.89"/>
          <line class="cls-7" x1="151.76" y1="-721.75" x2="151.76" y2="232.89"/>
          <line class="cls-7" x1="110.26" y1="-721.75" x2="110.26" y2="232.89"/>
          <line class="cls-7" x1="173.04" y1="-721.75" x2="173.04" y2="232.89"/>
          <line class="cls-7" x1="193.25" y1="-721.75" x2="193.25" y2="232.89"/>
          <line class="cls-7" x1="234.75" y1="-721.75" x2="234.75" y2="232.89"/>
          <line class="cls-7" x1="254.95" y1="-721.75" x2="254.95" y2="232.89"/>
          <line class="cls-7" x1="213.46" y1="-721.75" x2="213.46" y2="232.89"/>
          <line class="cls-7" x1="276.24" y1="-721.75" x2="276.24" y2="232.89"/>
          <line class="cls-7" x1="296.45" y1="-721.75" x2="296.45" y2="232.89"/>
          <line class="cls-7" x1="316.66" y1="-721.75" x2="316.66" y2="232.89"/>
        </g>
      </g>
      <path id="Path_90-2" data-name="Path 90" class="cls-1" d="M-244.07-197.56c-134.53,2.21-132.39-87-131.87-104.06a6.59,6.59,0,0,1,1.5-4c3.43-4.19,13.38-14,35-19.72,10.58-2.8,30.19-.54,45.2,4.89a6.73,6.73,0,0,1,3.18,2.51c41.19,59.15,75.8,10.55,82.66-.39a6.66,6.66,0,0,1,3.87-2.87,69.69,69.69,0,0,1,34.4-.56A77.34,77.34,0,0,1-140-305.52a6.53,6.53,0,0,1,2.14,4.45C-136.46-280.47-124.06-199.53-244.07-197.56Z"/>
    </g>
    <g>
      <g class="cls-8">
        <g>
          <line class="cls-9" x1="-632.47" y1="-462.56" x2="63.92" y2="233.83"/>
          <line class="cls-9" x1="-668.63" y1="-467.3" x2="27.76" y2="229.08"/>
          <line class="cls-9" x1="-663.75" y1="-431.28" x2="32.64" y2="265.1"/>
          <line class="cls-9" x1="-695.03" y1="-399.99" x2="1.35" y2="296.39"/>
          <line class="cls-9" x1="-476.02" y1="-619" x2="220.36" y2="77.38"/>
          <line class="cls-9" x1="-512.18" y1="-623.75" x2="184.2" y2="72.64"/>
          <line class="cls-9" x1="-507.3" y1="-587.72" x2="189.08" y2="108.66"/>
          <line class="cls-9" x1="-543.46" y1="-592.47" x2="152.92" y2="103.92"/>
          <line class="cls-9" x1="-538.59" y1="-556.44" x2="157.79" y2="139.95"/>
          <line class="cls-9" x1="-574.75" y1="-561.18" x2="121.64" y2="135.2"/>
          <line class="cls-9" x1="-569.87" y1="-525.16" x2="126.51" y2="171.23"/>
          <line class="cls-9" x1="-647.27" y1="-570.69" x2="49.11" y2="125.69"/>
          <line class="cls-9" x1="-642.4" y1="-534.67" x2="53.99" y2="161.71"/>
          <line class="cls-9" x1="-678.55" y1="-539.41" x2="17.83" y2="156.97"/>
          <line class="cls-9" x1="-413.03" y1="-682" x2="283.35" y2="14.39"/>
          <line class="cls-9" x1="-485.56" y1="-691.51" x2="210.83" y2="4.87"/>
          <line class="cls-9" x1="-521.71" y1="-696.25" x2="174.67" y2="0.13"/>
        </g>
      </g>
      <path class="cls-2" d="M-305.54-307.52c-29.24,20.68-50.67,14-58,10.59a3,3,0,0,1-1.43-3.93,3,3,0,0,1,.5-.75c4.39-4.89,16.08-12.41,28.47-14.14,11.2-1.56,22.94,1,29.6,3a3,3,0,0,1,2,3.7A3,3,0,0,1-305.54-307.52ZM-200.48-306c28.2,21.5,46.58,16.05,53,12.88a2.91,2.91,0,0,0,1.35-3.89,2.55,2.55,0,0,0-.33-.52c-4-5-15.73-13.11-28.33-15.22a56.2,56.2,0,0,0-24.73,1.53,3,3,0,0,0-2,3.71A3,3,0,0,0-200.48-306Z"/>
    </g>
  </g>
  <g>
    <g class="cls-10">
      <g>
        <line class="cls-7" x1="11.36" y1="-919.32" x2="11.36" y2="35.32"/>
        <line class="cls-7" x1="31.56" y1="-919.32" x2="31.56" y2="35.32"/>
        <line class="cls-7" x1="73.06" y1="-919.32" x2="73.06" y2="35.32"/>
        <line class="cls-7" x1="93.27" y1="-919.32" x2="93.27" y2="35.32"/>
        <line class="cls-7" x1="51.77" y1="-919.32" x2="51.77" y2="35.32"/>
        <line class="cls-7" x1="134.76" y1="-919.32" x2="134.76" y2="35.32"/>
        <line class="cls-7" x1="154.97" y1="-919.32" x2="154.97" y2="35.32"/>
        <line class="cls-7" x1="113.47" y1="-919.32" x2="113.47" y2="35.32"/>
        <line class="cls-7" x1="176.26" y1="-919.32" x2="176.26" y2="35.32"/>
        <line class="cls-7" x1="196.47" y1="-919.32" x2="196.47" y2="35.32"/>
        <line class="cls-7" x1="237.96" y1="-919.32" x2="237.96" y2="35.32"/>
        <line class="cls-7" x1="258.17" y1="-919.32" x2="258.17" y2="35.32"/>
        <line class="cls-7" x1="216.67" y1="-919.32" x2="216.67" y2="35.32"/>
        <line class="cls-7" x1="299.66" y1="-919.32" x2="299.66" y2="35.32"/>
        <line class="cls-7" x1="319.87" y1="-919.32" x2="319.87" y2="35.32"/>
        <line class="cls-7" x1="278.38" y1="-919.32" x2="278.38" y2="35.32"/>
      </g>
    </g>
    <path id="Path_99-2" data-name="Path 99" class="cls-3" d="M167.33-228.51h-4c-9.49,0-17.19,6.52-17.19,14.57v14.72c0,8-7.58,12.08-17.2,14.56L70.55-174.1a8.38,8.38,0,0,1-4.52-.32,6.88,6.88,0,0,1-.74-.32L44.48-185.25l17.73-10.26a1.74,1.74,0,0,0,1-2.27,1.77,1.77,0,0,0-1-1L41.92-209l17.73-10.27a1.73,1.73,0,0,0,1-2.27,1.74,1.74,0,0,0-1-1L39.37-232.73,54.55-243a1.75,1.75,0,0,0,1-2.27,1.8,1.8,0,0,0-1-1l-20.3-10.25,20.3-10.27a1.75,1.75,0,0,0,1-2.27,1.8,1.8,0,0,0-1-1L39.37-280.21l20.29-10.26a1.75,1.75,0,0,0,1-2.27,1.77,1.77,0,0,0-1-1L41.92-304l20.29-10.26a1.74,1.74,0,0,0,1-2.27,1.74,1.74,0,0,0-1-1L44.48-327.7l21.7-11,.73-.32a8.59,8.59,0,0,1,4.55-.31L129-328.74c9.62,2.49,17.2,6.52,17.2,14.57v14.71c0,8,7.7,14.57,17.19,14.57h4c9.5,0,17.19-6.52,17.19-14.57v-14.71c0-8.05,8.88-12.75,17.2-14.57l58.45-10.57a8.58,8.58,0,0,1,4.52.32c.25.1.5.2.73.32l18.24,9.22a1.5,1.5,0,0,1,.82,2,1.54,1.54,0,0,1-.72.77l-15.26,8.83a1.73,1.73,0,0,0-1,2.26,1.71,1.71,0,0,0,1,1l17.72,9a1.5,1.5,0,0,1,.82,1.95,1.5,1.5,0,0,1-.73.78l-15.26,8.84a1.74,1.74,0,0,0-1,2.27,1.8,1.8,0,0,0,1,1l17.72,9a1.49,1.49,0,0,1,.82,1.95,1.45,1.45,0,0,1-.72.78l-15.26,8.83a1.75,1.75,0,0,0-1,2.27,1.77,1.77,0,0,0,1,1l17.53,8.86a1.51,1.51,0,0,1,.82,2,1.5,1.5,0,0,1-.82.82l-17.53,8.85a1.75,1.75,0,0,0-1,2.27,1.74,1.74,0,0,0,1,1l15.26,8.83a1.49,1.49,0,0,1,.68,2,1.52,1.52,0,0,1-.78.72l-17.71,9a1.73,1.73,0,0,0-1,2.26,1.71,1.71,0,0,0,1,1l15.26,8.83a1.49,1.49,0,0,1,.68,2,1.48,1.48,0,0,1-.78.72l-17.72,9a1.73,1.73,0,0,0-1,2.26,1.71,1.71,0,0,0,1,1l15.26,8.83a1.51,1.51,0,0,1,.68,2,1.52,1.52,0,0,1-.78.72l-19.14,9.67a5.83,5.83,0,0,1-.72.32,8.49,8.49,0,0,1-4.55.32l-57.54-10.57c-9.32-2.32-17.19-6.52-17.19-14.56v-14.72C184.52-222,176.83-228.51,167.33-228.51Z"/>
  </g>
  <g>
    <g class="cls-11">
      <g>
        <line class="cls-7" x1="5.57" y1="-777.91" x2="5.57" y2="176.73"/>
        <line class="cls-7" x1="47.07" y1="-777.91" x2="47.07" y2="176.73"/>
        <line class="cls-7" x1="67.28" y1="-777.91" x2="67.28" y2="176.73"/>
        <line class="cls-7" x1="25.78" y1="-777.91" x2="25.78" y2="176.73"/>
        <line class="cls-7" x1="108.77" y1="-777.91" x2="108.77" y2="176.73"/>
        <line class="cls-7" x1="128.98" y1="-777.91" x2="128.98" y2="176.73"/>
        <line class="cls-7" x1="87.49" y1="-777.91" x2="87.49" y2="176.73"/>
        <line class="cls-7" x1="150.27" y1="-777.91" x2="150.27" y2="176.73"/>
        <line class="cls-7" x1="170.48" y1="-777.91" x2="170.48" y2="176.73"/>
        <line class="cls-7" x1="211.97" y1="-777.91" x2="211.97" y2="176.73"/>
        <line class="cls-7" x1="232.18" y1="-777.91" x2="232.18" y2="176.73"/>
        <line class="cls-7" x1="190.68" y1="-777.91" x2="190.68" y2="176.73"/>
        <line class="cls-7" x1="273.68" y1="-777.91" x2="273.68" y2="176.73"/>
        <line class="cls-7" x1="293.88" y1="-777.91" x2="293.88" y2="176.73"/>
        <line class="cls-7" x1="252.39" y1="-777.91" x2="252.39" y2="176.73"/>
        <line class="cls-7" x1="315.17" y1="-777.91" x2="315.17" y2="176.73"/>
      </g>
    </g>
    <path id="Path_108-2" data-name="Path 108" class="cls-3" d="M708.35-236.47H500.29L495-241l-5.58-4.79-11.66-9.95-5.57-4.78-11.64-9.95-5.63-4.8-11.6-9.93-5.63-4.8-4.36-3.74H641.4l4.36,3.74,5.63,4.8L663-275.25l5.6,4.8,11.63,9.95,5.61,4.78,11.63,9.95,5.58,4.79Z"/>
  </g>
  <g class="cls-12">
    <g>
      <line class="cls-7" x1="36.39" y1="-282.05" x2="36.39" y2="672.59"/>
      <line class="cls-7" x1="56.59" y1="-282.05" x2="56.59" y2="672.59"/>
      <line class="cls-7" x1="15.1" y1="-282.05" x2="15.1" y2="672.59"/>
      <line class="cls-7" x1="77.88" y1="-282.05" x2="77.88" y2="672.59"/>
      <line class="cls-7" x1="98.09" y1="-282.05" x2="98.09" y2="672.59"/>
      <line class="cls-7" x1="139.59" y1="-282.05" x2="139.59" y2="672.59"/>
      <line class="cls-7" x1="159.79" y1="-282.05" x2="159.79" y2="672.59"/>
      <line class="cls-7" x1="118.3" y1="-282.05" x2="118.3" y2="672.59"/>
      <line class="cls-7" x1="181.08" y1="-282.05" x2="181.08" y2="672.59"/>
      <line class="cls-7" x1="201.29" y1="-282.05" x2="201.29" y2="672.59"/>
      <line class="cls-7" x1="242.78" y1="-282.05" x2="242.78" y2="672.59"/>
      <line class="cls-7" x1="262.99" y1="-282.05" x2="262.99" y2="672.59"/>
      <line class="cls-7" x1="221.5" y1="-282.05" x2="221.5" y2="672.59"/>
      <line class="cls-7" x1="304.49" y1="-282.05" x2="304.49" y2="672.59"/>
      <line class="cls-7" x1="324.7" y1="-282.05" x2="324.7" y2="672.59"/>
      <line class="cls-7" x1="283.2" y1="-282.05" x2="283.2" y2="672.59"/>
    </g>
  </g>
  <g id="Group_108" data-name="Group 108">
    <g id="Rectangle_41" data-name="Rectangle 41">
      <rect class="cls-13" x="6.47" y="31.67" width="313.77" height="309.7" rx="44.82"/>
      <g>
        <rect class="cls-14" x="5.79" y="5.5" width="315.11" height="310.87" rx="41.09"/>
        <path class="cls-15" d="M279.81,11A35.63,35.63,0,0,1,315.4,46.59v228.7a35.63,35.63,0,0,1-35.59,35.58H46.88a35.62,35.62,0,0,1-35.59-35.58V46.59A35.62,35.62,0,0,1,46.88,11H279.81m0-11H46.88A46.59,46.59,0,0,0,.29,46.59v228.7a46.59,46.59,0,0,0,46.59,46.58H279.81a46.59,46.59,0,0,0,46.59-46.58V46.59A46.59,46.59,0,0,0,279.81,0Z"/>
      </g>
    </g>
    <g>
      <path id="Path_173" data-name="Path 173" class="cls-16" d="M219.79,148.87a190.54,190.54,0,0,1-8.41,33.35,239,239,0,0,1-13.93,31.55c-5.25,10.21-11,20.14-15.43,30.38a80.74,80.74,0,0,0-7.23,28,71,71,0,0,0,4.16,8,49.5,49.5,0,0,0,2.94,4.49l1.6,2a9.37,9.37,0,0,0,.81.86l.38.43.23.21.33.33a5.73,5.73,0,0,1-7.83,8.36.8.8,0,0,0-.13-.13,38.66,38.66,0,0,1-4.51-5.6,57,57,0,0,1-3.29-5.52,102.2,102.2,0,0,1-5.2-11.43,1.17,1.17,0,0,1-.05-.2s0-.05,0-.05a158.85,158.85,0,0,0-18.35-25.37c-4-4.48-8.23-8.74-12.61-13s-8.9-8.47-13.08-13.15a77.75,77.75,0,0,1-11-15.36,85.46,85.46,0,0,1-6.91-17.38,184.14,184.14,0,0,1-5.6-36.46.61.61,0,0,1,.55-.66h0a.65.65,0,0,1,.66.53,181.77,181.77,0,0,0,7.35,35.68A75,75,0,0,0,123.79,219c8.47,8.41,18.42,15.83,27.11,24.83q3.87,3.91,7.45,8.11l-.29-1.47-1-6-.66-6c-.43-3.8-.86-7.6-1-11.43a2.08,2.08,0,0,1-.73-.36l-19.23-14a13.81,13.81,0,0,1-5.52-8.87l-4.48-25.69a.7.7,0,0,1-.76-.28v0a75.55,75.55,0,0,1-7.33-13.38,48.25,48.25,0,0,1-3.85-14.69.34.34,0,0,1,.28-.38h0a.35.35,0,0,1,.38.3h0A48.11,48.11,0,0,0,118.34,164a77.28,77.28,0,0,0,7.53,13v0a.69.69,0,0,1,0,.84l23.74,17.25a13.79,13.79,0,0,1,5.5,8.67l0-1.24c0-2.71.18-5.43.41-8.11a2.5,2.5,0,0,1-1.37-.51l-18.95-14.37a13.78,13.78,0,0,1-5.35-9L126,145a.65.65,0,0,1-.73-.28l0,0a78.22,78.22,0,0,1-7.32-13.38A49.09,49.09,0,0,1,114,116.57a.39.39,0,0,1,.33-.38.41.41,0,0,1,.38.33,47.53,47.53,0,0,0,4.15,14.34,75.62,75.62,0,0,0,7.5,12.92l0,0a.76.76,0,0,1,0,.76l23.31,17.66a13.78,13.78,0,0,1,5.35,9l1.46,9.53c.06-.66.11-1.32.18-2,.66-4.92,1.22-9.83,1.88-14.75a1.67,1.67,0,0,1-.43-.25l-19.23-14a13.71,13.71,0,0,1-5.52-8.87l-4.34-24.86a.61.61,0,0,1-.3-.23,76.42,76.42,0,0,1-7.32-13.37,48.57,48.57,0,0,1-3.85-14.73.34.34,0,0,1,.3-.37h0a.34.34,0,0,1,.38.28v0A47.79,47.79,0,0,0,122.51,102,74.68,74.68,0,0,0,130,115l0,0a.7.7,0,0,1,.12.49l23,16.72a13.85,13.85,0,0,1,5.55,8.87l1.85,10.56c.91-5,1.75-10.08,2.71-15.12a2.37,2.37,0,0,1-1.69-.64l-17.94-15.58a14,14,0,0,1-4.74-9.32l-2.15-25.59a.67.67,0,0,1-.74-.28s0,0,0,0h0a77.54,77.54,0,0,1-7.32-13.38A49.33,49.33,0,0,1,124.84,57a.39.39,0,0,1,.33-.38.41.41,0,0,1,.38.33,47.54,47.54,0,0,0,4.16,14.34,75.06,75.06,0,0,0,7.5,12.93l0,0a.67.67,0,0,1,.11.58l22,19.18a14,14,0,0,1,4.74,9.32l1.19,13.94,3.85-17.16a2.22,2.22,0,0,1-1.11-1.11L157.51,87.6a14,14,0,0,1-.78-10.41l7.9-24.5a.81.81,0,0,1-.28-.3h0a78.41,78.41,0,0,1-5.65-14.17,48.63,48.63,0,0,1-2.05-15.07.33.33,0,0,1,.32-.34h0a.36.36,0,0,1,.36.35,47.5,47.5,0,0,0,2.38,14.72,76.36,76.36,0,0,0,5.9,13.76l0,0a.72.72,0,0,1-.23.91v0l12.87,26a13.87,13.87,0,0,1,.76,10.41l-6.31,19.53a2.22,2.22,0,0,1-.66,1.07l-2.25,12.64,5.95-14.72a13.87,13.87,0,0,1,7.27-7.5l26.81-11.88a.68.68,0,0,1,0-.69l.05,0a77.37,77.37,0,0,0,7.5-12.92,48.51,48.51,0,0,0,4.16-14.34.35.35,0,0,1,.38-.33.36.36,0,0,1,.3.38A47.86,47.86,0,0,1,218.45,75a76.51,76.51,0,0,1-7.32,13.38.74.74,0,0,1-.87.25l-9.8,24.18a13.79,13.79,0,0,1-7.27,7.53l-21.72,9.6a2.5,2.5,0,0,1-2.91-.61l-.58,3.25c-1.14,6.94-1.93,14-2.87,21l6.72-16.65a14,14,0,0,1,7.27-7.5l26.83-11.88a.64.64,0,0,1,0-.69s0,0,0,0v0a75,75,0,0,0,7.52-13,47.71,47.71,0,0,0,4.16-14.32.33.33,0,0,1,.34-.33h0a.35.35,0,0,1,.3.38,47.86,47.86,0,0,1-3.85,14.72,76.87,76.87,0,0,1-7.32,13.38.71.71,0,0,1-.86.25l-9.78,24.18a13.87,13.87,0,0,1-7.27,7.52l-21.72,9.6a2.56,2.56,0,0,1-3-.73c-.76,6.91-1.14,13.83-1.77,20.77,0,.36,0,.71,0,1.07l5.57-13.81a14.07,14.07,0,0,1,7.27-7.5l26.81-11.86a.65.65,0,0,1,0-.71l0,0h0l0,0a76.18,76.18,0,0,0,7.5-12.94,48.07,48.07,0,0,0,4.15-14.32.35.35,0,0,1,.37-.33h0a.37.37,0,0,1,.31.38,47.86,47.86,0,0,1-3.85,14.72,77.59,77.59,0,0,1-7.33,13.38.71.71,0,0,1-.83.28L193,171.67a13.79,13.79,0,0,1-7.27,7.53L164,188.8a2.59,2.59,0,0,1-1.6.18c0,.63,0,1.29-.05,1.92,0,3.9-.33,7.8-.13,11.71l.08,2.86,3.92-9.7a13.8,13.8,0,0,1,7.27-7.5l26.63-11.8a.65.65,0,0,1,.13-.38v0l0,0a73.78,73.78,0,0,0,7.5-12.93A47.54,47.54,0,0,0,212,148.77a.36.36,0,0,1,.71,0,.17.17,0,0,1,0,.07,48.43,48.43,0,0,1-3.85,14.72,76.15,76.15,0,0,1-7.32,13.38.73.73,0,0,1-.91.23L191,201a14.07,14.07,0,0,1-7.27,7.52l-20.88,9.23c.2,2.71.5,5.42.7,8.13.26,3.88.89,7.68,1.5,11.48l.88,5.7,1.25,5.6,1.29,5.6.86,2.86a102.24,102.24,0,0,1,6.56-15.84c5.32-10.44,11.63-20,17.41-29.79a235.06,235.06,0,0,0,15.56-30.23,190,190,0,0,0,10.26-32.51.34.34,0,0,1,.39-.26h0a.34.34,0,0,1,.28.4"/>
      <path id="Path_174" data-name="Path 174" class="cls-17" d="M161,123l7.55-18.68A13.65,13.65,0,0,1,175.68,97l27-12-9.87,24.43a13.7,13.7,0,0,1-7.15,7.38l-21.34,9.45A2.52,2.52,0,0,1,161,123m-.49,32,21.35-9.45a13.68,13.68,0,0,0,7.14-7.38l9.87-24.43-27,12a13.67,13.67,0,0,0-7.14,7.37l-7.54,18.69a2.51,2.51,0,0,0,1.39,3.27,2.54,2.54,0,0,0,1.95,0M157,184.11l21.34-9.45a13.62,13.62,0,0,0,7.14-7.38l9.87-24.43-27,12a13.65,13.65,0,0,0-7.14,7.38l-7.55,18.68a2.51,2.51,0,0,0,1.39,3.27,2.47,2.47,0,0,0,2,0m-2,28.77,21.34-9.45a13.65,13.65,0,0,0,7.14-7.38l9.87-24.43-27,11.95a13.63,13.63,0,0,0-7.14,7.37l-7.55,18.69a2.52,2.52,0,0,0,3.35,3.25M158.79,130l-1.71-20.08a13.65,13.65,0,0,0-4.65-9.15L130.14,81.37l2.23,26.26a13.65,13.65,0,0,0,4.65,9.15l17.62,15.32a2.5,2.5,0,0,0,3.54-.25,2.48,2.48,0,0,0,.61-1.86m6.78-24.68,6.18-19.18A13.67,13.67,0,0,0,171,75.89l-13.08-26.5-8.08,25.09a13.68,13.68,0,0,0,.75,10.24l10.33,20.93a2.52,2.52,0,0,0,4.65-.34M155.28,157l-3.46-19.85a13.68,13.68,0,0,0-5.44-8.72l-23.91-17.35,4.53,26a13.66,13.66,0,0,0,5.44,8.71l18.89,13.71a2.51,2.51,0,0,0,3.95-2.46m-3.92,29.7-3.06-19.92A13.66,13.66,0,0,0,143,158l-23.55-17.83,4,26a13.7,13.7,0,0,0,5.26,8.83l18.61,14.09a2.52,2.52,0,0,0,3.52-.49,2.49,2.49,0,0,0,.48-1.9m.43,32.12L148.34,199a13.7,13.7,0,0,0-5.43-8.72L119,172.93l4.51,26A13.63,13.63,0,0,0,129,207.6l18.88,13.72a2.5,2.5,0,0,0,3.51-.56,2.48,2.48,0,0,0,.44-1.9"/>
    </g>
    <g class="cls-18">
      <rect id="Rectangle_102" data-name="Rectangle 102" class="cls-19" x="38.54" y="-29.31" width="166.89" height="250.74"/>
    </g>
    <g id="Group_140" data-name="Group 140">
      <path id="Path_176" data-name="Path 176" class="cls-9" d="M161,123.2l7.54-18.68a13.7,13.7,0,0,1,7.15-7.38l27-12-9.87,24.44a13.63,13.63,0,0,1-7.14,7.37l-21.34,9.45a2.52,2.52,0,0,1-3.32-1.28A2.47,2.47,0,0,1,161,123.2Z"/>
      <path id="Path_177" data-name="Path 177" class="cls-9" d="M157.2,152l7.55-18.69a13.63,13.63,0,0,1,7.14-7.37l27-12L189,138.38a13.68,13.68,0,0,1-7.14,7.38l-21.35,9.45A2.52,2.52,0,0,1,157.2,152Z"/>
      <path id="Path_178" data-name="Path 178" class="cls-9" d="M153.72,181.06l7.55-18.68a13.65,13.65,0,0,1,7.14-7.38l27-12-9.87,24.43a13.7,13.7,0,0,1-7.15,7.38l-21.34,9.45a2.52,2.52,0,0,1-3.32-1.28A2.56,2.56,0,0,1,153.72,181.06Z"/>
      <path id="Path_179" data-name="Path 179" class="cls-9" d="M151.72,209.83l7.54-18.69a13.72,13.72,0,0,1,7.14-7.38l27-11.95-9.87,24.43a13.68,13.68,0,0,1-7.14,7.38l-21.35,9.45a2.51,2.51,0,0,1-3.31-1.28A2.47,2.47,0,0,1,151.72,209.83Z"/>
      <path id="Path_180" data-name="Path 180" class="cls-9" d="M158.84,130.18l-1.71-20.08a13.65,13.65,0,0,0-4.65-9.15l-22.3-19.39,2.24,26.26a13.68,13.68,0,0,0,4.65,9.16l17.61,15.32a2.52,2.52,0,0,0,4.16-2.12Z"/>
      <path id="Path_181" data-name="Path 181" class="cls-9" d="M165.62,105.5l6.18-19.18a13.67,13.67,0,0,0-.75-10.24L158,49.58l-8.09,25.09a13.63,13.63,0,0,0,.76,10.24L161,105.84a2.51,2.51,0,0,0,4.64-.34Z"/>
      <path id="Path_182" data-name="Path 182" class="cls-9" d="M155.33,157.22l-3.47-19.85a13.68,13.68,0,0,0-5.43-8.71l-23.91-17.35,4.53,26a13.68,13.68,0,0,0,5.43,8.71l18.89,13.71a2.5,2.5,0,0,0,3.51-.56A2.55,2.55,0,0,0,155.33,157.22Z"/>
      <path id="Path_183" data-name="Path 183" class="cls-9" d="M151.41,186.93,148.35,167a13.67,13.67,0,0,0-5.26-8.82l-23.55-17.83,4,26a13.7,13.7,0,0,0,5.26,8.82l18.61,14.09a2.51,2.51,0,0,0,4-2.39Z"/>
      <path id="Path_184" data-name="Path 184" class="cls-9" d="M151.83,219.05l-3.45-19.85a13.66,13.66,0,0,0-5.43-8.71l-23.9-17.37,4.51,26A13.68,13.68,0,0,0,129,207.8l18.88,13.72a2.51,2.51,0,0,0,4-2.47Z"/>
      <path id="Path_185" data-name="Path 185" class="cls-20" d="M171.16,289.08c-.26-.23-.54-.48-.76-.69l-.6-.6c-.38-.4-.82-.8-1.15-1.2-.69-.81-1.4-1.62-2.07-2.45l-1.82-2.54-.9-1.28-.79-1.33-1.57-2.66c-.25-.45-.53-.89-.77-1.34l-.67-1.37c-.87-1.84-1.79-3.67-2.6-5.53a107.31,107.31,0,0,1-4-11.42c-.55-1.93-1.13-3.85-1.67-5.79l-1.2-5.86-1.18-5.87-.73-5.92-.72-5.91c-.14-1-.19-2-.24-3l-.16-3-.29-5.92-.14-3-.06-1.48,0-1.48.16-11.79c-.05-3.94.44-7.84.69-11.75s.57-7.81,1-11.7l1.58-11.61.81-5.8.41-2.89.55-2.88,2.25-11.46,1.13-5.73.59-2.85.71-2.83c1.93-7.53,3.78-15.07,5.82-22.55a1,1,0,0,1,1.88.37v0c-1,7.69-2.21,15.31-3.34,22.94l-.42,2.86-.3,2.88-.64,5.74L158.64,152l-.34,2.86-.21,2.87-.4,5.74L156.86,175c-.18,3.82-.2,7.64-.32,11.46s-.28,7.64-.09,11.44l.29,11.4,0,1.43.12,1.41.24,2.83.49,5.65.22,2.83c.07.94.14,1.88.3,2.82l.79,5.59.78,5.59,1.1,5.51,1.11,5.5c.5,1.79.95,3.59,1.43,5.39.82,3.65,2.2,7.06,3.3,10.59a107.31,107.31,0,0,0,4.4,10l.6,1.22.67,1.15,1.34,2.32,1.46,2.16a11.09,11.09,0,0,0,.74,1l.63.82.44.56a4,4,0,0,1-5.79,5.43"/>
      <path id="Path_186" data-name="Path 186" class="cls-20" d="M92.14,149.23a179.28,179.28,0,0,0,7.41,35,79.41,79.41,0,0,0,7.4,15.92,71.58,71.58,0,0,0,10.89,13.57c4.13,4.13,8.69,7.94,13.27,11.89s9.15,8,13.49,12.38a159.69,159.69,0,0,1,12.27,13.86c3.81,4.86,7.35,9.93,10.69,15.11l-9.42,2.41a77.43,77.43,0,0,1,3.34-17.59,98.77,98.77,0,0,1,6.74-16.19c5.3-10.27,11.54-19.62,17.27-29.2a231.4,231.4,0,0,0,15.44-29.58q3.25-7.68,5.84-15.67c1.69-5.32,3.13-10.73,4.4-16.19a.35.35,0,0,1,.68.13c-.88,5.55-1.95,11.09-3.27,16.57s-3,10.89-4.8,16.26A236.46,236.46,0,0,1,190.22,209c-5.11,10.06-10.66,19.84-15,29.88a76.57,76.57,0,0,0-7,30.84l-9.43,2.41C156,267,152.94,262,149.62,257.2a150,150,0,0,0-10.8-13.82c-3.86-4.42-8-8.61-12.31-12.79s-8.7-8.37-12.8-13A76.71,76.71,0,0,1,103,202.39a82.72,82.72,0,0,1-6.72-17.17A180.45,180.45,0,0,1,91,149.34a.6.6,0,0,1,1.19-.11Z"/>
      <path id="Path_187" data-name="Path 187" class="cls-20" d="M190.57,170.18a65.57,65.57,0,0,0,4.12-5.71q2-3,3.6-6.2a57.56,57.56,0,0,0,2.84-6.55,40.69,40.69,0,0,0,1.78-6.86v-.07a1.61,1.61,0,0,1,3.19.35,45.64,45.64,0,0,1-1,7.71,60.07,60.07,0,0,1-2.22,7.41q-1.35,3.62-3.05,7.09a71.28,71.28,0,0,1-3.8,6.84,3.39,3.39,0,0,1-5.71-3.65l.22-.3Z"/>
      <path id="Path_188" data-name="Path 188" class="cls-20" d="M192.66,141a66.16,66.16,0,0,0,4.12-5.71c1.3-2,2.49-4.07,3.59-6.2a55.89,55.89,0,0,0,2.85-6.55,40.41,40.41,0,0,0,1.77-6.86v-.07a1.61,1.61,0,0,1,3.19.35,44.64,44.64,0,0,1-1,7.71,60.07,60.07,0,0,1-2.22,7.41,76.43,76.43,0,0,1-3.05,7.09,71.44,71.44,0,0,1-3.8,6.85,3.39,3.39,0,0,1-5.71-3.66l.22-.3Z"/>
      <path id="Path_189" data-name="Path 189" class="cls-20" d="M196.19,111.94a66.32,66.32,0,0,0,4.12-5.72A70.61,70.61,0,0,0,203.9,100a55.89,55.89,0,0,0,2.85-6.55,40.66,40.66,0,0,0,1.77-6.86v-.07a1.61,1.61,0,0,1,1.86-1.3,1.59,1.59,0,0,1,1.33,1.65,44.64,44.64,0,0,1-1,7.71,60.07,60.07,0,0,1-2.22,7.41q-1.35,3.62-3,7.09a69.26,69.26,0,0,1-3.81,6.84,3.38,3.38,0,1,1-5.7-3.65c.06-.1.14-.2.21-.3Z"/>
      <path id="Path_190" data-name="Path 190" class="cls-20" d="M200,83.17a64.09,64.09,0,0,0,4.12-5.71q2-3,3.6-6.2a57.62,57.62,0,0,0,2.85-6.55,41.37,41.37,0,0,0,1.77-6.86v-.07a1.61,1.61,0,0,1,3.19.35,44.64,44.64,0,0,1-1,7.71,61.85,61.85,0,0,1-2.22,7.41q-1.35,3.61-3.05,7.09a71.44,71.44,0,0,1-3.8,6.85,3.39,3.39,0,0,1-5.72-3.64,3.55,3.55,0,0,1,.23-.31Z"/>
      <path id="Path_191" data-name="Path 191" class="cls-20" d="M155.05,51.61a69,69,0,0,1-3-7.26,75.83,75.83,0,0,1-2.18-7.41,63.18,63.18,0,0,1-1.31-7.62,45.93,45.93,0,0,1-.09-7.78,1.61,1.61,0,0,1,3.21,0v.07a40.53,40.53,0,0,0,.93,7,54.78,54.78,0,0,0,2,6.84q1.25,3.36,2.82,6.58a64.81,64.81,0,0,0,3.4,6.17l0,.06a3.39,3.39,0,0,1-5.66,3.73l-.06-.1a4,4,0,0,1-.2-.35"/>
      <path id="Path_192" data-name="Path 192" class="cls-20" d="M127.42,84a71.44,71.44,0,0,1-3.8-6.85c-1.13-2.31-2.14-4.67-3.05-7.09a63.16,63.16,0,0,1-2.22-7.41,45.37,45.37,0,0,1-1-7.71,1.61,1.61,0,0,1,3.19-.35v.07a41.74,41.74,0,0,0,1.77,6.87A59.31,59.31,0,0,0,125.14,68q1.65,3.18,3.6,6.2a64.09,64.09,0,0,0,4.12,5.71l0,0a3.39,3.39,0,0,1-5.24,4.3q-.12-.15-.24-.33"/>
      <path id="Path_193" data-name="Path 193" class="cls-20" d="M120.37,114.19a69.41,69.41,0,0,1-3.81-6.85q-1.69-3.47-3-7.09a60.07,60.07,0,0,1-2.22-7.41,44.51,44.51,0,0,1-1-7.71,1.61,1.61,0,0,1,3.19-.35v.07a40.41,40.41,0,0,0,1.77,6.86,55.89,55.89,0,0,0,2.85,6.55c1.1,2.12,2.29,4.19,3.59,6.2a67.75,67.75,0,0,0,4.12,5.71l0,0a3.39,3.39,0,0,1-5.15,4.41l-.09-.11a3.43,3.43,0,0,1-.24-.33"/>
      <path id="Path_194" data-name="Path 194" class="cls-20" d="M116.82,142.52a71.44,71.44,0,0,1-3.8-6.85q-1.69-3.46-3-7.08a60.22,60.22,0,0,1-2.22-7.42,44.38,44.38,0,0,1-1-7.71,1.61,1.61,0,0,1,3.19-.34v.06a40.77,40.77,0,0,0,1.77,6.87,55.75,55.75,0,0,0,2.85,6.54c1.1,2.12,2.29,4.19,3.59,6.2a67.9,67.9,0,0,0,4.12,5.72l0,0a3.39,3.39,0,0,1-5.24,4.3h0a2.52,2.52,0,0,1-.24-.33"/>
      <path id="Path_195" data-name="Path 195" class="cls-20" d="M116.28,175.13a71.44,71.44,0,0,1-3.8-6.85q-1.7-3.47-3-7.09a63.16,63.16,0,0,1-2.22-7.41,45.37,45.37,0,0,1-1-7.71,1.61,1.61,0,0,1,1.54-1.67,1.59,1.59,0,0,1,1.65,1.33v.07a41.89,41.89,0,0,0,1.77,6.86A57.47,57.47,0,0,0,114,159.2q1.65,3.18,3.59,6.2a66.27,66.27,0,0,0,4.13,5.71l0,0a3.39,3.39,0,0,1-5.24,4.3,4,4,0,0,1-.24-.33"/>
    </g>
  </g>
  <g class="cls-21">
    <g>
      <line class="cls-7" x1="14.25" y1="-282.05" x2="14.25" y2="672.59"/>
      <line class="cls-7" x1="55.74" y1="-282.05" x2="55.74" y2="672.59"/>
      <line class="cls-7" x1="75.95" y1="-282.05" x2="75.95" y2="672.59"/>
      <line class="cls-7" x1="34.46" y1="-282.05" x2="34.46" y2="672.59"/>
      <line class="cls-7" x1="117.45" y1="-282.05" x2="117.45" y2="672.59"/>
      <line class="cls-7" x1="137.66" y1="-282.05" x2="137.66" y2="672.59"/>
      <line class="cls-7" x1="96.16" y1="-282.05" x2="96.16" y2="672.59"/>
      <line class="cls-7" x1="158.94" y1="-282.05" x2="158.94" y2="672.59"/>
      <line class="cls-7" x1="179.15" y1="-282.05" x2="179.15" y2="672.59"/>
      <line class="cls-7" x1="220.65" y1="-282.05" x2="220.65" y2="672.59"/>
      <line class="cls-7" x1="240.86" y1="-282.05" x2="240.86" y2="672.59"/>
      <line class="cls-7" x1="199.36" y1="-282.05" x2="199.36" y2="672.59"/>
      <line class="cls-7" x1="282.35" y1="-282.05" x2="282.35" y2="672.59"/>
      <line class="cls-7" x1="302.56" y1="-282.05" x2="302.56" y2="672.59"/>
      <line class="cls-7" x1="261.06" y1="-282.05" x2="261.06" y2="672.59"/>
      <line class="cls-7" x1="323.85" y1="-282.05" x2="323.85" y2="672.59"/>
    </g>
  </g>
  <g id="Group_151" data-name="Group 151">
    <g id="Group_148" data-name="Group 148">
      <g class="cls-22">
        <g id="Group_147" data-name="Group 147">
          <rect id="Rectangle_114" data-name="Rectangle 114" class="cls-23" x="280.11" y="-132.43" width="296.77" height="297.57"/>
        </g>
      </g>
    </g>
    <g id="Group_149" data-name="Group 149">
      <g>
        <g class="cls-24">
          <g>
            <line class="cls-7" x1="4.67" y1="-215.53" x2="4.67" y2="739.11"/>
            <line class="cls-7" x1="46.17" y1="-215.53" x2="46.17" y2="739.11"/>
            <line class="cls-7" x1="66.37" y1="-215.53" x2="66.37" y2="739.11"/>
            <line class="cls-7" x1="24.88" y1="-215.53" x2="24.88" y2="739.11"/>
            <line class="cls-7" x1="87.66" y1="-215.53" x2="87.66" y2="739.11"/>
            <line class="cls-7" x1="107.87" y1="-215.53" x2="107.87" y2="739.11"/>
            <line class="cls-7" x1="149.37" y1="-215.53" x2="149.37" y2="739.11"/>
            <line class="cls-7" x1="169.57" y1="-215.53" x2="169.57" y2="739.11"/>
            <line class="cls-7" x1="128.08" y1="-215.53" x2="128.08" y2="739.11"/>
            <line class="cls-7" x1="211.07" y1="-215.53" x2="211.07" y2="739.11"/>
            <line class="cls-7" x1="231.28" y1="-215.53" x2="231.28" y2="739.11"/>
            <line class="cls-7" x1="189.78" y1="-215.53" x2="189.78" y2="739.11"/>
            <line class="cls-7" x1="252.56" y1="-215.53" x2="252.56" y2="739.11"/>
            <line class="cls-7" x1="272.77" y1="-215.53" x2="272.77" y2="739.11"/>
            <line class="cls-7" x1="314.27" y1="-215.53" x2="314.27" y2="739.11"/>
            <line class="cls-7" x1="292.98" y1="-215.53" x2="292.98" y2="739.11"/>
          </g>
        </g>
        <path id="Path_200-2" data-name="Path 200" class="cls-5" d="M580.46,159.27c-11.68,11.68-70.9-6.44-104.59-40.13-26.3-26.3-26.19-57.11-9.42-73.88s46.16-18.3,73.88,9.42C576.29,90.64,592.41,147.31,580.46,159.27Z"/>
      </g>
    </g>
  </g>
</svg>
